<?xml version="1.0" standalone="no"?><!DOCTYPE svg PUBLIC "-//W3C//DTD SVG 1.1//EN" "http://www.w3.org/Graphics/SVG/1.1/DTD/svg11.dtd"><svg t="1645866062891" class="icon" viewBox="0 0 1554 1024" version="1.1" xmlns="http://www.w3.org/2000/svg" p-id="6006" xmlns:xlink="http://www.w3.org/1999/xlink" width="303.515625" height="200"><defs><style type="text/css"></style></defs><path d="M514.195342 1024a49.408 49.408 0 0 1-35.015111-14.506667L15.535787 545.991111a49.550222 49.550222 0 1 1 70.087111-70.058667l463.502222 463.502223a49.550222 49.550222 0 0 1-35.015111 84.593777zM51.830898 560.440889a49.550222 49.550222 0 0 1-35.015111-84.593778L478.184676 14.478222a49.550222 49.550222 0 0 1 69.973333 70.058667l-461.368889 461.368889a49.408 49.408 0 0 1-34.958222 14.535111z m1452.913778 0.568889h-1453.511112a49.550222 49.550222 0 1 1 0-99.100445h1453.511112a49.550222 49.550222 0 0 1 0 99.100445z" p-id="6007" fill="#2c2c2c"></path></svg>