<?xml version="1.0" encoding="UTF-8" standalone="no"?>
<svg
   xmlns:dc="http://purl.org/dc/elements/1.1/"
   xmlns:cc="http://creativecommons.org/ns#"
   xmlns:rdf="http://www.w3.org/1999/02/22-rdf-syntax-ns#"
   xmlns:svg="http://www.w3.org/2000/svg"
   xmlns="http://www.w3.org/2000/svg"
   xmlns:sodipodi="http://sodipodi.sourceforge.net/DTD/sodipodi-0.dtd"
   xmlns:inkscape="http://www.inkscape.org/namespaces/inkscape"
   width="134"
   height="203"
   viewBox="0 0 134 203"
   fill="none"
   version="1.1"
   id="svg4"
   sodipodi:docname="alpine-skiing.svg"
   inkscape:version="0.92.1 r15371">
  <metadata
     id="metadata10">
    <rdf:RDF>
      <cc:Work
         rdf:about="">
        <dc:format>image/svg+xml</dc:format>
        <dc:type
           rdf:resource="http://purl.org/dc/dcmitype/StillImage" />
        <dc:title></dc:title>
      </cc:Work>
    </rdf:RDF>
  </metadata>
  <defs
     id="defs8" />
  <sodipodi:namedview
     pagecolor="#ffffff"
     bordercolor="#666666"
     borderopacity="1"
     objecttolerance="10"
     gridtolerance="10"
     guidetolerance="10"
     inkscape:pageopacity="0"
     inkscape:pageshadow="2"
     inkscape:window-width="2880"
     inkscape:window-height="1526"
     id="namedview6"
     showgrid="false"
     inkscape:zoom="1.1625616"
     inkscape:cx="67"
     inkscape:cy="101.5"
     inkscape:window-x="-11"
     inkscape:window-y="-11"
     inkscape:window-maximized="1"
     inkscape:current-layer="svg4" />
  <path
     d="M133.664 23.4623C133.664 22.7822 134 22.4422 134 22.1022V20.742C134 20.402 134 20.402 134 20.062C134 19.7219 133.664 19.7219 133.664 19.3819C133.328 19.3819 133.328 19.0419 133.328 18.7018V18.0218V17.0017V15.9816V15.3015C133.328 14.6214 133.664 13.6013 133.664 12.9213C133.664 12.5812 133.328 12.2412 133.328 12.2412C133.328 11.5611 132.992 11.2211 132.992 10.541C133.328 10.541 132.992 10.201 132.992 10.201C132.657 9.52094 131.985 8.84087 131.649 7.82077C131.649 7.48074 131.313 7.1407 131.313 7.1407C130.977 6.80067 130.642 6.1206 130.306 5.44054C129.97 5.1005 129.97 4.76047 129.97 4.42044C129.634 3.74037 129.298 3.74037 129.298 3.0603C128.962 2.72027 128.627 2.38023 127.955 2.38023C126.612 2.38023 125.268 1.70017 124.261 0.680067C124.261 0.340034 124.261 0.340034 123.589 0H121.91C121.238 0 121.238 0 120.902 0.340034C120.902 0.680067 120.566 0.680067 120.566 0.340034C120.566 0 120.231 0 119.895 0H118.216H117.88C117.544 0.340034 117.208 0.340034 116.872 0.340034H115.529L115.193 0.680067H114.857C114.521 0.340034 114.185 0.340034 114.185 0.340034C113.514 0.340034 113.178 0 112.842 0.680067C112.842 0.680067 112.842 1.0201 112.506 1.0201C112.17 0.340034 111.499 0 110.827 0C110.155 0.340034 109.82 0.340034 109.148 0.340034C108.812 0.340034 108.476 0.340034 108.476 0.680067C108.476 1.0201 108.476 1.0201 108.14 1.36013L107.469 0.680067C107.133 0.340034 107.133 0.340034 106.797 0.340034H105.789C105.118 0.680067 104.446 1.0201 103.774 1.36013C103.774 1.70017 103.439 2.0402 103.103 2.0402C102.767 2.38023 102.767 2.72027 102.767 2.72027C102.767 3.0603 102.431 3.40034 102.431 3.40034C102.095 3.0603 101.424 3.0603 101.088 2.38023C100.752 2.0402 100.752 1.70017 100.416 1.36013C100.08 1.0201 100.08 1.0201 99.7444 0.680067C99.0727 0.680067 98.401 0.680067 98.0652 1.0201H97.3935H97.0576H95.0426H93.0276H90.6767H86.9825C85.9749 1.0201 85.3033 1.36013 84.2957 1.36013H79.2581H77.5789C76.9073 1.36013 76.2356 1.36013 75.2281 1.0201H74.2206H69.5188H64.817H60.787H58.7719H58.1002H57.7644C57.0927 0.680067 57.0927 1.0201 56.421 1.0201H53.7343H53.0627H52.7268H51.0476H48.6967C48.6967 1.0201 48.3609 1.0201 48.3609 1.36013C47.6892 0.680067 47.3534 0.680067 46.6817 1.0201C46.3459 1.36013 46.3459 1.0201 46.3459 1.0201H46.01H43.6591C43.3233 1.0201 42.9875 1.0201 42.9875 1.36013C42.3158 1.36013 42.3158 1.70017 41.6441 1.70017C41.3083 1.70017 41.3083 1.70017 40.6366 1.36013C40.3008 1.36013 40.3008 1.0201 39.6291 1.0201H38.2857C37.614 1.0201 37.614 1.0201 37.614 1.70017C37.9499 2.0402 37.9499 2.38023 38.2857 2.72027C37.614 3.0603 37.614 2.72027 37.2782 2.38023C37.2782 2.0402 36.9424 2.0402 36.9424 1.70017C36.6065 1.36013 36.6065 1.36013 36.2707 1.70017C36.2707 2.0402 36.2707 2.0402 35.599 2.0402V0.680067H34.9273H32.9123C32.5764 0.680067 32.2406 1.0201 31.5689 1.0201C30.8972 1.36013 30.2256 1.70017 29.5539 1.70017C29.5539 1.36013 29.218 1.70017 28.8822 1.70017C28.8822 2.0402 29.218 2.0402 29.218 2.38023C28.8822 2.72027 28.8822 3.0603 28.5464 2.38023L27.8747 1.70017C27.5388 1.70017 26.8672 1.70017 26.5313 2.0402H25.5238H24.1804C23.5088 2.0402 22.8371 2.0402 22.5013 2.0402H17.4637H14.1053C13.7694 2.0402 13.4336 2.0402 13.4336 2.38023H12.4261H8.39599C8.06015 2.38023 8.06015 2.38023 7.72431 2.72027C7.72431 3.0603 7.72431 3.0603 7.38847 3.0603C7.05263 3.0603 6.71679 2.72027 6.38095 3.40034V3.74037C6.38095 4.0804 6.04511 4.0804 6.04511 3.74037H5.37343C5.03759 3.40034 4.70175 3.40034 4.36591 3.74037C4.03007 4.0804 3.69424 4.76047 3.3584 5.1005C3.3584 5.44054 3.02256 5.44054 3.02256 5.78057C2.68672 5.78057 2.68672 5.78057 2.35088 6.1206C2.35088 6.46064 2.01504 6.46064 2.01504 6.80067C2.01504 7.1407 2.01504 7.48074 1.6792 7.48074C1.6792 7.48074 1.34336 7.82077 1.34336 8.50084V9.52094C1.34336 9.86097 1.34336 10.201 1.00752 10.201C0.671679 10.201 0.671679 10.541 0.671679 10.8811V13.6013V15.6415C0.671679 15.6415 0.671679 15.9816 0.671679 16.3216V17.0017C0.671679 17.0017 0.33584 17.0017 0.33584 17.3417C0.33584 17.6817 0.33584 17.6817 1.00752 18.0218C1.00752 18.7018 1.00752 18.7018 0.33584 18.7018C0.33584 19.0419 0 19.3819 0.33584 19.7219V20.742C0.33584 21.0821 0.671679 21.4221 0.671679 21.7621C0.33584 21.7621 0.33584 22.1022 0.33584 22.4422C0.671679 23.4623 0.671679 24.4824 0.671679 25.1625C0.33584 25.8425 0.671679 26.1826 1.00752 26.8626C1.34336 26.8626 1.34336 27.2027 1.6792 27.2027C2.01504 27.8827 2.01504 28.2228 2.68672 28.5628C2.68672 28.9028 3.02256 29.2429 3.3584 29.2429C3.3584 29.923 3.3584 30.9431 3.3584 31.6231C3.3584 31.9632 3.69424 32.3032 3.3584 32.6432V33.3233C3.69424 33.6633 3.3584 34.0034 3.3584 34.3434C3.3584 34.3434 3.69424 34.3434 3.69424 34.6834C3.3584 35.0234 3.3584 35.3635 3.69424 35.3635C4.03008 35.7035 4.03008 36.0436 4.03008 36.3836C4.03008 36.7236 4.03008 37.0637 3.69424 37.4037C3.69424 37.4037 3.69424 37.7437 3.3584 38.4238C3.02256 38.7638 3.02256 39.1039 3.02256 39.1039C3.02256 39.1039 2.68672 39.4439 2.35088 39.7839C2.35088 40.124 2.01504 40.464 2.01504 40.804C2.01504 41.1441 1.6792 41.4841 1.34336 41.4841V42.1642C1.00752 42.1642 1.00752 42.5042 1.00752 42.5042C0.671679 43.1843 0.671679 43.5243 0.671679 44.2044V45.9045C1.00752 45.9045 1.00752 46.2446 1.00752 46.2446C0.671679 46.9246 0.671679 47.6047 0.671679 47.9447V49.9849C0.671679 50.665 1.00752 51.005 1.00752 51.6851V52.3652C0.671679 53.0452 1.00752 53.7253 1.00752 54.4054C1.34336 54.7454 1.34336 55.0854 1.34336 55.7655C1.34336 56.4456 1.6792 56.7856 1.34336 57.4657C1.34336 58.1457 1.00752 58.4858 1.6792 59.1658C1.6792 59.8459 1.6792 59.8459 1.34336 60.526V61.8861L1.00752 61.206C0.671679 61.5461 0.671679 61.8861 0.671679 62.2261V64.2663C1.00752 65.2864 1.00752 65.9665 1.00752 66.9866V71.067V73.7873C1.00752 74.8074 1.00752 75.8275 1.34336 76.8476V80.5879V82.2881L3.3584 83.6482C3.69424 83.6482 4.03008 83.6482 4.03008 83.9883C4.36591 84.3283 4.36591 84.6683 4.70175 84.6683C5.03759 84.6683 5.03759 85.0084 5.37343 85.3484C5.70927 85.3484 5.70927 85.3484 6.04511 85.6884H6.38095V85.0084C6.38095 84.6683 6.38095 84.6683 6.71679 84.6683C7.05263 84.6683 7.38847 84.3283 7.72431 84.3283C8.06015 83.9883 8.39599 83.9883 8.39599 83.9883C8.73183 83.6482 8.73183 83.6482 9.06767 83.6482H9.73935C10.0752 83.3082 10.0752 83.3082 10.0752 83.3082C10.0752 83.6482 10.0752 83.6482 10.0752 83.3082C10.7469 83.3082 10.7469 83.3082 10.7469 82.9682C11.0827 82.6281 11.0827 82.6281 11.4185 82.6281V82.2881H11.7544C12.0902 82.6281 12.4261 82.2881 12.4261 82.2881C12.7619 81.9481 13.4336 81.608 13.7694 81.608H14.1053L14.7769 80.928C15.1128 80.5879 15.1128 80.5879 15.1128 80.2479L15.4486 80.5879C15.7845 80.2479 15.4486 79.9079 15.4486 79.9079C15.7845 79.5678 16.1203 79.2278 16.1203 78.8878C16.1203 78.5477 16.4561 78.2077 16.4561 78.2077C16.792 77.8677 16.4561 77.8677 16.4561 77.5276L16.792 77.1876C17.1278 77.5276 17.1278 77.1876 17.4637 77.1876C17.7995 77.1876 17.7995 78.2077 17.7995 78.2077C18.1353 78.5477 18.4712 78.5477 18.4712 78.5477C18.807 79.2278 19.1429 79.2278 19.4787 79.2278C19.8145 79.2278 19.8145 79.2278 20.1504 79.5678H20.4862H20.8221C21.1579 79.9079 21.1579 79.9079 21.4937 79.5678H22.1654C22.1654 79.5678 22.1654 79.2278 22.5013 79.2278H22.8371L23.5088 78.5477V78.2077C23.8446 78.5477 23.8446 78.2077 24.1804 78.2077C24.1804 77.8677 24.5163 78.2077 24.8521 78.2077C25.5238 78.5477 25.5238 78.5477 26.1955 78.2077C26.5313 78.2077 26.5313 77.8677 26.8672 77.8677V78.2077C26.8672 78.5477 26.8672 78.5477 27.203 78.5477C27.203 78.5477 27.203 78.8878 27.5388 78.8878C27.5388 78.8878 27.8747 79.2278 28.2105 78.8878C28.5464 78.8878 28.5464 78.5477 28.5464 78.5477C27.8747 78.2077 28.2105 78.2077 28.5464 78.2077H28.8822C29.5539 78.2077 30.2256 78.2077 30.5614 77.5276C30.8972 77.5276 31.2331 77.5276 31.2331 77.1876L31.5689 77.5276H32.5764C33.584 77.1876 34.2556 76.8476 35.2632 76.5075C35.2632 76.5075 35.599 76.5075 35.9348 76.1675H36.2707C36.6065 76.1675 36.9424 76.1675 37.614 75.8275C37.614 76.1675 37.9499 76.5075 38.2857 76.5075C38.6216 76.8476 38.6216 76.8476 39.2932 76.5075C39.6291 76.5075 40.3008 76.1675 40.9724 75.8275C41.3083 75.8275 41.3083 75.4874 41.3083 75.1474C41.3083 74.8074 40.9724 74.4673 40.9724 74.4673H39.6291H39.2932C38.9574 74.1273 38.6216 73.7873 37.9499 73.7873H37.2782C36.9424 73.4472 36.9424 73.1072 36.6065 73.1072C34.9273 72.7672 33.2481 72.4271 31.2331 72.4271C30.8972 72.4271 30.8972 72.0871 30.5614 72.0871C30.5614 71.7471 30.5614 71.407 30.2256 70.727C30.5614 71.407 29.8897 71.407 29.5539 71.407V71.067C29.5539 70.3869 28.8822 70.0469 28.2105 69.7069C28.2105 69.7069 27.8747 69.7069 27.8747 69.3668C27.5388 68.6868 26.8672 68.0067 26.5313 67.3266C26.1955 66.6466 25.8596 65.9665 25.188 65.2864C24.8521 64.6064 24.5163 63.9263 23.8446 63.2462C23.8446 62.5662 23.5088 62.2261 23.1729 61.206C22.5013 60.1859 22.1654 59.5059 21.4937 58.4858C21.1579 57.8057 20.4862 57.1256 20.1504 56.4456C19.8145 56.4456 19.8145 56.1055 20.1504 55.7655C20.1504 55.0854 20.1504 55.0854 19.8145 54.4054V53.7253C19.8145 53.3853 20.1504 53.0452 20.4862 52.7052V52.0251V51.6851C20.8221 51.6851 20.8221 51.005 20.8221 51.005C20.8221 51.005 20.8221 50.325 21.1579 50.325C21.4937 51.005 21.8296 51.005 21.8296 50.665C22.1654 49.9849 22.5013 49.9849 22.8371 49.6449L23.1729 49.3049C23.1729 48.9648 23.5088 48.6248 23.5088 48.6248C23.5088 48.2848 23.5088 48.2848 23.8446 47.9447C24.1805 47.6047 24.1805 47.6047 24.5163 47.2647C24.8521 46.9246 25.188 46.5846 25.5238 46.5846C25.5238 45.9045 25.8596 45.9045 25.8596 45.9045C26.5313 45.5645 26.5313 45.2245 26.8672 44.8844C26.8672 44.5444 27.203 44.2044 27.5388 44.2044C27.8747 44.2044 27.8747 44.2044 27.8747 43.8643H28.5464C28.5464 44.2044 28.5464 43.8643 28.8822 43.8643C28.8822 43.5243 29.218 43.1843 29.5539 43.1843H29.8897C30.2256 42.8442 30.5614 42.8442 30.5614 42.8442C31.2331 42.5042 31.2331 42.1642 31.2331 41.8241V41.1441H31.9048C32.2406 40.804 32.5764 40.804 32.9123 40.804C33.2481 40.464 33.2481 40.804 33.2481 40.804C33.9198 40.804 33.9198 40.804 34.2556 41.1441H34.5915C34.9273 40.804 35.2632 41.1441 35.599 40.804H36.2707C36.6065 40.464 36.6065 40.124 36.9424 40.124H37.2782C36.9424 39.7839 36.9424 39.7839 36.9424 39.4439C36.2707 39.1039 36.2707 38.7638 35.9348 38.7638C35.599 38.4238 35.2632 38.0838 35.2632 38.0838C34.9273 37.7437 34.9273 37.7437 34.9273 37.7437C34.2556 37.7437 34.2556 37.0637 33.9198 36.7236C33.584 36.3836 33.584 36.0436 33.2481 36.0436V35.7035C32.9123 35.0235 32.9123 35.0234 32.2406 34.6834C31.9048 34.3434 31.5689 34.0033 31.5689 34.0033C31.2331 33.6633 31.2331 33.3233 31.2331 33.3233L30.8972 34.0033C30.8972 33.6633 30.5614 33.3233 30.5614 33.3233C30.2256 33.3233 29.8897 32.9832 29.8897 32.9832C29.5539 32.6432 29.5539 32.6432 29.5539 32.3032C29.218 32.3032 29.218 31.9632 28.8822 31.6231C28.8822 31.6231 28.8822 31.9632 28.8822 31.6231C28.5464 31.6231 28.2105 31.2831 27.8747 31.2831H27.5388C27.5388 30.943 27.203 30.603 26.5313 30.603C26.1955 29.9229 25.8596 29.2429 25.5238 29.2429C25.5238 28.9028 25.188 28.5628 24.8521 28.5628C24.5163 28.5628 24.5163 28.2228 24.5163 27.8827L24.1804 27.5427C23.8446 27.5427 23.5088 27.2027 23.5088 26.8626C23.1729 26.5226 22.8371 26.5226 22.5013 26.1826C22.1654 26.1826 22.1654 26.1826 22.1654 25.8425C22.1654 25.8425 21.8296 25.8425 21.4937 25.5025C21.4937 25.1625 21.1579 24.4824 20.4862 24.1424V23.8023C20.1504 23.4623 19.8145 23.4623 19.4787 23.1223C19.1429 23.1223 18.807 22.7822 18.807 22.4422C18.4712 22.7822 18.1353 22.4422 17.7995 21.7621C17.7995 21.7621 17.7995 21.4221 17.4637 21.4221C17.4637 21.0821 17.4637 21.0821 17.1278 21.0821C17.4637 21.7621 17.1278 21.4221 16.792 21.0821C16.4561 21.0821 16.4561 20.742 16.1203 20.742C16.1203 20.742 15.7845 20.742 15.7845 20.402C15.7845 20.402 15.7845 20.402 15.7845 20.062C15.4486 19.7219 15.1128 19.3819 14.7769 19.0419H14.4411C14.4411 19.0419 14.1053 19.0419 14.1053 18.7018C13.7694 18.3618 13.4336 18.0218 13.4336 18.0218V17.6817C13.0977 17.6817 12.7619 17.6817 12.7619 17.3417H12.0902H11.7544C11.4185 17.0017 11.4185 16.6616 11.4185 16.3216C11.4185 15.9816 11.7544 15.6415 11.7544 15.6415C12.0902 15.3015 12.0902 14.9615 12.4261 14.9615C12.7619 14.9615 12.7619 14.9615 12.7619 14.6214C12.7619 14.6214 13.0977 14.2814 13.4336 14.2814C13.4336 14.2814 13.7694 14.2814 13.7694 13.9414H14.4411C14.7769 13.6013 14.7769 13.6013 14.7769 13.9414C15.1128 14.2814 15.4486 14.2814 15.4486 14.6214H15.7845C16.1203 14.6214 16.1203 14.6214 16.1203 14.2814C16.4561 14.2814 16.4561 14.2814 16.792 14.9615C17.1278 14.9615 17.4637 14.9615 17.7995 15.3015C17.7995 15.3015 18.1353 15.6415 18.1353 15.9816C18.4712 16.3216 18.4712 16.6616 18.807 16.6616C19.1429 17.0017 19.1429 17.0017 19.1429 16.6616C19.4787 16.6616 19.4787 16.3216 19.8145 16.6616L19.4787 16.3216C19.4787 16.6616 19.4787 17.0017 19.4787 17.0017L19.8145 17.3417C20.1504 17.3417 20.4862 17.6817 20.4862 17.6817C20.8221 17.6817 20.8221 18.0218 20.8221 18.3618C20.8221 18.7018 20.8221 19.0419 21.1579 19.0419C21.4937 19.0419 21.4937 19.3819 21.4937 19.7219L21.8296 20.062C22.5013 20.402 22.8371 20.742 23.1729 20.742V20.402C23.1729 20.742 23.5088 21.0821 23.5088 21.0821C23.8446 21.0821 23.8446 21.4221 23.8446 21.7621L24.1804 22.1022C24.5163 22.1022 24.5163 22.4422 24.5163 22.7822L24.8521 23.1223C24.8521 23.1223 24.8521 23.4623 25.188 23.4623L25.5238 23.8023C25.8596 23.4623 25.8596 23.8023 26.1955 23.8023C26.1955 24.1424 26.5313 24.4824 26.5313 24.4824C27.203 24.4824 27.203 24.8224 27.203 25.1625C27.203 25.5025 27.5388 25.5025 27.5388 25.5025C27.8747 25.8425 27.8747 25.8425 27.8747 26.1826C27.8747 26.8626 28.2105 26.8626 28.5464 26.8626L28.8822 27.2027C29.218 27.2027 29.5539 27.2027 29.5539 27.5427C29.5539 27.8827 29.8897 27.8827 29.8897 28.2228C30.5614 28.5628 30.5614 28.9028 30.5614 29.2429C30.8972 29.2429 30.8972 29.5829 30.8972 29.5829C31.5689 29.9229 31.5689 30.263 32.2406 30.603V31.2831H32.5764C32.5764 30.943 32.9123 31.2831 32.9123 31.2831C33.584 31.6231 33.584 31.9631 34.2556 31.9631C34.5915 32.6432 34.9273 32.6432 35.599 32.9832V33.3233C35.2632 33.6633 35.2632 34.0033 35.599 34.0033C35.9348 34.0033 35.9348 34.3434 36.2707 34.3434C36.6065 35.0235 36.9424 35.0234 37.2782 35.3635C37.614 35.7035 37.9499 36.0436 37.9499 36.0436V36.3836C38.6216 36.3836 38.6216 36.7236 38.6216 37.0637C38.9574 37.0637 39.2932 37.0637 39.2932 37.4037C39.2932 37.7437 39.6291 37.7437 39.6291 37.7437C39.6291 38.4238 39.9649 38.4238 39.9649 38.4238C40.3007 38.4238 40.3008 38.4238 40.3008 38.7638C40.3008 39.1039 40.6366 39.1039 40.6366 39.4439C40.9724 39.4439 41.3083 40.124 41.3083 40.124L41.6441 40.804C41.9799 40.804 41.9799 41.1441 41.9799 41.1441C42.3158 41.8241 42.6516 41.8241 43.3233 41.8241C43.6591 40.804 43.6591 40.804 43.6591 40.804C44.3308 41.4841 44.3308 41.4841 45.0025 41.4841C46.3459 41.8241 47.3534 41.8241 48.3609 41.8241C49.3684 42.1642 50.3759 42.1642 51.0476 42.1642C51.7193 42.1642 52.391 42.5042 53.3985 42.5042H55.7494C56.4211 42.8442 57.0927 42.8442 58.1002 42.8442C58.7719 42.8442 59.4436 43.1843 60.4511 43.1843C61.1228 43.1843 62.1303 43.1843 63.1378 43.5243H65.4887C66.1604 43.5243 67.1679 43.8643 67.8396 43.8643C68.8471 43.8643 69.8546 44.2044 71.198 44.2044H71.8697C72.2055 44.2044 72.2055 44.2044 72.5414 44.5444C72.8772 44.8844 73.5489 44.8844 73.8847 44.5444H74.2206C74.5564 44.5444 74.5564 44.5444 74.8922 44.8844C74.8922 44.8844 75.2281 44.8844 75.2281 45.2245C75.5639 45.2245 75.5639 45.2245 75.5639 45.5645C75.8997 46.2446 76.5714 46.5846 77.2431 46.2446V45.9045C77.5789 45.9045 78.2506 45.5645 78.5865 45.2245C78.9223 45.2245 78.9223 45.2245 78.9223 45.5645C79.594 46.2446 80.2657 46.5846 81.2732 46.5846H81.609C81.9449 46.9246 81.9449 47.2647 82.2807 47.6047L82.6165 47.9447C82.9524 48.6248 82.9524 48.9648 83.6241 49.6449C83.9599 48.9648 83.9599 48.6248 83.6241 47.9447C83.2882 47.6047 83.6241 47.2647 83.2882 47.2647V46.5846C83.2882 46.2446 83.2882 45.9045 82.9524 45.5645C82.9524 44.8844 82.6165 44.2044 82.6165 43.8643C82.2807 43.1843 81.9449 42.5042 81.9449 41.8241C81.9449 41.4841 81.609 41.1441 81.609 41.1441C81.9449 40.464 81.9449 39.4439 82.2807 39.1039C82.6165 39.1039 82.9524 39.4439 83.2882 39.1039C84.2957 39.1039 84.9674 39.1039 85.6391 38.7638H86.6466C86.9825 39.1039 87.3183 39.1039 87.6541 39.1039C87.99 39.1039 88.3258 38.7638 88.6617 39.1039C89.3333 39.4439 90.005 39.1039 90.3408 39.1039H91.0125C91.3484 39.4439 92.3559 39.1039 92.6917 39.4439C93.0276 39.4439 93.0276 39.1039 93.0276 39.4439C93.6992 39.4439 93.6992 39.7839 94.3709 39.4439C94.7068 39.4439 94.7068 39.4439 95.0426 39.7839C95.3784 40.124 95.7143 40.464 96.386 40.464C96.7218 40.804 97.3935 41.1441 97.7293 41.1441C98.7368 41.1441 99.4085 41.1441 100.08 41.8241H100.752C101.088 42.1642 101.424 42.5042 101.759 42.8442L102.431 43.5243C102.767 43.8643 102.767 43.8643 102.767 44.2044C103.439 44.5444 103.774 44.8844 104.446 45.2245C104.11 44.2044 104.11 44.8844 103.774 44.8844V45.5645C104.11 46.2446 103.774 46.5846 103.774 46.9246C103.439 47.2647 103.439 47.6047 103.439 47.6047V48.9648C103.439 49.9849 103.103 50.665 103.439 51.6851C103.439 52.0251 103.439 52.7052 103.103 53.0452C103.103 53.7253 102.431 53.7253 102.095 53.7253H100.752C100.416 53.7253 100.08 53.7253 99.4085 54.0653C99.0727 54.7454 98.401 54.7454 98.0652 55.0854C97.3935 55.4255 96.7218 55.7655 96.386 55.7655C95.7143 56.1055 95.0426 56.4456 94.3709 57.1256C93.6992 57.1256 92.6917 57.4657 92.02 57.1256C91.6842 56.7856 91.3484 57.1256 91.0125 57.1256C90.3409 57.4657 90.005 57.4657 89.3333 57.8057H88.6617C87.99 57.4657 87.99 57.4657 87.3183 57.1256C86.9825 56.7856 86.9825 56.7856 86.9825 56.4456C86.9825 56.1055 86.6466 55.7655 86.3108 55.7655C85.9749 55.4255 85.9749 55.0854 85.9749 55.0854V55.4255C86.3108 55.7655 85.9749 56.1055 85.9749 56.4456C85.9749 56.7856 85.6391 56.7856 85.6391 57.1256C85.3033 57.4657 85.3033 57.8057 85.3033 57.8057C84.9674 58.1457 84.9674 58.1457 84.9674 58.4858V58.8258C84.6316 59.1658 84.6316 59.5059 84.2957 59.5059V60.1859V60.526C84.2957 60.866 83.9599 60.866 83.9599 61.206C84.2957 60.526 83.9599 60.866 83.9599 61.206V61.5461C83.9599 61.8861 83.6241 61.8861 83.6241 61.8861V62.5662L83.2882 62.9062C83.6241 63.2462 83.2882 63.5863 83.2882 63.5863C83.2882 64.2663 82.9524 64.2663 82.9524 64.9464C82.6165 65.2864 82.6165 65.6265 82.6165 65.6265C82.6165 65.6265 82.6165 65.9665 82.2807 66.3065C82.2807 66.9866 81.609 67.3266 81.609 68.0067C81.609 68.3467 81.2732 68.6868 81.2732 69.0268C81.609 69.0268 81.2732 69.3668 81.2732 69.3668V69.7069C81.2732 70.0469 81.2732 70.3869 80.9373 70.3869C80.9373 70.727 80.6015 71.067 80.6015 71.067C80.6015 71.067 80.9373 71.7471 80.6015 72.0871C80.2657 72.0871 80.2657 72.4271 80.2657 72.7672H80.6015C80.6015 73.1072 80.2657 73.4472 80.2657 73.4472V73.7873C80.9373 74.4673 81.609 74.8074 82.2807 75.1474C82.6165 75.8275 82.9524 75.8275 83.2882 76.1675C83.6241 76.5075 83.9599 76.8476 84.2957 76.8476C84.9674 77.5276 85.6391 77.8677 86.6466 78.5477C87.3183 79.2278 87.99 79.5678 88.3258 79.9079C88.9975 80.5879 88.9975 80.5879 89.3333 80.928C89.6692 81.268 89.6692 81.608 90.3408 81.608C90.6767 82.2881 91.3484 82.6281 92.02 83.3082L92.3559 83.9883C93.0276 84.3283 93.0276 84.6683 93.6992 84.6683C94.0351 84.6683 94.0351 85.0084 94.0351 85.0084C94.3709 85.3484 94.3709 85.3484 94.3709 85.6884C94.7068 85.6884 95.0426 86.0285 95.0426 86.0285C95.0426 86.3685 95.3784 86.7085 95.3784 86.7085V85.0084C95.7143 85.0084 96.0501 85.0084 96.0501 85.3484C96.386 85.3484 96.386 85.6884 96.386 85.6884C96.7218 86.3685 97.0576 86.3685 97.0576 86.7085C97.0576 87.0486 97.3935 87.0486 97.3935 87.3886C97.7293 87.3886 97.7293 87.3886 97.7293 87.7286C97.7293 88.0687 98.0652 88.4087 98.401 88.7487C98.7368 89.0888 98.7368 89.4288 98.7368 89.4288C98.7368 89.7688 99.0727 90.1089 98.7368 90.1089H98.0652C98.0652 90.1089 97.7293 90.1089 97.7293 90.4489C97.3935 90.7889 97.3935 91.129 97.3935 91.129H97.0576C96.7218 91.129 96.7218 91.469 96.7218 91.809H96.386C96.0501 92.1491 96.0501 92.4891 96.0501 92.4891C95.3784 92.8291 95.3784 93.1692 94.3709 93.1692C94.0351 93.8492 93.3634 94.1893 92.6917 94.8693C92.3559 95.2094 92.3559 95.5494 92.3559 95.5494C92.02 95.8895 92.02 96.2295 92.02 96.2295C92.02 96.2295 91.6842 96.5695 91.3484 96.5695C91.0125 96.2295 91.0125 95.8895 90.6767 95.8895C90.6767 95.5494 90.3408 95.8895 90.005 95.5494H89.6692C89.3333 95.2094 88.9975 95.2094 88.9975 95.2094C88.6617 94.8693 88.6617 94.8693 88.6617 94.5293C88.3258 94.5293 87.99 94.1893 87.99 94.1893H87.3183C86.9825 93.8493 86.9825 93.8493 86.6466 93.5092C86.3108 93.1692 85.9749 92.8291 85.3033 92.8291H84.6316C84.2957 92.4891 84.2957 92.4891 83.9599 92.8291C83.6241 92.8291 83.6241 92.4891 82.9524 92.4891H83.9599H83.2882C82.9524 92.4891 82.9524 92.1491 82.6165 92.4891C81.9449 92.4891 81.9449 92.1491 81.9449 91.809C81.609 92.1491 81.609 92.1491 81.2732 91.809H80.6015H79.9298C79.9298 91.469 79.9298 91.469 79.594 91.469H79.2581C78.9223 91.809 78.5865 91.809 78.2506 91.469H77.9148H77.5789C77.5789 91.129 77.9148 91.129 77.9148 91.129L77.5789 90.7889C77.5789 91.129 77.5789 91.129 77.2431 91.469C76.9073 91.469 76.5714 91.129 76.2356 91.129C75.8997 91.469 75.5639 91.129 75.2281 91.129C74.8922 91.469 74.5564 91.129 74.2206 91.469C73.8847 91.809 73.8847 91.809 73.5489 91.809C73.213 92.1491 72.8772 92.1491 72.8772 91.809H72.5414C72.2055 92.1491 72.2055 92.1491 71.8697 92.1491C71.5338 91.8091 70.8622 91.8091 70.1905 92.1491H69.5188H68.5113H67.8396H67.1679L66.8321 92.4891C66.8321 92.4891 66.4962 92.4891 66.4962 92.1491C66.8321 91.8091 66.8321 91.809 66.1604 91.809C65.8246 91.469 65.8246 91.469 65.8246 91.469V91.129C65.8246 90.7889 65.8246 90.4489 65.4887 90.4489C65.1529 90.4489 65.1529 90.1089 65.1529 90.1089L64.817 89.7688C64.817 89.4288 64.817 89.0888 64.4812 89.0888L64.1454 88.7487C64.1454 88.0687 63.8095 88.0687 63.4737 87.7286C63.1378 87.7286 62.802 87.3886 62.802 87.0486C62.4662 86.7085 62.4662 86.3685 62.4662 86.3685C62.1303 86.3685 62.1303 86.0285 61.7945 86.0285C61.7945 86.0285 61.4586 86.0285 61.4586 85.6884C61.4586 85.6884 61.1228 85.6884 61.1228 85.3484C60.787 85.0084 60.787 84.6683 60.4511 84.6683C61.1228 85.0084 60.787 85.0084 60.787 85.0084C60.1153 84.3283 59.7794 84.3283 59.1078 84.6683C58.1003 85.0084 56.7569 85.3484 55.7494 85.6884C54.406 86.3685 53.0627 86.7085 51.3835 87.3886C49.7043 88.0687 48.0251 88.4087 46.6817 89.0888C45.3383 89.7689 43.3233 90.1089 41.9799 90.7889C40.9724 91.469 40.3008 91.469 39.2932 91.809C37.9499 92.4891 36.9424 92.4891 35.9348 93.1692C34.5915 93.8492 33.2481 93.8492 31.9048 94.5293C31.2331 94.8693 30.2256 95.2094 29.5539 95.2094C27.8747 95.8895 26.1955 96.5695 24.1804 96.9095C23.1729 97.2496 22.1654 97.5896 21.1579 97.9296C20.8221 97.9296 20.4862 98.2697 20.1504 98.2697C19.4787 98.6097 18.807 99.2898 19.1429 99.9698C19.4787 100.31 19.4787 100.31 19.4787 100.65C19.4787 100.99 19.8145 101.33 20.1504 101.33C20.4862 101.33 20.4862 101.33 20.4862 101.67C20.4862 101.33 20.8221 102.01 21.4937 102.01C21.4937 102.35 21.8296 102.69 22.1654 102.69C22.1654 102.69 22.5013 103.03 22.5013 103.37C22.8371 103.71 23.1729 104.05 23.1729 104.05C23.5088 104.05 23.5088 104.05 23.5088 104.39L23.8446 104.73C24.5163 104.73 24.5163 105.07 24.8521 105.41H25.188C25.5238 105.41 25.5238 105.41 25.5238 106.09H25.8596C25.8596 106.09 26.1955 106.09 26.1955 106.43C26.8672 106.771 27.203 107.111 27.5388 107.791C27.8747 107.791 27.8747 108.131 27.8747 108.471C28.2105 108.471 28.5464 108.811 28.5464 108.811L29.218 109.491C29.5539 109.491 29.5539 109.831 29.8897 109.831C29.8897 110.171 29.8897 110.171 30.2256 110.511C30.5614 110.511 30.5614 110.851 30.8972 110.851L31.2331 111.191L31.5689 111.531L32.2406 112.211C32.5764 112.211 32.5764 112.551 32.5764 112.551C32.5764 112.891 32.9123 113.231 33.2481 113.231L33.9198 113.911C34.2556 114.251 34.2556 114.251 34.5915 114.591H34.9273C34.9273 114.931 35.2632 114.931 35.599 115.271C35.9348 115.271 36.2707 115.271 36.2707 115.951L36.6065 116.291L36.9424 116.631C37.2782 116.972 37.614 117.312 37.614 117.312C37.614 117.652 37.9499 117.652 37.9499 117.992C37.9499 118.332 37.9499 118.332 38.2857 118.332C38.6216 118.332 38.9574 119.012 39.2932 119.012L39.6291 119.352C39.9649 119.692 39.9649 120.032 39.9649 120.032C39.9649 120.032 39.9649 120.372 40.3008 120.372C40.6366 120.372 40.6366 121.052 41.3083 121.052V119.012L41.6441 119.692C41.9799 119.692 42.3158 119.692 42.3158 120.032C42.6516 120.372 42.6516 120.372 42.6516 120.372C42.9875 120.712 43.6591 121.052 43.995 121.732C44.3308 121.732 44.3308 122.072 44.6667 122.072C44.6667 122.412 45.0025 122.412 45.3383 122.412V122.752V123.092C45.6742 123.432 46.01 124.112 46.6817 124.112L46.3459 124.452C46.6817 124.452 46.6817 124.112 47.0175 124.112C47.3534 124.112 47.3534 124.112 47.3534 124.452C47.6892 124.792 47.6892 125.132 48.0251 125.132V125.472C48.3609 125.812 48.6967 125.812 48.6967 125.812C49.0326 125.472 49.0326 125.472 49.0326 125.812C49.3684 125.812 49.7043 126.152 49.7043 126.492C49.7043 126.833 50.0401 126.832 50.3759 126.832H50.7118C50.7118 127.173 51.0476 127.173 51.0476 127.513C51.7193 127.853 51.7193 128.193 52.391 128.193L52.7268 128.533L53.0627 128.873C53.7343 129.553 54.0702 129.553 54.406 129.553C54.7419 129.553 55.0777 129.553 55.0777 129.893C55.7494 130.233 56.4211 130.573 57.0927 130.573C57.4286 130.573 57.7644 130.913 58.4361 130.913C59.1078 131.593 59.7794 131.593 60.4511 131.593H61.1228C61.4586 131.593 61.7945 131.593 62.1303 131.933C62.4662 131.933 62.4662 132.273 62.4662 131.933C62.802 131.933 62.802 131.933 63.1378 132.273H63.4737C64.1454 132.613 64.817 132.613 65.4887 132.953H67.5038C67.8396 132.953 68.1754 133.293 68.8471 133.293H69.5188C69.8546 133.633 70.5263 133.973 70.8622 133.633C70.8622 133.633 71.198 133.633 71.5338 133.973C71.8697 134.313 72.2055 134.313 72.8772 134.313H73.5489V132.613C73.213 132.953 72.8772 133.293 72.8772 133.293C72.5414 133.293 72.2055 133.293 72.2055 133.633C71.8697 133.973 71.5338 133.973 71.5338 133.973C71.198 134.313 70.5263 134.653 70.1905 134.653C69.8546 134.653 69.5188 134.993 69.183 135.333L68.8471 135.673C68.1754 135.673 67.5038 136.353 67.1679 136.353C66.8321 136.693 66.4962 136.693 66.4962 137.034C65.8246 137.034 65.1529 137.374 64.4812 137.714C63.4737 138.054 62.4662 138.394 61.7945 138.394C61.4586 138.734 61.1228 138.734 60.787 138.394H60.4511C59.7794 138.394 59.1078 138.054 58.7719 137.714C58.7719 137.714 58.4361 137.714 58.4361 137.374C57.7644 137.034 57.0927 136.693 56.7569 136.693C56.421 136.013 56.0852 136.013 55.4135 136.013C54.7419 135.673 54.7419 135.673 54.0702 135.333C53.7343 134.993 53.3985 134.993 53.0627 134.653C52.7268 134.313 52.391 133.973 52.0551 133.973C51.7193 133.633 51.0476 133.633 50.7118 133.293C50.3759 133.293 50.0401 132.953 49.3684 132.613C49.0326 132.613 48.6967 132.273 48.6967 132.273C48.0251 131.933 48.0251 131.593 47.6892 131.593C47.6892 131.253 47.3534 131.253 47.3534 131.253C47.0175 131.253 46.6817 130.573 46.01 130.573C46.01 130.233 45.6742 130.233 45.3383 129.893C45.0025 129.213 44.6667 129.213 43.995 128.873C43.6591 128.533 43.6591 128.533 43.6591 128.193C43.3233 128.193 43.3233 127.853 42.9875 127.513C42.6516 126.832 42.6516 126.833 41.9799 126.492C41.3083 126.152 40.9724 126.152 40.3008 125.812V125.472C39.9649 125.472 39.6291 124.792 39.6291 124.452C39.2932 124.792 38.9574 124.112 38.6216 123.772C38.2857 123.432 38.2857 123.092 37.9499 123.092C37.614 123.092 37.614 122.752 37.614 122.412C37.614 122.412 37.2782 122.412 37.2782 122.072C37.2782 121.732 37.2782 121.392 36.9424 121.392C36.6065 121.392 36.2707 121.392 36.2707 121.052C35.9348 120.372 35.599 120.372 35.2632 120.032C34.9273 119.692 34.2556 119.352 33.9198 119.352C33.584 119.012 33.584 119.012 33.2481 119.012L32.9123 118.672V119.012C32.2406 119.012 32.2406 118.672 32.2406 118.332L31.9048 117.992C31.5689 117.652 30.8972 116.972 30.5614 116.291C30.2256 115.951 29.8897 115.611 29.5539 115.611C28.8822 115.611 28.5464 115.611 28.5464 115.271C28.2105 114.931 28.2105 114.931 28.2105 114.931H27.8747L27.203 114.251C27.203 113.911 26.8672 113.571 26.5313 113.571C26.1955 113.231 26.1955 112.891 25.8596 112.891L25.5238 112.551C25.188 112.551 25.188 112.551 25.188 112.211C25.188 112.211 24.8521 112.211 24.5163 112.211V111.871C24.1805 111.531 23.8446 111.191 23.8446 111.191C23.5088 111.191 23.5088 111.191 23.5088 110.851C23.1729 110.851 23.1729 110.851 23.1729 110.511C22.8371 110.171 22.5013 109.831 22.5013 109.491C22.1654 109.491 22.1654 109.151 21.8296 108.811C21.4937 108.811 21.1579 108.811 21.1579 108.471C20.8221 108.471 20.8221 108.471 20.8221 108.131L20.4862 107.451V107.111C20.1504 106.771 20.1504 106.771 19.8145 106.43C19.4787 106.09 19.4787 105.75 19.1429 105.75C19.1429 105.41 19.1429 105.41 18.807 105.41C18.4712 105.41 18.4712 105.07 18.1353 104.73C17.7995 104.73 17.4637 104.39 17.1278 104.05V103.71L16.792 104.73C16.792 104.39 16.4561 104.39 16.4561 104.05C16.1203 103.37 15.7845 103.37 15.1128 103.37V103.03L14.4411 102.35L14.1053 102.01C13.4336 102.01 13.4336 101.33 13.4336 101.33C13.0977 101.33 13.0977 100.99 12.7619 100.99C12.4261 100.65 11.7544 100.31 11.4185 99.9698C11.0827 99.6298 10.7469 99.2898 10.411 99.2898C10.0752 99.2898 10.0752 98.6097 9.40351 98.2697C9.06767 98.2697 8.73183 97.9296 8.73183 97.9296C8.06015 97.5896 8.06015 97.5896 8.06015 97.2496C8.06015 96.9096 7.72431 96.9095 7.72431 96.9095C7.38847 96.5695 7.38847 96.5695 7.38847 96.2295C6.71679 96.2295 6.38095 95.8895 6.04511 95.5494C5.70927 95.2094 5.70927 95.2094 5.37343 94.8693C5.37343 94.5293 0.671679 90.7889 0.671679 90.4489C0.671679 90.4489 0.671679 90.1089 0.33584 89.7688C0.33584 94.1893 0 97.9296 0 97.9296V99.6298C0.33584 100.31 0.33584 100.99 0 101.67V103.37V103.71C0.33584 104.39 0.33584 105.07 0.33584 105.41C0.33584 105.41 0.33584 105.75 0.671679 105.75V105.41C0.671679 106.09 0.671679 106.43 0.33584 106.771V107.111V109.831V111.531V111.871C0.671679 112.551 0.33584 113.571 0.33584 114.591C0.671679 115.271 0.33584 115.611 0.33584 116.291C0.33584 116.972 0.671679 117.312 0.671679 117.992C0.671679 118.672 0.671679 119.692 1.00752 120.032C1.00752 121.052 1.34336 122.072 1.00752 122.752V124.112C1.00752 124.792 1.34336 125.812 1.00752 126.492V127.513C1.00752 128.533 1.34336 129.213 1.00752 130.233V131.253V133.973V134.993V137.374V138.394C1.34336 139.074 1.00752 140.094 1.00752 141.114V142.134C1.00752 142.814 1.34336 143.834 1.00752 144.514V145.194C1.34336 146.554 1.34336 147.915 0.671679 148.935V149.955V151.655V152.675V155.055C0.33584 155.395 0.671679 155.735 0.671679 156.075V158.456C0.33584 159.136 0.33584 159.136 0.671679 159.816V162.196C0.33584 162.536 0.671679 162.876 0.671679 163.556V164.236V166.276V166.956V168.317C1.00752 168.657 0.671679 168.997 0.671679 169.337C0.33584 170.017 0.671679 170.357 0.671679 171.037V172.737V174.437V173.417C0.671679 174.097 0.671679 174.777 1.00752 175.117V176.817C1.34336 177.157 1.34336 177.497 1.34336 177.838C1.6792 178.858 1.6792 180.218 1.6792 181.238C1.34336 181.578 1.34336 181.918 1.6792 182.258V184.298C1.34336 184.978 1.6792 185.658 1.6792 186.338V188.039C1.34336 188.719 1.6792 189.399 1.6792 190.079C1.6792 190.759 2.01504 190.759 2.01504 191.439C2.35088 192.119 2.35088 193.139 2.68672 194.159C2.68672 194.499 2.68672 194.839 3.02256 194.839C3.3584 195.179 4.36591 196.199 4.36591 197.219C4.70175 197.9 4.70175 197.9 4.70175 197.9C5.37343 198.24 6.04511 198.58 6.38095 199.26C6.71679 199.94 7.38847 199.94 7.72431 199.94H8.73183C9.06767 200.28 9.06767 200.28 9.40351 200.62H10.0752L10.411 200.96H11.7544C12.0902 200.96 12.7619 201.3 13.0977 201.3C14.1053 201.64 14.7769 201.98 15.7845 201.64C16.4561 201.64 16.4561 201.98 17.1278 201.98C17.4637 202.32 17.4637 202.66 17.7995 202.32H18.1353H18.807C18.807 202.32 19.1429 202.32 19.1429 201.98L19.4787 202.32C19.8145 201.98 20.4862 202.32 20.8221 202.32C21.1579 202.32 21.1579 201.98 21.4937 201.98C21.8296 201.64 22.1654 201.3 22.1654 201.3C23.5088 200.28 23.5088 200.28 23.5088 200.28C23.8446 200.28 23.8446 200.28 23.8446 200.62C23.8446 200.96 24.1805 201.3 24.5163 201.98C24.8521 201.98 25.188 201.98 25.188 201.64C26.1955 201.3 27.203 201.64 28.2105 201.98C28.5464 201.98 28.5464 201.98 28.8822 202.32H29.218C29.5539 201.98 30.5614 201.98 30.8972 202.32C31.2331 202.66 31.2331 202.66 31.2331 202.32C31.2331 201.98 31.5689 201.98 31.9048 202.32V202.66C32.2406 202.66 32.5764 202.66 32.9123 202.32C33.2481 202.32 33.2481 202.32 33.2481 201.98C33.584 201.98 33.584 202.32 33.9198 201.98C34.2556 201.64 34.2556 201.64 34.5915 201.64H34.9273C35.2632 201.64 35.2632 201.64 35.2632 201.98C35.2632 202.32 35.599 202.32 35.9348 201.98C36.2707 201.64 36.6065 201.64 37.2782 201.64C37.614 201.64 37.9499 201.64 38.2857 201.98C38.2857 202.32 38.2857 202.32 38.6216 202.32C38.9574 201.98 38.9574 201.64 38.9574 201.64H39.2932V202.32C39.6291 202.32 39.9649 202.32 40.3008 201.98C40.6366 201.98 40.6366 201.98 40.6366 201.64H40.9724H41.6441C41.9799 201.64 41.9799 201.64 42.3158 201.3C42.6516 201.64 42.6516 201.64 42.9875 201.98C43.3233 201.98 43.6591 201.98 43.6591 202.32C43.995 202.32 43.995 201.98 43.995 201.64C44.3308 201.3 44.3308 201.3 44.6667 200.96L45.3383 201.64C45.6742 201.98 45.6742 201.98 45.6742 201.98H46.01C46.3459 201.98 46.3459 202.32 46.3459 202.32C47.0175 201.98 47.3534 202.66 47.6892 203H48.3609C48.6967 202.66 48.6967 202.66 49.0326 202.66C49.0326 202.66 49.0326 202.32 49.3684 202.32H49.7043C50.0401 202.66 50.3759 202.66 50.3759 202.32H50.7118C51.3835 202.32 51.3835 201.98 51.3835 201.64C51.7193 201.3 52.0551 201.3 52.0551 201.3C52.391 201.64 52.7268 201.64 53.3985 201.98C53.7343 202.32 54.0702 201.98 54.7418 201.98H57.4286C57.7644 201.98 58.1002 202.32 58.1002 202.32C58.4361 202.32 58.4361 201.64 58.7719 201.98C58.7719 201.98 59.1078 201.98 59.1078 202.32C59.4436 201.98 59.7794 201.64 60.1153 201.64C60.4511 201.98 60.4511 201.98 60.4511 201.98C60.4511 201.98 60.787 201.64 61.1228 201.3C61.1228 201.3 61.1228 201.64 61.4586 201.64C61.4586 201.98 61.7945 201.98 61.7945 201.64C61.7945 201.64 62.1303 201.64 62.1303 201.98C62.4662 202.32 62.802 202.32 63.1378 202.32C63.8095 201.98 64.4812 201.98 64.817 202.66L65.1529 202.32C65.4887 202.66 65.4887 202.66 65.8246 202.66H67.1679C67.5038 203 67.5038 202.66 67.5038 202.32H67.8396H68.5113C69.183 202.32 69.5188 201.98 69.8546 201.64C70.1905 200.96 70.8622 201.3 71.198 201.98C71.5338 201.98 71.5338 202.32 71.8697 202.32H72.5414C72.8772 202.32 72.8772 202.32 72.8772 201.98C73.213 201.98 73.213 201.98 73.5489 202.32H74.5564C75.2281 201.98 75.2281 201.98 75.2281 202.32C75.5639 202.32 75.5639 202.66 75.5639 202.66L75.8997 203C76.2356 202.66 76.5714 202.66 76.5714 202.66C76.5714 203 76.9073 202.66 76.9073 202.66C77.5789 202.32 77.5789 202.32 78.2506 201.98H78.9223V201.64H79.2581C79.2581 201.98 79.594 201.98 79.594 201.98C79.9298 201.64 79.9298 201.64 80.2657 201.64C80.6015 201.64 80.6015 201.3 80.6015 201.3C80.6015 200.62 80.9373 200.62 80.9373 200.96C81.2732 200.96 81.2732 201.3 81.609 201.3C81.609 201.3 81.9449 201.3 81.9449 200.96H82.6165C82.9524 200.96 83.2882 200.96 83.6241 200.28H83.9599C84.2957 200.28 84.2957 200.28 84.2957 200.62C84.2957 200.96 84.2957 201.3 84.9674 201.3C85.3033 201.64 85.6391 201.64 86.3108 201.64C86.6466 201.64 86.9825 201.64 86.9825 201.98C87.3183 202.32 87.3183 201.98 87.6541 201.98H87.99C88.3258 202.66 88.3258 202.66 88.6617 201.98C88.9975 202.32 89.6692 202.32 90.005 202.66H90.3408C90.6767 202.32 90.6767 202.32 91.0125 202.66C91.3484 201.98 91.3484 201.64 91.6842 200.96C92.02 200.96 92.02 200.96 92.02 201.3C91.6842 201.98 92.02 201.98 92.3559 201.98H93.0276C93.6992 202.32 93.6992 202.32 94.3709 202.32C94.7068 201.98 95.0426 201.98 95.3784 201.64C96.0501 201.98 96.0501 201.98 96.386 201.3C96.7218 200.96 96.7218 200.96 97.0576 200.96H97.7293C98.0652 200.96 98.0652 200.96 98.401 200.62C98.7368 200.62 98.7368 200.62 99.0727 200.96C99.4085 200.96 99.7444 200.96 99.7444 200.62C100.08 200.62 100.416 200.28 100.416 200.62C100.752 200.62 100.752 200.62 101.088 200.28C101.424 200.28 101.424 200.62 101.759 200.62H102.095C102.431 200.62 102.767 200.96 102.767 200.96H103.439C103.774 201.3 103.774 201.3 103.774 201.3C104.11 201.3 104.11 200.96 104.11 200.96C104.782 200.96 105.789 200.62 106.125 200.28H106.461C107.133 200.62 107.133 200.62 107.804 200.62H108.476H108.812H109.148C109.484 200.28 109.484 200.28 109.82 200.28H111.163C111.163 199.94 111.499 199.94 111.499 199.94C111.835 199.6 111.835 199.6 112.17 199.94C112.506 199.94 112.506 199.94 112.842 199.6V199.26C112.842 198.92 112.842 198.92 113.178 198.58H113.514C113.85 198.92 114.185 199.26 114.521 199.26C114.857 199.26 114.857 199.6 115.193 199.6C115.529 199.94 115.865 199.94 115.865 199.94C116.2 199.6 116.536 199.6 116.872 199.6C117.208 199.94 117.208 199.94 117.544 200.28H118.216C118.216 199.94 118.551 199.94 118.551 199.94C119.559 199.26 120.902 199.26 122.246 199.26C122.581 199.26 122.581 199.26 122.581 198.92C122.581 198.24 122.917 198.24 123.253 198.24C123.589 198.58 123.589 198.58 123.589 198.24H124.261V197.9H124.932V198.58C124.932 198.58 125.268 198.92 125.268 198.58C125.268 198.24 125.604 197.9 125.604 197.9C125.268 197.559 125.268 197.219 124.932 197.219C124.932 197.219 124.596 197.219 124.596 196.879L124.261 197.219V196.539C124.261 196.199 124.596 196.199 124.596 196.539C124.932 196.539 124.932 196.879 124.932 196.879L125.268 197.559C125.604 197.559 125.604 197.219 125.604 196.879C126.276 197.219 126.612 197.559 126.947 197.559C127.619 197.219 127.955 196.879 128.627 196.879C128.962 196.879 128.962 196.539 128.962 196.199C129.298 195.179 130.306 193.819 130.977 193.139L131.313 192.459C131.649 191.779 131.649 190.759 132.321 190.419C132.321 190.079 132.657 190.079 132.321 189.739C132.321 188.379 132.657 187.358 132.657 186.338V185.998C132.992 185.318 133.328 184.978 133.664 184.298V183.958V183.618C133.664 182.938 133.664 182.938 133.328 182.938C133.664 182.258 133.328 181.918 133.664 181.238V180.558C134 179.878 133.664 179.198 133.328 178.518C132.992 178.518 132.992 178.518 132.992 178.178C133.328 177.838 132.992 177.838 132.657 177.497C132.321 177.157 131.985 177.157 131.985 177.497L131.649 177.838C131.649 178.178 131.649 178.178 131.313 178.178V177.497C131.313 176.817 131.649 176.817 131.985 176.817C132.321 177.157 132.321 177.157 132.657 177.157L132.992 176.477C133.328 176.137 133.328 176.137 133.328 175.797C133.664 175.457 133.664 175.117 133.664 174.777C133.664 174.437 133.664 174.097 133.328 174.097C133.328 173.417 133.328 173.417 132.992 172.737V173.417C132.657 172.737 132.657 172.737 132.657 172.397C132.992 172.057 132.657 171.717 132.657 171.717C132.657 171.717 132.321 171.037 132.321 171.377H131.985C131.985 171.037 131.985 170.697 132.321 170.697C132.992 170.357 133.664 170.017 133.664 168.997C133.664 168.317 134 167.977 133.664 167.637V167.296C134 166.616 134 166.276 133.328 165.596C132.992 164.916 132.992 164.576 133.328 164.236C133.664 163.556 133.328 163.556 133.328 162.876C132.992 162.536 132.657 162.196 132.657 161.856V161.176C132.657 161.176 132.657 160.836 132.321 160.836C132.321 160.156 132.321 160.156 132.657 159.816V159.136C132.657 158.796 132.992 158.456 133.328 158.456L133.664 158.116V156.755C133.664 156.075 133.328 156.075 132.992 156.415C132.992 156.075 132.992 156.075 133.328 156.075C133.328 155.735 133.664 155.735 133.664 155.395V154.035C133.664 153.355 133.664 152.335 133.328 151.315C132.992 150.635 132.992 150.635 132.992 150.295C132.992 149.955 132.657 149.955 132.657 149.615C132.992 149.275 132.657 148.935 132.657 148.935V147.575V145.874V145.534C132.657 145.194 132.657 144.854 132.992 144.854C133.328 144.514 133.328 144.174 133.328 144.174C133.328 143.494 133.328 142.814 132.992 142.474C132.992 141.794 132.992 141.114 133.328 140.774V139.754C133.328 139.074 132.992 138.734 132.657 138.054C132.992 138.054 133.328 137.374 133.328 137.034V136.013C133.328 135.673 133.328 135.333 133.664 135.333V134.653C133.664 133.973 133.328 133.293 132.992 132.613V131.933V131.253V132.613V130.573C132.657 129.553 132.657 128.533 132.992 127.513C132.992 127.513 133.328 127.513 133.328 127.173C132.992 126.152 133.328 124.792 133.328 123.432V121.732V120.032C132.992 119.012 133.328 118.332 133.328 117.312C133.328 116.291 133.328 115.951 132.992 115.271L132.657 114.931C132.657 114.931 132.321 114.931 131.985 114.591C131.985 114.251 131.985 113.911 132.321 113.911C132.657 113.231 132.657 112.891 132.657 112.211V111.871C132.321 111.191 132.321 111.191 132.657 110.851C132.657 110.851 132.992 110.851 132.992 110.511C133.328 110.511 133.328 110.171 132.992 109.831C132.992 109.491 132.992 109.151 133.328 108.811V108.471V106.09V105.41V102.69V101.33C133.328 100.65 132.992 100.65 132.657 100.65H132.321C132.321 100.31 132.321 99.9698 131.985 99.9698C131.985 99.6298 131.649 99.6298 131.985 99.2898C131.985 99.2898 132.321 98.9498 131.649 98.6097C131.649 98.6097 131.649 98.2697 131.985 98.2697V98.6097C132.321 98.9498 132.321 98.9498 132.321 98.9498C132.992 98.6097 132.992 98.6097 132.992 98.2697V98.6097V97.5896V95.8895V93.8493V93.5092C132.992 92.8291 132.992 92.8291 132.321 92.8291V91.129V90.7889C132.992 90.1089 132.992 89.4288 132.992 88.7487V87.0486C132.992 86.3685 132.657 86.0285 132.657 85.6884V83.9883C132.657 83.6482 132.657 83.3082 132.321 82.9682C132.321 81.9481 131.985 80.928 132.321 80.2479V78.8878C131.985 78.2077 131.985 77.5276 131.985 77.1876V76.5075C132.321 75.8275 132.657 75.1474 132.657 74.4673V72.7672V71.407V69.3668V69.0268V68.3467C132.992 68.0067 132.992 68.0067 132.992 67.6667V66.3065L132.657 65.9665C132.321 65.6265 132.321 65.2864 132.657 65.2864C132.992 64.6064 132.992 63.5863 132.657 62.9062C132.321 62.5662 132.321 62.2261 132.321 62.2261C131.985 61.8861 132.321 61.5461 132.321 61.5461V60.866C131.985 60.1859 131.985 59.1658 132.321 58.4858C132.657 57.8057 132.657 57.4657 132.657 56.7856V55.0854C132.992 54.7454 132.657 54.4054 132.657 54.4054C132.321 54.4054 132.321 54.0653 132.321 54.0653C132.321 53.3853 131.985 53.0452 132.321 52.3652V51.3451C132.657 50.665 132.657 49.6449 132.657 48.6248V48.2848C132.992 47.6047 132.992 46.5846 132.992 46.2446C132.992 45.9045 132.657 45.5645 132.321 44.8844C131.985 44.8844 131.985 44.5444 131.985 44.5444C131.649 44.5444 131.313 44.2044 131.313 44.2044C131.313 43.8643 131.649 43.8643 131.649 43.8643C131.313 43.1843 131.313 42.8442 130.977 42.5042C130.642 42.1642 130.642 41.8241 130.977 41.8241L131.313 41.4841H131.649C131.649 40.804 131.985 40.124 132.321 39.4439C132.321 38.7638 132.321 38.4238 132.657 37.7437V37.4037C132.657 36.7236 132.657 36.3836 132.321 35.7035C131.649 35.3635 131.649 35.0235 131.649 34.3434V33.6633C131.649 33.3233 131.985 32.9832 131.985 32.9832V32.3032C131.649 31.6231 131.985 31.6231 131.985 30.9431C131.985 30.603 132.321 30.603 132.657 30.263C132.657 29.9229 132.992 29.9229 132.992 29.5829C133.328 29.2429 133.328 28.9028 133.328 28.9028C133.328 28.2228 133.664 28.2228 134 27.5427C134 30.603 134 30.603 134 30.263C134 29.5829 134 29.2429 133.664 28.5628V27.5427C133.664 27.2027 133.328 27.2027 133.328 27.2027C132.992 26.8626 132.992 26.8626 132.992 26.5226C132.657 25.8425 133.328 25.1625 133.328 24.8224C133.664 24.1424 133.664 23.8023 133.664 23.4623ZM7.38847 98.9498C7.38847 98.9498 7.05263 98.6097 7.38847 98.2697C7.38847 98.6097 7.72431 98.6097 7.38847 98.9498C7.72431 98.9498 7.72431 98.9498 7.38847 98.9498ZM19.4787 112.211C19.8145 111.871 19.8145 111.871 19.8145 112.211H19.4787ZM20.4862 114.591C20.8221 114.591 20.4862 114.591 20.4862 114.591V114.591Z"
     fill="#D50032"
     id="path2" />
</svg>
