<?xml version="1.0" encoding="UTF-8" standalone="no"?>
<svg
   xmlns:dc="http://purl.org/dc/elements/1.1/"
   xmlns:cc="http://creativecommons.org/ns#"
   xmlns:rdf="http://www.w3.org/1999/02/22-rdf-syntax-ns#"
   xmlns:svg="http://www.w3.org/2000/svg"
   xmlns="http://www.w3.org/2000/svg"
   xmlns:sodipodi="http://sodipodi.sourceforge.net/DTD/sodipodi-0.dtd"
   xmlns:inkscape="http://www.inkscape.org/namespaces/inkscape"
   width="134"
   height="203"
   viewBox="0 0 134 203"
   fill="none"
   version="1.1"
   id="svg4"
   sodipodi:docname="biathlon.svg"
   inkscape:version="0.92.1 r15371">
  <metadata
     id="metadata10">
    <rdf:RDF>
      <cc:Work
         rdf:about="">
        <dc:format>image/svg+xml</dc:format>
        <dc:type
           rdf:resource="http://purl.org/dc/dcmitype/StillImage" />
        <dc:title></dc:title>
      </cc:Work>
    </rdf:RDF>
  </metadata>
  <defs
     id="defs8" />
  <sodipodi:namedview
     pagecolor="#ffffff"
     bordercolor="#666666"
     borderopacity="1"
     objecttolerance="10"
     gridtolerance="10"
     guidetolerance="10"
     inkscape:pageopacity="0"
     inkscape:pageshadow="2"
     inkscape:window-width="640"
     inkscape:window-height="480"
     id="namedview6"
     showgrid="false"
     inkscape:zoom="1.1625616"
     inkscape:cx="67"
     inkscape:cy="101.5"
     inkscape:window-x="0"
     inkscape:window-y="0"
     inkscape:window-maximized="0"
     inkscape:current-layer="svg4" />
  <path
     d="M133.665 184.851C134 184.515 134 184.179 134 184.179V182.834C133.665 182.162 133.665 182.162 133.665 181.49C134 181.49 133.665 181.154 133.665 181.154C133.665 180.146 133.33 179.137 133.665 178.129C133.665 177.793 133.665 177.457 133.33 177.121C132.995 176.785 132.66 176.449 132.325 175.776C132.325 175.44 131.99 168.719 131.655 168.382L131.32 168.046C130.985 167.71 130.65 173.76 130.65 173.088C130.65 172.752 130.65 172.416 130.315 172.079C130.315 171.407 129.98 171.071 130.315 170.399V170.063C130.315 169.391 129.98 169.391 129.98 168.719C130.315 168.046 129.98 168.046 129.645 167.374C129.31 166.702 129.31 166.03 129.98 165.694C129.98 165.358 130.315 165.022 130.315 165.022C130.65 164.349 131.32 163.341 131.99 162.333C131.99 161.997 132.325 161.997 132.325 161.661C132.66 160.988 133.33 159.98 133.33 158.972C133.33 158.3 132.995 157.964 132.995 157.291V153.93V153.258V151.578C133.33 150.233 132.995 149.225 132.325 148.217C131.99 147.545 131.99 146.873 132.325 146.2V144.856C131.99 144.184 131.99 143.848 131.99 143.176C132.325 142.839 132.325 142.503 132.325 141.831C132.995 141.495 132.995 141.159 132.995 140.487C133.33 140.487 133.33 140.151 133.33 139.815V137.798C132.995 134.101 132.995 123.682 132.995 119.985C132.995 116.288 132.66 112.927 132.66 109.23C132.66 104.189 132.66 98.8113 132.325 93.4338V84.0232C132.325 82.0066 132.325 79.654 131.99 77.6374V69.2351C131.99 65.202 131.655 61.1689 131.655 57.1358V56.4636C131.32 55.7914 131.32 55.7914 131.32 55.1192V44.0281V38.6507C131.32 36.9702 131.655 34.9536 131.32 33.2732C130.985 30.5844 130.985 27.5596 130.985 24.5348V17.8129C130.65 15.1242 130.65 12.0993 130.65 9.0745V7.73013C130.65 7.05795 130.315 6.72185 130.315 6.38576C129.645 5.71358 128.975 4.7053 128.975 4.03311C128.975 3.36093 128.64 3.36093 128.305 3.36093C127.635 2.68874 126.965 2.68874 126.965 2.01656C126.295 1.34437 125.96 1.34437 125.29 1.34437C124.955 1.34437 124.955 1.34437 124.62 1.00828C124.285 0.672185 123.95 0.672185 123.28 0.672185H122.945C122.61 0.336093 122.275 0.336093 121.94 0.336093H119.26C116.58 0.336093 114.235 0.336093 111.89 0C111.555 0 111.555 0.336093 111.22 0.336093C110.885 0.672185 110.55 0.672185 110.215 0.336093C110.215 0.672185 109.88 0.672185 108.875 0.672185H101.84C97.82 1.00828 93.8 0.672185 90.115 0.672185C89.445 0.672185 88.775 1.00828 88.105 1.00828C87.77 1.34437 87.77 1.34437 87.435 1.34437H85.76H77.05H67H57.955H49.245H47.57C46.9 0.672185 46.23 1.34437 45.56 1.34437H45.225H43.55C43.215 1.34437 42.545 1.34437 42.21 1.68046C41.875 1.68046 41.54 2.01656 41.205 2.01656H38.86C37.52 2.01656 36.18 1.68046 35.51 2.01656C34.84 2.35265 33.835 2.35265 33.165 2.35265H32.495C31.825 2.35265 31.155 2.35265 30.82 1.68046C30.485 1.34437 30.15 1.34437 29.815 1.34437H28.475C26.13 1.68046 23.45 1.68046 21.105 1.68046C20.435 1.68046 20.435 1.68046 19.765 2.35265C19.43 1.68046 18.425 1.68046 17.755 1.68046H16.415C14.74 2.01656 13.065 2.35265 11.055 1.68046H10.72C10.385 2.01656 10.385 2.35265 10.05 2.35265H8.71C8.375 2.68874 8.375 2.68874 8.04 2.68874C7.705 2.68874 7.705 2.35265 7.705 2.35265C7.705 2.01656 7.705 2.01656 7.37 2.01656C6.7 2.68874 6.7 2.68874 7.37 3.36093H7.705C8.04 4.03311 8.375 4.36921 8.375 4.7053V5.04139C8.04 5.04139 8.04 5.04139 8.04 4.7053C8.04 4.7053 8.04 4.36921 7.705 4.03311H7.035V4.36921C6.365 4.36921 6.03 4.36921 5.36 4.03311C5.36 4.36921 4.69 4.7053 4.355 4.7053C4.02 4.7053 3.685 5.04139 3.685 5.37748C3.35 6.38576 2.68 7.39404 2.01 8.06623C1.675 8.40232 1.34 8.73841 1.34 8.73841C1.34 9.4106 1.005 9.74669 0.67 10.4189C0.335 10.755 0.335 11.0911 0.335 11.7632C0.335 12.7715 0 13.7798 0 14.7881V15.4603V16.8046V22.1821V22.8543C0 22.8543 0.335 23.1904 0.335 22.8543C0.335 22.5182 0.335 22.5182 0.67 22.1821C0.67 22.1821 1.005 22.1821 1.005 21.846C1.005 22.5182 1.34 22.5182 1.34 22.5182C1.005 22.8543 1.005 23.1904 0.335 22.8543H0V23.1904V29.5762H0.335C0.335 29.5762 0.335 29.9123 0.67 29.9123L0 30.2483V30.9205V41.0033V60.8328V78.6457V83.351C0 83.6871 0.335 84.0232 0.335 84.3593C0 85.0315 0 85.7036 0 86.3758V89.0646V91.4172V94.106C0 94.7781 0.335 95.7864 0 96.7947L0.335 97.1308V98.1391C0.335 98.8113 0 98.8113 0 99.1473V105.533C0 109.23 0 112.927 0.335 116.624V129.06V141.831C0.67 141.831 2.345 141.831 2.68 141.831C3.35 142.167 3.35 141.831 3.35 141.831H3.685C4.02 142.503 4.69 142.167 5.025 141.831C5.36 141.831 5.36 141.831 5.36 141.831C5.695 141.831 6.03 141.831 6.365 142.167H6.7C7.37 141.831 8.04 142.167 8.71 142.167C10.05 142.167 11.39 142.503 12.395 142.503C13.065 142.167 13.4 141.831 13.4 141.831V140.823C13.735 140.151 13.735 140.151 14.07 139.478C14.07 139.142 14.405 138.806 14.405 138.47C14.74 137.798 14.405 137.462 15.075 136.79C15.41 136.118 15.075 135.445 14.74 135.109C14.405 134.437 14.405 134.101 14.405 133.765C14.07 133.093 13.735 132.757 13.735 132.084C13.735 131.748 13.735 131.412 14.07 131.076H14.74C15.075 131.076 15.41 131.076 15.41 130.74C15.745 130.068 16.08 129.396 15.745 128.724V128.051C16.08 127.379 15.745 127.379 16.08 126.707C16.415 126.035 16.415 126.035 16.415 125.363V124.69C16.415 125.026 16.75 124.354 16.75 123.346V123.01C17.085 122.338 17.42 121.666 17.42 121.329C17.42 120.993 17.755 120.993 17.755 120.657C18.425 120.321 17.755 119.985 18.09 119.649C18.425 119.313 18.425 118.977 18.76 118.641C18.76 118.641 18.76 118.305 19.095 117.969C19.095 117.296 19.43 116.624 19.765 116.288C19.43 115.952 19.765 115.616 20.1 114.944C20.435 114.272 20.435 113.263 20.77 112.927C20.77 112.255 21.105 111.583 21.105 111.247C21.105 111.247 21.105 110.911 21.44 110.911V110.238C21.775 109.902 22.11 109.566 22.11 109.23L22.445 108.894C22.445 108.222 22.78 108.222 22.78 107.886C23.115 107.214 23.115 106.877 23.45 106.541V106.205C23.45 105.869 23.785 105.533 24.12 105.533C24.455 105.533 24.455 105.197 24.12 104.861V104.525C24.455 103.853 24.12 104.525 24.12 103.853C24.455 103.517 24.455 103.18 24.455 103.18C24.455 103.18 24.79 102.844 24.79 102.508C24.79 101.836 26.13 99.8195 26.465 99.4834C27.135 98.8113 27.135 98.4752 28.14 98.1391C28.81 97.803 29.48 97.4669 30.485 96.7947C31.155 96.4586 31.49 96.1225 32.16 96.1225H32.495H33.5C33.835 96.1225 34.505 96.4586 34.84 96.1225V96.4586C35.51 96.7947 36.85 96.7947 37.52 97.1308C37.185 98.1391 37.52 98.8113 38.19 99.8195V100.492C37.855 101.164 37.52 101.164 37.52 101.836L37.185 102.172C36.85 102.844 37.185 102.844 37.52 102.844H37.855C38.19 103.18 38.19 103.517 37.855 103.517L37.185 104.189C36.85 104.861 36.515 105.869 36.18 106.877C35.845 107.55 35.845 107.55 35.845 108.222C35.845 108.222 35.51 108.222 35.51 108.558C35.175 109.23 35.175 110.238 34.505 110.575C34.505 110.911 34.17 111.247 34.17 111.247C33.835 111.583 33.5 111.919 33.5 112.255C33.165 112.591 33.165 112.927 33.165 112.927V113.599C33.165 114.272 32.83 114.272 32.83 114.944C32.495 115.28 32.495 115.616 32.16 116.288C32.16 116.624 31.825 116.624 31.825 116.96C31.825 117.632 31.49 117.969 31.49 118.641V119.649C31.825 119.985 31.49 119.985 31.155 120.321C31.155 120.657 31.155 120.993 30.82 120.993C30.485 121.666 30.485 121.666 30.485 122.338C30.485 123.01 30.485 123.346 29.815 124.018C29.48 124.69 29.48 125.026 29.48 125.699V126.035C29.815 125.699 30.15 126.035 30.15 126.371C29.48 126.707 29.48 127.043 29.48 127.043C29.145 127.715 29.48 128.051 29.145 128.724C28.81 128.724 29.145 128.724 29.145 128.724V129.06V129.732C28.81 130.404 28.81 130.404 28.81 130.74C28.81 131.412 29.145 131.748 29.145 132.421V133.093C29.145 133.765 28.81 134.437 29.145 134.773C29.145 134.773 29.145 135.109 28.81 135.109V136.118C28.81 137.126 28.81 137.798 28.475 138.806C28.475 140.151 28.14 141.495 27.805 142.503C28.475 143.176 28.81 143.176 29.48 143.176C29.815 143.176 29.815 143.175 29.815 142.839H30.485C31.825 142.839 32.83 143.176 33.835 143.176C34.17 142.839 34.17 142.839 34.505 142.839C35.845 143.175 37.185 142.839 38.19 143.176C38.525 143.512 38.86 143.512 39.53 143.512C40.535 143.512 41.875 142.503 41.54 141.159V139.815C41.54 139.478 41.54 139.142 41.875 139.142C42.21 138.134 42.21 136.79 42.21 135.781C42.21 134.101 42.21 133.093 42.545 131.412V130.74C42.88 130.068 43.215 129.06 43.215 128.051V127.379C43.55 126.707 43.55 126.707 43.55 126.035C43.55 125.363 43.215 124.69 43.55 124.354V123.682V120.993V115.28C43.55 113.935 43.215 112.927 43.215 111.583C43.215 110.575 43.55 109.566 43.215 108.558C43.215 108.222 41.54 105.869 41.54 104.861C41.205 104.189 40.87 103.18 40.87 102.508C41.205 102.172 40.87 101.836 40.535 101.836C40.2 101.5 40.2 101.164 40.2 100.828V98.8113C40.2 98.1391 40.2 97.803 39.865 97.1308C39.865 96.4586 39.53 96.4586 39.195 95.7864C39.195 95.1142 39.195 95.1142 38.525 94.106C38.19 93.4338 37.52 92.4255 37.185 91.7533C36.85 91.0811 36.515 91.0811 36.18 90.745C35.845 90.4089 35.51 90.0729 35.51 90.0729C34.84 89.4007 32.16 83.6871 31.49 83.0149C31.155 82.3427 29.48 80.3262 29.145 79.654C28.81 79.3179 28.81 79.3179 28.81 78.9818C28.14 78.3096 27.47 77.6374 26.8 76.9652C26.465 76.6291 26.13 76.293 25.46 75.6209C24.79 74.9487 24.12 74.6126 23.785 73.9404C23.785 74.6126 23.785 74.2765 23.45 73.9404V73.2682C23.45 72.9321 23.45 72.9321 23.115 72.9321C22.445 72.2599 22.11 71.9238 21.44 71.5878C21.44 71.2517 21.44 71.2517 21.44 70.9156C21.44 70.2434 21.105 70.2434 20.77 69.9073C20.1 69.2351 19.765 68.899 19.765 68.2268C19.765 67.5546 19.43 67.5546 19.095 66.8825C18.76 66.2103 18.425 65.8742 17.755 65.202C17.42 64.5298 17.085 64.1937 16.415 63.5215C15.745 62.8493 15.745 62.5132 15.745 61.8411V61.505C15.41 61.1689 15.41 61.1689 15.41 60.8328C15.075 60.4967 14.74 60.1606 15.075 60.1606C15.41 59.4884 15.41 58.8162 15.41 58.4801C15.075 57.1358 15.745 56.4636 16.415 55.7914C16.75 55.4553 17.085 55.1192 17.085 54.447H17.755C18.09 54.447 18.09 54.447 18.425 54.1109C18.425 53.4387 18.76 53.1026 19.095 52.7666C19.095 52.4305 19.43 52.4305 19.43 52.0944C19.43 51.7583 19.765 51.4222 19.765 51.0861C20.435 50.75 20.435 50.4139 20.77 50.0778C21.105 49.4056 21.44 49.0695 22.11 48.3974C22.445 48.3974 22.445 48.3974 22.445 48.0613C22.78 47.3891 23.45 47.053 23.785 46.3808C24.455 45.7086 25.125 44.7003 25.795 44.0281C26.13 43.6921 26.465 43.356 26.465 43.0199C26.8 43.0199 27.135 42.6838 27.135 42.3477C27.47 42.3477 27.47 42.3477 27.47 42.0116H28.81C29.145 42.0116 29.48 42.0116 29.815 41.6755H30.485C30.15 41.3394 29.815 41.3394 29.145 41.6755L28.81 41.3394C28.475 41.3394 28.475 41.0033 28.14 41.0033C27.805 40.3311 26.8 39.995 26.465 39.3228C26.465 39.6589 26.13 39.6589 26.13 39.6589C26.13 39.3228 26.13 38.9868 25.795 38.9868C25.46 38.6507 23.45 37.3063 22.78 36.9702C22.78 36.9702 23.45 36.298 23.785 35.9619C25.125 34.6175 25.795 34.2815 26.8 33.2732C26.8 32.9371 26.8 32.601 27.135 32.601C27.135 31.9288 27.135 31.2566 27.805 30.9205C28.14 30.5844 28.14 30.2483 28.475 29.5762L28.81 31.2566C29.145 30.9205 29.48 30.5844 29.48 30.2483C29.815 29.5762 29.815 28.904 30.485 28.5679C30.82 27.8957 30.82 26.8874 31.49 26.2152C31.49 26.2152 31.49 25.8791 31.155 25.8791C30.485 25.543 30.82 25.207 31.155 24.5348C31.155 24.1987 31.49 23.8626 31.49 23.5265C31.49 23.1904 31.49 23.1904 31.825 22.8543V22.1821C32.495 22.1821 32.83 22.1821 33.5 22.5182C34.17 23.1904 34.84 23.5265 35.845 24.1987C36.18 24.5348 36.515 24.8709 36.85 25.207C37.185 25.543 37.52 25.8791 37.52 25.8791C38.19 26.2152 38.19 26.5513 38.86 26.5513C38.86 26.8874 39.195 27.2235 39.53 27.2235C40.2 27.8957 40.87 28.2318 41.205 28.904C41.54 29.2401 42.21 29.5762 42.545 30.2483C42.545 30.2483 43.215 30.5844 43.55 30.9205C44.22 31.5927 44.89 31.9288 45.225 32.601C45.56 33.9454 45.56 35.2897 45.56 36.9702V37.9785C45.225 38.9868 44.555 39.995 44.22 41.3394C43.55 41.3394 43.55 42.0116 43.55 42.3477C43.215 42.3477 43.215 42.6838 43.215 42.6838L42.88 43.0199H43.55H44.22C44.89 43.356 44.89 43.356 45.56 43.0199H46.9H50.585C50.92 43.0199 51.59 43.0199 51.925 43.356H52.595H53.6C53.935 43.356 54.605 43.0199 55.275 43.0199C55.61 43.356 55.61 43.356 55.945 43.0199H56.28C56.95 43.356 57.955 43.356 58.29 43.0199H58.625H60.3C60.97 43.0199 61.305 43.0199 61.64 43.356H61.975C62.645 43.0199 63.65 43.356 64.32 42.6838C64.655 43.0199 64.99 43.0199 64.99 43.0199C65.325 43.356 65.66 43.356 65.995 43.356C66.33 43.0199 67.335 43.0199 67.67 43.356H68.34C69.345 43.0199 70.35 43.0199 71.355 43.0199H71.69C72.36 42.6838 73.365 42.6838 74.37 42.3477H74.705C76.045 42.3477 77.05 42.3477 78.055 41.6755H78.39C79.73 41.6755 80.4 41.3394 81.405 41.3394C82.075 41.0033 82.745 41.0033 83.08 41.3394C83.75 41.3394 84.085 41.6755 84.42 41.6755C85.09 42.0116 85.09 42.0116 85.425 42.3477C85.76 42.6838 85.76 42.6838 86.095 42.6838H87.435C88.105 42.6838 88.44 42.6838 89.11 42.3477C89.445 42.3477 89.78 42.3477 90.45 42.6838H90.785C91.455 42.6838 92.125 42.3477 92.795 42.6838H94.135C94.47 42.3477 94.47 42.3477 95.14 42.6838C95.81 43.0199 96.145 43.0199 96.815 42.6838C97.15 42.3477 97.485 42.3477 97.82 42.3477C98.49 42.6838 99.495 42.6838 100.5 42.6838H101.505C101.505 42.6838 101.84 43.0199 102.175 42.6838C102.845 42.3477 103.515 42.6838 104.185 43.0199C104.52 43.0199 104.855 42.6838 105.19 42.6838C105.86 42.0116 105.86 42.0116 105.525 41.0033C105.19 40.3311 105.525 39.995 106.195 39.3228C106.865 38.9868 107.535 39.3228 107.87 39.995V40.6672V42.6838C108.205 42.0116 108.54 42.3477 109.21 42.3477C109.21 42.3477 109.545 42.0116 109.88 42.0116C110.215 41.6755 110.215 41.6755 110.55 41.3394C110.885 41.6755 111.555 42.0116 111.89 42.0116C112.895 42.3477 113.565 42.6838 114.235 43.0199L114.57 43.356C114.235 44.3642 113.9 44.7003 113.9 45.0364C113.565 45.3725 113.23 45.7086 112.56 46.0447C112.56 46.7169 112.225 46.7169 111.89 47.053H107.2H103.85H100.165H96.48H92.125H86.765C86.095 47.053 86.095 47.3891 85.76 47.7252C85.76 48.3974 85.76 48.7334 86.095 49.0695C85.76 49.4056 85.76 49.7417 85.76 50.0778C85.09 51.0861 85.09 51.7583 84.42 52.7666C84.42 53.4387 84.085 53.4387 84.085 53.7748C83.75 54.447 83.415 54.447 83.415 54.7831C83.08 55.1192 83.08 55.4553 83.08 55.4553C82.41 56.1275 82.41 56.7997 82.075 57.1358C81.405 58.144 80.4 59.1523 79.395 59.8245C79.06 60.4967 78.725 60.4967 78.39 61.1689C77.72 61.8411 77.385 62.1772 76.715 62.5132C76.38 62.5132 76.38 62.8493 76.38 62.8493C76.045 63.1854 75.71 63.5215 75.71 63.8576C75.375 64.1937 75.04 64.5298 74.705 64.8659C74.035 65.5381 73.365 65.8742 73.365 66.5464C73.365 66.5464 73.03 66.5464 73.03 66.8825C72.695 67.2185 72.695 67.5546 72.025 67.8907C71.69 67.8907 71.69 68.2268 71.355 68.5629C71.02 68.899 70.685 69.2351 70.35 69.9073C70.015 69.9073 70.015 69.9073 70.015 70.2434C69.345 70.9156 68.34 71.5877 67.67 72.2599H67C65.66 72.596 65.325 72.9321 65.325 73.9404C65.66 74.6126 65.66 74.6126 64.99 74.6126C64.655 74.6126 64.32 74.9487 64.32 74.9487H63.65C62.98 75.6209 62.645 75.957 61.975 75.957L61.64 76.293C61.305 76.6291 60.97 76.6291 60.97 76.6291C60.635 76.6291 60.3 76.6291 59.965 76.9652C59.63 77.3013 59.295 77.6374 58.96 77.6374C58.625 77.6374 58.625 77.3013 58.29 77.3013C57.62 76.6291 57.62 76.6291 56.95 77.3013C56.615 77.6374 56.615 77.9735 56.28 78.6457C55.945 79.3179 55.61 79.654 54.94 79.9901C54.94 79.3179 54.27 79.3179 53.935 79.3179C53.265 79.3179 53.265 78.9818 52.93 78.6457C52.595 78.3096 52.595 77.9735 52.26 77.9735C51.925 77.6374 51.925 77.3013 51.255 77.3013C50.92 77.3013 50.585 77.9735 49.915 77.9735C49.245 77.9735 49.245 77.6374 48.91 77.3013C48.575 77.3013 48.575 76.9652 48.575 76.6291C48.575 75.957 48.24 75.957 47.905 75.6209C47.57 75.2848 47.905 74.6126 47.57 74.6126C46.9 73.9404 46.565 73.6043 45.895 72.9321L45.56 72.2599C45.225 71.5877 44.89 71.2517 44.22 70.5795C43.885 70.2434 43.55 69.9073 43.215 69.5712C42.88 68.899 42.88 68.899 42.21 68.899C41.875 68.899 41.875 68.5629 41.54 68.2268C41.205 68.2268 41.205 68.2268 41.205 67.8907C40.87 67.5546 40.535 67.5546 40.2 67.2185C39.865 66.8824 39.53 66.5464 38.86 66.2103C38.525 66.2103 38.19 66.2103 38.19 65.8742C38.19 66.2103 37.855 66.5464 37.855 66.5464C37.185 67.2185 37.185 67.5546 37.52 68.2268C37.855 68.899 38.19 69.5712 38.86 69.9073C39.195 69.9073 39.53 70.2434 39.53 70.5795C39.865 70.9156 40.2 71.2517 40.535 71.9238C40.535 72.2599 40.87 72.596 40.87 72.596C41.205 72.9321 41.54 73.2682 41.875 73.9404C42.21 74.2765 42.545 74.6126 42.545 75.2848C42.545 75.2848 42.545 75.6209 42.88 75.957L43.55 77.6374C43.885 77.9735 43.885 78.3096 43.885 78.3096C44.22 78.9818 44.555 78.9818 44.555 79.654C44.555 79.654 44.555 79.9901 44.89 79.9901C45.56 80.6623 45.56 80.9983 45.895 81.6705C46.23 82.0066 46.23 82.3427 46.565 82.3427C47.235 83.0149 47.905 83.351 47.905 84.0232C47.905 84.3593 47.905 84.6954 48.24 84.6954C48.575 85.3676 48.575 86.0397 48.91 86.7119V87.3841C49.245 88.0563 49.245 88.0563 49.58 87.7202C49.915 87.7202 50.25 88.0563 50.25 88.3924L50.585 89.0646C50.92 89.4007 50.92 89.7368 50.92 90.0729C50.92 90.4089 51.255 90.745 51.255 90.745C51.59 91.4172 51.59 92.4255 52.26 92.7616C51.925 93.4338 52.595 93.7699 52.595 94.106C52.595 94.4421 52.93 94.7781 52.93 94.7781C52.93 95.4503 53.265 96.1225 53.6 96.4586C53.935 97.1308 53.935 98.1391 54.27 98.8113C54.94 99.4834 54.94 100.156 54.94 100.492C54.94 100.828 55.275 101.164 55.275 101.5C55.275 101.836 55.61 102.172 55.61 102.172L55.945 102.844C55.945 102.844 56.28 103.517 56.615 103.853C56.615 104.189 56.615 104.525 56.95 104.525C57.62 105.197 57.62 106.205 57.62 107.214C57.62 108.222 57.62 108.558 57.955 108.894C57.955 109.23 58.29 109.566 58.29 109.566C58.29 110.238 58.29 110.575 58.625 110.911C58.625 111.919 57.955 112.927 57.955 113.935C58.29 114.608 57.955 115.616 57.955 116.288C57.955 116.624 56.28 116.96 56.615 116.96C56.95 116.96 57.62 117.632 57.62 118.305V118.977C57.955 119.649 57.955 119.985 57.62 120.321C56.95 120.321 56.95 119.985 56.615 120.321C56.615 120.657 56.95 120.993 56.95 121.329V122.002C57.62 123.01 57.62 124.018 57.955 125.026V125.699V128.051C57.955 128.724 58.29 128.724 58.625 129.06C58.96 129.396 57.955 129.396 58.29 129.732C57.955 129.732 57.955 130.068 57.955 130.068C57.62 130.404 58.625 130.74 58.625 131.076C58.625 131.748 57.955 131.748 58.29 132.084C58.625 132.421 58.29 132.421 57.955 132.757H57.62C57.285 133.093 57.955 133.429 57.955 134.101C57.955 134.773 57.955 135.109 57.62 135.781C57.955 136.118 57.955 136.118 58.29 136.118C57.62 135.781 58.29 137.798 57.955 137.798V138.134C57.955 138.806 58.29 138.806 57.955 139.142C57.955 139.142 58.29 139.478 57.955 139.815C57.955 140.487 57.955 140.823 58.29 141.495C58.625 142.167 57.62 142.503 58.29 143.176V143.848C57.62 144.856 58.625 145.528 58.625 146.536C58.625 147.209 58.29 148.217 58.29 148.889C58.29 150.906 57.955 152.25 57.955 154.267C57.955 154.939 60.635 155.275 60.3 155.947L60.635 156.283C60.97 156.619 60.97 156.283 61.305 156.283H62.98H64.655C65.325 156.283 65.66 156.619 66.33 156.619H67C67.335 156.283 68.005 156.283 68.675 156.283C69.01 155.947 69.345 155.947 69.345 156.283H70.685H72.025H73.7H76.045C76.38 156.283 76.38 156.283 77.05 156.619H77.385H78.39C78.725 156.283 79.06 156.619 79.395 156.619H80.4C80.4 156.619 80.735 156.283 81.07 156.283C81.74 156.619 82.075 156.283 82.745 155.947C83.08 156.619 83.75 156.283 84.085 156.283C84.755 156.283 84.755 155.611 85.425 155.611C85.76 155.947 86.095 155.947 86.765 155.611H87.1C87.77 156.283 88.44 156.283 89.445 155.611C89.78 155.947 90.115 156.283 90.115 155.947C90.45 155.947 90.45 155.611 90.785 155.611C91.12 155.947 91.455 155.947 92.125 155.947C92.795 155.611 93.13 155.611 93.465 155.947C93.8 156.283 94.135 156.283 94.47 156.283C95.14 155.947 95.14 155.947 95.475 155.947H96.145C96.48 155.947 97.15 155.611 97.485 155.947C97.82 155.947 98.155 155.611 98.155 155.611H98.49C99.16 155.611 100.165 155.947 100.5 155.947H101.17C101.84 155.611 102.51 155.275 103.18 155.275C104.52 155.275 106.53 154.939 107.87 154.603C108.54 154.267 109.21 154.267 109.88 154.603C110.885 153.93 111.89 153.594 113.23 153.93V154.603C112.895 154.939 112.56 155.275 112.225 155.611C111.89 156.283 110.885 157.291 110.215 158.3C109.88 158.636 109.545 158.972 109.545 159.644C109.21 160.316 108.205 160.652 107.87 161.324C107.535 161.997 107.2 161.997 106.53 161.997H100.5H95.81H93.13H91.12C90.115 161.997 88.775 162.333 87.77 162.333H83.415H76.715H73.365H70.015C68.34 162.333 67 162.333 65.325 162.669H62.645H59.295H54.605H48.91C47.57 162.669 46.565 163.005 44.89 163.005H41.54H36.85H31.825H30.485H28.475H25.125C22.78 163.341 20.435 163.341 17.755 163.341H16.415H14.405H12.395H8.04H3.35C2.345 163.341 1.675 163.341 0.67 163.677V166.03C0.67 166.366 0.67 166.702 0.335 166.702V178.801V192.581V194.262C0.67 194.934 1.005 195.606 1.34 195.942C2.01 196.614 2.01 197.286 2.345 197.623C2.345 197.959 2.68 198.295 3.015 198.295C3.015 198.967 3.35 199.303 3.35 199.975C3.685 200.311 4.02 200.647 4.355 200.647C5.695 200.647 6.7 201.32 7.705 202.328C8.04 202.328 8.375 202.328 8.375 202.664H9.715C10.385 203 11.055 203 11.39 202.328C12.06 203 12.06 203 12.73 203C14.07 203 15.075 202.664 16.415 202.664C16.415 202.664 16.75 202.328 17.085 202.328H17.755C18.09 202.328 18.425 202.664 18.76 202.664C19.095 202.664 19.43 202.328 19.765 201.992C20.1 202.328 20.77 202.664 21.105 202.664H23.45C23.45 202.328 23.45 201.992 23.45 201.992C23.785 201.992 23.785 202.328 23.785 202.328C24.12 202.664 24.455 203 24.79 203C25.795 203 26.465 202.664 27.135 201.992C27.805 201.32 28.14 200.983 28.475 200.311C29.145 200.311 29.145 200.647 29.48 200.983C29.815 201.32 29.815 201.656 29.815 201.992C30.82 201.992 31.155 202.328 31.49 202.328C32.16 202.328 32.495 202.664 33.165 202.328C33.5 202.328 34.505 202.328 35.175 202.664H35.845H38.19H46.9C48.575 202.664 49.915 202.328 51.255 202.328H55.61H70.015H73.365H77.72C78.39 202.328 79.395 202.328 80.065 201.992C80.735 201.992 81.74 202.328 82.41 201.992H85.09C86.095 202.328 86.765 201.992 87.77 201.656C88.105 201.32 88.44 201.32 88.44 201.656C88.44 201.992 89.11 201.992 89.11 201.992C89.78 201.992 90.785 202.328 91.455 201.992V201.656C91.455 201.32 91.455 200.983 91.12 200.647C91.79 200.311 91.79 200.647 91.79 200.983C92.125 200.983 92.125 201.32 92.125 201.32C92.46 201.656 92.46 201.656 92.795 201.656C93.13 201.32 93.13 201.32 93.465 201.32C93.465 201.656 93.8 201.992 93.8 201.992C95.14 202.328 99.495 201.992 100.165 201.656V200.983H100.5V200.311H100.835C100.835 200.647 101.17 200.647 101.17 200.983C101.505 200.983 101.505 201.32 101.84 201.32C102.175 201.656 102.175 201.992 102.175 201.992C102.845 201.992 103.515 201.656 103.515 201.32C103.85 201.32 104.185 201.656 104.185 201.992C104.52 201.992 104.855 202.328 104.855 202.328H110.55C110.885 202.328 111.555 201.992 111.89 201.992C112.225 201.656 112.56 201.656 113.23 201.992C113.565 201.992 113.565 202.328 113.565 202.328C115.24 202.328 121.94 202.328 123.28 201.992C123.95 201.656 124.62 201.32 125.625 201.32C125.96 200.983 126.295 200.647 126.295 200.647C126.63 200.311 126.965 200.311 127.3 199.975C127.635 199.975 127.635 199.303 127.635 199.303H127.97C128.975 199.639 128.975 199.639 129.645 198.631C129.98 198.295 130.315 197.959 130.315 197.623L130.65 197.286C131.32 196.95 131.32 196.614 131.32 195.942C131.655 195.606 131.655 195.606 131.655 195.27C131.99 194.934 131.99 194.598 131.99 193.925V193.253C131.99 192.917 131.99 192.581 132.325 192.581C132.325 192.245 132.325 191.909 132.66 191.909V191.237C132.325 189.556 132.325 188.548 132.66 186.868C132.995 186.195 132.995 185.523 132.995 185.187C133.33 185.187 133.33 185.187 133.665 184.851Z"
     fill="#D50032"
     id="path2" />
</svg>
