<?xml version="1.0" encoding="UTF-8" standalone="no"?>
<svg
   xmlns:dc="http://purl.org/dc/elements/1.1/"
   xmlns:cc="http://creativecommons.org/ns#"
   xmlns:rdf="http://www.w3.org/1999/02/22-rdf-syntax-ns#"
   xmlns:svg="http://www.w3.org/2000/svg"
   xmlns="http://www.w3.org/2000/svg"
   xmlns:sodipodi="http://sodipodi.sourceforge.net/DTD/sodipodi-0.dtd"
   xmlns:inkscape="http://www.inkscape.org/namespaces/inkscape"
   width="134"
   height="203"
   viewBox="0 0 134 203"
   fill="none"
   version="1.1"
   id="svg8"
   sodipodi:docname="bobsleigh.svg"
   inkscape:version="0.92.1 r15371">
  <metadata
     id="metadata14">
    <rdf:RDF>
      <cc:Work
         rdf:about="">
        <dc:format>image/svg+xml</dc:format>
        <dc:type
           rdf:resource="http://purl.org/dc/dcmitype/StillImage" />
        <dc:title></dc:title>
      </cc:Work>
    </rdf:RDF>
  </metadata>
  <defs
     id="defs12" />
  <sodipodi:namedview
     pagecolor="#ffffff"
     bordercolor="#666666"
     borderopacity="1"
     objecttolerance="10"
     gridtolerance="10"
     guidetolerance="10"
     inkscape:pageopacity="0"
     inkscape:pageshadow="2"
     inkscape:window-width="640"
     inkscape:window-height="480"
     id="namedview10"
     showgrid="false"
     inkscape:zoom="1.1625616"
     inkscape:cx="67"
     inkscape:cy="101.5"
     inkscape:window-x="0"
     inkscape:window-y="0"
     inkscape:window-maximized="0"
     inkscape:current-layer="svg8" />
  <path
     d="M133.335 181.731C133.335 181.399 133.002 181.067 133.667 181.067V180.402C133.335 179.737 133.335 178.408 133.335 177.743C133.667 177.079 133.667 173.423 133.667 173.091C133.335 172.426 133.335 171.429 133.335 170.432C133.002 170.1 133.335 169.768 133.335 169.768C133.335 169.768 133.667 169.103 133.335 169.103V168.771C133.335 168.438 133.335 168.106 133.002 168.106C133.335 167.774 133.335 167.441 133.002 167.441C132.67 167.109 132.67 166.777 132.67 166.445C132.67 165.78 132.67 165.78 133.002 165.448C133.335 165.115 133.335 164.783 133.335 164.451C133.335 164.118 133.002 160.795 133.002 160.795C133.335 160.463 133.335 160.13 133.335 159.798C133.335 159.466 133.667 159.133 133.667 158.801C133.667 158.136 133.667 157.804 133.335 157.472V156.807C133.667 155.81 133.667 154.813 133.335 153.816V151.49V150.493C133.667 149.828 133.335 149.164 133.335 148.831C133.002 148.167 133.002 148.167 133.002 147.502V146.505C132.67 146.505 132.67 146.173 132.67 146.173C132.67 146.838 132.337 147.17 132.337 147.834C132.337 148.167 132.337 148.499 132.005 148.499C131.339 149.164 131.007 150.161 131.339 151.49V152.155C131.339 152.819 131.007 153.484 131.007 153.816C130.674 154.149 130.674 154.481 130.674 154.813C130.674 155.146 130.342 155.146 130.342 155.146C130.009 155.146 130.009 155.146 130.009 154.813C129.677 154.813 129.344 154.813 129.012 155.146C128.679 155.478 128.347 155.81 128.347 156.143C128.014 156.807 128.014 156.807 127.349 156.807C126.684 156.807 126.019 156.475 125.687 156.143C125.354 156.143 125.354 156.143 125.354 156.475C125.354 156.475 125.022 156.807 125.022 157.14C124.689 157.804 124.024 157.804 123.359 157.804C122.694 157.472 122.029 157.472 121.364 157.472C121.032 157.472 121.032 157.472 120.367 157.804C120.034 158.136 119.702 158.136 119.037 158.136C118.372 158.469 117.707 158.469 117.042 158.469C116.044 158.801 115.047 159.133 114.049 159.133C113.717 159.466 113.384 159.466 112.719 159.466C112.054 159.466 111.389 159.798 111.057 159.798C110.724 160.13 110.059 160.13 109.394 160.13C109.062 159.798 108.729 159.798 108.064 159.466C107.399 158.801 106.734 157.804 105.737 156.807C105.072 156.143 104.074 155.146 103.077 154.481C102.079 153.484 101.082 152.487 99.7515 151.822C98.4215 150.493 97.0915 149.164 95.429 148.167C93.1014 146.173 90.4414 143.847 88.1138 141.853C86.7838 140.523 85.1213 139.194 83.4588 138.529C83.1263 138.529 82.4613 137.865 82.1288 137.865C81.4637 137.2 80.7987 136.868 80.7987 136.203C80.4662 134.874 80.1337 134.209 79.4687 133.545C78.1387 132.548 77.1412 131.218 76.1437 130.221C75.8111 129.889 75.1461 129.557 74.8136 129.557C74.1486 128.892 73.4836 128.892 72.8186 128.227C72.4861 127.895 72.1536 127.895 71.8211 127.895C71.4886 128.227 71.4886 128.56 71.8211 128.892C72.1536 129.224 72.4861 129.557 72.1536 130.221C72.1536 130.886 72.4861 131.883 72.4861 132.88C72.4861 133.545 72.8186 133.545 72.8186 134.209C73.4836 135.539 74.4811 136.868 75.4787 137.865C76.8087 139.194 77.8062 140.523 79.1362 141.52C80.1337 142.185 81.1312 143.182 82.1288 144.179C83.1263 144.844 83.7913 145.508 84.4563 146.173C85.4538 146.838 86.1188 147.502 87.1163 148.167C87.4488 148.499 87.4488 148.499 87.7813 148.831C88.1138 149.164 88.1138 149.164 88.4464 148.831C88.7789 148.167 89.7764 148.167 90.1089 148.831C90.4414 148.831 90.7739 149.496 91.1064 149.496C91.4389 149.828 91.4389 150.161 91.4389 150.161C91.7714 150.161 91.7714 150.493 91.7714 150.825C92.1039 151.158 92.1039 151.49 92.1039 151.822C92.4364 152.487 92.4364 153.152 92.4364 153.484C92.7689 154.149 92.7689 154.481 93.4339 155.146C94.0989 155.81 94.7639 156.807 95.7615 157.472C96.094 157.804 96.759 158.136 97.424 158.801C98.4215 159.798 99.419 160.795 100.417 161.792C101.082 162.457 101.747 162.789 102.744 163.454C103.409 164.118 104.074 164.451 105.072 165.115C106.069 165.78 107.067 166.777 108.064 167.441C108.729 167.774 109.394 168.106 110.392 168.771C110.724 168.771 110.724 169.103 111.057 169.435C111.389 170.1 112.054 170.432 112.387 170.765C113.052 171.429 113.717 171.762 114.382 172.426C114.714 173.091 115.047 173.091 115.712 173.091C116.044 173.423 116.044 173.423 116.044 173.423C116.377 173.423 116.377 173.756 116.377 174.088H116.709C116.377 174.42 116.377 174.42 116.044 174.42H115.047C114.382 174.42 113.717 174.42 113.052 174.753H112.387H110.059C109.727 174.753 109.394 174.753 109.062 174.42C108.729 174.088 108.729 174.088 108.397 173.756C108.064 173.423 108.064 173.423 108.064 173.423C108.064 173.091 108.064 173.091 107.732 173.091C107.067 172.426 106.402 171.762 105.737 171.429C104.407 170.765 103.742 169.768 102.744 169.103C102.412 168.438 101.747 168.438 101.414 167.774C100.084 166.777 99.0865 165.448 97.7565 164.451C97.424 164.451 97.424 164.118 97.0915 163.786C96.759 163.121 95.7615 162.789 95.429 162.124C95.0965 162.124 94.7639 161.792 94.4314 161.46C94.0989 161.127 93.4339 160.795 93.1014 160.13C92.7689 159.798 92.7689 159.466 92.7689 159.466L92.1039 158.801C91.7714 158.136 91.1064 157.472 90.4414 157.14C89.7764 156.475 89.1114 156.143 88.7789 155.478C88.4464 155.146 88.4463 154.813 87.7813 154.813C87.7813 154.813 87.4488 154.813 87.4488 154.481C87.1163 153.816 86.1188 153.152 85.7863 152.819C85.1213 152.155 84.4563 151.49 83.4588 151.158C83.1263 150.493 82.1288 150.161 81.7962 149.496C81.4637 148.831 80.7987 148.499 80.1337 147.834C79.1362 146.838 77.8062 145.841 76.8087 144.844C75.8112 144.179 74.8136 143.182 73.8161 142.185C73.1511 141.52 72.4861 141.188 72.1536 140.523C71.4886 139.859 70.8236 139.526 70.1586 138.862C69.8261 138.197 69.1611 137.865 68.496 137.2C68.1635 136.868 67.4985 136.536 67.166 135.871C66.8335 135.206 63.5085 135.206 63.5085 134.209C63.176 133.545 62.511 132.548 62.1784 131.883C61.5134 131.218 60.8484 130.886 59.8509 130.554C59.5184 130.221 59.1859 130.221 58.5209 129.889C58.5209 129.557 58.5209 129.224 58.8534 129.224C58.8534 128.892 58.8534 128.56 58.5209 128.56C58.1884 128.56 58.1884 128.227 58.1884 128.227C57.8559 127.563 57.8559 127.231 57.8559 126.566V125.901C57.8559 125.237 57.5234 125.237 57.1909 124.572C56.8584 124.572 56.8584 124.24 56.8584 124.24C56.8584 123.907 56.5259 123.907 56.5259 123.575C56.8584 123.243 56.5259 122.91 56.5259 122.91L55.8609 122.246V121.913C56.8584 121.581 57.5234 121.581 58.1884 122.246C59.5184 123.575 60.8484 124.24 62.511 124.904C63.5085 125.569 64.1735 125.901 65.171 126.566H65.5035C65.836 126.898 65.836 126.898 65.836 126.566L66.501 125.901H66.8335H67.166C67.831 125.901 68.1635 125.237 67.831 124.24C67.831 123.907 67.831 123.575 67.4985 123.575C67.4985 123.243 67.4985 123.243 67.166 122.91C66.501 122.246 65.836 121.581 64.8385 121.249C64.506 120.916 63.5085 120.584 63.176 120.252C62.8435 120.252 62.8435 119.919 62.8435 119.587C61.8459 118.59 60.8484 117.593 59.8509 116.596C58.5209 115.267 57.5234 113.938 56.1934 112.941C55.8608 112.276 55.1958 111.944 54.8633 111.279V110.947C53.5333 111.944 53.5333 111.279 52.5358 110.614C51.8708 109.95 51.2058 109.285 50.5408 108.953C50.2083 108.62 50.2083 108.288 49.8758 108.288C49.5433 107.623 48.8782 106.959 48.2132 106.627C46.8832 105.63 45.8857 104.633 44.8882 103.636C44.5557 102.971 44.2232 102.971 43.5582 102.639C43.2257 102.639 42.8932 101.974 42.2281 101.974C41.2306 100.977 40.2331 99.9801 39.2356 98.9831C38.9031 98.6508 38.9031 98.3185 38.9031 98.3185C38.5706 97.9861 38.2381 97.6538 37.9056 96.9892C37.5731 96.6569 36.5756 96.3245 36.2431 96.3245C35.9105 95.6599 35.9105 95.6599 35.9105 95.3276V94.6629C35.9105 93.9983 35.578 93.666 35.578 93.0013C35.2455 93.0013 35.2455 92.669 35.2455 92.669C34.248 91.672 33.2505 91.0074 32.253 90.0104C30.923 89.0134 29.9255 88.0165 28.9279 87.0195C27.5979 86.0225 26.6004 85.0256 25.6029 84.0286C24.2729 83.0316 23.6079 82.0347 22.6103 81.0377C21.9453 80.3731 20.9478 79.3761 20.2828 78.3791C19.9503 78.0468 19.2853 77.7145 18.9528 77.7145C18.6203 77.3822 18.2878 77.7145 17.9553 78.0468C17.6228 78.3791 17.2903 78.7114 16.9578 79.0438C16.6253 79.3761 16.6253 79.7084 16.6253 79.7084C16.6253 79.7084 15.6277 80.3731 15.6277 80.7054C15.6277 81.0377 15.9602 81.0377 15.9602 81.37C16.9578 82.367 17.9553 83.6963 18.9528 84.6933C19.6178 85.3579 20.2828 86.3549 20.9478 87.0195C21.6128 87.6841 22.2778 88.3488 23.2754 89.0134C24.2729 90.0104 25.2704 90.675 26.2679 91.672C26.6004 92.3367 27.2654 92.669 27.5979 93.3336C27.9304 93.6659 28.2629 93.9983 28.5954 94.3306C28.9279 94.9952 29.2604 94.9952 29.9255 94.6629C30.258 94.6629 30.5905 94.6629 31.2555 94.9952C31.9205 95.3276 32.5855 95.9922 33.2505 96.6569C33.2505 97.3215 33.583 97.3215 33.2505 97.9861C33.2505 97.9861 33.2505 98.3185 32.918 98.3185C32.918 98.9831 32.918 99.3154 33.2505 99.6478C33.583 99.9801 33.583 100.312 33.9155 100.977C34.248 101.642 34.913 102.306 35.2455 102.971C36.5756 104.633 38.5706 105.962 40.2331 107.291C41.5631 108.62 43.2257 109.95 44.5557 110.947C45.5532 111.944 46.5507 112.941 47.5482 113.938C47.8807 114.602 48.5457 114.935 49.2108 115.599C49.2108 115.932 49.5433 115.932 49.5433 116.264C49.5433 116.929 49.8758 116.929 50.2083 117.261C50.8733 117.593 51.5383 118.258 51.8708 118.922C52.2033 119.587 52.2033 120.252 51.5383 120.584C51.2058 120.916 50.8733 121.249 50.5408 121.249H48.2132C47.8807 121.249 47.2157 120.916 46.8832 120.584C46.5507 120.584 46.5507 120.252 46.5507 120.252C46.2182 120.584 45.8857 120.252 45.2207 119.919C44.5557 119.587 43.8907 119.255 42.8932 118.59C42.2281 117.925 41.8956 117.593 41.5631 116.929C40.8981 116.264 40.2331 115.267 39.9006 114.935C39.5681 114.602 38.9031 113.938 38.5706 113.273C37.2406 111.944 35.578 110.614 34.248 109.617C32.918 108.288 31.9205 106.959 30.258 105.63C28.9279 103.968 27.2654 102.306 25.9354 100.977C24.2729 99.3154 22.6103 97.6538 20.9478 96.3245C19.2853 94.6629 17.6228 93.0013 15.9602 91.672C14.6302 90.0104 12.9677 88.3488 11.3052 87.0195C9.97515 85.6902 8.64513 84.3609 6.98261 82.6993C6.6501 82.367 6.6501 82.0347 6.3176 82.0347C5.32008 81.37 4.65507 80.3731 3.65756 79.3761C2.99255 78.7114 1.99503 77.7145 1.33002 77.0498H0.66501C0.332505 77.3822 0.332505 77.7145 0.332505 77.7145V79.3761V82.0347V84.0286V86.6872V87.3518H0.66501C0.66501 87.6842 0.332505 88.0165 0.332505 88.0165L0 88.6811V92.3367V94.9952V97.6538V99.3154C0 99.3154 0 99.6478 0.332505 99.9801V100.645C0 100.977 0 101.309 0.332505 101.309V101.642V102.639C0.332505 102.971 0 103.303 0 103.303V106.959V109.617V112.276V114.935V117.261V120.916V124.904V127.563V130.554V133.212V135.871V138.529C0 139.526 0.332505 140.523 0.332505 141.52V143.182V144.844V145.841V146.173V149.828V150.825V152.487V160.463V163.121C0.332505 163.454 0.332505 163.786 0.66501 163.786C0.997515 164.118 0.997515 164.451 0.997515 164.783C1.33002 165.448 1.33002 165.78 1.33002 166.445C0.997515 167.109 0.997515 167.442 0.997515 168.106C0.997515 168.438 0.997515 168.771 0.66501 169.103V169.768V173.423V177.079V179.737V181.399V183.061V183.725V186.384V189.042V192.033C0.66501 193.363 0.997515 194.692 1.66253 195.689C1.99503 196.354 2.32754 197.018 2.66004 197.351C2.99255 197.683 2.99255 198.015 2.99255 198.347C3.32505 199.012 3.65756 199.344 3.99006 199.677C4.65507 200.009 4.65507 200.341 5.32008 200.341C6.3176 200.341 7.31511 201.006 8.31263 201.671C8.64513 202.003 8.64513 202.335 8.64513 202.335C8.97764 202.668 8.97764 202.668 8.97764 202.668H10.6402C10.9727 202.668 11.3052 203 11.6377 202.335C11.9702 202.335 11.9702 202.335 11.9702 202.668C12.3027 203 12.3027 203 12.6352 203C13.3002 202.668 13.9652 203 14.2977 203H14.6302C15.2952 202.668 15.9602 202.668 16.9578 202.668C17.2903 202.668 17.2903 202.335 17.6228 202.335C17.9553 202.335 18.6203 202.668 19.2853 202.668L20.2828 202.335C20.6153 202.003 20.6153 202.003 20.6153 202.335C20.9478 202.668 21.6128 203 21.9453 202.668H23.6079C23.9404 202.668 23.9404 202.668 24.2729 202.335C24.2729 202.003 24.6054 201.671 24.6054 201.671C24.9379 202.003 24.9379 202.335 24.9379 202.335C25.2704 202.668 25.2704 203 25.9354 203H26.2679C27.2654 202.668 28.2629 202.335 28.5954 201.671C28.9279 201.338 28.9279 201.338 28.9279 201.338C29.9255 200.674 30.258 200.674 30.5905 200.341C30.923 199.677 30.923 199.677 31.2555 200.009C31.588 200.341 31.588 200.674 31.9205 200.674C31.9205 201.338 32.253 201.338 32.253 201.671C32.5855 202.335 32.5855 202.335 32.918 202.335C33.2505 202.335 33.9155 202.668 34.248 202.668C34.5805 202.668 34.913 202.335 35.578 202.335H35.9105C36.2431 202.668 37.2406 202.668 37.5731 202.668H37.9056H40.2331H43.5582H46.2182H49.8758C51.2058 202.668 52.2033 202.668 53.2008 202.335H56.1934H56.8584H57.1909C58.1884 202.668 58.8534 202.335 59.8509 202.335H64.1735H66.8335H68.1635H70.1586H72.8186C73.4836 202.335 74.1486 202.335 75.1461 202.003H75.4787C76.1437 202.335 76.8087 202.335 77.8062 202.335H79.1362H80.1337H81.4637H83.7913C84.1238 202.003 84.1238 202.003 84.1238 202.003C84.4563 202.335 85.1213 202.335 85.4538 202.003H86.1188H89.4439C89.7764 202.003 90.7739 202.003 91.1064 201.671C91.4389 201.338 91.7714 201.338 92.1039 201.671C92.4364 201.671 92.4364 202.003 92.4364 202.003C93.1014 202.335 94.0989 202.003 94.7639 202.003C94.7639 201.338 94.4314 201.006 94.4314 200.341C94.7639 200.341 95.0965 200.341 95.429 201.006C95.429 201.338 95.429 201.338 95.7615 201.671H96.094C96.4265 201.006 96.4265 201.006 96.759 201.338V202.003C96.759 202.335 96.759 202.335 97.0915 202.335H99.419H102.412H103.409C103.742 201.671 103.742 201.671 103.409 201.338C103.077 201.006 103.077 200.674 103.409 200.674C103.409 200.341 103.742 200.341 103.742 200.674C104.074 201.006 104.074 201.338 104.074 201.671H104.407V202.335C104.739 202.335 105.072 202.335 105.404 202.003C105.737 201.671 105.737 201.338 105.737 201.338C106.069 201.671 106.402 202.003 106.734 202.003C107.067 202.335 107.067 202.335 107.399 202.335H111.722C112.387 202.335 113.052 202.003 114.049 202.003H114.382C114.714 201.338 115.379 201.671 115.712 202.003H116.044C117.374 202.335 118.704 202.335 120.034 202.003C120.699 202.003 121.364 201.671 122.029 201.338C122.362 201.006 123.027 200.674 123.359 200.674C123.692 200.341 123.692 200.341 123.692 200.009C123.692 199.677 123.692 199.677 124.024 199.677C124.357 199.677 124.689 199.344 125.022 199.012C125.354 198.68 125.354 198.68 125.687 198.68C126.019 198.68 126.019 199.012 126.019 199.012C126.352 199.012 126.352 199.012 126.684 198.68C127.017 198.015 127.349 197.683 128.014 197.018C128.014 196.686 128.347 196.686 128.347 196.354C128.679 196.354 128.679 196.021 128.679 196.021V195.689C129.012 195.357 129.012 195.024 129.012 194.692C129.344 194.36 129.677 194.027 129.677 193.363V192.033C129.677 191.701 129.677 191.701 130.009 191.369C130.009 191.369 130.342 191.036 130.342 190.704C130.342 189.707 130.342 189.042 130.009 188.045C130.009 187.381 130.009 187.381 130.342 186.716C130.674 186.052 130.674 185.387 130.674 185.055V184.39C130.674 184.058 131.007 183.725 131.007 183.725C130.674 183.725 130.674 183.725 130.674 183.393C130.674 183.393 130.674 182.728 131.007 182.728C131.339 182.728 131.339 182.396 131.339 182.396V183.725V183.061V182.728C133.667 182.396 133.667 181.731 133.335 181.731Z"
     fill="#D50032"
     id="path2" />
  <path
     d="M0.470233 65.0163C0.802738 65.0163 1.13524 65.3486 1.46775 65.6809H1.80025C2.13276 66.3456 2.13276 66.3456 2.13276 67.0102C2.13276 67.6749 2.13276 68.6718 2.46526 69.0042C2.79777 69.0042 3.13027 69.3365 3.46278 69.6688C3.79528 70.0011 3.79528 70.3335 4.12779 70.3335C5.45781 71.6627 7.12034 72.992 8.45036 74.3213C8.78286 74.6537 9.11537 74.986 9.44787 74.986C9.78038 74.986 10.1129 74.6537 10.7779 74.6537C11.7754 73.989 12.7729 73.3244 13.4379 72.6597C13.7704 72.3274 13.7704 71.9951 13.7704 71.3304C13.4379 70.3335 12.4404 69.6688 11.7754 69.0042C10.4454 67.3426 8.78286 66.3456 7.45284 64.684C6.12282 63.0224 4.12779 61.6931 2.79777 60.0315C2.46526 59.6991 2.13276 59.3668 1.80025 59.3668C1.13524 59.0345 0.802738 59.0345 0.802738 58.7022C0.470233 58.7022 0.470233 58.3699 0.470233 58.0375C0.137728 58.3699 0.137728 58.7022 0.137728 59.3668V63.0224V65.3486C-0.194777 65.3486 0.137728 65.0163 0.470233 65.0163Z"
     fill="#D50032"
     id="path4" />
  <path
     d="M134 37.2201C133.667 36.8878 134 36.5555 134 36.5555V33.2322C133.667 32.5676 133.667 31.5706 133.667 30.5737V27.5828V25.2565V22.2656V18.6101C133.667 17.6131 133.335 16.6161 133.335 15.6192V13.2929V10.302V7.31109C133.335 6.97877 133.002 6.97877 133.002 6.64645C132.337 5.9818 131.672 4.98484 131.34 3.98787C131.007 3.65555 131.007 3.32322 131.007 3.32322C130.342 2.65858 129.677 2.65858 129.345 1.66161C129.012 0.996967 128.347 0.996967 127.682 0.996967C127.35 1.32929 127.35 1.32929 127.017 0.996967C126.685 0.996967 126.685 0.664645 126.685 0.664645C126.352 0.664645 126.352 0.332322 125.687 0.664645C125.355 0.332322 125.355 0.332322 125.355 0.332322H123.027C122.362 0 121.365 0 120.7 0H116.71H113.385C113.052 0 113.052 0 112.72 0.332322C112.387 0.664645 112.387 0.664645 112.055 0.332322C112.055 0 111.722 0 111.722 0C111.057 0.332322 110.392 0.332322 110.06 0.332322L109.727 0.664645H107.067H103.077H97.0919H93.1018C92.7693 0.664645 92.1043 0.996967 91.7718 0.996967C91.4393 0.996967 91.4393 1.32929 91.4393 1.32929H88.7792H86.1192H83.4592H81.1316H78.4716H75.479H72.819H70.4915H66.5014H63.5088H60.8488H58.5213H55.8612H53.2012H50.5411C50.2086 1.32929 49.8761 1.32929 49.5436 0.996967C49.2111 0.664645 49.2111 0.996967 48.5461 0.996967C48.2136 1.32929 48.2136 1.32929 47.8811 1.32929H45.5536C45.2211 1.32929 45.2211 1.32929 44.8886 1.66161C44.556 1.66161 43.891 1.99393 43.5585 1.66161H43.226H40.2335C39.5685 1.66161 38.9035 1.66161 38.2385 1.99393C37.9059 1.99393 37.2409 1.99393 36.9084 2.32626H36.2434H34.9134C34.2484 2.32626 33.5834 2.32626 32.9184 1.66161C32.9184 1.32929 32.5859 1.32929 32.5859 1.32929H30.2583C29.2608 1.32929 27.9308 1.32929 26.9333 1.66161H25.9358H22.9432C22.2782 1.66161 21.6132 1.99393 21.2807 1.99393H20.9482C20.9482 2.65858 20.6157 2.65858 20.6157 2.32626C19.9507 1.66161 19.6182 1.66161 19.2857 1.66161C17.9556 1.66161 16.9581 1.66161 15.9606 1.99393H14.6306C13.9656 1.99393 13.3006 1.99393 12.3031 1.66161H11.638C11.3055 1.66161 11.3055 1.66161 11.3055 1.99393C10.973 2.32626 10.6405 2.32626 10.308 2.32626C9.97552 1.99393 9.31051 2.32626 8.978 2.32626V2.9909C8.6455 2.9909 8.6455 2.9909 8.31299 2.65858V1.99393H7.98049C7.64798 2.32626 7.31548 2.32626 7.64798 2.9909C7.64798 3.32322 7.64798 3.65555 7.98049 3.65555C8.31299 3.65555 8.31299 3.98787 8.31299 4.32019H8.6455C8.978 4.65251 8.978 4.98484 8.978 5.31716C8.6455 5.31716 8.6455 5.64948 8.6455 5.31716C8.6455 5.31716 8.31299 5.31716 8.31299 4.98484C8.31299 4.98484 8.31299 4.65251 7.98049 4.65251C7.98049 4.32019 7.98049 4.32019 7.64798 4.32019H7.31548V4.65251C6.98297 4.32019 6.31796 4.32019 5.98546 3.98787C5.32045 4.32019 5.32045 4.32019 4.65544 4.65251C4.32293 4.65251 4.32293 4.98484 3.99043 5.31716C3.65792 6.31413 2.99291 7.31109 2.3279 8.30806C1.9954 8.30806 1.66289 8.64038 1.66289 8.9727C1.33039 9.63735 1.33039 10.302 0.665376 10.6343C0.665376 10.9666 0.332871 11.299 0.332871 11.6313C0.665376 12.2959 0.332871 13.2929 0.332871 13.9575C0.332871 14.2899 0.332871 14.6222 0.000366211 14.6222C0.000366211 15.2868 0.000366211 15.6192 0.000366211 16.2838V20.2717V22.5979C0.000366211 22.9302 0.332871 23.2626 0.332871 23.2626C0.665376 23.2626 0.665376 22.9302 0.665376 22.5979C0.997882 22.2656 0.997882 21.9333 1.33039 21.9333V22.9302C1.33039 23.5949 0.997882 23.5949 0.665376 23.5949C0.332871 23.2626 0.332871 23.2626 0.332871 23.2626C0.000366211 23.9272 0.332871 24.2595 0.332871 24.9242C0.000366211 25.5888 0.332871 26.2535 0.332871 26.9181V28.5797V30.2413H0.665376C0.665376 30.5737 0.332871 30.5737 0.332871 30.906C0.000366211 30.906 0.000366211 30.906 0.000366211 31.2383V31.9029V34.5615V37.2201V40.211V44.1989V45.5282V46.8575V49.516V52.1746V55.4978C0.000366211 56.1625 0.000366211 56.1625 0.332871 56.4948V55.8302H0.665376C1.9954 55.8302 2.99291 55.4978 3.99043 55.1655C4.32293 55.1655 4.32293 54.8332 4.32293 54.8332C5.32045 54.8332 5.98546 55.4978 6.65047 56.1625C6.98297 56.4948 6.98297 56.8271 6.98297 56.8271C8.978 58.4887 10.973 60.4827 12.9681 62.4766C13.3006 62.4766 13.3006 62.8089 13.3006 62.8089L14.2981 61.812C14.6306 61.4796 14.6306 61.1473 14.6306 61.1473C14.9631 61.1473 15.2956 60.815 15.2956 60.4827C15.6281 60.4827 15.9606 60.4827 16.2931 60.815C16.6256 60.815 17.6231 60.815 17.6231 61.1473C18.6207 61.4796 19.2857 61.812 19.9507 62.1443C20.2832 62.4766 20.2832 62.8089 20.2832 62.8089H20.6157C20.9482 62.8089 21.2807 63.1413 21.2807 63.4736C23.2757 63.8059 23.2757 64.1382 23.2757 64.4705C23.6082 65.1352 23.9407 65.4675 24.2732 66.1321C24.6057 66.4645 24.6057 66.7968 24.9382 66.7968C25.2708 67.4614 25.9358 67.7938 26.2683 68.1261C26.6008 68.4584 26.6008 68.4584 26.6008 68.7907C26.6008 69.1231 26.6008 69.4554 26.9333 70.12C26.9333 70.4523 26.6008 70.4523 26.6008 70.7847C26.2683 71.117 26.2683 71.4493 25.9358 71.4493C25.6033 72.114 25.6033 73.1109 26.2683 74.1079L26.6008 73.7756C26.2683 74.1079 26.6008 74.1079 26.9333 74.4402C27.2658 74.7725 27.5983 75.1049 27.5983 75.7695C27.5983 76.1018 27.5983 76.1018 27.9308 76.1018C28.2633 76.4341 28.9283 76.7665 29.2608 76.7665C29.5933 77.4311 30.2583 77.7634 30.5908 78.0958C30.9233 78.4281 31.2558 78.7604 31.5884 79.0927C31.9209 79.425 32.9184 79.7574 33.2509 80.422C33.5834 81.0867 34.2484 81.419 34.5809 81.7513C34.9134 82.0836 34.9134 82.0836 34.9134 82.4159L35.2459 82.0836C35.5784 82.0836 35.9109 82.0836 36.2434 81.7513C36.2434 81.419 36.5759 81.419 36.5759 81.419C36.5759 81.419 36.9084 81.419 36.9084 81.0867C37.2409 80.7543 37.5734 80.422 37.9059 80.422C38.2385 79.7574 38.571 79.425 38.9035 78.7604C39.236 78.0958 39.236 78.0958 39.901 78.0958H41.896H43.226C44.2235 78.7604 44.8886 78.7604 45.5536 79.0927C45.8861 79.7574 46.2186 80.0897 46.8836 80.422C47.2161 80.7543 47.5486 81.0867 48.2136 81.0867C48.5461 81.419 48.5461 81.419 48.5461 81.7513C48.8786 82.0836 48.8786 82.4159 49.2111 82.7483C49.8761 83.0806 50.5411 83.4129 51.2062 84.0776C51.5387 84.4099 51.5387 84.4099 51.5387 84.7422C51.5387 85.0745 51.5387 86.0715 51.8712 86.7361C51.5387 87.4008 51.5387 87.7331 51.5387 88.3978L51.2062 88.7301C50.5411 89.0624 49.8761 89.3947 49.5436 89.3947C48.8786 89.727 48.2136 90.0594 48.2136 90.0594C47.5486 90.724 47.2161 91.0563 47.2161 91.721C47.2161 92.0533 47.5486 93.3826 47.8811 93.3826C48.2136 93.7149 48.8786 94.0472 49.2111 94.3795C50.2086 95.3765 51.2062 96.0412 51.5387 97.0381C51.5387 97.0381 51.5387 97.3705 51.8712 97.3705C52.2037 98.0351 53.2012 98.3674 53.8662 99.0321L55.1962 100.361C55.1962 100.694 55.5287 101.026 55.8612 101.358C56.1937 101.691 56.1937 102.023 56.5262 102.023C56.8587 102.023 56.8587 102.355 56.8587 102.688C57.1912 102.023 57.8563 101.691 58.1888 101.026C57.8563 101.026 57.8563 101.026 57.8563 100.694C58.1888 100.694 58.1888 100.361 58.1888 100.361C58.1888 100.029 58.5213 100.029 58.5213 100.029C58.8538 99.3644 58.8538 99.3644 59.5188 99.3644H59.8513C60.1838 99.0321 60.5163 98.6997 61.1813 98.6997C61.5138 98.0351 61.8463 98.0351 62.1788 97.3705C62.5113 96.7058 62.8438 96.3735 63.5088 95.7088L63.8414 95.3765C64.1739 95.0442 64.1739 95.0442 64.5064 94.7119C64.8389 94.7119 65.5039 94.7119 66.1689 95.0442H66.8339H67.1664C67.4989 95.0442 68.1639 95.0442 68.4964 94.7119C68.4964 94.7119 68.8289 94.7119 68.8289 95.0442C69.4939 95.3765 70.1589 95.3765 71.1565 95.3765C71.489 95.7088 71.489 95.7088 71.489 96.0412V96.3735C71.1565 97.0381 71.1565 97.0381 71.489 97.3705C72.154 98.0351 72.819 98.6997 73.1515 99.3644C73.484 100.029 73.8165 100.029 74.149 100.694C74.4815 101.358 74.814 102.355 75.1465 103.352C75.1465 103.685 75.1465 104.017 75.479 104.017C75.479 104.349 75.8115 104.682 75.8115 104.682C76.144 105.346 76.144 105.679 75.479 106.343C75.1465 106.675 74.4815 107.008 74.149 107.34C73.8165 107.672 73.484 108.005 72.819 108.005C72.4865 108.337 71.489 108.669 71.1565 108.669C70.824 108.669 70.4914 109.002 69.8264 109.002C69.1614 109.334 68.4964 109.666 68.4964 110.663C68.1639 111.328 68.4964 111.993 68.8289 112.325C69.1614 112.657 69.1614 112.99 69.4939 112.99C69.8264 113.322 69.8264 113.654 70.1589 113.654C70.4914 113.987 70.4914 113.987 70.824 114.319C71.489 114.984 72.154 115.316 72.4865 115.98C73.1515 116.645 74.149 117.31 74.814 118.307L75.1465 118.639L75.479 118.971C75.479 118.639 75.8115 118.971 75.8115 118.971C76.144 119.304 76.4765 119.636 76.809 119.968C77.1416 120.633 78.1391 121.63 79.1366 122.295C79.4691 121.63 79.4691 121.63 80.1341 120.965V120.633C80.1341 119.968 80.4666 119.968 80.7991 119.636C81.1316 119.304 81.1316 119.304 81.1316 118.971C81.4641 118.639 81.4641 118.307 81.4641 118.307C81.7966 117.974 82.1291 117.642 82.4616 117.31C82.7941 116.977 82.7941 116.645 83.1266 116.645C83.4591 116.645 83.4592 116.313 83.7917 115.98C84.1242 115.98 84.1242 115.98 84.1242 115.648H84.4567C84.7892 115.316 85.1217 114.984 85.4542 114.651C85.7867 114.319 86.1192 113.987 86.4517 113.322C86.7842 112.99 86.7842 112.657 87.4492 112.657C87.4492 112.657 87.7817 112.325 87.7817 111.993C88.1142 111.66 88.1142 111.328 88.1142 111.328C88.4467 110.663 88.4467 110.663 89.1117 110.331C89.4442 109.666 90.4418 109.666 91.1068 109.999C91.4393 110.331 92.4368 110.663 92.7693 110.663C92.7693 110.663 92.7693 110.996 93.1018 110.996C93.4343 111.328 93.7668 111.328 94.0993 111.66C94.4318 111.993 94.7643 112.325 95.4293 112.657C95.4293 112.99 95.7618 112.99 95.7618 112.99C96.0943 113.322 96.0943 113.654 96.0943 113.654C96.4268 113.987 96.4268 114.319 96.0943 114.319C95.7618 114.319 95.7618 114.651 96.0943 114.984C96.4268 115.648 97.0919 116.313 97.4244 116.645C97.7569 116.977 98.0894 117.31 98.4219 117.642C98.7544 118.639 99.0869 119.304 99.0869 120.301C99.0869 120.965 99.4194 120.965 99.4194 121.298C99.7519 121.962 99.7519 122.295 99.7519 122.959C99.7519 123.624 99.4194 123.956 98.4219 124.289C97.4244 124.953 96.7594 125.286 95.7618 125.95C95.0968 126.615 94.4318 126.615 93.4343 127.279L93.1018 127.612C92.7693 127.944 92.7693 128.276 92.4368 128.276C92.1043 128.276 91.4393 128.609 91.1068 128.941C90.7743 128.941 90.7743 129.273 90.7743 129.273C90.4417 129.938 90.1093 130.935 90.4418 131.6C90.7743 131.932 90.7743 132.264 90.4418 132.264C90.7743 132.929 91.1068 132.929 91.7718 133.594L92.4368 134.258C92.7693 134.923 93.4343 135.255 93.7668 135.92C94.0993 136.252 94.0993 136.584 94.0993 136.584C94.4318 137.249 95.0968 137.581 95.7618 137.914C96.0943 138.578 96.7593 138.578 97.4244 139.243H97.7569H100.084H103.409H106.734C107.067 139.243 107.067 139.243 107.4 138.911H108.397H111.722C112.055 138.911 112.72 138.911 113.052 138.578V138.246C113.385 137.581 113.717 136.584 114.05 135.588C114.05 135.255 114.05 134.923 114.382 134.923C114.715 133.926 114.382 132.929 114.382 131.932V131.267C114.05 130.603 114.05 129.606 113.385 128.941C113.052 128.276 113.052 127.612 113.385 127.279V126.615C113.052 126.282 113.052 125.95 113.052 125.95C113.052 125.286 113.052 124.621 113.385 124.289C113.385 123.624 113.717 122.627 113.717 121.962C114.05 121.298 114.05 121.298 114.382 120.965C114.715 120.633 114.715 120.633 115.047 120.633C115.38 120.301 116.045 119.968 116.377 119.636C116.377 119.304 116.377 119.304 116.71 119.304L117.375 118.639C117.707 118.307 117.707 118.307 117.707 118.307H118.705C119.037 118.307 120.035 118.307 120.7 118.639H121.032C121.365 118.639 122.03 118.307 122.362 118.307C123.027 117.974 123.692 117.642 124.69 117.642C125.022 117.642 125.022 117.974 125.022 117.642H125.355C125.687 116.977 125.687 116.977 126.02 116.645C126.352 116.645 126.685 116.313 127.017 116.645C127.35 116.645 127.35 116.645 127.682 116.977C128.015 116.977 128.015 117.31 128.015 117.642V118.639C128.015 119.304 127.682 119.968 127.682 120.301V120.965V123.624V123.956V124.953V125.618V126.615L128.347 129.606C128.68 130.27 128.68 130.935 128.68 131.6C129.012 132.264 129.012 132.597 129.012 132.929C129.345 132.929 129.345 132.597 129.345 132.597C129.012 131.6 129.677 127.944 129.677 126.947V124.289C129.677 123.292 129.345 122.295 129.345 121.298V118.639V115.98C129.345 114.984 129.677 113.987 129.677 112.99V110.331V107.34V104.682V101.691C129.345 100.361 129.345 99.0321 129.345 98.0351V94.7119V92.0533V89.3947C129.345 88.3977 129.677 87.7331 129.677 86.7361V84.0776C129.345 83.0806 129.345 82.4159 129.345 81.419V78.7604V76.7665V74.1079V71.117C129.345 69.7877 129.012 68.4584 129.012 67.4614V64.1382V61.4796V60.4827C133.002 60.1503 133.002 59.818 133.002 59.4857C133.002 52.8393 133.667 45.8605 133.667 39.214C134 38.5494 134 37.8848 134 37.2201ZM35.9109 51.51C35.9109 52.1746 35.5784 52.8393 35.9109 53.5039C35.9109 53.8362 35.9109 54.1685 35.5784 54.1685C35.2459 54.8332 34.9134 55.1655 34.9134 55.8302C34.5809 55.8302 34.5809 56.1625 34.5809 56.1625C34.2484 56.4948 34.2484 56.8271 34.2484 56.8271C33.9159 57.1594 33.9159 57.4918 33.9159 57.8241C33.5834 58.1564 33.2509 58.4887 33.2509 59.1534C32.9184 59.818 32.5859 60.1504 32.2534 60.815H31.5884L31.2558 61.4796C31.2558 61.812 30.9233 62.1443 30.9233 62.1443H30.2583C29.9258 62.1443 29.2608 62.1443 28.9283 61.4796C28.9283 61.1473 28.5958 61.1473 28.5958 60.815C27.5983 60.4827 27.2658 60.1504 26.9333 59.1534C26.9333 58.8211 26.6008 58.4887 26.6008 58.4887C26.2683 57.8241 25.9358 57.4918 25.6033 56.8271C25.2708 56.4948 25.2708 56.1625 24.9382 56.1625C24.6057 55.8302 24.6057 55.4978 24.6057 55.4978V54.8332C24.2732 54.1685 23.9407 53.1716 23.6082 52.8393L23.2757 52.5069V51.8423C23.2757 51.51 23.2757 51.1776 22.9432 50.8453C22.9432 50.513 22.9432 50.1807 22.6107 49.8484C22.2782 49.8484 22.2782 49.516 22.2782 49.516C22.6107 48.8514 21.9457 48.5191 21.9457 47.8544C21.6132 47.5221 21.6132 47.1898 21.6132 46.8575C21.6132 46.8575 21.6132 46.5251 21.2807 46.5251C20.9482 45.8605 20.9482 45.8605 21.6132 45.1958C21.9457 44.8635 21.9457 44.5312 21.9457 44.1989C21.9457 43.5342 22.2782 43.5342 22.2782 43.2019H22.6107C22.9432 43.5342 23.2757 43.8666 23.9407 43.8666H24.6057H24.9382C25.2708 43.8666 25.2708 44.1989 25.9358 44.5312L27.2658 45.1958C27.5983 45.1958 27.9308 45.5282 28.2633 45.5282C28.5958 45.8605 28.9283 46.1928 29.2608 46.1928H30.2583H30.5908C30.9233 46.8575 31.2558 46.8575 31.9209 46.5251V46.8575C32.2534 47.5221 32.5859 47.8544 33.2509 47.5221C33.5834 47.5221 33.9159 47.5221 34.2484 47.8544C34.5809 48.5191 34.5809 48.8514 34.5809 49.1837C34.5809 49.8484 34.5809 50.1807 34.9134 50.513C34.9134 50.8453 35.2459 50.8453 35.2459 50.8453V51.51H35.9109ZM67.1664 69.4554C66.8339 69.7877 66.1689 70.12 66.1689 70.7847C66.1689 71.117 65.8364 71.4493 65.8364 71.4493C65.8364 72.114 65.5039 72.114 65.8364 72.4463C66.1689 73.4432 65.8364 74.1079 65.1714 74.4402C64.8389 74.7725 64.8389 74.7725 64.8389 75.1049C64.5064 75.7695 64.5064 76.1018 63.8414 76.7665C63.5088 77.0988 63.1763 77.4311 63.5088 78.0958C63.5088 78.4281 63.5088 78.7604 63.1763 78.7604C63.1763 79.425 62.8438 79.425 62.1788 79.425C61.5138 79.425 61.5138 79.425 61.1813 79.7574H60.8488C60.5163 79.425 59.8513 79.7574 59.5188 79.425H59.1863H58.8538H57.8563C57.8563 79.0927 57.5237 79.0927 57.5237 79.0927C57.1912 78.4281 56.8587 78.4281 56.1937 78.4281C55.5287 78.4281 55.5287 77.7634 54.8637 77.7634C54.8637 77.4311 54.8637 77.0988 54.5312 77.0988C54.5312 76.7665 54.1987 76.4341 53.8662 76.4341C53.5337 76.1018 53.2012 75.7695 52.8687 75.4372C52.5362 74.7725 52.5362 74.4402 52.5362 73.7756V73.1109V72.4463C52.5362 72.114 52.5362 71.7816 52.2037 71.7816C52.2037 71.4493 51.8712 71.117 52.2037 71.117V69.7877H51.8712C51.5387 69.4554 51.5387 69.1231 51.5387 68.7907C51.5387 68.1261 51.5387 68.1261 51.2062 67.4614C51.2062 66.7968 51.2062 66.7968 51.5387 66.4645C51.5387 65.7998 51.2062 65.4675 51.5387 65.1352C51.2062 64.4705 51.5387 63.8059 51.8712 63.1412C51.8712 62.8089 51.8712 62.4766 51.5387 62.1443C51.5387 61.812 51.2062 61.4796 51.2062 61.4796C51.2062 60.815 51.5387 60.4827 51.8712 60.4827C52.2037 60.1503 52.2037 60.1503 52.5362 60.1503C52.8687 60.1503 52.8687 60.4827 53.2012 60.815V61.1473C53.5337 61.1473 53.5337 60.815 53.8662 61.1473C54.1987 61.4796 54.1987 61.4796 54.1987 61.4796C54.5312 61.1473 54.5312 61.4796 54.5312 61.812L54.8637 62.1443C55.1962 62.1443 55.5287 62.1443 55.8612 62.4766C56.1937 62.8089 56.1937 62.8089 56.1937 62.8089C56.5262 62.4766 57.1912 62.8089 57.5237 63.4736C57.8563 63.8059 58.5213 64.1382 58.8538 64.1382C59.1863 64.1382 59.1863 64.1382 59.1863 64.4705C59.5188 64.4705 60.5163 64.8029 60.8488 64.8029C60.8488 65.4675 61.1813 65.4675 61.8463 65.4675H62.1788C62.5113 65.4675 62.5113 65.7998 62.5113 65.7998L63.8414 67.1291C64.1739 67.1291 64.1739 67.7938 64.5064 67.7938C64.8389 67.4614 65.1714 67.4614 65.1714 67.7938C65.5039 68.4584 65.8364 68.4584 65.8364 69.1231C66.8339 68.7907 66.8339 68.7907 67.1664 69.4554ZM94.7643 90.3917C94.7643 90.724 94.4318 91.0563 94.4318 91.0563C94.0993 91.0563 94.0993 91.3886 94.0993 91.721H93.1018C92.7693 92.0533 92.4368 92.0533 92.1043 92.3856C91.7718 92.3856 91.4393 92.7179 91.1068 92.7179C90.4418 93.0503 89.7767 93.3826 89.1117 93.3826C88.1142 94.0472 87.7817 94.0472 87.1167 95.3765C86.7842 95.7088 86.7842 96.0412 86.7842 96.0412C86.4517 96.0412 86.4517 96.0412 86.4517 96.3735C86.1192 96.7058 86.1192 97.0381 86.1192 97.0381C85.7867 97.3705 85.7867 97.3705 85.7867 97.3705C85.4542 98.0351 85.4542 98.0351 85.1217 98.0351C84.7892 98.0351 84.4567 97.3705 84.1242 97.3705C83.7916 97.0381 83.1266 97.0381 82.7941 96.3735H82.4616C82.1291 96.0412 82.1291 96.0412 82.1291 96.0412C81.7966 95.3765 81.7966 94.7119 81.7966 94.3795C81.4641 94.0472 81.4641 94.0472 81.4641 94.0472C81.1316 93.7149 81.1316 93.7149 80.7991 93.3826C80.4666 92.7179 80.1341 92.7179 79.8016 92.0533C79.8016 91.721 79.8016 91.3886 79.4691 91.3886C79.4691 91.0563 79.1366 90.724 79.4691 90.724C79.4691 90.3917 79.1366 90.3917 79.1366 90.0594C78.8041 89.3947 78.4716 88.3977 77.8066 87.7331C77.8066 87.4008 77.8066 87.0685 78.1391 87.0685C77.8066 86.4038 77.8066 86.0715 77.4741 85.4068C77.4741 85.0745 77.1415 84.7422 77.4741 84.7422C77.4741 84.4099 77.4741 84.0776 77.1416 84.0776C76.8091 83.4129 76.809 83.0806 76.809 82.7483C76.809 82.0836 76.809 81.7513 76.4765 81.0867C76.144 80.422 76.144 80.0897 76.144 79.425C76.4765 79.425 76.8091 79.0927 77.1416 79.0927C77.8066 79.0927 78.4716 79.0927 78.8041 79.425C79.8016 79.7574 80.7991 79.7574 81.7966 79.7574C82.1291 79.7574 82.1291 79.425 82.4616 79.0927C82.7941 78.7604 83.1266 78.7604 83.7917 79.0927H83.1266C83.4591 79.0927 83.4591 79.425 84.1242 79.425C84.4567 79.7574 84.4567 79.7574 84.7892 80.0897C85.1217 80.0897 85.1217 80.0897 85.4542 80.422C85.4542 80.7543 85.7867 80.7543 85.7867 81.0867C86.1192 81.419 86.7842 81.7513 87.4492 81.7513L87.7817 82.0836C88.1142 82.7483 88.1142 82.7483 88.7792 82.7483H89.1117L91.1068 84.0776C91.1068 84.4099 90.7743 84.7422 90.7743 84.7422C91.1068 85.4068 91.4393 85.0745 91.7718 85.0745C92.1043 85.0745 92.1043 85.0745 92.4368 85.4068C92.7693 85.7392 92.7693 86.0715 92.7693 86.0715C92.7693 86.7361 92.7693 87.0685 93.1018 87.4008C94.0993 87.7331 94.4318 88.7301 94.7643 90.3917ZM121.032 108.669V109.334C121.032 109.999 120.7 109.999 120.7 110.331C120.367 110.663 120.367 110.996 120.367 110.996C120.035 111.66 120.035 111.66 120.035 112.325C119.702 112.99 119.37 113.987 119.37 114.651C119.37 115.316 119.037 115.648 119.037 116.313C118.705 116.645 118.372 116.645 117.707 116.645C117.375 116.313 117.042 116.313 116.377 115.98C116.045 115.648 115.712 115.648 115.047 115.98C114.382 116.313 114.05 116.313 113.385 116.313C113.052 116.645 112.387 116.645 111.722 116.645C111.057 116.977 110.392 116.977 109.395 117.31C108.73 116.977 108.065 117.31 107.4 116.645C107.067 116.313 106.735 116.313 106.402 116.313C106.069 116.313 105.404 116.313 104.739 115.98H104.407C104.074 115.648 103.742 115.316 103.409 114.984C103.077 114.651 103.077 114.651 103.077 114.319C103.077 114.319 102.744 113.987 102.744 113.654C102.412 113.322 102.412 112.99 102.412 112.657C102.412 111.993 102.412 111.328 102.079 110.663C102.079 110.663 102.412 110.331 102.412 109.999C102.079 109.334 102.744 108.669 102.079 108.337C101.747 108.337 101.747 108.005 101.747 108.005C102.079 107.672 101.747 107.34 101.747 107.008C101.414 106.675 101.414 106.343 101.747 106.011C102.079 105.679 102.412 105.346 102.079 104.682C102.079 104.349 102.079 104.017 102.412 104.017V103.352C102.412 102.688 102.744 102.688 102.744 102.023V100.361C102.412 99.6967 102.412 98.6997 102.412 98.3674V97.3705C102.744 97.0381 102.744 96.3735 103.742 95.7088C104.074 96.0412 104.407 96.0412 104.739 96.3735C105.404 96.7058 106.069 97.0381 107.067 97.0381C107.4 97.0381 107.732 97.0381 108.065 97.3705C108.397 97.7028 108.397 97.7028 108.73 97.7028C109.062 98.0351 109.727 98.0351 110.06 98.3674C110.392 98.6997 111.057 99.0321 111.39 99.0321C111.722 99.0321 111.722 99.0321 111.722 99.3644C112.055 99.6967 112.72 99.6967 113.052 100.029C113.385 100.029 113.385 100.361 113.385 100.361C113.717 100.694 114.05 101.026 114.715 101.026C114.715 101.026 115.047 101.026 115.047 101.358C115.38 101.691 115.712 102.023 116.045 102.355C116.377 103.02 116.71 103.02 117.375 103.352C118.04 103.685 119.037 104.017 119.37 105.014H119.702C120.035 105.679 120.367 105.679 120.367 106.343C120.367 106.675 120.7 107.008 120.7 107.008C120.7 107.34 121.032 107.672 121.032 107.672C121.365 108.337 121.365 108.337 121.697 109.334C121.697 108.005 121.365 108.337 121.032 108.669Z"
     fill="#D50032"
     id="path6" />
</svg>
