<?xml version="1.0" encoding="UTF-8" standalone="no"?>
<svg
   xmlns:dc="http://purl.org/dc/elements/1.1/"
   xmlns:cc="http://creativecommons.org/ns#"
   xmlns:rdf="http://www.w3.org/1999/02/22-rdf-syntax-ns#"
   xmlns:svg="http://www.w3.org/2000/svg"
   xmlns="http://www.w3.org/2000/svg"
   xmlns:sodipodi="http://sodipodi.sourceforge.net/DTD/sodipodi-0.dtd"
   xmlns:inkscape="http://www.inkscape.org/namespaces/inkscape"
   width="134"
   height="203"
   viewBox="0 0 134 203"
   fill="none"
   version="1.1"
   id="svg4"
   sodipodi:docname="curling.svg"
   inkscape:version="0.92.1 r15371">
  <metadata
     id="metadata10">
    <rdf:RDF>
      <cc:Work
         rdf:about="">
        <dc:format>image/svg+xml</dc:format>
        <dc:type
           rdf:resource="http://purl.org/dc/dcmitype/StillImage" />
        <dc:title></dc:title>
      </cc:Work>
    </rdf:RDF>
  </metadata>
  <defs
     id="defs8" />
  <sodipodi:namedview
     pagecolor="#ffffff"
     bordercolor="#666666"
     borderopacity="1"
     objecttolerance="10"
     gridtolerance="10"
     guidetolerance="10"
     inkscape:pageopacity="0"
     inkscape:pageshadow="2"
     inkscape:window-width="640"
     inkscape:window-height="480"
     id="namedview6"
     showgrid="false"
     inkscape:zoom="1.1625616"
     inkscape:cx="67"
     inkscape:cy="101.5"
     inkscape:window-x="0"
     inkscape:window-y="0"
     inkscape:window-maximized="0"
     inkscape:current-layer="svg4" />
  <path
     d="M6.80203 6.3126C6.80203 6.3126 6.80203 5.98036 6.80203 6.3126L7.48223 5.64812C7.82233 5.31588 7.82233 5.31588 7.82233 4.98363V4.65139C8.16244 4.31915 8.50254 3.98691 9.18274 3.98691C9.52284 3.98691 9.52284 3.98691 9.86294 4.31915C9.86294 3.98691 10.203 3.98691 10.203 3.98691C10.203 3.32242 10.5431 3.32242 10.8832 3.32242C10.5431 3.32242 11.2233 3.32242 11.5635 2.99018H12.2437H12.5838C12.9239 2.99018 13.6041 3.32242 13.6041 2.99018C13.9442 2.65794 14.2843 2.99018 14.9645 2.99018C14.9645 2.99018 15.3046 3.32242 15.6447 3.32242C15.6447 2.65794 16.3249 2.65794 17.0051 2.99018V2.3257L17.3452 1.99345H18.3655C18.7056 1.66121 18.7056 1.66121 18.7056 1.66121H20.4061V1.99345C20.4061 1.99345 20.7462 1.99345 21.0863 1.66121H23.467H23.8071C24.4873 1.66121 24.4873 1.99345 25.1675 1.66121H27.2081V1.99345C27.5482 1.66121 27.8883 1.66121 28.2284 1.66121C28.5685 1.66121 28.5685 1.66121 28.5685 1.32897C28.9086 1.66121 29.2487 1.66121 29.2487 1.66121H29.5888C30.269 1.99345 30.269 1.99345 30.6091 1.66121H31.2893C31.2893 1.99345 31.6294 1.99345 31.6294 1.99345C32.3096 2.3257 32.3096 2.65794 32.3096 2.99018C31.9695 3.65466 32.3096 4.31915 32.6497 4.31915C32.9898 4.65139 32.9898 4.31915 32.9898 4.31915C32.9898 3.98691 32.6497 3.65466 32.6497 3.65466C32.6497 3.65466 32.3096 2.99018 32.6497 2.99018V1.66121H33.3299H34.0102C34.0102 1.99345 34.0102 1.99345 34.3503 1.99345C34.6904 1.66121 34.3503 1.66121 34.6904 1.66121H35.3706C36.0508 1.66121 37.0711 1.66121 37.7513 0.996727L38.0914 1.32897C38.7716 0.664484 39.1117 0.664484 39.4518 0.664484C39.7919 0.996727 39.7919 1.32897 40.4721 1.32897C40.8122 0.996727 40.8122 0.664484 41.4924 1.32897C41.8325 1.32897 41.8325 1.32897 42.1726 0.996727H42.5127H43.1929C43.533 1.32897 44.2132 1.32897 44.8934 1.32897C45.2335 0.996727 45.5736 0.996727 45.9137 0.664484C45.9137 0.996727 46.2538 1.32897 46.2538 1.32897C46.2538 1.32897 46.5939 1.32897 46.5939 0.996727C46.5939 0.996727 46.934 0.664485 46.934 0.996727H47.6142H47.9543C48.2944 0.664485 48.2944 0.664484 48.6345 0.664484C49.3147 1.32897 49.6548 1.32897 49.9949 1.32897H50.6751C51.0152 0.664484 51.3553 0.996727 52.0355 0.664484C52.0355 0.996727 51.6954 1.32897 51.6954 1.32897H53.0558H53.3959H54.7563H55.0964H56.1167C56.4568 1.66121 56.4569 1.99345 56.4569 1.66121C56.797 1.66121 56.797 1.99345 56.797 1.99345H57.8173C57.8173 1.66121 58.1574 1.99345 58.4975 1.99345H59.8579C60.198 1.66121 60.5381 1.66121 60.8782 1.99345H61.2183C61.5584 1.99345 61.8985 1.66121 62.2386 1.66121C62.9188 1.66121 62.9188 1.66121 63.599 1.99345V1.66121V1.32897H64.6193C64.6193 1.32897 64.9594 1.66121 64.9594 1.32897C65.6396 1.66121 65.6396 1.32897 66.3198 0.996727C66.6599 0.996727 66.6599 1.32897 66.6599 1.32897C66.6599 0.996727 67 0.996727 67 0.664484C67.3401 0.332242 67.6802 0.332242 67.6802 0.664484C67.6802 0.664484 68.0203 0.664485 68.0203 0.996727V1.32897C68.7005 1.99345 68.7005 1.99345 69.0406 1.66121C69.0406 1.66121 69.0406 1.32897 68.7005 0.996727H69.0406C69.7208 1.32897 69.7208 1.66121 70.0609 1.66121C70.401 1.32897 69.7208 0.996727 70.0609 0.996727C70.401 1.32897 70.7411 1.32897 70.7411 1.32897C71.0812 1.66121 71.0812 1.66121 71.4213 1.66121C71.4213 1.32897 71.7614 0.996727 71.7614 0.996727C72.1015 0.664485 72.4416 0.664484 72.7817 1.32897H73.4619C73.802 0.996727 74.1421 1.32897 74.4822 1.32897C74.8223 1.32897 74.8223 1.66121 74.8223 1.66121C74.8223 1.66121 74.8223 1.99345 75.1624 1.99345C75.5025 1.32897 75.8426 1.32897 76.5228 1.32897H77.203H78.2233C78.5634 1.32897 78.9035 1.32897 79.5837 0.664484H79.9239C80.264 0.996727 80.6041 0.996727 80.9442 0.996727C81.2843 0.996727 81.9645 1.32897 82.3046 1.32897C82.9848 1.32897 83.3249 1.32897 84.0051 0.996727C84.3452 0.996727 84.6853 0.996727 85.3655 1.32897H87.066H87.7462H88.0863C88.0863 1.66121 88.4264 1.66121 88.4264 1.66121C88.7665 1.66121 89.1066 1.66121 89.1066 1.99345L89.4467 1.66121C89.4467 1.32897 89.7868 1.32897 89.7868 1.32897H90.1269C90.467 1.32897 90.467 0.996727 90.467 0.996727C90.8071 1.32897 91.1472 0.996727 91.1472 0.996727C91.1472 0.664485 91.4873 0.664484 91.4873 0.664484C91.8274 0.996727 92.1675 0.664484 92.1675 0.664484C92.5076 0.332242 92.5076 0.332242 92.8477 0.664484C93.1878 0 93.1878 0 94.2081 0.664484C94.5482 0.332242 95.2284 0.332242 95.5685 0.664484C95.9086 0.996727 95.9086 0.664484 96.2487 0.664484C95.5685 0 95.5685 0 96.2487 0.332242C96.5888 0.332242 96.5888 0 96.5888 0C96.9289 0 96.9289 0 97.269 0.332242C97.6091 0.996727 97.9492 0.996727 98.6294 0.664484C98.9695 0.332242 98.9695 0.332242 99.3096 0.664484V1.32897C99.6497 1.66121 99.6497 1.66121 99.9898 1.32897C99.9898 1.32897 100.33 0.996727 100.33 1.32897C100.67 1.32897 100.67 0.996727 101.35 0.996727C101.69 0.664485 101.69 0.664484 101.69 1.32897C102.03 1.32897 102.371 0.996727 102.371 0.996727H102.711C103.051 1.32897 103.051 1.32897 103.391 1.32897C103.391 1.32897 103.731 1.32897 103.731 1.66121H104.411C104.751 1.66121 104.751 1.99345 104.751 1.99345C105.431 1.32897 105.431 1.32897 106.112 1.32897L106.452 1.66121H107.132C107.812 1.66121 108.152 1.32897 108.832 1.32897C109.173 1.32897 109.513 1.66121 109.513 1.99345H110.193C110.533 2.3257 110.873 2.3257 111.553 1.66121C111.553 1.66121 111.893 1.66121 112.233 1.99345C112.574 2.3257 112.574 2.3257 112.914 2.3257C112.914 1.99345 113.254 1.99345 113.594 1.99345H115.635C115.975 1.99345 116.315 2.3257 116.995 2.3257C117.335 1.99345 117.675 2.3257 117.675 2.3257H118.015C118.355 2.65794 118.695 2.65794 118.695 2.3257L119.036 1.99345C119.036 2.3257 119.036 2.3257 119.376 2.3257C119.376 2.65794 119.716 2.65794 119.716 2.3257C120.056 2.3257 120.736 2.3257 121.416 2.65794C121.416 2.65794 121.756 2.65794 121.756 2.99018C122.096 2.65794 122.096 2.65794 122.437 3.32242C123.457 3.32242 124.137 3.98691 125.157 3.98691C125.497 3.98691 125.838 4.31915 125.838 4.65139C126.178 4.65139 126.178 4.98363 126.178 5.31588C125.838 5.98036 125.838 6.3126 126.178 6.97709H126.858V5.31588C127.198 5.64812 127.198 5.98036 127.198 6.3126C127.538 6.97709 127.538 7.30933 127.538 7.97381C127.538 8.30606 127.538 8.6383 127.878 8.6383C128.218 8.6383 128.218 8.97054 128.218 8.97054C128.218 9.63503 128.218 9.96727 128.558 10.2995C128.558 10.6318 128.558 10.964 128.898 10.964C129.239 11.6285 129.239 11.6285 129.579 12.293L129.919 12.6252C129.919 13.2897 129.919 13.2897 130.259 13.2897C130.599 13.9542 130.599 13.9542 130.599 14.6187H131.279C130.939 15.2831 131.619 15.6154 131.619 15.9476C131.959 16.2799 131.959 16.6121 131.959 16.9444C131.959 17.2766 131.959 18.2733 132.299 18.6056C132.64 18.9378 132.64 19.2701 132.299 19.2701V20.599C132.64 21.2635 132.299 21.2635 132.299 21.928V22.2602C131.959 22.5925 131.959 22.5925 131.959 22.9247H132.299C132.299 23.257 132.299 23.5892 131.959 23.9214V25.9149C131.959 26.2471 132.299 26.5794 132.299 26.9116V28.5728C132.299 28.9051 131.959 28.9051 131.959 28.9051C131.619 29.2373 131.619 29.5696 131.959 29.5696C131.959 29.9018 131.959 30.234 131.619 30.234V30.5663C131.959 31.2308 131.619 31.8953 131.279 32.2275V33.5565V33.8887H130.939V33.2242C130.939 33.5565 130.939 33.8887 131.279 33.8887C131.959 34.2209 131.959 34.5532 131.959 34.8854V35.2177V35.5499C132.299 35.5499 132.299 36.2144 132.299 36.5466C131.959 37.2111 132.299 37.2111 132.299 37.5434V44.1882V44.8527C132.299 44.8527 132.64 44.8527 132.98 45.1849V45.5172C132.98 46.1817 133.32 47.1784 132.98 47.8429V49.1718V50.5008V51.4975V54.4877C132.98 54.82 132.98 55.1522 132.64 55.1522C131.959 55.8167 131.619 56.8134 131.959 58.1424C131.959 58.4746 131.619 58.8069 131.619 59.1391V59.8036V60.1358V63.126V63.7905V64.1227V67.1129V66.4484V66.7807V69.7709V70.4354V70.7676V73.7578V74.4223V74.7545V77.7447V78.4092V78.7414V81.7316V82.3961V83.0606C131.619 84.0573 131.959 84.7218 132.299 85.7185C132.98 86.0507 132.98 86.383 132.98 87.0475V88.7087C132.98 89.7054 132.98 90.7021 132.64 91.6989C132.64 92.0311 132.98 92.0311 132.98 92.3633V95.6858V96.3502C132.98 97.347 132.98 98.3437 132.64 99.3404C132.64 99.3404 132.98 99.6727 132.98 100.005V101.334V102.663V103.66V103.992C133.32 104.656 133.32 105.653 133.32 106.65V109.308V109.972V111.301V111.633V114.291V114.956V116.285V117.614V117.946V120.272V120.604C134 120.936 133.66 121.268 133.66 121.268V142.532V143.196C132.299 142.864 131.959 142.864 131.959 142.864V143.196H132.98V146.187C132.64 146.187 132.299 146.187 131.959 146.519C131.959 146.187 131.619 146.187 131.279 146.187C130.939 145.854 130.599 145.854 130.599 146.187C130.599 146.519 129.919 146.187 129.579 146.187C129.239 146.187 128.558 146.519 128.218 146.187H127.878H126.518C125.497 146.187 124.137 146.519 123.117 146.187H121.416C120.056 146.187 119.036 146.187 118.015 146.187H115.975C115.635 146.519 115.294 146.519 115.294 146.851C114.954 147.183 114.274 147.183 113.934 147.183C113.594 147.516 113.594 147.848 113.934 147.848V148.512C113.934 149.177 113.934 149.509 114.274 149.841V150.506C114.614 151.17 114.614 152.167 114.954 152.831C114.954 153.496 115.294 153.828 115.975 154.16C116.655 154.493 117.675 154.825 118.355 154.825C119.716 154.825 121.416 154.493 122.777 154.493C123.457 154.493 123.797 154.825 124.477 154.825H124.817C125.838 154.493 126.858 154.493 127.878 154.493C128.218 154.493 128.558 154.825 129.239 154.825C129.579 154.825 130.599 154.493 130.599 153.828C131.279 153.496 131.279 153.164 131.279 152.499L131.619 152.167C131.959 151.835 132.299 151.502 132.299 151.502L132.64 151.17C132.98 151.17 132.98 150.838 133.32 150.838C133.32 151.17 133.66 151.502 133.66 151.502V159.144C133.66 159.476 133.32 159.809 134 159.809V160.141V160.805V193.365V194.029H130.939C130.599 194.694 130.599 195.026 130.599 195.691C130.599 195.691 130.599 196.023 130.259 196.023C129.919 196.023 129.239 196.023 128.898 196.355C128.898 196.687 128.558 196.687 128.218 196.355C128.218 196.687 128.218 196.687 127.878 196.687C127.538 197.352 127.198 197.352 127.198 197.684C126.858 198.016 126.858 198.016 126.518 198.016C126.178 198.016 126.178 198.016 125.838 198.349C125.838 199.013 125.497 199.013 125.157 199.345C125.157 199.013 124.817 199.013 124.817 198.681L124.477 199.345C124.137 199.678 124.137 200.01 124.137 200.01L123.797 200.342C123.117 200.342 122.437 201.007 122.096 201.007C121.416 201.007 120.736 201.671 120.396 201.007C120.056 201.007 119.716 201.339 119.716 201.339C119.716 201.339 119.376 201.339 119.376 201.671C118.695 201.339 118.695 201.339 118.355 201.007C117.675 200.674 117.675 200.342 117.675 199.345V198.681C117.335 198.349 117.335 198.016 116.995 198.016V197.352C117.335 197.02 116.995 196.687 116.995 196.355C116.655 196.023 116.655 195.691 116.655 195.358C116.655 195.026 116.655 194.694 116.315 194.694V194.029C115.635 193.365 115.635 193.365 114.614 193.365H112.914C112.574 193.365 112.234 193.697 111.893 194.029C111.553 194.029 111.553 194.029 111.553 194.694C111.213 195.026 110.873 195.358 110.873 195.691C110.533 195.691 110.533 195.691 110.533 196.023C110.533 196.355 110.533 196.687 109.853 196.687C109.853 196.355 109.513 196.355 109.513 196.355C109.173 197.02 108.492 197.684 108.152 198.349C107.812 198.349 107.812 198.681 107.472 199.013C107.472 199.345 107.472 199.345 107.132 199.345C106.452 199.678 106.112 199.678 105.431 200.01C105.091 200.01 105.091 200.674 104.751 200.674H104.411H104.071C103.731 200.674 103.731 201.007 103.731 201.007C103.051 201.007 102.711 201.007 102.371 200.342C102.03 200.01 101.69 199.678 101.69 199.345C101.35 199.013 100.67 199.013 100.33 198.681H99.9898C99.6497 198.681 99.3096 199.013 98.9695 198.681H98.6294C98.2893 199.345 97.9492 199.345 97.6091 200.01H96.9289V200.674L96.5888 201.007C96.2487 201.007 96.2487 201.007 95.9086 201.339C95.5685 201.671 95.5685 201.671 95.2284 201.671H93.5279H93.1878C92.8477 202.003 92.5076 202.003 92.1675 201.671H91.4873C91.4873 202.003 91.1472 202.003 91.1472 202.003H90.467C89.7868 202.003 89.7868 201.671 89.4467 201.671C89.4467 201.671 89.1066 202.003 88.7665 202.003H88.0863C87.7462 202.003 87.4061 202.003 87.4061 201.671C86.7259 201.671 86.3858 201.339 86.0457 201.339H85.7056C85.3655 201.007 85.3655 200.674 85.3655 200.674C85.0254 200.674 85.0254 201.007 84.6853 201.007C84.3452 201.339 83.665 201.339 83.3249 201.339H82.9848C82.3046 201.007 81.2843 201.671 80.6041 201.671H81.6244C81.2843 202.003 81.2843 202.003 80.9442 201.671C80.6041 202.336 79.5838 202.003 78.9035 202.336C78.2234 202.336 77.5431 203 76.8629 202.668C76.8629 202.668 76.5228 202.668 76.1827 202.336C75.8426 202.003 75.8426 202.003 75.5025 202.668C74.8223 202.668 74.1421 203 73.802 202.336C73.4619 202.668 73.4619 202.668 73.1218 202.668C72.7817 203 72.7817 202.668 72.4416 202.668C71.7614 202.336 71.7614 202.336 71.0812 202.336C70.7411 202.668 70.401 202.668 70.0609 202.668C69.3807 202.336 69.0406 202.336 68.3604 203C68.3604 203 68.3604 202.668 68.0203 202.668C68.0203 202.668 67.6802 202.668 67.3401 203C67.3401 202.668 67.3401 202.668 67 202.336C66.3198 202.668 66.3198 202.668 65.6396 203C65.2995 203 65.2995 203 64.9594 202.336C64.9594 202.003 64.6193 202.003 64.2792 202.336C64.2792 202.336 64.2792 202.668 64.6193 203C64.2792 202.668 63.599 203 63.2589 202.668H62.2386C61.8985 202.668 61.5584 202.668 61.5584 202.336C61.2183 202.336 60.5381 202.336 60.198 202.668H59.5178C59.1777 202.668 59.1777 202.336 59.1777 202.336C59.1777 202.003 58.8376 202.003 58.4975 202.003C58.1574 202.336 58.1574 202.336 57.8173 202.003C57.1371 201.671 56.4568 201.671 55.7766 202.003H54.7563C53.736 202.003 53.0558 201.671 52.0355 202.003H50.335C49.9949 202.003 49.9949 202.003 49.6548 201.671L49.3147 202.003C49.3147 202.003 48.9746 202.336 48.6345 202.003C47.6142 202.003 46.934 201.671 45.9137 201.339H45.5736C45.2335 201.339 45.2335 201.671 44.8934 201.671C44.5533 201.671 44.5533 201.339 44.5533 201.339H44.2132C43.8731 202.003 43.1929 201.671 42.5127 201.671H42.1726C41.4924 201.671 41.4924 201.671 41.4924 201.339C41.1523 201.671 40.8122 201.671 40.8122 202.003C40.4721 202.336 39.4518 202.003 39.1117 201.671C38.7716 201.671 38.7716 201.339 38.7716 201.671H37.4112C37.0711 201.671 37.0711 201.671 36.731 201.339C36.3909 201.339 36.3909 201.339 36.0508 201.671C35.7107 201.339 35.3706 201.339 34.6904 201.339C34.0102 201.339 33.3299 201.339 32.9898 201.007H30.9492C30.6091 200.674 30.269 200.674 29.9289 200.674C29.5888 200.674 29.5888 200.342 29.5888 200.342C29.2487 200.342 29.2487 200.674 28.9086 200.342C28.2284 200.01 27.5482 200.674 26.868 200.342C26.868 200.01 26.868 199.678 26.5279 199.678C26.1878 199.678 26.1878 200.01 26.1878 200.01C26.1878 200.01 25.5076 200.01 25.1675 200.342H24.4873C24.4873 200.01 24.1472 200.01 23.8071 200.01V200.342C23.467 200.342 22.7868 200.674 22.4467 200.01L22.1066 200.342C21.4264 200.01 21.0863 200.01 20.4061 200.01C20.066 199.678 19.7259 199.678 19.7259 200.01H19.0457C18.7056 200.01 18.3655 199.678 18.0254 200.01C17.6853 200.01 17.3452 199.678 16.665 199.678C15.9848 199.345 14.9645 199.345 13.9442 199.013H12.5838C11.9036 198.681 11.9036 198.681 11.2233 198.349H10.8832C10.5431 198.349 10.5431 198.349 10.203 198.016C9.52284 198.016 9.18274 197.684 8.84264 198.016C8.50254 198.349 8.50254 198.349 8.16244 198.349C7.82233 198.016 8.16244 197.684 8.50254 197.684C8.16244 197.352 7.82233 197.352 7.82233 197.02C7.14213 198.016 6.80203 197.684 6.80203 197.02C6.80203 197.02 6.80203 196.687 6.46193 196.687C6.46193 196.355 6.46193 196.355 6.12183 196.023C6.12183 195.691 5.78173 195.358 5.78173 195.358C5.78173 195.358 5.78173 195.026 5.44162 195.026V194.362C5.44162 193.697 5.44162 193.697 4.76142 193.697H4.42132V193.033L4.08122 192.7C3.40102 192.7 3.40102 192.7 3.40102 192.036C3.40102 192.036 3.40102 191.704 3.06091 191.372C2.72081 191.039 2.72081 191.039 2.38071 191.039C2.38071 190.707 2.04061 190.707 2.04061 190.375V188.714V188.049C2.04061 187.385 1.70051 186.72 2.04061 186.056V185.723H1.36041V185.059C1.36041 175.424 1.36041 166.121 1.0203 156.486V155.822C1.36041 155.157 1.0203 155.157 1.0203 155.157V154.16C1.0203 153.496 0.680203 152.499 0.680203 151.502V150.838C0.340102 150.173 0.340102 150.173 0.680203 149.841C1.36041 149.177 1.36041 148.18 1.36041 147.848V147.516V147.183C1.70051 147.848 2.72081 147.848 3.06091 147.848C3.74112 147.848 3.74112 147.848 4.42132 148.18C4.76142 148.512 4.76142 148.512 5.44162 148.512H6.12183H7.14213C7.48223 148.512 7.82233 148.512 7.82233 148.18C8.16244 147.516 8.50254 147.516 8.84264 147.183C9.18274 147.183 9.52284 146.851 9.52284 146.851H10.8832H12.9239L13.264 146.519C13.9442 146.851 14.6244 146.519 14.9645 146.187C14.9645 146.187 15.3046 146.187 15.6447 145.854H16.3249C16.665 145.854 17.0051 145.522 17.3452 145.854C18.0254 146.187 19.0457 146.187 19.7259 146.519H20.4061C20.7462 146.187 21.0863 146.187 21.7665 146.187C21.7665 145.854 22.1066 145.854 22.1066 145.854H23.1269C23.8071 145.522 23.8071 145.522 24.4873 145.522C24.8274 146.187 24.8274 146.187 25.5076 146.187H25.8477C26.5279 145.854 26.5279 145.522 27.2081 145.522C27.5482 145.522 27.5482 145.522 27.5482 145.19C27.8883 145.19 28.5685 145.19 28.9086 144.858C29.5888 144.525 29.9289 144.525 30.6091 144.193C30.9492 144.193 31.6294 143.861 31.9695 143.861C32.3096 143.529 32.3096 143.529 32.9898 143.529C33.3299 143.196 33.6701 143.196 34.3503 143.196C34.6904 142.864 35.3706 142.864 35.7107 142.532C36.3909 142.532 36.731 142.532 37.0711 143.196C37.4112 143.196 37.4112 143.529 37.4112 143.196C37.7513 143.196 38.0914 142.864 38.0914 142.532C38.0914 141.867 38.4315 141.867 38.7716 141.535C39.4518 141.203 39.7919 141.203 40.4721 141.203C40.8122 141.203 41.1523 141.203 41.8325 140.871C42.5127 140.538 42.8528 140.206 43.533 140.206C43.8731 139.874 44.2132 139.874 44.8934 139.542C45.5736 139.542 45.9137 139.209 46.5939 138.877C46.934 138.545 47.2741 138.545 47.9543 138.213C48.2944 138.213 48.6345 137.881 48.9746 137.548C49.3147 137.216 49.3147 137.216 49.6548 136.884C49.9949 136.884 50.335 136.552 50.6751 136.219C51.0152 135.887 51.3553 135.555 52.0355 135.555C52.3756 135.555 52.3756 135.555 52.3756 135.223C53.0558 135.223 53.3959 134.89 53.736 134.558C54.0761 134.226 54.0761 134.226 54.4162 134.226C55.0964 133.894 55.7766 133.561 56.4569 132.897C56.797 132.232 57.4772 132.232 57.8173 132.232C58.1574 131.9 58.1574 131.9 58.4975 131.568C58.8376 131.236 59.1777 130.903 59.8579 130.903C60.198 130.571 60.8782 130.239 61.2183 130.239C61.5584 130.239 61.8985 129.907 61.8985 129.907C62.5787 129.242 63.2589 129.242 63.9391 128.578C64.2792 128.578 64.6193 128.245 65.2995 127.913C65.2995 127.581 65.6396 127.581 65.6396 127.913C66.3198 128.245 67 128.578 67.3401 128.245C67.6802 128.245 67.6802 128.245 68.0203 128.578V128.91C68.3604 128.91 68.7005 129.574 69.3807 129.574C69.7208 129.907 69.7208 129.907 70.401 129.907H71.7614L72.1015 130.239C72.1015 130.571 72.4416 130.571 72.7817 130.571C73.4619 130.571 74.1421 130.903 74.4822 131.236C74.8223 131.9 75.8426 131.9 76.1827 132.565C76.5228 132.565 76.5228 132.565 76.8629 132.897C77.5431 132.897 77.8832 133.561 78.5634 133.894V136.219C78.2234 136.552 77.8832 136.552 77.5431 136.552H74.8223H72.7817H72.1015H71.4213H68.7005H68.3604C68.0203 136.219 67.6802 136.552 67 136.219H65.9797C65.6396 135.887 65.2995 136.219 64.9594 136.219H63.2589H61.8985C60.8782 136.219 60.198 136.552 59.1777 136.884C58.8376 137.216 58.4975 137.548 58.1574 137.548C57.8173 137.548 57.4772 137.881 57.4772 138.213C57.4772 138.213 57.4771 138.545 57.1371 138.545C56.4568 139.209 55.7766 140.206 55.4365 140.871C55.0964 141.535 55.0964 141.867 54.0761 141.535L53.3959 142.2C53.0558 142.532 53.0558 142.864 53.0558 143.196C53.0558 143.529 52.7157 144.193 53.0558 144.525C53.0558 145.19 53.3959 145.19 53.3959 145.854C53.736 146.519 54.0761 146.519 54.4162 147.183C54.4162 147.516 54.7563 147.848 54.7563 147.848C55.0964 148.18 55.0964 148.512 55.0964 148.512C55.7766 148.845 55.7766 149.177 55.7766 149.177C56.1167 149.841 56.1168 149.841 56.797 150.173C57.1371 150.506 57.1371 150.506 57.4772 150.838V151.17C58.8376 152.167 60.198 153.164 61.5584 153.828C62.2386 154.493 62.9188 154.825 63.2589 155.489C63.2589 155.822 63.599 155.822 63.599 156.154C63.599 156.486 63.9391 156.486 64.2792 156.486C64.6193 156.486 64.6193 156.486 64.6193 157.151C64.9594 157.483 65.2995 157.483 65.2995 157.483C66.3198 157.483 67.3401 157.815 68.0203 158.147C68.3604 158.48 68.3604 158.48 68.3604 158.48C69.0406 158.48 69.0406 158.812 69.7208 159.144C70.0609 159.476 70.401 159.809 70.401 159.809C70.7411 159.809 71.0812 160.141 71.4213 160.141C71.7614 159.476 71.4213 158.812 71.0812 158.147C70.7411 157.815 70.401 157.483 70.401 157.151C70.401 156.818 70.0609 156.486 70.0609 156.486C69.7208 156.154 69.3807 155.822 69.7208 154.825C69.7208 154.16 70.0609 153.164 71.0812 153.164C71.4213 152.831 71.4213 152.831 71.7614 152.499H72.4416H73.1218C73.4619 152.499 74.1421 152.167 74.4822 152.499H75.8426H79.2436C79.9239 152.499 80.6041 152.167 80.9442 152.167C81.2843 152.167 81.6244 152.499 81.6244 152.499C82.3046 152.831 83.3249 153.164 84.0051 153.164C84.3452 153.496 84.3452 153.496 85.0254 153.496C85.3655 153.828 86.3858 154.16 87.066 154.16C88.4264 154.493 89.7868 154.16 91.1472 154.16C92.1675 154.16 93.1878 154.493 94.2081 154.493C95.2284 154.493 96.2487 154.16 97.269 154.16C97.6091 153.828 97.6091 153.828 97.9492 153.828C98.2893 153.164 99.3096 152.831 99.6497 152.499C99.9898 152.499 99.9898 152.167 99.9898 151.835V149.509V148.845C99.3096 148.18 99.6497 147.183 100.33 146.519C100.67 145.854 100.33 145.522 100.33 144.858C100.33 144.525 99.9898 144.525 99.9898 144.193C99.9898 143.529 99.9898 142.864 99.3096 142.2V141.867C98.9695 141.203 98.9695 141.203 98.2893 140.538C97.9492 140.538 97.9492 140.206 97.9492 139.874C97.269 139.542 97.269 139.21 96.5888 139.21C96.2487 139.21 96.2487 139.209 95.9086 138.877C95.5685 138.213 94.5482 138.213 93.868 138.213C93.5279 137.881 93.5279 137.881 93.1878 137.881C92.5076 138.213 92.1675 137.881 91.4873 137.548L91.1472 137.216C90.467 137.216 89.4467 136.884 88.7665 136.552C88.4264 136.552 88.0863 136.219 87.7462 135.887C87.4061 135.555 87.066 135.223 86.3858 135.223C86.0457 135.223 86.0457 135.223 85.7056 134.89C85.0254 134.558 84.6853 134.226 84.0051 134.226C83.665 133.894 83.3249 133.894 82.6447 133.894C81.9645 133.894 81.9645 133.561 81.2843 133.229C80.9442 132.897 79.9239 132.565 79.2436 132.565C78.9035 132.565 78.9035 132.565 78.5634 132.232C77.8832 131.9 76.8629 131.568 76.5228 131.236C75.8426 130.903 75.1624 130.571 74.8223 130.571C74.1421 129.907 73.1218 129.907 72.1015 129.242H71.7614C71.4213 129.242 71.0812 128.91 70.7411 128.578C70.0609 128.578 70.0609 128.245 69.3807 128.245L69.0406 127.913C68.7005 127.581 68.7005 127.249 69.0406 127.249L69.3807 126.917C70.401 126.252 71.0812 126.252 72.1015 125.588L73.4619 124.923C73.802 124.591 74.1421 124.259 74.1421 124.259C74.4822 123.926 74.8223 123.594 75.1624 123.594C75.8426 123.262 76.8629 122.93 77.8832 122.265C78.2233 121.933 78.9035 122.265 79.2436 122.597C79.9239 123.262 80.9442 123.926 81.6244 124.259C82.6447 124.923 83.3249 125.588 84.3452 126.252C86.3858 127.913 88.4264 128.91 90.467 130.571C92.1675 131.9 93.868 132.897 95.5685 134.226C96.5888 134.89 97.9492 135.887 98.9695 136.884C99.9898 137.548 100.67 138.213 101.35 138.545C102.03 139.209 102.711 139.874 103.391 140.206C104.071 140.871 105.091 141.867 106.112 142.2L106.792 142.864H107.132C107.812 142.864 107.812 142.864 108.492 142.532C108.832 142.2 109.513 142.2 110.193 141.867C110.873 141.535 111.213 141.203 111.893 140.871C112.234 140.206 113.254 139.874 113.594 139.21C114.274 138.545 114.954 137.881 115.294 137.216C115.635 136.552 115.975 136.552 116.655 136.219C116.995 136.219 116.995 136.219 116.995 135.887C117.335 135.555 117.335 135.555 117.675 135.555C118.015 135.223 118.355 134.89 118.355 134.558C118.695 134.226 118.695 134.226 118.695 134.226L119.376 133.561H119.716C120.056 133.561 120.396 133.229 120.396 132.897C120.056 132.565 120.056 132.565 120.396 132.232C120.396 131.9 120.056 131.568 119.716 131.568C119.376 131.568 119.036 131.236 119.036 130.903C118.695 130.571 118.695 130.239 118.695 130.239C118.355 129.907 118.015 129.574 117.675 129.574C117.675 129.242 117.335 128.91 117.335 128.91C117.675 128.245 117.335 128.245 116.995 128.245C116.995 128.245 116.655 128.245 116.655 127.913C115.975 127.581 115.635 127.249 114.954 127.249C114.274 126.917 113.594 126.584 113.254 126.252C111.893 125.588 110.873 124.923 109.853 124.259C109.513 123.594 108.832 123.594 108.152 122.93C107.132 121.933 106.112 121.268 104.751 120.272C104.071 119.607 103.731 119.275 103.051 118.943C101.69 117.946 100.67 116.949 99.3096 115.953C97.9492 114.624 96.2487 113.295 94.5482 111.966L93.868 111.301C93.5279 110.637 92.8477 109.972 92.1675 109.64C91.4873 109.308 91.1472 108.975 90.467 108.311C89.7868 107.646 89.1066 106.982 88.0863 106.318C87.4061 105.985 87.066 105.321 86.3858 104.656C86.0457 104.324 85.7056 103.992 85.7056 103.992C85.0254 102.995 84.0051 102.331 83.3249 101.666C82.9848 101.334 82.3046 101.334 81.6244 101.334H78.9035H76.5228C76.5228 101.334 76.1827 101.334 76.1827 101.666C75.8426 101.666 75.5025 101.998 75.1624 102.331C74.4822 102.663 73.802 102.995 73.1218 103.66C72.7817 104.324 72.1015 104.324 71.7614 104.989C71.4213 105.321 71.0812 105.653 70.401 105.985C70.0609 106.318 69.7208 106.65 69.7208 106.65C69.3807 107.314 69.0406 107.314 68.3604 107.979C68.0203 108.311 67.6802 108.643 67.3401 108.975C66.6599 109.64 66.3198 109.972 65.9797 110.637C65.2995 111.301 64.9594 111.633 64.2792 111.966C63.2589 112.63 62.5787 113.295 61.5584 113.627C60.8782 114.291 60.198 114.624 59.1777 115.288C59.1777 115.288 58.8376 115.288 58.8376 115.62C58.4975 115.62 58.1574 115.953 57.4772 115.953C56.797 116.285 56.1167 116.617 55.4365 116.617C54.7563 117.282 53.736 117.614 53.0558 117.614C52.7157 117.614 52.7157 117.614 52.3756 117.946C52.0355 118.278 51.3553 118.278 50.6751 117.946C50.6751 117.614 50.335 117.614 50.335 117.946C49.6548 118.278 48.9746 117.946 48.6345 117.614C47.9543 116.949 46.934 116.949 46.5939 116.617C46.2538 116.285 45.9137 116.285 45.9137 116.285C45.2335 115.953 44.5533 115.62 43.8731 115.62C43.533 115.62 43.1929 115.288 42.5127 114.956C41.8325 114.956 41.1523 114.291 40.8122 113.959C39.7919 113.295 38.7716 112.962 38.0914 112.298C37.7513 111.966 37.7513 111.966 37.4112 111.966C36.731 111.633 36.0508 111.301 35.3706 110.969L35.0305 110.637C34.3503 110.637 33.67 110.304 32.9898 109.972L29.9289 108.311C29.2487 107.646 28.5685 107.314 27.5482 106.982C27.5482 106.65 27.2081 106.65 27.2081 106.65C26.868 106.65 26.5279 106.65 26.5279 106.318C23.1269 104.656 19.0457 102.663 15.6447 101.002C17.0051 102.995 16.3249 102.663 15.6447 102.331C15.3046 101.998 14.9645 101.998 14.6244 101.998H13.9442C14.2843 102.663 14.6244 103.66 14.6244 103.992C14.9645 104.324 15.3046 104.656 14.9645 104.989C15.3046 105.653 15.6447 106.318 15.6447 106.982C16.3249 106.982 16.3249 107.314 16.665 107.646C17.3452 107.979 18.0254 108.311 18.7056 108.311H19.0457C19.3858 108.643 19.3858 108.975 20.066 108.975C20.066 108.975 20.4061 108.975 20.4061 109.308L22.1066 109.972C22.4467 110.304 22.4467 110.304 23.1269 110.304C23.467 110.637 24.1472 110.969 24.4873 111.301C24.4873 111.633 24.8274 111.633 24.8274 111.966H25.1675C25.8477 111.301 26.1878 111.633 26.5279 111.966C26.868 111.966 26.868 112.298 26.868 112.298C27.5482 112.962 27.8883 112.962 28.5685 112.962C28.9086 112.962 29.5888 113.295 29.9289 113.627C30.6091 114.291 31.2893 114.291 31.9695 114.624C32.6497 114.956 32.6497 115.288 33.3299 115.288C33.67 115.62 34.6904 115.953 35.0305 116.285L35.3706 116.617C36.3909 116.949 37.0711 117.282 37.7513 117.946C38.0914 117.946 38.4315 118.278 38.7716 118.61C39.4518 118.943 40.4721 119.275 41.1523 119.607C41.4924 119.607 41.4924 119.939 41.4924 119.939C42.5127 119.939 43.1929 120.604 43.8731 120.936C44.5533 121.268 44.8934 121.601 45.5736 121.601C45.9137 121.601 46.2538 121.933 46.5939 122.265H47.2741C47.9543 122.597 48.6345 122.93 49.3147 123.594C48.6345 124.259 48.2944 124.259 47.6142 124.591C47.2741 124.923 46.5939 125.255 46.2538 125.255H45.9137C45.2335 125.255 44.8934 125.588 44.2132 125.588C43.8731 125.588 43.8731 125.92 43.533 125.92C43.1929 126.252 42.8528 126.584 42.1726 126.584C41.1523 127.249 39.7919 126.917 38.7716 127.249C38.4315 127.249 38.0914 127.581 38.0914 127.581H37.7513C37.0711 127.581 36.3909 127.913 35.7107 128.245C35.3706 128.245 35.0305 128.578 34.6904 128.578C34.0102 128.578 34.0102 128.91 33.3299 128.91C32.9898 129.242 32.3096 129.574 31.9695 129.574C31.2893 129.574 30.9492 129.574 30.269 129.907C29.9289 130.239 29.2487 129.907 28.9086 129.907H27.8883C26.868 129.907 25.8477 130.239 25.1675 130.571H23.8071C23.467 130.571 23.1269 130.903 22.7868 130.903H22.4467C21.7665 130.903 20.7462 131.236 20.066 131.236C19.3858 131.236 18.7056 131.568 17.6853 131.568C17.3452 131.9 17.0051 131.9 16.3249 131.9C15.9848 131.9 15.6447 132.232 15.3046 132.565H14.9645C14.6244 129.907 13.6041 129.574 12.9239 129.574C12.5838 129.574 12.2437 129.242 11.9036 129.242C11.5635 128.91 10.8832 128.91 10.5431 129.574H10.203C9.52284 129.242 9.52284 129.242 9.18274 129.574H8.50254C8.16244 129.242 7.48223 129.574 7.14213 129.907C6.12183 129.242 5.44162 129.242 4.42132 129.242C3.40101 128.91 2.72081 129.907 2.72081 130.903V131.236C2.38071 131.236 2.38071 131.568 2.38071 131.568C2.72081 132.232 2.72081 132.565 2.38071 133.229C1.70051 134.558 1.70051 135.887 1.70051 137.881V139.542C1.36041 139.874 1.36041 140.206 1.36041 140.538C0.680203 139.874 1.0203 139.542 0.680203 138.877C0.680203 138.545 1.0203 138.213 0.340102 138.213V137.548C0.680203 136.884 0.680203 136.219 0.680203 135.887C0.680203 135.555 0.680203 134.558 1.0203 134.226V133.229V132.565C1.36041 132.232 1.36041 132.232 1.0203 131.9V130.903V128.578C1.36041 127.249 1.0203 125.92 1.0203 124.923V124.259V121.601C1.36041 120.604 1.0203 119.939 1.0203 118.943V118.61C0.680203 118.278 0.680203 117.946 0.680203 117.946C0.680203 117.282 1.0203 116.617 1.0203 115.953C1.0203 115.288 0.680203 114.956 0.680203 114.291C0.680203 113.959 0.680203 113.627 1.0203 113.627V112.962C1.36041 112.63 1.36041 112.298 1.0203 111.966V109.64V108.311V107.979C1.36041 106.65 1.70051 105.321 1.36041 103.992V102.995H1.0203C1.0203 102.331 1.0203 101.334 0.680203 100.669C0.340102 100.005 0.340102 99.6727 0.340102 99.0082V98.6759L0.680203 98.0115C0.340102 97.6792 0.340102 97.347 0.340102 97.347C0 97.347 0 96.6825 0.340102 96.6825C0.680203 96.018 0.680203 96.018 0.680203 95.3535V95.0213C0.680203 96.018 0.680203 96.3502 0.680203 96.3502C1.36041 96.018 1.36041 94.689 0.680203 94.3568C0.680203 94.0246 1.0203 94.0246 1.0203 93.6923L1.36041 93.3601C1.0203 92.6956 1.36041 92.6956 1.36041 92.0311C1.36041 91.6989 1.70051 91.3666 1.0203 90.7021C1.36041 90.0376 1.0203 89.7054 1.0203 89.0409C0.680203 88.3764 0.680203 87.712 1.0203 87.0475V86.383C1.0203 86.0507 1.0203 86.0507 0.680203 85.7185C1.0203 85.7185 1.0203 86.0507 1.36041 86.0507V86.383C1.36041 85.7185 1.36041 85.054 1.0203 84.7218V84.3895C0.680203 84.3895 0.680203 84.0573 0.680203 84.0573V81.0671V80.4026C1.0203 80.7349 0.680203 81.0671 1.0203 81.0671C1.70051 81.0671 1.70051 80.7349 1.36041 80.4026C1.36041 79.7381 1.0203 79.4059 1.36041 78.7414V78.0769V77.0802C1.36041 76.748 1.0203 76.4157 0.680203 76.4157C0.340102 76.0835 0.340102 75.7512 0.340102 75.7512C0.680203 75.0867 0.680203 74.4223 0.680203 73.7578V72.0966C0.340102 71.0998 0.340102 70.1031 0.340102 69.1064V68.4419C0.680203 68.1097 0.680203 67.7774 0.680203 67.7774V66.4484V65.784V63.7905V63.126V61.1326V60.8003C1.0203 60.1358 1.0203 59.1391 0.680203 58.1424V57.4779C1.0203 57.8101 1.0203 57.8101 1.0203 58.1424C1.0203 57.8101 1.36041 57.4779 1.0203 57.4779V55.8167V55.4845C1.36041 54.82 1.36041 53.8232 1.70051 53.1588C1.70051 53.1588 1.36041 53.1588 1.36041 52.8265H1.0203V52.162C1.36041 51.8298 1.36041 51.8298 1.0203 51.4975C0.680203 50.8331 0.680203 50.5008 1.36041 50.1686V49.8363C1.70051 49.1718 1.36041 48.5074 1.36041 48.1751V47.5106C1.0203 49.5041 1.0203 49.8363 1.0203 49.8363C0.680203 49.8363 0.680203 49.8363 0.680203 49.5041C0.680203 49.1718 0.680203 48.8396 1.0203 48.1751C1.0203 47.8429 0.680203 47.5106 0.680203 47.5106C1.0203 47.1784 1.0203 46.8462 1.0203 46.8462C1.36041 46.1817 1.36041 45.5172 1.36041 44.8527L1.0203 44.5205H0.680203C0.680203 43.856 0.340102 43.5237 0.680203 42.8592C1.0203 42.527 0.680203 42.1948 0.680203 42.1948C0.680203 41.8625 0.340102 41.5303 0.680203 41.5303C0.340102 41.198 0.340102 40.8658 0.340102 40.8658C0.680203 39.8691 0 38.8723 0.340102 37.2111H0.680203C0.340102 36.8789 0.680203 36.5466 0.340102 36.2144C0.340102 35.5499 0.340102 35.2177 0.680203 34.5532C0.680203 33.8887 1.0203 33.5565 0.340102 33.2242C0.340102 32.5597 0.340102 31.8953 0 31.2308C0 30.8985 0.340102 30.5663 0.340102 30.5663C0.680203 30.5663 0.680203 30.234 0.680203 29.9018V28.2406V27.9083C0.340102 27.5761 0.340102 27.2439 0.680203 26.5794V25.5827C0.340102 24.9182 0.340102 24.5859 0.340102 23.9214C0.340102 23.5892 0.680203 23.257 0.340102 22.5925V21.5957V20.599C0.340102 19.9345 0 19.9345 0.680203 19.6023V19.2701V18.6056C1.0203 18.6056 1.36041 18.6056 1.36041 18.2733C1.36041 17.6088 1.36041 16.9444 1.70051 16.6121C2.04061 16.2799 2.04061 15.9476 2.38071 15.9476C2.72081 15.2831 2.72081 14.6187 3.06091 14.2864C3.06091 13.9542 3.40102 13.9542 3.40102 13.9542V13.6219C3.06091 13.6219 2.72081 13.9542 2.72081 13.9542C2.72081 13.2897 2.72081 12.9574 3.06091 12.6252C3.40102 12.6252 3.40102 12.6252 3.40102 12.6252C3.40102 11.9607 3.74112 11.9607 3.74112 11.2962L4.08122 10.964V10.6318V9.63503H4.42132C4.42132 9.30278 4.76142 8.97054 5.10152 8.6383C5.44162 8.6383 5.78173 8.97054 6.12183 8.97054C6.12183 8.6383 5.78173 8.6383 5.78173 8.6383C5.44162 8.30606 5.44162 7.97381 5.78173 7.97381V7.30933C6.12183 6.97709 6.46193 6.64484 6.80203 6.3126V6.97709C7.14213 6.64484 7.14213 6.64484 6.80203 6.3126ZM1.0203 114.291V115.62V114.291ZM97.269 87.0475C96.5888 87.0475 96.5888 87.7119 96.2487 87.7119C95.5685 87.7119 95.5685 88.3764 94.8883 88.0442C94.2081 88.0442 94.2081 88.3764 93.868 88.7087L93.5279 89.0409C92.5076 89.0409 91.4873 89.3732 91.1472 90.0376C91.1472 89.7054 90.8071 89.7054 90.1269 89.7054C89.1066 90.0376 88.0863 90.3699 87.4061 91.3666C87.4061 91.6989 87.066 91.6989 87.066 91.6989L85.7056 92.3633C85.0254 92.6956 84.6853 92.6956 84.3452 93.0278C83.665 93.6923 83.3249 93.6923 82.6447 93.6923C82.3046 94.0246 82.3046 94.3568 82.3046 94.689C82.6447 95.0213 82.9848 95.3535 83.665 95.6858L84.0051 96.3502C85.3655 96.3502 86.0457 97.0147 86.7259 97.347C87.4061 97.6792 88.0863 98.0115 88.4264 99.0082L89.1066 99.6727C89.4467 100.005 89.7868 100.337 89.7868 100.337C90.1269 101.002 90.467 101.334 91.1472 101.666C91.4873 101.998 91.4873 102.331 91.4873 102.331C91.8274 102.663 92.1675 102.995 92.5076 102.995C93.1878 103.66 93.868 103.66 94.2081 104.656C94.2081 104.989 94.5482 105.321 94.5482 105.321C95.2284 105.321 95.2284 105.321 95.2284 105.985C95.5685 106.65 95.9086 107.314 95.5685 107.979V108.643C96.2487 108.975 96.2487 108.643 97.269 108.643C97.6091 108.975 97.6091 109.308 98.2893 109.308C98.2893 109.64 98.6294 109.972 98.9695 109.972C99.3096 109.972 99.9898 110.304 100.67 110.304C100.67 110.637 101.01 110.637 101.01 110.637C102.03 110.304 103.391 110.304 104.411 110.304C104.411 109.972 104.411 109.64 104.751 109.64C104.751 109.64 104.411 108.975 104.751 108.975C105.431 108.311 105.091 107.646 105.431 107.314C105.772 106.982 105.772 106.65 105.772 106.65C105.431 105.985 105.431 105.985 105.772 105.653C106.112 104.989 106.452 104.324 106.452 103.327V102.663C106.792 102.331 106.792 101.998 106.792 101.998C106.792 101.334 106.792 101.334 107.132 100.669V100.005L107.812 99.3404C107.472 98.6759 107.472 98.3437 107.472 98.0115C107.812 97.6792 107.472 97.347 107.472 97.347C106.792 96.3502 106.452 95.6858 105.772 95.0213C105.431 94.689 105.091 94.3568 105.091 94.3568C104.751 93.6923 104.411 93.0278 103.731 92.6956C103.391 92.0311 103.051 91.6989 103.051 91.0344C103.051 90.3699 102.711 90.3699 102.371 90.0376C102.03 90.0376 101.69 89.7054 101.35 89.3732C100.67 89.3732 100.67 89.0409 100.67 88.7087C100.67 88.3764 99.9898 88.0442 99.9898 87.7119C99.6497 87.7119 99.6497 87.7119 99.6497 87.3797C99.3096 86.7152 98.9695 86.7152 98.6294 86.7152C97.6091 87.0475 97.6091 87.0475 97.269 87.0475Z"
     fill="#D50032"
     id="path2" />
</svg>
