<?xml version="1.0" encoding="UTF-8" standalone="no"?>
<svg
   xmlns:dc="http://purl.org/dc/elements/1.1/"
   xmlns:cc="http://creativecommons.org/ns#"
   xmlns:rdf="http://www.w3.org/1999/02/22-rdf-syntax-ns#"
   xmlns:svg="http://www.w3.org/2000/svg"
   xmlns="http://www.w3.org/2000/svg"
   xmlns:sodipodi="http://sodipodi.sourceforge.net/DTD/sodipodi-0.dtd"
   xmlns:inkscape="http://www.inkscape.org/namespaces/inkscape"
   width="134"
   height="203"
   viewBox="0 0 134 203"
   fill="none"
   version="1.1"
   id="svg6"
   sodipodi:docname="figure-skating.svg"
   inkscape:version="0.92.1 r15371">
  <metadata
     id="metadata12">
    <rdf:RDF>
      <cc:Work
         rdf:about="">
        <dc:format>image/svg+xml</dc:format>
        <dc:type
           rdf:resource="http://purl.org/dc/dcmitype/StillImage" />
        <dc:title></dc:title>
      </cc:Work>
    </rdf:RDF>
  </metadata>
  <defs
     id="defs10" />
  <sodipodi:namedview
     pagecolor="#ffffff"
     bordercolor="#666666"
     borderopacity="1"
     objecttolerance="10"
     gridtolerance="10"
     guidetolerance="10"
     inkscape:pageopacity="0"
     inkscape:pageshadow="2"
     inkscape:window-width="640"
     inkscape:window-height="480"
     id="namedview8"
     showgrid="false"
     inkscape:zoom="1.1625616"
     inkscape:cx="67"
     inkscape:cy="101.5"
     inkscape:window-x="0"
     inkscape:window-y="0"
     inkscape:window-maximized="0"
     inkscape:current-layer="svg6" />
  <path
     d="M78.7075 89.7913C78.7075 90.1255 78.7075 90.1255 78.7075 89.7913C78.7075 90.4597 78.373 90.4597 78.373 90.4597C78.373 90.4597 78.373 91.128 78.0385 91.128H77.704C77.704 91.4622 77.3695 91.7964 77.3695 91.7964C77.035 92.4648 77.035 92.4648 77.035 93.1332C77.035 93.4674 76.7005 93.8015 76.7005 93.8015C76.366 93.8015 76.366 94.4699 76.366 94.4699C76.0315 94.8041 75.697 94.8041 75.3625 95.1383C75.028 95.1383 74.359 95.1383 74.0245 94.8041H73.69C73.3555 94.1357 73.3555 94.1357 72.6865 93.8015C72.0175 93.4674 72.0175 93.1332 71.3485 92.799C71.014 92.799 71.014 92.4648 71.014 92.4648C70.6795 92.1306 70.6795 91.7964 70.345 91.7964L70.0105 91.4622C69.676 91.128 69.007 90.7939 68.6725 90.7939C68.338 90.4597 68.0035 90.1255 67.669 89.7913V89.1229V88.7887V88.1204V87.7862V87.1178C67.3345 86.7836 67.669 86.4494 67.669 86.4494C67.669 86.4494 67.669 86.1152 67.3345 85.7811C67.669 85.4469 67.669 85.1127 67.3345 85.1127V84.7785V83.4417V82.7734C67 82.105 67 81.7708 67 81.1024H67.3345C67.669 80.7682 68.6725 80.7682 69.007 80.7682C69.3415 80.4341 69.3415 80.4341 69.676 80.4341C70.0105 80.0999 70.0105 80.4341 70.0105 80.0999C70.345 79.7657 70.345 79.7657 70.6795 79.4315C70.6795 79.0973 71.014 78.7631 71.3485 78.7631H71.683C71.683 78.0948 72.0175 78.0948 72.0175 77.7606C72.0175 77.4264 72.0175 77.4264 72.352 77.0922C72.6865 77.0922 73.021 77.0922 73.021 76.4238C73.3555 76.0896 73.3555 75.7554 73.69 75.7554C73.3555 75.0871 71.683 75.0871 71.683 75.0871C71.3485 75.0871 71.014 74.7529 70.6795 74.4187C70.345 74.4187 70.345 74.0845 70.0105 73.7503C69.676 73.7503 69.676 73.4161 69.007 73.4161C69.007 72.7478 68.6725 72.4136 69.007 72.0794C69.007 71.411 69.3415 71.411 69.3415 71.0768V70.7426V71.411C69.676 71.0768 69.676 70.7426 69.676 70.7426C70.0105 70.4085 70.0105 70.0743 70.0105 70.0743C70.0105 69.7401 70.345 69.7401 70.345 69.4059C70.6795 69.0717 70.6795 68.7375 71.014 68.4033V68.0691C71.3485 67.735 71.3485 67.4008 71.3485 67.0666C71.683 67.0666 71.683 66.7324 71.683 66.3982C72.0175 66.064 72.0175 66.064 72.352 65.7298L72.6865 65.3957C72.6865 65.0615 73.021 64.7273 73.021 64.7273C73.021 64.3931 73.021 64.3931 73.3555 64.3931C73.69 64.0589 73.69 63.7247 74.0245 63.7247C74.0245 63.3905 74.0245 63.0563 74.359 63.0563L74.6935 62.388L75.028 62.0538C75.3625 61.7196 75.3625 61.3854 75.697 61.3854C76.0315 61.0512 76.0315 60.717 76.0315 60.717C76.366 60.3828 76.366 60.0487 76.7005 59.7145C77.035 59.3803 77.035 59.0461 77.3695 58.3777C77.3695 58.3777 77.704 58.0435 77.704 57.7093C78.0385 57.7093 78.0385 57.3752 78.0385 57.041C78.373 56.3726 78.7075 56.0384 79.3765 55.7042C79.711 55.37 79.711 55.0359 79.711 55.0359C79.711 54.7017 80.0455 54.7017 80.0455 54.7017H80.38C80.38 54.0333 80.7145 54.0333 80.7145 53.6991C80.7145 53.3649 81.049 53.3649 81.049 53.0307C81.049 52.6965 81.3835 52.3624 81.3835 52.3624C82.0525 51.694 82.387 51.3598 82.7215 50.6914C83.056 50.023 83.056 49.6889 83.725 49.6889H86.0665C86.401 49.3547 86.401 49.0205 86.401 48.6863C86.7355 48.6863 86.7355 48.3521 87.07 48.0179C87.07 47.3496 87.4045 47.3496 87.739 47.3496L88.0735 47.0154C88.0735 46.6812 88.408 46.6812 88.408 46.347L88.7425 46.0128C88.7425 45.6786 89.077 45.3444 89.077 45.3444C89.4115 45.0102 89.4115 45.0102 89.4115 45.0102L89.746 44.3419C89.746 44.3419 89.746 44.0077 90.0805 44.0077C90.415 44.0077 90.415 43.6735 90.415 43.3393C90.415 43.3393 90.7495 43.3393 90.7495 43.0051C91.084 43.0051 91.084 42.6709 91.4185 42.6709C91.753 42.3367 91.753 42.0026 92.0875 42.0026C92.422 42.0026 92.422 41.6684 92.422 41.6684C92.7565 41.3342 92.7565 41.3342 93.091 41C93.091 41 93.76 41 93.76 41.3342C94.0945 42.0026 94.0945 42.3367 94.0945 43.0051C93.76 43.3393 94.0945 43.3393 94.429 43.6735C94.0945 43.6735 94.0945 44.0077 93.76 44.0077C94.0945 44.6761 93.76 44.6761 94.0945 45.3444V45.6786L94.429 46.0128C94.7635 46.347 94.7635 46.6812 94.7635 47.0154V47.6837C94.7635 48.0179 95.098 48.3521 95.098 48.3521C94.7635 49.0205 94.7635 49.3547 95.098 50.0231C95.4325 51.0256 95.767 52.0282 96.1015 53.0307C96.436 53.6991 96.436 53.6991 96.436 54.0333V54.3675C96.1015 54.7017 96.436 55.0359 96.7705 55.0359C97.105 55.7042 97.105 56.7068 97.4395 57.041C97.4395 57.7094 97.774 58.0435 97.774 58.3777C98.1085 59.0461 98.1085 59.0461 98.1085 59.7145V60.0487C97.774 60.3828 98.1085 60.717 98.443 60.717C98.443 61.0512 98.7775 61.3854 98.7775 61.7196C98.7775 62.388 99.112 62.388 99.112 62.7222C99.112 63.3905 99.112 63.3905 98.7775 63.7247C98.443 64.0589 98.7775 64.3931 98.443 64.3931H98.7775C99.4465 64.3931 99.781 65.0615 100.115 65.3957C100.45 65.7298 100.45 66.064 100.45 66.064C100.45 66.3982 100.45 66.7324 100.115 66.7324C99.781 67.4008 99.781 67.735 100.115 68.0691C100.45 68.4033 100.45 68.7375 100.45 68.7375L100.784 69.4059C101.119 69.4059 101.119 69.7401 101.119 69.7401C101.453 70.4085 101.453 70.4085 101.788 70.7426C102.122 71.7452 102.122 72.4136 102.457 73.4161C102.457 73.4161 102.457 74.0845 102.122 74.0845C102.122 74.0845 102.122 74.4187 101.788 74.7529C101.453 74.7529 101.119 74.7529 100.45 75.0871H100.115C99.781 74.7529 99.112 75.0871 98.7775 75.0871H97.774C97.4395 75.0871 97.4395 75.0871 97.4395 75.4213C97.105 75.7554 97.105 75.7554 97.105 75.7554H96.7705C96.7705 76.0896 96.436 76.0896 96.436 76.0896C96.1015 76.0896 95.767 76.0896 95.4325 76.758C95.098 77.0922 94.7635 77.0922 94.429 77.0922C94.0945 77.4264 93.76 77.4264 93.4255 77.7606C93.091 77.7606 93.091 78.0948 93.091 78.0948C92.7565 78.0948 92.7565 78.0948 92.422 78.4289H92.0875C91.753 78.4289 91.4185 78.7631 91.4185 79.0973C91.084 79.0973 91.084 79.4315 90.7495 79.4315C90.415 79.4315 90.415 79.4315 90.415 79.7657C90.415 80.0999 90.0805 80.0999 90.0805 80.4341L89.4115 81.1024C89.4115 81.4366 89.077 81.4366 89.077 81.4366C88.7425 81.4366 88.7425 81.7708 88.408 82.105C88.0735 82.7734 87.4045 83.1076 86.7355 83.7759C86.7355 83.7759 86.401 83.7759 86.401 84.1101C86.0665 84.4443 85.732 84.7785 85.3975 85.1127C86.7355 84.7785 86.7355 84.7785 86.0665 85.1127C86.0665 85.4469 85.732 85.4469 85.732 85.4469V86.1152L85.3975 85.7811H85.063H84.7285C84.7285 85.7811 84.394 85.7811 84.394 86.1152H84.0595C83.725 86.1152 83.725 86.4494 83.725 86.4494C83.3905 86.7836 83.3905 87.1178 83.3905 87.1178C83.056 87.452 83.056 87.7862 82.7215 87.7862C82.7215 88.1204 82.387 88.1204 82.387 88.1204C82.387 88.1204 82.0525 88.1204 82.0525 87.7862C81.718 87.7862 81.718 88.1204 81.3835 88.1204L81.049 88.4546C81.049 88.7887 80.7145 89.1229 80.7145 89.1229C80.38 89.4571 80.38 89.4571 80.0455 89.7913C79.3765 89.7913 79.042 89.7913 78.7075 89.7913Z"
     fill="#D50032"
     id="path2" />
  <path
     d="M133.331 63.9782C133.666 63.3099 133.665 62.3073 133.665 61.6389C133.665 61.6389 133.331 61.3047 133.331 60.9705C132.997 60.9705 132.997 60.6364 132.997 60.3022C132.662 59.6338 132.662 59.2996 132.997 58.6312V57.2945C132.997 56.9603 132.997 56.9603 133.331 56.6261V55.6236C132.997 54.9552 132.997 54.621 132.997 53.9526C133.331 53.6184 132.997 53.2843 132.997 53.2843C132.662 53.2843 132.662 53.2843 132.662 52.9501C132.997 52.6159 132.997 52.2817 132.997 51.9475V51.6133C133.331 51.2791 132.997 50.9449 132.997 50.9449C132.662 50.2766 132.662 49.9424 132.662 49.274C132.997 48.9398 132.997 48.6056 132.997 48.6056V47.9373C133.331 47.6031 133.331 47.6031 132.997 47.6031C132.997 46.9347 132.997 46.9347 133.331 46.2663V45.5979C132.997 45.5979 132.997 45.2638 132.997 45.2638V44.2612V43.5928C133.331 42.9245 133.331 42.9245 133.331 42.2561V40.9193V40.251C133.666 39.5826 133.331 39.2484 132.997 38.58C132.662 38.2458 132.662 38.2458 132.997 37.9117C132.997 37.5775 132.997 37.2433 132.662 37.2433V36.9091L132.997 36.5749C132.662 36.2407 132.662 35.9065 132.662 35.9065C132.997 35.9065 132.997 35.9065 132.997 35.5723V37.5775C132.997 36.9091 132.997 36.5749 132.662 35.9065C132.662 35.5723 132.327 35.2382 132.662 34.904C132.997 34.904 132.997 34.5698 132.662 34.5698C132.662 33.9014 132.997 33.9014 132.662 33.5672C132.997 33.233 132.662 32.8988 132.662 32.8988C132.997 32.2305 132.997 32.2305 132.997 31.5621V31.2279V30.8937C132.662 30.2254 132.997 29.557 133.331 29.2228V28.5544V27.886C133.666 27.5519 133.665 27.2177 133.665 26.8835C133.331 26.5493 133.331 26.2151 133.331 26.2151C132.997 25.5467 132.997 25.2125 132.997 24.5442C132.997 24.5442 132.662 24.21 132.997 23.8758C132.997 23.5416 132.997 23.2074 133.331 23.2074C133.331 22.8732 132.997 22.5391 133.331 22.2049V21.2023C132.997 20.8681 132.997 20.5339 132.997 20.5339C132.997 19.8656 133.331 19.1972 133.331 18.5288C133.331 18.1946 133.331 18.1946 132.997 18.1946C132.997 17.8604 133.331 17.5262 133.331 17.5262C132.662 17.5262 132.662 17.5262 132.662 16.8579V16.5237C132.662 16.1895 132.662 15.8553 132.997 15.8553C133.331 15.8553 133.331 15.5211 132.997 15.1869C132.997 14.8528 132.662 14.8528 132.997 14.5186V13.8502C132.997 13.1818 132.997 12.8476 132.662 12.5134V11.5109L132.997 11.1767C132.997 10.8425 132.662 10.5083 132.662 10.5083C132.662 9.83995 132.662 9.50576 132.327 8.83739V7.83483C131.993 7.16645 131.993 6.49808 131.324 6.16389C130.99 6.16389 130.99 5.82971 130.99 5.82971C130.655 5.16133 130.32 4.82715 129.652 4.82715C129.652 4.49296 129.652 4.49296 129.317 4.15877L128.982 3.82458C128.648 3.15621 127.645 3.15621 127.31 2.48784C126.976 2.15365 125.972 1.81946 125.638 1.81946C125.303 1.81946 125.303 1.48528 124.969 1.48528C124.634 1.15109 124.634 1.15109 124.634 1.15109C124.3 0.816901 120.62 0.816901 120.286 0.482714H119.617C119.282 0.148528 118.948 0.482714 118.948 0.482714C118.613 0.816901 118.613 0.816901 118.613 0.816901H117.944H116.941C116.941 0.482714 116.606 0.482714 116.606 0.482714C116.272 0.482714 116.272 0.148528 115.603 0.148528C115.268 0.148528 114.934 -0.185659 114.599 0.148528H114.265H113.596C113.261 0.148528 112.592 0.482714 112.258 0.482714H111.923C111.589 0.482714 111.254 0.816901 110.92 0.482714H109.582C109.582 0.816901 109.247 0.816901 109.247 0.816901H108.913C108.244 0.816901 107.575 1.15109 106.906 1.15109C106.571 1.48528 106.571 1.48528 106.237 1.15109C105.902 0.816901 105.568 0.816901 104.899 0.482714H104.23C103.895 0.816901 103.561 0.816901 102.892 0.816901C102.557 0.816901 102.557 0.816901 102.557 1.15109C102.223 1.48528 101.888 1.48528 101.554 1.48528C101.554 1.48528 101.219 1.48528 101.219 1.81946C100.885 2.15365 100.216 2.15365 99.881 1.81946C99.881 1.48528 99.5465 1.48528 99.5465 1.48528C99.212 1.15109 99.212 1.48528 99.212 1.48528C98.8775 1.81946 98.2085 1.81946 97.874 1.81946C97.874 1.48528 97.874 1.15109 97.5395 1.15109C97.5395 0.816901 97.5395 0.816901 97.205 0.816901C96.536 1.15109 96.2015 0.816901 95.867 0.816901H93.86H91.5185C91.184 0.816901 90.8495 1.15109 90.515 1.48528H90.1805C89.846 1.81946 89.846 1.48528 89.5115 1.81946C89.177 1.81946 89.177 1.48528 88.508 1.48528C88.1735 1.81946 87.5045 1.48528 87.17 1.48528H86.8355C86.501 1.81946 86.1665 1.81946 85.832 1.48528C85.4975 1.15109 85.4975 1.15109 85.4975 0.816901H83.4905C83.156 0.816901 82.487 0.816901 82.1525 1.15109H80.8145H80.1455H79.811H79.4765C79.142 1.48528 79.142 1.48528 78.8075 1.15109V0.816901H76.466H76.1315C75.4625 1.15109 74.7935 1.15109 73.79 1.15109H73.4555H73.121H71.783C70.7795 0.816901 70.1105 1.48528 69.107 1.15109H68.7725C68.438 1.15109 67.769 0.816901 67.4345 1.15109C67.1 1.48528 66.7655 1.48528 66.431 1.48528C66.0965 1.48528 66.0965 1.15109 66.0965 1.48528C65.762 1.48528 65.762 1.48528 65.4275 1.15109H64.7585H62.417C62.0825 1.15109 61.4135 1.15109 61.079 1.48528C61.079 1.15109 60.7445 1.15109 60.7445 1.15109C60.0755 1.48528 59.4065 0.816901 59.072 1.48528C58.7375 1.48528 58.0685 1.48528 57.734 1.15109H57.3995C56.396 1.15109 45.692 0.816901 44.6885 1.15109H43.3505C43.016 0.816901 42.6815 1.15109 42.0125 1.15109H41.678C41.3435 1.15109 41.009 1.15109 40.6745 1.48528H40.34C40.0055 1.15109 40.0055 1.48528 39.671 1.48528C39.3365 1.81946 39.3365 1.81946 39.3365 1.81946C39.002 1.48528 39.002 1.81946 38.6675 1.81946C38.333 1.81946 38.333 2.15365 38.333 2.15365H37.664C37.3295 1.81946 36.995 1.81946 36.6605 1.81946C36.326 2.15365 35.9915 1.81946 35.3225 2.15365H34.988C34.6535 1.81946 34.319 1.81946 33.9845 1.48528C33.3155 1.15109 32.981 1.15109 32.6465 1.15109C32.312 1.48528 31.9775 1.48528 31.643 1.48528C31.3085 1.81946 31.3085 1.48528 31.3085 1.48528C30.974 1.15109 30.6395 1.15109 30.305 1.15109H29.636H26.6255C26.291 1.15109 25.9565 1.15109 25.2875 1.48528H24.284C23.2805 1.15109 21.9425 1.15109 20.939 1.48528C20.27 1.15109 19.601 1.15109 19.2665 1.15109H18.263H17.594C17.2595 1.15109 16.925 1.15109 16.5905 1.48528C16.256 1.48528 15.9215 1.81946 15.2525 1.81946H14.2491H12.2421C11.9076 1.81946 11.9076 2.15365 11.9076 2.15365C11.5731 2.15365 11.2386 2.48784 10.9041 2.48784C10.2351 2.48784 10.2351 2.82202 9.56605 3.15621C9.23155 3.4904 9.23155 3.4904 8.89705 3.82458C8.22805 4.15877 8.22805 4.49296 7.55905 4.49296C6.89005 4.49296 6.55555 5.16133 6.22105 6.16389C5.55205 6.49808 5.21755 7.50064 5.21755 8.16901C4.88305 8.5032 4.88305 8.5032 4.54855 8.5032C4.54855 8.83739 4.54855 8.83739 4.21405 9.17157C4.21405 9.50576 3.87955 9.83995 3.87955 10.1741C3.54506 10.5083 3.54506 10.5083 3.54506 10.8425C3.21056 11.1767 3.21056 11.5109 3.21056 11.8451C3.21056 12.5134 2.87606 12.5134 2.87606 13.1818C2.87606 13.8502 2.54156 13.8502 2.54156 14.5186C2.20706 14.8528 2.20706 15.5211 2.20706 16.1895V16.5237C1.87256 17.1921 1.87256 17.8604 1.87256 18.5288V18.863V19.5314V21.5365C1.87256 22.2049 1.87256 22.8732 2.20706 23.5416V23.8758C2.20706 24.21 1.87256 24.5442 2.20706 24.8784C2.20706 25.2125 2.20706 25.5467 2.54156 25.5467C2.87606 26.2151 2.87606 26.2151 2.87606 26.8835V27.5519V28.5544V28.8886V29.557C2.54156 29.8912 2.54156 30.2254 2.87606 30.5595C2.87606 30.5595 2.87606 31.2279 3.21056 31.5621V31.8963V32.8988C3.21056 32.8988 2.87606 32.8988 2.87606 33.233C2.54156 33.233 2.54156 33.233 2.54156 33.5672C3.21056 34.2356 2.54156 34.904 2.20706 35.5723C1.87256 35.5723 1.87256 35.9065 1.87256 36.2407C2.54156 36.2407 2.54156 36.2407 3.21056 36.5749C3.21056 36.5749 3.21056 36.9091 2.87606 36.9091C2.54156 37.5775 2.54156 38.2458 2.54156 38.9142C2.87606 39.5826 2.87606 39.9168 2.87606 40.5851C2.87606 41.2535 2.54156 42.2561 2.54156 43.2586C2.54156 43.2586 2.54156 43.5928 2.20706 43.5928C1.87256 44.2612 1.87256 44.5954 2.20706 45.2638C2.20706 45.598 2.20706 45.9321 1.87256 45.9321C1.53806 45.9321 1.53806 46.2663 1.53806 46.2663C1.53806 46.9347 1.53806 46.9347 1.20356 46.9347V47.6031C1.20356 47.9373 1.53806 48.2714 1.53806 48.2714C1.53806 48.2714 1.87256 48.6056 1.87256 48.9398C2.20706 49.274 2.20706 49.6082 2.54156 49.9424V50.6108C2.20706 50.6108 2.54156 50.9449 2.54156 50.9449C2.54156 51.2791 2.54156 51.6133 2.87606 51.9475C2.87606 52.2817 2.87606 52.6159 2.54156 52.6159H2.20706C2.54156 53.2843 2.54156 53.6184 2.54156 53.9526C2.54156 54.2868 2.54156 54.621 2.87606 54.621C2.87606 54.621 2.87606 54.9552 3.21056 54.9552V54.2868C3.54506 54.621 3.87955 54.9552 3.87955 55.6236H4.21405C4.21405 55.9577 4.54855 55.9577 4.54855 56.2919L4.88305 56.9603C5.21755 57.6287 5.55205 57.9629 5.21755 58.6312C5.21755 58.9654 5.21755 58.9654 5.55205 59.2996H5.21755C4.88305 59.6338 4.88305 59.968 4.88305 59.968C4.88305 60.6364 4.88305 60.6364 5.21755 60.9705C5.21755 61.3047 5.21755 61.6389 4.88305 61.6389L4.54855 62.3073C4.21405 62.6415 4.21405 62.6415 4.21405 62.3073C3.87955 62.3073 3.87955 61.9731 3.87955 61.9731C3.54506 61.9731 2.87606 61.9731 2.54156 62.3073C2.54156 62.6415 2.20706 62.6415 2.20706 62.6415C2.20706 62.3073 1.87256 62.6415 1.87256 62.6415C1.53806 63.3099 1.53806 63.3099 1.20356 62.9757C0.869056 63.3099 0.869056 63.3099 0.869056 63.644V64.3124V64.6466V65.315L1.20356 65.6492V66.3175V67.6543C1.20356 67.9885 1.20356 68.3227 0.869056 68.3227C0.534556 68.3227 0.869056 68.991 0.534556 68.991V67.6543L0.869056 67.9885V68.6568C0.534556 68.991 0.534556 69.3252 0.869056 69.9936C1.20356 70.3278 1.20356 70.662 0.869056 70.662V70.9962C0.869056 71.6645 0.869056 72.3329 0.534556 73.0013L0.869056 73.3355V74.338C-0.134443 74.0038 -0.134443 74.338 0.200056 75.0064C0.534556 75.3406 0.534556 75.6748 0.200056 75.6748V76.009C0.200056 76.6773 0.200056 77.0115 0.534556 77.3457C0.869056 77.6799 0.534556 78.0141 0.534556 78.0141C0.534556 78.0141 0.534556 78.3483 0.200056 78.6824C0.534556 79.0166 0.534556 79.3508 0.534556 79.3508C0.869056 79.685 0.869056 80.0192 0.869056 80.0192C0.869056 80.0192 0.869056 80.6876 0.534556 81.0218C0.200056 81.0218 0.200056 81.356 0.200056 81.6901C0.534556 82.0243 0.534556 82.0243 0.200056 82.3585C0.200056 83.0269 0.200056 83.6953 0.534556 84.0294C0.534556 84.3636 0.869056 84.6978 0.869056 85.3662C1.20356 86.0346 0.869056 86.3688 1.20356 87.0371C0.869056 87.3713 1.20356 87.7055 1.20356 87.7055C1.53806 88.3739 1.53806 88.7081 1.20356 89.0423C0.869056 89.7106 0.869056 90.379 0.869056 90.7132C0.869056 91.3816 0.534556 92.0499 0.869056 92.7183V93.0525C0.534556 93.3867 0.534556 93.7209 0.869056 94.3892C0.534556 94.7234 0.869056 95.0576 0.869056 95.3918V96.0602V96.7286C0.869056 97.0627 1.20356 97.3969 0.869056 97.7311C1.20356 98.0653 0.869056 98.3995 0.869056 98.3995V99.0679C1.20356 99.402 1.20356 99.7362 0.869056 99.7362C0.869056 100.405 0.869056 100.405 1.20356 101.073C1.20356 101.073 0.869056 101.073 0.869056 101.407C0.869056 101.741 0.534556 101.741 0.869056 102.076C1.20356 102.41 0.869056 102.744 1.20356 102.744V103.078C1.20356 103.412 1.20356 103.746 0.869056 103.746C0.869056 104.081 0.869056 104.415 1.20356 104.415V105.083C0.869056 105.417 0.869056 105.752 1.20356 106.086C1.20356 106.42 1.53806 106.42 1.53806 106.754V108.091C1.20356 108.425 1.53806 108.759 1.53806 108.759V109.428C1.20356 110.096 1.20356 111.099 1.20356 111.767V112.101V112.77C1.53806 113.104 1.53806 113.438 1.53806 113.438C1.20356 113.772 1.87256 114.106 1.53806 114.775C1.87256 115.443 1.53806 115.777 1.20356 116.446V117.782V119.787C0.869056 120.456 0.869056 120.79 1.20356 121.458V123.129C0.869056 123.798 0.869056 124.466 0.869056 125.134C0.869056 125.803 0.869056 126.805 1.20356 127.14V127.808V128.142C1.53806 128.476 1.53806 128.811 1.53806 128.811V129.145C1.87256 129.813 1.87256 129.813 1.87256 130.481C2.20706 130.816 2.20706 131.15 2.20706 131.484C2.20706 131.818 1.87256 132.487 1.87256 133.155V133.823C2.20706 134.157 2.20706 134.492 2.20706 134.492C2.20706 134.492 2.54156 135.16 1.87256 135.828C2.20706 135.828 2.20706 136.163 2.20706 136.163V136.831V138.836V139.504V139.839V140.507V141.175C1.87256 137.834 1.87256 137.834 1.87256 137.834C1.53806 138.168 1.20356 138.502 1.53806 138.836V139.17C1.53806 139.504 1.53806 139.504 1.87256 139.839C2.20706 140.173 2.20706 140.507 2.20706 140.841C2.20706 141.51 1.87256 141.844 1.87256 142.178C1.53806 142.846 1.53806 143.181 1.53806 143.849C1.53806 144.183 1.53806 144.517 1.87256 144.517C1.87256 144.517 1.87256 144.851 2.20706 144.851C2.54156 145.186 2.54156 145.52 2.20706 145.854C1.87256 146.188 2.20706 146.522 2.20706 146.857C2.54156 146.857 2.54156 147.191 2.54156 147.191C2.20706 147.859 2.54156 148.193 2.20706 148.528V149.196C2.54156 149.864 2.54156 150.533 2.54156 150.867V152.204V152.538H1.53806V153.206C1.20356 153.875 1.20356 154.209 1.20356 154.877C0.869056 155.211 1.20356 155.545 1.20356 156.214V157.216V158.219V157.885C1.53806 158.553 1.53806 159.222 1.20356 159.89C1.20356 160.558 1.53806 161.227 1.53806 161.895C1.87256 162.229 1.53806 162.563 1.53806 162.898C1.53806 163.566 1.53806 163.566 1.87256 164.234C1.53806 164.903 1.53806 165.237 1.53806 165.905C1.20356 166.239 1.20356 166.574 1.53806 166.574C1.87256 166.908 1.53806 167.242 1.20356 167.576C0.869056 167.91 0.869056 168.245 1.20356 168.245V168.579C0.869056 169.247 1.20356 169.581 1.20356 170.25C1.20356 170.918 0.869056 171.586 1.20356 172.255C0.869056 172.923 1.20356 173.592 1.20356 174.26C1.20356 174.594 1.20356 174.928 0.869056 174.928V174.594C1.20356 175.262 1.20356 175.597 0.869056 175.931V176.265C1.20356 176.599 1.20356 176.933 1.20356 177.268V177.936C1.20356 178.27 1.20356 178.604 1.53806 178.604C1.53806 178.939 1.53806 179.273 1.20356 179.273V179.941V180.609C1.53806 181.278 1.53806 181.612 1.53806 181.946C1.20356 182.28 1.53806 182.615 1.53806 182.615C1.87256 182.949 1.87256 182.949 1.87256 183.283C1.53806 183.617 1.53806 183.951 1.53806 183.951C1.87256 184.286 1.87256 184.62 1.53806 184.62C1.53806 184.954 1.87256 185.288 1.87256 185.288C1.53806 185.956 1.53806 186.291 1.53806 186.625V187.293C1.87256 187.962 1.87256 188.296 1.53806 188.63V189.298V190.635C1.53806 190.969 1.20356 191.303 1.20356 191.303C1.53806 191.972 1.20356 192.306 1.53806 192.974C1.53806 193.643 1.53806 193.977 1.87256 194.311C2.20706 194.98 2.20706 195.648 2.20706 195.982C2.20706 196.316 2.20706 196.65 2.54156 196.65C2.54156 196.985 2.87606 197.319 2.87606 197.319C2.87606 196.65 3.21056 197.319 3.21056 197.653C3.54506 197.987 3.54506 198.321 3.87955 198.656V198.99C4.21406 199.324 4.21405 199.658 4.21405 199.658C4.54855 199.992 4.54855 200.327 4.88305 200.327C5.21755 200.661 5.21755 200.327 5.21755 200.327C5.55205 199.992 5.55205 200.327 5.88655 200.661C6.22105 200.661 6.22105 200.995 6.55555 201.329C6.89005 201.329 6.89005 201.663 6.89005 201.997C6.89005 202.332 16.2561 202.332 16.2561 202.332L16.5905 201.997C16.925 202.332 17.2595 202.666 17.9285 202.332H18.263H18.5975C18.5975 202.666 18.932 202.666 18.932 202.666V202.332H19.9355C20.27 202.332 20.27 202.666 20.27 202.332C20.6045 202.332 20.6045 202.332 20.939 202.666C21.2735 202.332 21.2735 201.997 21.9425 202.332C21.9425 201.663 21.9425 201.663 22.277 201.997C22.6115 201.997 22.946 202.332 23.2805 201.997H23.615C23.9495 201.997 24.284 201.663 24.6185 201.663C24.953 201.663 24.953 201.663 24.953 201.997C25.2875 202.332 25.2875 202.666 25.2875 202.666H26.6255C26.96 202.666 26.96 203 27.2945 202.666C27.629 202.332 27.9635 202.332 28.298 202.332H28.967H29.3015C30.305 201.663 30.305 201.329 30.974 201.329H31.3085H31.643C31.9775 201.663 32.312 201.329 32.6465 200.995C32.6465 200.661 32.981 200.661 32.981 200.661C33.3155 200.661 33.65 200.661 33.9845 200.995H34.319C34.6535 200.661 34.988 200.661 35.657 200.327C35.9915 200.661 35.9915 200.661 36.326 200.995C36.6605 200.661 37.3295 200.661 37.664 200.661C37.9985 200.661 37.9985 200.661 37.9985 200.995C38.333 200.661 39.3365 200.661 40.0055 200.661V200.995C40.34 201.329 40.34 201.663 40.34 201.663C40.6745 201.997 41.3435 201.997 41.678 201.997C42.347 202.332 43.016 202.332 44.0195 202.666C44.6885 202.666 45.3575 203 46.361 203H51.3785H59.741C59.741 203 60.0755 203 60.0755 202.666H59.741C59.4065 202.666 57.3995 202.666 57.3995 202.332C57.065 201.997 57.065 201.997 56.7305 201.997C56.7305 201.663 56.396 201.997 56.396 201.997C56.0615 202.332 56.0615 202.332 55.3925 201.997C55.058 201.997 55.058 201.663 54.7235 201.663C54.389 201.997 54.389 201.663 54.389 201.663C54.0545 201.663 54.0545 201.997 54.0545 201.997C54.389 201.663 54.0545 201.329 53.3855 201.329V200.995C53.72 200.327 53.72 200.327 53.72 199.658L54.0545 198.99C54.0545 198.656 54.0545 198.321 54.389 198.321L54.7235 197.653V197.319C55.058 196.985 55.058 196.65 55.058 196.65V196.316C55.3925 196.316 56.0615 195.648 56.396 195.982C56.7305 195.648 56.7305 195.648 57.065 195.314C57.3995 194.98 57.3995 194.645 57.3995 194.311V194.645C57.734 193.977 57.734 193.977 57.734 193.309C57.734 192.64 57.734 192.64 58.0685 192.306C58.0685 192.306 58.0685 191.972 58.403 191.972C58.403 191.638 58.403 191.303 58.7375 191.303V190.635V189.967V189.298V188.63C58.7375 188.296 58.403 187.962 58.403 187.962C58.403 186.959 58.403 185.956 58.7375 185.288V184.954C59.072 184.62 59.072 184.286 58.7375 183.617V183.283C58.7375 182.949 58.7375 182.615 58.403 182.615C58.403 181.946 58.7375 181.946 58.7375 181.612C59.072 181.278 59.072 180.944 59.072 180.944V180.275C59.072 179.607 59.4065 179.273 58.7375 178.604C58.403 178.604 58.403 178.604 58.403 178.27C58.403 177.936 58.403 177.602 58.7375 176.933C58.7375 176.599 58.7375 176.599 58.403 176.265C58.403 175.931 58.403 175.597 58.0685 175.262C58.403 174.928 58.403 174.594 58.403 174.26C58.403 173.926 58.403 173.926 58.7375 173.592C59.072 172.923 59.072 172.923 58.7375 172.255V171.252C58.7375 171.252 58.7375 170.918 58.403 170.918V171.252C58.403 170.918 58.0685 170.584 58.0685 170.584V169.915C58.0685 169.581 57.734 169.247 57.734 168.913V167.91L57.3995 167.242V165.905V165.571C57.3995 165.237 57.065 164.903 57.065 164.568C57.065 164.234 57.3995 163.9 57.3995 163.9C57.734 163.9 58.403 163.566 58.7375 163.232C59.072 163.232 59.072 162.898 59.072 162.563V161.561C59.072 161.227 59.072 160.892 58.7375 160.558C59.072 160.224 59.072 160.224 58.7375 159.89C58.7375 159.556 58.403 159.556 58.403 159.222C58.403 158.887 58.0685 158.553 58.403 158.553C58.403 158.553 58.403 158.219 58.0685 158.219V157.885C58.0685 157.551 57.734 157.216 57.734 156.882C57.734 156.548 58.0685 156.214 58.0685 155.88V155.211V154.877C58.403 154.209 58.403 154.209 58.403 153.875C58.403 153.206 58.403 153.206 58.7375 152.872C58.7375 152.538 59.072 152.538 59.072 152.538C59.4065 152.204 59.4065 151.869 59.741 151.535V150.867V150.198C59.4065 149.864 59.4065 149.53 59.4065 149.53C59.072 148.862 59.072 148.193 59.4065 147.859C59.741 147.191 59.741 146.857 59.741 146.188V145.52C59.741 144.851 60.0755 144.517 59.741 143.849C59.741 143.181 60.0755 142.512 60.0755 141.844V140.841C60.41 140.173 60.41 139.839 60.41 139.17C60.41 138.836 60.41 138.502 60.7445 138.168C60.7445 137.834 61.079 137.499 61.079 137.165C60.7445 136.497 61.079 136.497 61.079 135.828C61.079 135.16 61.4135 135.16 61.4135 134.158C61.4135 134.158 61.4135 133.823 61.748 133.823V133.155C61.4135 132.821 61.4135 132.487 61.4135 132.487C61.748 131.818 61.748 131.818 61.748 131.15C61.748 130.481 62.0825 130.147 62.0825 129.479C62.417 128.811 62.417 128.476 62.417 127.808V127.14C62.417 126.471 62.7515 126.137 62.7515 125.469C63.086 125.134 63.086 124.8 62.7515 124.8V124.132C63.086 123.798 63.086 123.464 63.086 123.464V123.129C63.4205 122.461 63.4205 122.461 63.4205 122.127V121.458C63.755 121.124 63.755 120.79 63.755 120.122C63.755 119.787 64.0895 119.453 64.0895 119.119C64.0895 118.785 64.424 118.785 64.0895 118.451C64.0895 118.451 64.0895 118.117 64.424 117.782V117.114C64.7585 116.78 64.7585 116.446 64.7585 116.111C64.7585 115.777 65.093 115.443 65.093 114.775C66.7655 117.782 66.7655 117.782 66.7655 117.448V116.78V116.111C66.7655 115.777 67.1 115.443 67.1 115.109C67.4345 114.775 67.4345 114.44 67.4345 114.106C67.4345 113.772 67.4345 113.772 67.769 113.438C68.1035 113.104 68.1035 112.77 68.1035 112.77C68.1035 112.101 68.438 111.767 68.438 111.099C68.7725 110.764 70.1105 105.752 69.776 105.417C69.4415 105.083 69.4415 104.749 69.4415 104.415C69.776 104.081 69.107 103.746 68.7725 103.746L68.438 103.412C68.1035 103.078 67.4345 102.744 67.1 102.744C66.7655 102.744 66.7655 102.41 66.431 102.076C66.0965 102.076 66.0965 101.741 66.0965 101.407C65.762 101.407 65.4275 100.739 65.093 100.739C64.7585 100.405 64.7585 100.405 64.7585 100.405C64.424 100.07 64.0895 99.7362 63.755 99.402C63.755 99.0679 63.4205 98.7337 63.4205 98.7337C63.086 98.3995 63.086 98.3995 62.7515 98.7337C62.417 98.0653 62.417 97.7311 62.0825 97.0627C62.0825 96.7285 61.748 96.3944 61.748 96.0602C61.4135 95.3918 61.079 94.7234 60.41 94.3892C60.0755 94.0551 60.0755 93.7209 60.0755 93.0525V92.7183C59.741 92.3841 60.0755 92.0499 59.741 91.7158C59.741 91.0474 60.0755 90.7132 59.4065 90.379V91.0474C59.741 90.7132 59.4065 90.379 59.072 90.379V90.0448V89.7106C58.7375 89.3764 58.7375 89.0423 59.072 88.7081V88.0397C59.072 87.7055 58.7375 87.7055 58.7375 87.7055V87.0371V86.0346C58.7375 85.7004 58.7375 85.3662 59.072 85.032C59.072 84.6978 59.072 84.6978 58.7375 84.3636V84.0294C58.7375 83.6953 58.7375 83.6953 59.072 83.6953C58.7375 83.0269 58.7375 83.0269 58.7375 82.6927C58.7375 82.3585 58.7375 82.0243 59.072 82.0243C59.072 81.6901 59.072 81.3559 59.4065 81.3559C59.4065 81.0218 59.072 80.6876 59.4065 80.6876V80.3534V79.685V79.3508C59.072 79.0166 59.4065 78.0141 59.072 78.0141C59.4065 77.3457 59.4065 77.3457 59.741 77.0115V76.6773V76.009V75.6748C59.4065 75.6748 59.4065 75.3406 59.4065 75.0064C59.072 74.6722 59.072 74.6722 59.072 74.338C58.7375 74.0038 58.403 74.0038 58.0685 73.6696V73.0013C57.734 73.0013 57.734 72.6671 57.734 72.6671C57.3995 72.3329 57.3995 72.6671 57.3995 73.0013C57.065 72.6671 57.065 72.6671 57.065 72.3329C57.065 71.9987 56.7305 71.9987 56.7305 71.9987C56.7305 71.9987 56.396 71.9987 56.396 71.6645C56.0615 71.3303 55.058 70.9962 55.058 70.9962C54.7235 70.662 54.389 70.3278 54.0545 70.3278C54.0545 69.9936 53.72 69.9936 53.72 69.9936C53.3855 69.6594 53.051 68.991 52.382 68.991C52.382 68.991 52.382 68.6568 52.0475 68.6568C51.713 67.9885 51.3785 67.9885 50.7095 67.9885V67.6543C50.0405 67.6543 49.3715 67.6543 49.037 66.9859C48.7025 66.6517 48.0335 66.6517 47.699 66.3175C47.3645 65.9834 47.03 65.6492 46.361 65.6492C45.692 65.6492 45.3575 64.9808 45.023 64.9808C44.6885 64.6466 44.6885 64.6466 44.354 64.6466C44.0195 64.3124 44.0195 64.3124 43.685 64.3124C43.685 63.9782 43.3505 63.644 43.3505 63.9782H43.016C42.6815 63.644 42.6815 63.3099 42.347 63.3099C42.0125 63.3099 42.0125 62.9757 42.0125 62.9757C41.3435 62.6415 41.3435 62.6415 41.009 62.3073H40.6745H40.34C40.0055 61.9731 39.671 61.6389 39.002 61.6389C38.6675 60.9706 37.9985 60.9705 37.664 60.6364C37.3295 60.3022 36.995 60.6364 36.6605 60.9705C36.326 61.3047 36.326 61.6389 36.326 61.6389H35.9915L35.3225 60.9705L35.9915 60.3022C35.657 60.3022 35.657 59.968 35.657 59.968C35.657 59.6338 35.657 59.6338 35.3225 59.2996C35.3225 58.9654 34.988 58.6312 34.6535 58.6312C34.319 58.6312 34.319 58.6312 33.9845 58.2971C33.65 58.2971 33.65 57.9629 33.3155 57.9629C32.981 57.9629 32.6465 57.6287 32.6465 57.2945L32.312 56.9603C31.9775 56.9603 31.3085 56.6261 30.974 56.2919C30.305 55.9577 29.636 55.6236 28.967 55.2894L28.6325 54.9552H26.291L25.9565 54.621H25.622C25.2875 53.9526 25.2875 53.9526 24.953 53.9526C24.6185 54.2868 23.9495 53.9526 23.9495 53.2843C23.615 52.9501 23.615 52.6159 22.946 52.6159V51.6133C22.6115 51.6133 22.277 50.9449 21.9425 51.2791H21.608L20.939 50.6108C20.6045 50.6108 20.6045 50.6108 20.27 49.9424C19.9355 49.274 19.9355 48.9398 20.27 48.6056C20.27 47.9373 20.6045 47.9373 20.27 47.6031C20.6045 47.6031 20.6045 47.2689 20.6045 46.9347C20.6045 46.6005 20.27 46.2663 20.27 46.2663C19.9355 50.2766 19.9355 49.9424 19.601 49.9424C19.2665 49.6082 19.2665 49.6082 19.2665 49.274C19.2665 48.9398 18.932 48.6056 19.2665 48.6056C19.601 48.2715 19.601 47.9373 19.601 47.6031C19.601 47.6031 19.601 47.2689 19.9355 47.2689C19.9355 46.9347 19.9355 46.6005 19.601 46.6005C19.601 46.2663 19.2665 45.9321 19.2665 45.9321C19.601 45.2638 19.601 44.9296 19.9355 44.5954V44.2612C20.27 43.5928 20.27 43.5928 20.27 42.5903C20.27 42.5903 20.27 42.2561 19.9355 41.9219C19.9355 41.5877 19.9355 41.2535 20.27 41.2535L20.6045 40.9193C20.6045 40.9193 20.6045 40.5851 20.27 40.5851H20.6045C20.939 40.5851 21.2735 40.5851 21.608 39.9168C21.9425 39.9168 22.277 39.5826 22.6115 39.5826C22.946 39.2484 23.2805 38.9142 23.615 38.9142C23.615 38.9142 23.9495 38.9142 23.9495 38.58C23.9495 38.2458 24.284 38.2458 24.284 38.58C24.284 38.9142 24.6185 39.2484 24.953 39.2484C25.2875 39.2484 25.9565 38.9142 26.291 38.9142C26.6255 38.58 27.2945 38.58 27.629 38.58C27.9635 38.58 28.298 38.9142 28.6325 38.9142C28.967 38.9142 28.967 38.9142 28.967 39.2484C29.3015 39.2484 29.9705 38.9142 30.305 38.9142V38.58C30.6395 38.58 30.6395 38.2458 30.6395 38.2458H31.3085C30.974 38.9142 30.974 39.2484 31.3085 39.5826V40.9193V41.5877C31.3085 41.9219 31.3085 42.2561 30.974 42.9245V43.2586C31.3085 43.5928 31.3085 43.927 31.3085 43.927C31.3085 43.927 32.6465 43.927 32.6465 44.2612C32.6465 44.9296 32.312 45.2638 32.312 45.9321C32.6465 46.2663 32.312 46.6005 32.6465 46.9347C32.6465 47.6031 32.6465 47.6031 32.981 47.9373C32.981 47.9373 33.3155 48.2715 33.3155 48.6056L33.65 48.9398C33.9845 49.274 33.9845 49.6082 33.9845 49.6082C34.319 50.2766 34.6535 50.6108 35.3225 50.9449C35.657 51.2791 35.657 51.2791 35.657 51.6133C35.657 51.9475 35.9915 52.2817 35.9915 52.2817C36.326 52.2817 36.326 52.6159 36.326 52.6159C36.6605 52.9501 36.6605 53.2843 36.995 53.2843C37.3295 53.6184 37.3295 53.9526 37.3295 53.9526C37.664 54.2868 37.9985 54.2868 38.333 54.621C38.6675 54.9552 38.6675 54.9552 39.002 55.2894C39.3365 55.2894 39.3365 55.6236 39.3365 55.6236C39.671 55.9577 40.34 56.2919 40.6745 56.2919C41.009 56.2919 41.678 56.6261 42.0125 56.9603C42.347 57.6287 42.347 57.6287 43.016 58.2971H43.3505C43.685 58.6312 43.685 58.9654 44.0195 58.9654C44.354 58.9654 44.354 59.2996 44.354 59.2996C44.6885 59.2996 45.023 59.968 45.3575 59.968C45.692 60.3022 46.361 60.6364 46.6955 60.9705C47.03 60.9705 47.03 61.3047 47.3645 61.6389C47.699 62.3073 48.368 61.9731 48.7025 62.3073C50.0405 60.9705 50.375 60.9705 50.375 60.9705C50.7095 61.3047 50.375 61.6389 50.375 61.9731C50.7095 61.6389 50.7095 61.6389 50.7095 61.6389C51.044 61.9731 51.044 62.3073 51.3785 62.3073H51.713C52.0475 62.6415 52.0475 62.9757 52.0475 62.9757L52.382 63.3099C52.7165 63.3099 53.051 63.644 53.3855 63.9782C53.72 64.3124 53.72 64.6466 53.72 64.6466C54.0545 65.315 54.7235 65.315 55.058 65.6492C55.3925 65.9834 55.3925 65.9834 55.3925 65.9834C55.3925 65.9834 55.3925 66.3175 55.727 66.3175C55.727 66.9859 56.0615 66.9859 56.7305 66.9859C57.065 66.9859 57.065 67.3201 57.065 67.6543C57.065 67.9885 57.3995 68.3227 57.734 68.3227C58.0685 68.3227 58.0685 68.6568 58.0685 68.991C58.403 69.6594 59.4065 69.6594 59.741 69.6594C60.0755 69.9936 60.0755 69.9936 60.0755 69.9936V69.3252H60.41C60.7445 68.991 60.41 69.6594 60.7445 68.991V68.3227C60.7445 68.3227 60.7445 67.9885 61.079 67.6543C61.079 67.3201 61.4135 66.9859 61.4135 66.9859C61.4135 66.9859 61.748 66.6517 61.4135 66.3175C61.4135 65.9834 61.748 65.6492 61.748 65.6492C62.0825 64.9808 62.417 64.3124 62.7515 64.3124H63.086C62.7515 64.3124 62.7515 63.9782 62.7515 63.9782C63.086 63.644 63.086 63.3099 63.4205 63.3099C63.755 63.3099 63.755 62.9757 63.755 62.6415C63.755 62.3073 63.755 61.9731 64.0895 61.6389C64.0895 61.6389 63.755 61.9731 64.0895 61.9731C64.0895 61.6389 64.424 61.3047 64.424 60.9705H64.7585V60.6364V60.3022C64.424 60.3022 64.424 59.968 64.424 59.968C64.7585 59.6338 64.7585 59.6338 64.7585 59.2996C65.093 59.2996 65.093 58.9654 65.093 58.6312C65.093 58.2971 65.093 57.9629 65.4275 57.6287C65.762 57.6287 65.762 57.6287 65.762 57.2945L66.431 55.6236C66.7655 55.6236 66.7655 55.2894 66.7655 54.9552C67.1 54.621 67.1 54.2868 67.4345 53.9526C67.769 53.6184 67.769 53.2843 67.769 52.9501C67.769 52.6159 68.1035 52.2817 68.1035 52.2817C68.438 51.6133 68.438 50.9449 68.7725 50.2766C69.107 50.2766 69.107 49.9424 69.107 49.6082C69.4415 49.274 69.4415 48.9398 69.776 48.2714C69.776 47.9373 69.776 47.6031 70.1105 47.2689C70.1105 46.9347 70.1105 46.6005 70.445 46.6005C70.7795 46.2663 71.4485 45.9321 71.783 45.5979C72.1175 45.2638 72.1175 45.2638 72.1175 44.9296C72.452 44.9296 72.452 44.5954 72.452 44.2612C72.7865 43.927 72.7865 43.927 72.7865 43.5928H73.121C73.4555 43.5928 73.4555 43.2586 73.4555 42.9245C73.79 42.5903 73.79 42.2561 74.1245 41.9219L74.7935 40.251C74.7935 39.9168 74.7935 39.5826 75.128 39.5826C75.4625 39.5826 75.797 39.2484 76.466 38.9142L77.135 38.2458C77.135 37.5775 77.4695 37.5775 77.4695 37.5775C77.4695 37.2433 77.804 36.9091 77.804 36.9091L79.142 35.5723C79.4765 35.2382 79.4765 34.904 79.4765 34.904C79.4765 34.904 79.4765 34.5698 79.811 34.2356V33.5672C79.811 32.8988 79.811 32.8988 80.1455 32.8988C80.48 32.8988 80.48 32.8988 80.8145 32.2305H83.4905C83.4905 31.8963 83.4905 31.5621 83.156 31.5621C83.4905 30.8937 83.825 29.8912 84.494 29.557C84.494 29.2228 84.494 29.2228 84.8285 29.2228C84.8285 28.8886 85.163 28.5544 85.4975 28.8886C85.832 28.8886 85.832 28.5544 85.832 28.5544C85.832 27.886 86.1665 27.886 86.501 27.886H86.8355C87.17 28.2202 87.17 27.886 87.17 27.886C87.5045 27.2177 88.508 27.2177 89.177 26.8835C89.177 26.5493 89.177 26.2151 89.5115 26.2151V27.886L89.846 27.5519C90.1805 27.2177 90.1805 26.8835 90.1805 26.8835H90.8495V25.5467C90.515 25.2125 90.515 25.2125 90.515 24.8784C90.515 24.5442 90.515 24.21 90.1805 24.21C90.1805 23.8758 89.846 23.5416 90.1805 23.5416C90.1805 22.8732 90.1805 22.5391 89.846 21.8707V21.5365C89.846 20.8681 89.5115 20.8681 89.846 20.1997C89.5115 19.8656 89.5115 19.5314 89.5115 19.5314C89.846 19.1972 88.8425 17.8604 88.8425 17.8604C90.1805 17.5262 89.5115 17.5262 89.177 17.1921C88.8425 16.8579 89.177 16.1895 88.8425 15.8553C88.8425 15.5211 88.508 15.1869 88.508 15.1869C88.8425 14.8528 88.8425 15.1869 88.8425 15.1869H89.177C89.177 14.5186 89.5115 14.8528 89.5115 14.5186C89.846 14.5186 89.846 14.5186 89.846 14.8528H90.1805H91.5185C92.1875 14.8528 92.8565 15.1869 92.8565 15.5211C93.191 15.8553 93.191 15.8553 93.5255 15.8553C93.86 15.8553 94.1945 15.8553 94.529 16.1895V16.5237H95.867C96.2015 16.5237 96.2015 16.5237 96.536 17.1921C96.536 17.5262 96.8705 17.8604 96.8705 17.8604C98.2085 17.5262 98.543 17.5262 98.543 17.8604C98.8775 18.1946 98.8775 18.1946 98.8775 18.1946C99.212 18.5288 99.212 18.863 99.881 18.863C99.881 18.5288 99.881 18.863 99.881 18.863C100.216 19.1972 100.216 19.1972 100.885 19.1972C101.219 19.5314 101.888 19.8656 102.223 20.1997H102.557C103.226 20.5339 103.561 20.5339 104.23 20.8681C104.564 21.2023 105.568 21.5365 105.568 21.8707H105.902C106.571 21.8707 107.24 21.8707 107.909 22.5391H108.244L109.582 23.2074C109.916 23.5416 110.251 23.8758 110.585 24.21C110.585 24.5442 110.92 24.5442 110.92 24.8784C111.254 25.2125 111.254 25.5467 111.589 25.5467C111.589 25.8809 111.923 26.2151 111.923 26.2151V26.5493C110.585 27.2177 110.585 27.2177 109.916 28.5544C110.251 28.2202 110.251 28.2202 109.916 28.2202C109.582 28.5544 109.582 28.8886 109.582 29.2228C109.582 29.557 109.582 29.8912 109.247 30.2254C109.247 30.5595 108.913 30.8937 108.913 30.8937C108.913 30.8937 109.247 31.2279 108.913 31.5621C108.913 31.8963 108.578 31.8963 108.578 32.2305V32.8988C108.913 33.233 108.578 33.5672 108.578 33.5672C108.578 33.5672 108.244 34.2356 108.913 34.5698V35.2382C108.578 35.5723 108.578 35.5723 108.578 35.9065C108.913 36.2407 108.913 35.9065 109.247 36.2407C109.247 36.5749 109.582 36.9091 109.582 36.9091C109.247 37.2433 109.247 37.5775 109.582 37.5775C109.582 37.9117 109.582 37.9117 109.247 38.2458C108.913 38.58 108.913 38.9142 108.913 38.9142C109.247 38.9142 109.247 39.2484 109.247 39.5826C109.247 39.9168 109.247 40.251 109.582 40.5851C109.916 40.9193 109.916 40.9193 109.916 41.2535C110.251 41.5877 110.251 41.9219 109.916 41.9219V42.2561C110.251 42.5903 109.916 42.5903 109.916 42.9245V43.5928C110.251 43.927 110.251 43.927 110.251 44.2612C110.251 44.9296 110.585 44.9296 110.585 45.5979V46.9347L110.251 47.2689C110.251 47.6031 109.916 47.9373 110.251 48.2714V47.6031C110.585 47.9373 110.585 48.2715 110.585 48.6056C110.585 48.9398 110.585 48.9398 110.92 49.274V49.9424V50.6108C110.92 51.2791 110.92 51.2791 111.254 51.9475V52.2817C110.92 52.6159 111.254 52.9501 111.589 52.9501C111.254 53.2843 111.254 53.2843 111.254 53.6184C111.589 53.2843 111.589 53.2842 111.923 53.9526H111.589C111.589 54.2868 111.254 54.621 111.589 54.621C111.589 54.621 111.923 54.9552 111.923 55.2894C111.589 55.2894 111.589 55.6236 111.254 55.9577C111.589 55.9577 111.589 56.2919 111.589 56.6261C111.923 56.6261 111.923 56.9603 111.589 57.2945V57.9629C111.589 57.9629 111.589 58.2971 111.254 58.2971L111.589 58.6312C111.589 58.9654 111.923 59.2996 111.589 59.6338C111.589 59.6338 111.589 59.968 111.923 60.3022C111.923 60.6364 112.258 60.6364 112.258 60.3022H112.592C112.927 60.6364 112.927 60.9706 112.927 61.3047C112.592 61.6389 112.592 61.9731 112.258 61.9731C112.258 61.9731 112.592 62.3073 112.592 62.6415C112.592 62.9757 112.927 63.3099 112.927 62.9757C113.261 62.9757 113.261 62.9757 113.261 63.3099V63.9782C113.261 64.6466 113.261 64.6466 113.596 64.9808C113.93 65.315 113.93 65.6492 113.93 65.9834C113.93 66.3175 113.93 66.6517 114.265 66.6517C114.599 67.3201 114.599 67.9885 114.934 68.6568C114.934 68.6568 114.599 68.6568 114.934 68.991C115.268 69.3252 115.268 69.6594 114.934 69.6594V69.9936C115.268 70.3278 115.268 70.662 115.268 70.9962C115.268 70.9962 115.268 71.3303 115.603 71.6645C115.603 71.9987 115.937 72.3329 115.937 72.3329C115.937 72.3329 115.937 73.0013 116.272 73.6696H116.606C116.606 74.0038 116.606 74.338 116.941 74.338V74.6722C116.941 75.0064 117.275 75.3406 117.275 75.3406C117.61 76.009 117.61 76.3431 117.944 76.6773V74.338V75.0064C118.279 75.3406 118.279 75.6748 118.613 76.009V76.6773C118.613 77.3457 118.279 77.6799 118.613 78.3483L118.948 78.6824C118.613 79.0166 118.948 79.3508 118.948 79.3508V79.685C119.282 80.3534 119.282 80.3534 119.282 81.0218V81.3559V82.0243V82.6927C119.617 83.3611 117.275 86.0346 116.941 86.0346C116.941 86.3688 116.941 86.7029 116.606 86.7029C116.606 87.3713 116.272 87.7055 115.603 87.7055C115.268 87.7055 115.268 88.0397 115.268 88.0397C115.268 88.7081 114.934 88.7081 114.934 89.0423C114.599 89.3764 114.599 89.7106 114.599 89.7106C114.265 90.0448 107.909 90.379 107.24 90.379C106.906 90.0448 106.571 90.0448 106.237 90.379C105.902 90.7132 105.902 91.0474 105.233 90.7132C104.564 90.7132 103.895 92.3841 103.226 92.7183C102.892 93.0525 102.892 93.0525 102.557 92.7183C102.223 92.7183 101.888 92.7183 101.554 93.0525C101.219 93.0525 101.219 93.3867 100.885 93.0525V93.3867C100.55 93.7209 100.216 93.7209 99.881 94.0551C99.5465 93.7209 99.212 94.3892 98.8775 94.7234C98.543 94.7234 98.543 95.3918 97.874 95.3918C97.5395 95.726 97.5395 96.0602 97.205 96.0602C97.205 96.3944 96.8705 96.3944 96.8705 96.7286C96.536 97.0627 96.2015 97.3969 95.867 97.3969C95.5325 98.0653 95.198 98.0653 94.8635 98.7337C93.86 97.0627 93.5255 97.3969 93.5255 97.7311C93.191 98.0653 92.8565 98.3995 92.1875 98.7337V99.402C91.853 99.7362 91.853 100.07 91.5185 100.07C91.184 100.739 91.184 100.739 90.8495 101.073C90.515 101.407 90.515 101.741 90.1805 101.741C90.1805 102.076 89.846 102.41 89.846 102.41L89.5115 103.078V103.412C89.177 103.412 89.177 103.746 89.177 103.746C88.8425 104.081 88.508 104.415 88.1735 104.749V105.083C87.839 105.752 87.17 107.088 87.17 107.423C86.8355 108.091 86.8355 108.091 86.8355 108.759C86.501 109.093 86.501 109.428 86.501 109.428C86.1665 109.428 86.1665 109.428 86.1665 109.762C86.1665 110.43 85.832 110.43 85.832 111.099C85.4975 111.767 85.4975 112.435 85.163 112.77V113.104C85.4975 113.438 85.163 113.772 84.8285 113.772V114.44C84.8285 115.109 84.494 115.443 84.494 116.111V116.78C84.494 117.114 84.1595 117.448 84.1595 117.448C83.4905 117.448 83.4905 117.782 83.4905 117.782C83.156 118.451 83.156 118.785 83.156 119.119V119.453C82.8215 119.787 82.8215 120.122 82.8215 120.456C82.8215 120.79 82.487 121.124 82.487 121.124V121.793V122.127C82.487 122.795 82.487 122.795 82.1525 122.795V123.464L81.4835 124.132C81.149 124.8 81.149 124.8 81.4835 125.134V125.803C81.4835 126.137 81.4835 126.471 81.818 126.471V126.805C81.4835 126.805 81.4835 126.805 81.4835 126.471C81.4835 127.14 81.4835 127.474 81.149 127.808C80.8145 128.142 81.149 128.811 80.8145 129.145V129.479C81.149 129.813 80.8145 130.147 80.8145 130.147L80.48 130.816V131.15V132.487C80.1455 132.821 79.4765 133.155 79.811 133.489C80.1455 133.489 80.1455 133.823 79.811 133.823V134.492V135.16C79.4765 135.828 79.4765 135.828 79.4765 136.163V137.165L78.8075 137.834C79.142 138.168 79.142 138.502 79.142 138.502L79.4765 139.17V139.839C79.4765 140.173 79.4765 140.173 79.142 140.173H78.8075C78.473 140.841 78.1385 141.844 78.1385 142.512V144.183C78.1385 144.517 78.1385 144.851 78.473 144.851C78.1385 145.52 78.1385 145.854 78.473 146.522C78.1385 146.857 78.1385 147.191 78.1385 147.191V147.859C78.1385 148.193 78.473 148.193 78.473 148.528C78.1385 148.862 78.1385 149.196 78.1385 149.53V150.198C77.804 150.533 77.804 150.867 78.1385 151.201V152.204C78.473 152.204 78.1385 152.538 78.1385 152.538V152.872C78.1385 153.54 77.804 153.875 77.804 154.543C77.804 154.877 77.804 155.211 78.1385 155.211C78.473 155.545 78.473 155.88 78.1385 155.88C77.804 156.214 78.1385 156.882 78.1385 157.216V157.885V161.227V162.563V162.898V163.232C78.1385 163.566 77.804 163.9 77.804 163.9C78.1385 164.568 78.1385 164.903 78.1385 165.571C78.1385 166.239 78.473 166.908 78.473 167.576C78.473 168.913 78.473 170.25 78.8075 171.252V173.592C78.8075 174.26 79.142 175.262 79.142 176.265V178.939C79.4765 179.941 79.4765 180.944 79.4765 181.612V183.283C79.4765 183.951 79.4765 184.62 79.811 184.954C80.1455 186.291 80.48 187.293 80.48 188.296V188.964C80.8145 189.633 80.8145 189.967 80.8145 190.635C80.8145 191.303 81.149 191.303 81.149 191.972V192.974C81.4835 193.643 80.8145 194.311 81.4835 194.98C81.4835 195.648 81.818 195.982 81.818 196.65C81.818 197.319 82.1525 198.321 82.1525 198.99C82.1525 199.324 82.487 199.658 82.487 199.658C82.487 199.992 82.8215 200.327 83.156 200.327C83.156 200.327 83.4905 200.327 83.4905 200.661C83.825 200.995 84.1595 201.329 84.1595 202.332H83.4905C83.825 202.332 83.825 202.332 83.825 201.997C83.825 201.329 84.1595 201.329 84.8285 200.995C84.8285 201.329 85.163 201.663 85.163 201.663C85.163 201.663 85.163 201.997 85.4975 201.997H86.1665C87.839 202.332 89.846 202.332 91.853 202.666C92.1875 202.666 92.522 202.666 93.191 202.332C93.5255 202.332 93.5255 201.997 93.86 201.997C94.529 201.997 95.198 201.997 96.2015 201.663H96.536C97.5395 201.329 98.543 201.663 99.5465 200.995H100.216C100.55 201.329 100.55 201.329 100.55 201.329C100.885 201.329 101.554 201.329 101.888 201.997C102.223 201.663 102.557 201.663 102.892 202.332C103.226 202.666 103.895 202.666 104.23 202.666H106.571H106.906H107.24H109.582L110.251 201.329C111.254 201.663 112.258 201.329 113.596 201.663C113.596 201.329 113.93 201.329 113.93 201.329H115.268L115.603 201.663H117.944H118.279C118.613 201.663 118.613 201.329 118.613 201.663C118.948 201.663 119.617 201.329 119.951 200.995H124.969C125.303 200.661 125.303 200.661 125.638 200.995C125.972 200.661 125.972 200.327 126.307 200.327C126.641 200.661 126.976 200.327 127.31 200.327C127.645 200.661 127.979 200.661 128.648 200.327H128.982C129.317 200.327 129.652 199.992 129.986 199.658C130.321 199.324 130.32 199.324 130.655 198.99C130.99 198.656 130.99 198.321 130.99 198.321C131.324 197.653 131.324 197.653 130.99 197.319C130.99 196.985 130.99 196.65 131.324 196.65C131.659 196.316 131.659 196.316 131.324 195.982V195.314C131.324 194.645 131.659 194.311 131.659 193.643V193.309C131.993 192.64 131.993 192.306 131.993 191.638V191.303C131.993 190.969 132.327 190.635 131.993 190.635C131.993 190.301 131.993 190.301 132.327 189.967C132.327 189.298 132.662 188.964 132.327 188.63V187.962C132.327 187.627 132.662 187.627 132.662 187.293C132.327 187.293 132.662 186.959 132.662 186.959V185.622C132.662 184.954 132.997 184.954 132.662 184.286C132.662 183.951 132.997 183.617 132.997 183.283V182.28C132.662 181.946 132.662 181.946 132.662 181.612C132.997 181.278 132.997 181.278 132.997 180.944C132.662 180.609 132.997 180.609 132.997 180.275V179.273V177.602C132.997 177.268 132.662 176.933 132.662 176.933C132.327 176.933 132.327 176.599 132.327 176.265V175.931C132.327 175.262 131.993 174.928 131.993 174.26C131.993 173.926 131.993 173.592 131.659 172.923L131.324 172.589C130.99 172.255 130.99 171.921 130.99 171.921C131.324 171.586 131.324 171.252 131.324 171.252C131.324 170.584 131.324 170.25 131.659 169.915C131.993 169.915 131.993 169.247 131.993 169.247C131.659 168.579 131.659 168.245 131.659 167.576C131.993 167.242 131.993 166.908 131.659 166.908C131.659 166.574 131.659 166.574 131.993 166.239C131.993 165.905 132.327 165.905 132.327 165.571L132.662 165.237C132.997 165.237 132.997 165.237 132.997 164.568V163.9L132.662 163.566C132.327 163.232 132.327 162.898 131.993 162.898C131.659 162.563 131.659 162.229 131.993 162.229C132.327 162.229 132.327 161.895 132.327 161.561C132.662 161.227 132.662 160.892 132.662 160.892C132.327 160.558 132.327 160.224 132.327 159.89C131.993 159.556 131.993 159.556 131.993 159.222V158.553C131.993 158.219 131.993 157.885 132.327 157.885C132.327 157.551 132.662 157.216 132.327 157.216V156.548C131.993 156.214 131.993 155.88 131.993 155.211C131.659 154.877 131.993 154.543 131.659 154.209V153.54C131.659 153.206 131.993 152.872 131.993 152.872C131.993 152.204 132.327 151.869 132.327 151.201C132.662 150.867 132.662 150.533 132.327 150.533C131.993 150.198 131.993 150.198 131.993 149.864C132.327 149.53 131.993 149.196 131.993 149.196C131.659 148.862 131.659 148.528 131.659 148.528V147.859V147.191C131.993 146.522 131.659 146.522 131.659 146.522C131.324 146.188 131.324 145.854 131.324 145.854C131.324 145.854 131.659 145.186 131.659 144.851V143.181V142.512C131.324 141.844 131.324 141.51 131.324 140.841C130.99 140.173 130.99 140.173 130.99 139.504C130.99 139.504 131.324 139.17 130.99 138.836V138.502C130.99 138.502 130.99 138.168 131.324 137.834C131.324 137.165 131.324 137.165 130.99 136.831C130.655 136.497 130.655 136.163 130.655 136.163L130.99 135.494C130.655 135.494 130.655 135.16 130.655 135.16V133.489C130.99 133.155 130.99 132.821 130.99 132.487C130.99 131.818 131.324 131.818 131.324 131.484V130.147C131.324 129.813 131.659 129.479 131.324 129.479C130.99 129.145 131.324 128.811 131.324 128.142C131.324 127.808 130.99 127.808 130.99 127.808V131.15H131.324C131.324 130.816 131.659 131.15 131.659 131.15C131.993 130.816 131.993 130.481 132.327 130.481C132.662 129.813 132.662 129.813 132.662 129.145C132.662 128.476 132.327 128.476 132.662 127.808C133.666 127.808 133.665 127.808 133.665 127.14V126.805C133.331 126.471 133.331 126.137 133.331 125.803C133.331 125.469 133.331 125.134 133.665 124.8C133.331 124.466 133.331 124.132 133.331 123.798C133.331 123.464 133.331 123.129 132.997 123.129C132.997 122.795 132.662 122.795 132.662 122.461C132.662 122.127 132.662 121.793 132.327 121.793C131.993 121.458 131.993 121.124 132.327 120.456C132.327 120.122 132.662 119.787 132.662 119.787C132.327 119.453 132.662 119.119 132.662 118.785C132.662 118.117 132.997 117.448 132.997 117.114V116.78C133.331 116.78 133.331 116.446 133.331 116.111C133.331 115.443 132.997 115.109 133.331 114.44V114.106V112.101V111.767C133.666 111.099 133.665 111.099 133.665 110.43C133.331 109.762 133.331 109.093 133.665 108.425C134 108.425 134 108.091 133.665 108.091C133.665 107.423 133.331 107.423 133.331 106.754V106.42C133.666 106.086 133.665 105.752 133.665 105.417V105.083C134 104.415 133.665 104.081 133.665 103.412V102.41C133.665 102.076 133.331 101.741 133.665 101.741C134 101.073 133.665 101.073 133.665 100.739C133.331 100.07 133.665 99.7362 133.665 99.0679C133.665 98.3995 134 98.3995 133.665 97.7311V97.3969V96.7286V96.3944C133.665 95.726 133.331 95.726 133.665 95.0576C133.665 95.0576 133.331 95.0576 133.331 94.7234C132.997 94.3892 133.331 94.0551 133.331 94.0551C133.666 93.3867 133.666 93.0525 133.331 92.7183V94.3892C133.331 94.0551 133.665 93.7209 133.665 93.3867C133.665 93.3867 133.331 93.3867 133.331 93.0525C133.666 92.7183 133.665 92.3841 133.665 92.0499C133.665 91.7157 133.665 91.7157 134 91.3816V90.7132C133.665 90.379 133.666 90.0448 133.331 89.3764C133.331 89.3764 133.331 89.0423 133.665 89.0423C134 88.3739 134 88.3739 134 88.0397C133.665 87.3713 133.665 87.0371 134 86.3688V85.7004C133.665 85.3662 133.665 85.3662 134 85.032V84.6978C134 84.3636 134 84.0294 133.665 84.0294C134 83.6953 134 83.3611 133.665 83.3611V82.6927C134 82.3585 134 82.0243 134 82.0243C133.665 81.6901 134 81.0218 133.665 80.6876V80.3534V81.0218C133.331 80.6876 133.331 80.3534 133.331 80.3534V79.685V79.0166V78.0141C132.997 77.6799 132.997 77.3457 133.331 77.0115V76.6773C132.997 76.3431 132.997 76.009 132.997 76.009C132.997 75.3406 132.997 75.0064 132.662 74.6722C132.662 74.6722 132.662 74.338 132.997 74.338V74.0038C132.662 73.3355 132.662 73.3355 132.662 73.0013L132.997 72.3329V71.6645V70.9962C132.997 70.662 133.331 70.3278 133.331 70.3278C132.997 69.9936 132.997 69.9936 132.997 69.9936C133.331 69.3252 133.331 68.991 133.331 68.6568C133.331 67.9885 133.666 67.9885 133.331 67.6543V67.3201V66.9859C133.666 66.3175 133.665 66.3175 133.665 65.6492V66.3175C133.665 65.9834 133.331 65.6492 133.331 65.6492C133.331 65.6492 133.331 64.9808 132.997 64.9808V64.3124L133.331 63.9782ZM68.7725 46.9347C68.1035 47.2689 67.4345 47.6031 67.1 48.6056C67.1 48.9398 66.7655 49.274 66.431 49.6082C65.093 51.2791 64.0895 52.6159 62.7515 54.2868C62.417 54.9552 61.4135 55.2894 60.41 55.9577C59.4065 56.6261 58.403 57.6287 57.3995 58.6312C57.065 58.9654 56.0615 58.9654 55.727 58.2971C55.3925 57.6287 55.058 56.6261 54.389 56.6261C54.0545 56.6261 54.0545 56.2919 54.0545 56.2919C53.3855 54.621 52.0475 53.9526 50.375 53.6184C50.0405 53.6184 49.706 53.2843 49.3715 52.6159C49.037 51.9475 48.368 50.9449 48.0335 50.2766C47.699 49.6082 47.03 49.274 48.0335 48.6056V47.9373V45.2638C48.368 44.9296 48.368 44.2612 48.7025 43.927C49.706 43.2586 50.0405 42.5903 50.0405 41.9219C50.375 41.2535 50.375 40.5851 51.3785 40.5851C52.0475 40.251 53.051 39.9168 53.72 39.9168V40.251C54.0545 39.9168 54.389 39.9168 54.7235 39.5826C55.727 38.9142 57.065 38.9142 58.0685 38.9142C59.4065 38.58 60.41 38.2458 61.4135 38.2458C61.748 38.2458 62.0825 38.58 62.0825 38.9142C62.7515 39.9168 63.4205 40.5851 64.424 40.9193C65.4275 41.2535 66.0965 42.2561 67.1 42.5903C67.769 43.2586 68.438 43.927 68.7725 44.9296C70.1105 45.9321 69.4415 46.9347 68.7725 46.9347Z"
     fill="#D50032"
     id="path4" />
</svg>
