<?xml version="1.0" encoding="UTF-8" standalone="no"?>
<svg
   xmlns:dc="http://purl.org/dc/elements/1.1/"
   xmlns:cc="http://creativecommons.org/ns#"
   xmlns:rdf="http://www.w3.org/1999/02/22-rdf-syntax-ns#"
   xmlns:svg="http://www.w3.org/2000/svg"
   xmlns="http://www.w3.org/2000/svg"
   xmlns:sodipodi="http://sodipodi.sourceforge.net/DTD/sodipodi-0.dtd"
   xmlns:inkscape="http://www.inkscape.org/namespaces/inkscape"
   width="134"
   height="203"
   viewBox="0 0 134 203"
   fill="none"
   version="1.1"
   id="svg6"
   sodipodi:docname="freestyle-skiing.svg"
   inkscape:version="0.92.1 r15371">
  <metadata
     id="metadata12">
    <rdf:RDF>
      <cc:Work
         rdf:about="">
        <dc:format>image/svg+xml</dc:format>
        <dc:type
           rdf:resource="http://purl.org/dc/dcmitype/StillImage" />
        <dc:title></dc:title>
      </cc:Work>
    </rdf:RDF>
  </metadata>
  <defs
     id="defs10" />
  <sodipodi:namedview
     pagecolor="#ffffff"
     bordercolor="#666666"
     borderopacity="1"
     objecttolerance="10"
     gridtolerance="10"
     guidetolerance="10"
     inkscape:pageopacity="0"
     inkscape:pageshadow="2"
     inkscape:window-width="640"
     inkscape:window-height="480"
     id="namedview8"
     showgrid="false"
     inkscape:zoom="1.1625616"
     inkscape:cx="67"
     inkscape:cy="101.5"
     inkscape:window-x="0"
     inkscape:window-y="0"
     inkscape:window-maximized="0"
     inkscape:current-layer="svg6" />
  <path
     d="M0.97989 71.2224C1.30652 71.5532 1.30652 71.5532 1.63315 71.8839V72.2147C1.95978 72.2147 1.95978 71.8839 1.95978 71.8839C2.28641 71.5532 2.61304 71.5532 2.93967 71.2224L3.2663 70.8917C4.24619 70.2301 4.89945 69.8994 5.87934 69.2379C6.5326 69.2379 7.18586 68.5764 7.51249 68.2456C8.49238 67.9149 8.81901 67.2534 9.7989 66.5919C10.4522 66.5919 10.7788 65.9304 11.4321 65.9304L11.7587 65.5996L12.0853 65.2688C12.4119 65.2688 12.4119 64.9381 12.7386 64.6073L13.0652 64.2766C13.3918 63.9458 13.7185 63.6151 14.0451 63.6151C14.3717 63.2843 14.3717 62.9536 14.6984 62.9536C15.3516 62.9536 15.3516 62.6228 16.3315 62.2921C16.6581 61.6306 17.3114 61.6306 17.638 61.6306H18.2913C18.6179 61.2998 18.6179 60.969 18.6179 60.969C18.6179 60.969 18.9445 60.969 18.9445 60.6383V60.3075C19.2712 59.646 19.2712 59.646 19.2712 59.3153C18.9445 58.9845 18.9445 58.6538 18.9445 58.6538C18.6179 58.323 18.6179 57.9923 18.6179 57.9923C18.2913 57.3308 17.9647 57.3308 17.638 57C17.3114 57.3308 17.3114 57.3308 16.6581 57C16.3315 57 15.6782 57 15.025 57.6615C14.6984 57.9923 14.3717 57.9923 14.0451 58.323C13.7185 58.6538 13.3918 58.6538 13.3918 58.9845C13.0652 59.3153 13.0652 59.646 12.4119 59.646H11.4321C11.1054 59.3153 11.1054 59.646 11.1054 59.9768C11.1054 59.9768 10.7788 60.3075 10.7788 60.6383C10.4522 60.6383 10.4522 60.969 10.1255 61.2998L9.7989 61.6306C9.7989 61.9613 9.47227 61.9613 9.47227 62.2921C9.14564 62.2921 9.14564 62.6228 8.81901 62.6228L8.49238 62.9536C8.16575 63.2843 7.51249 63.6151 7.18586 63.9458V64.2766C6.85923 64.2766 6.5326 64.6073 6.20597 64.9381C5.87934 65.2688 5.87934 65.5996 5.55271 65.5996C5.22608 65.5996 5.22608 65.9304 5.22608 65.9304C4.89945 66.2611 4.57282 66.5919 3.91956 66.5919C3.59293 66.5919 3.2663 66.9226 2.61304 67.2534C2.61304 67.5841 2.28641 67.5841 1.95978 67.9149C1.63315 67.9149 1.63315 68.2456 0.97989 68.2456C0 66.9226 0 67.2534 0 67.2534V69.8994C0.32663 70.2302 0.65326 70.5609 0.97989 71.2224Z"
     fill="#D50032"
     id="path2" />
  <path
     d="M134 183.155V182.493V182.163C134 181.832 133.673 181.501 133.673 181.17C133.673 180.84 133.347 180.509 133.673 180.509C134 180.509 134 180.178 134 179.847C133.673 178.855 133.347 177.863 133.673 176.54L131.714 161.656C132.04 161.325 132.367 160.994 132.367 160.664V160.002C132.693 160.002 133.02 159.671 133.02 159.341V159.01C133.347 158.679 133.347 158.348 133.347 158.018C133.673 157.687 133.673 157.356 133.673 157.356C133.673 156.695 133.347 156.364 133.347 155.702C133.673 154.71 133.347 153.718 133.347 152.725V150.41V149.418C133.347 148.756 133.347 148.095 133.02 147.433C133.02 147.103 132.693 146.772 132.693 146.11C132.367 145.449 132.367 144.787 132.693 144.126C132.693 143.795 132.693 143.464 132.367 142.803C132.04 142.141 132.367 141.811 132.367 141.48C132.367 140.818 132.693 140.488 132.693 140.157C132.693 139.826 132.693 139.495 133.02 139.495C133.347 139.495 133.347 139.165 133.347 138.834C133.02 138.503 133.347 138.503 133.347 138.172C133.673 137.842 133.673 137.511 133.673 137.511V134.865C133.673 133.873 133.347 132.88 133.347 131.888V129.242V125.604V122.627V119.981C133.347 119.319 133.347 118.327 133.02 117.335V114.358V111.712V109.397V106.751V103.774C132.693 102.451 132.693 101.128 132.693 100.136V97.1589V93.5206V90.5438V86.9055C132.367 85.9132 132.367 84.921 132.367 84.2595V81.6134V78.6367V75.9906V73.0139C132.04 71.6908 132.04 70.6986 132.04 69.3756V66.068V62.4297V59.453C132.04 58.1299 132.04 56.8069 131.714 55.8147V53.1686V50.5226V46.5536V43.9075C131.714 42.9153 131.714 41.5923 131.387 40.6V36.9617V33.6542V30.6774V26.3776V23.7316C131.06 22.7393 131.06 22.0778 131.06 21.0855V18.4395V15.4627V12.8167C131.06 11.8244 131.06 10.8322 130.734 9.83992V10.5014V7.52464C130.734 7.19389 130.734 6.86314 130.407 6.86314C129.754 6.20163 129.101 5.20937 128.774 4.21711C129.754 3.5556 129.427 3.5556 129.101 3.5556C128.447 2.89409 127.794 2.56334 127.467 1.90183C127.141 1.24033 126.488 1.24033 125.834 1.24033H124.854C124.528 1.24033 124.201 1.24033 124.201 0.909572C123.874 0.909572 123.874 0.909572 123.874 1.24033C123.548 0.578819 122.895 0.578819 122.568 0.578819H118.322H114.402H111.789C111.463 0.578819 111.463 0.578819 111.136 0.909572C110.809 1.24033 110.483 1.24033 110.156 0.578819C110.156 0.578819 109.829 0.578819 109.829 0.248065H109.503C109.176 -0.0826884 108.849 -0.0826884 108.196 0.248065C107.543 0.578819 107.216 0.578819 106.89 0.578819H104.277H101.337H98.3973H96.1109H93.4979C93.1712 0.578819 92.518 0.909572 92.1913 0.909572H91.2114C90.8848 1.24033 89.9049 0.909572 89.5783 0.909572H88.2718H84.3522H81.7392H79.1261H77.8196H74.5533H70.9604H68.3473H65.7343H63.1213H61.4881H60.1816H55.6088H52.9957H49.7294H49.4028C49.0762 0.578819 49.0762 0.578819 48.7495 0.909572H47.443H45.1566C44.83 0.909572 44.83 1.24033 44.83 1.24033C44.5033 1.57108 44.1767 1.57108 43.5235 1.57108H41.8903H40.2572C39.6039 1.57108 38.624 1.57108 37.9707 1.90183C36.9909 2.23259 36.011 2.23259 34.7044 2.23259C33.7246 2.23259 33.0713 1.90183 32.418 1.57108C32.418 1.24033 32.0914 1.24033 32.0914 1.24033C30.1316 1.24033 28.8251 1.24033 27.192 1.24033C26.2121 1.24033 25.5588 1.57108 24.5789 1.57108H22.2925H21.3126C21.3126 1.90183 21.3126 1.90183 20.986 2.23259C20.986 2.56334 20.6594 2.56334 20.6594 2.23259C20.3327 1.57108 19.6795 1.57108 19.3528 1.57108H16.4132C15.4333 1.57108 14.4534 1.57108 13.8001 1.90183C13.4735 1.90183 13.1469 1.57108 12.4936 1.57108H11.8403C11.5137 1.57108 11.5137 1.24033 11.1871 1.90183C11.1871 2.23259 10.8605 2.23259 10.5338 2.23259H9.55393H8.90067V2.89409C8.57404 2.89409 8.57404 2.56334 8.24741 2.56334C8.24741 2.23259 8.24741 1.90183 7.92078 1.90183C7.92078 1.90183 7.59415 2.23259 7.59415 2.56334C7.59415 2.89409 7.59415 3.22485 8.24741 3.5556C8.57404 3.5556 8.57404 3.5556 8.57404 3.5556L8.90067 3.88635C9.2273 4.21711 9.2273 4.54786 9.2273 4.87862C9.2273 5.20937 8.90067 5.20937 8.90067 4.87862C8.57404 4.87862 8.57404 4.54786 8.57404 4.21711C8.57404 3.88635 7.92078 4.21711 7.59415 4.21711C7.26752 4.21711 7.26752 4.54786 7.26752 4.87862C6.94089 4.54786 6.61426 4.21711 5.961 3.88635C5.63437 4.21711 4.98111 4.54786 4.32785 4.54786C4.32785 4.54786 4.00122 4.87862 4.00122 5.20937L3.34796 6.53238C3.34796 6.86314 3.34796 6.86314 3.02133 6.86314C2.6947 6.86314 2.6947 7.19389 2.6947 7.19389C2.04144 7.8554 1.71481 8.5169 1.38818 9.50916C1.06155 9.83992 0.734918 10.1707 0.734918 10.5014C0.734918 10.8322 0.408288 11.1629 0.734918 11.1629C0.734918 12.1552 0.734918 13.1475 0.408288 13.809C-0.244973 14.8012 0.0816575 15.7935 0.0816575 16.7857V17.1165V18.1088V18.7703C0.408288 18.7703 0.408288 18.4395 0.408288 18.1088C0.734918 17.778 0.734918 17.778 0.734918 17.778C0.734918 18.1088 1.06155 18.4395 1.06155 18.4395C1.06155 19.101 0.734918 19.101 0.734918 18.7703H0.0816575V19.4318V25.0546V25.3853H0.408288C0.408288 25.3853 0.408288 25.7161 0.0816575 25.7161C0.0816575 25.3853 0.0816575 25.7161 0.0816575 26.0468V27.3699V33.3234V40.2692V45.8921V50.5226V53.8301V56.4762V58.7915V61.4375H0.408288V60.776C0.734918 60.776 0.734918 60.776 1.06155 61.1067L1.38818 60.776C1.38818 60.1145 1.38818 60.1145 1.71481 60.1145H2.04144C2.6947 59.453 3.34796 59.1222 4.32785 58.4607C6.94089 56.4762 9.88056 54.8224 12.4936 52.8379C14.78 51.1841 17.3931 49.5303 19.6795 48.2073C21.9659 46.5536 23.9257 45.2305 26.5387 43.5768C26.8653 43.5768 26.8653 43.246 26.8653 42.9153C27.192 42.5845 27.5186 42.5845 27.8452 42.2538C29.1517 41.5923 30.1316 40.6 31.4381 39.6077C31.7648 39.277 32.0914 38.9462 32.7447 38.9462V38.6155C33.0713 38.2847 33.0713 38.2847 33.3979 38.2847C33.7246 38.2847 33.7246 37.954 33.7246 37.6232C34.0512 36.9617 34.3778 36.9617 35.0311 36.9617C35.3577 36.9617 35.6843 36.631 36.011 36.3002C36.3376 35.9694 36.9909 35.6387 37.3175 35.6387C37.9707 34.9772 38.624 34.9772 39.2773 34.3157C39.6039 34.3157 39.6039 33.9849 39.9305 33.6542C40.2572 33.3234 40.2572 32.9927 40.9104 32.9927C41.237 32.6619 41.5637 32.3312 42.2169 32.3312C42.5436 31.6697 43.1968 31.6697 43.5235 31.3389C43.8501 31.0081 44.1767 30.6774 44.5033 30.6774C45.8099 31.3389 45.8099 31.0081 46.1365 30.6774C46.4631 30.3466 46.7898 30.0159 47.443 30.0159H47.7696C48.0963 29.3544 48.7495 29.3544 49.0762 29.0236C49.4028 28.6929 49.4028 28.6929 49.7294 28.3621C50.0561 28.0314 50.3827 28.0314 50.7093 27.7006C51.0359 27.3699 51.0359 27.3699 51.3626 27.0391L51.6892 26.7083C52.0158 27.0391 52.3425 26.7083 52.6691 26.3776C52.9957 26.3776 52.9957 26.0468 52.9957 25.7161C53.3224 25.7161 53.3224 25.3853 53.649 25.3853C53.9756 25.3853 53.9756 25.0546 53.9756 24.7238C54.3022 24.7238 54.3023 24.3931 54.3023 24.3931C55.2821 24.3931 55.6088 24.3931 55.6088 24.3931C55.9354 24.0623 55.9354 24.0623 55.9354 23.7316C56.5887 23.4008 57.5686 22.7393 58.2218 22.0778C58.5484 21.4163 58.5484 21.4163 59.2017 21.4163C59.5283 21.4163 59.5283 21.0855 59.5283 21.0855C59.855 20.7548 60.1816 20.424 60.8349 20.424C61.1615 20.0933 61.1615 19.7625 61.1615 19.7625C61.8147 19.4318 62.468 19.101 62.7946 18.7703C62.7946 18.4395 63.1213 18.4395 63.1213 18.1088H63.4479C64.1012 17.778 64.7544 17.4473 65.081 16.7857C65.4077 16.7857 65.4077 16.455 65.7343 16.455L66.0609 16.1242C66.3876 15.7935 66.7142 15.4627 67.0408 15.132C67.3675 15.132 67.3675 14.8012 67.3675 14.8012C67.6941 14.4705 68.0207 14.1397 68.3473 14.1397H68.674C68.674 13.809 68.674 13.809 69.0006 13.809C69.0006 13.4782 69.3272 13.4782 69.3272 13.1475C69.6539 13.1475 69.9805 12.8167 70.3071 12.4859C70.3071 12.1552 70.6338 11.8244 70.6338 11.8244C70.9604 12.1552 70.9604 12.1552 71.287 11.8244C71.287 11.4937 71.6136 11.1629 71.9403 11.1629C72.2669 10.5014 72.9202 10.5014 73.2468 10.1707C74.8799 10.8322 75.2066 10.5014 75.2066 10.5014H75.5332C76.1865 10.8322 76.1865 10.8322 76.5131 10.1707C76.8397 10.1707 76.8397 9.83992 76.8397 10.1707C77.1664 10.5014 77.493 10.1707 77.8196 9.83992C78.4729 10.1707 79.1261 10.5014 79.1261 10.5014C79.4528 10.8322 79.4528 10.8322 79.7794 10.8322H80.106C80.4327 11.1629 80.4327 11.1629 80.4327 10.8322H80.7593C81.4126 10.5014 81.4126 10.5014 82.0658 11.1629C82.3924 11.8244 83.0457 12.1552 83.699 12.1552C84.0256 12.1552 84.6788 12.4859 85.0055 12.8167C85.3321 12.8167 85.3321 13.1475 85.3321 13.1475L85.0055 13.4782C84.3522 13.1475 83.3723 13.4782 82.3924 13.4782C82.0658 13.809 81.0859 14.1397 80.4327 14.4705C80.4327 14.4705 80.4327 14.8012 80.106 14.8012C79.7794 14.8012 79.1261 15.132 78.7995 15.4627H78.4729C78.1462 15.4627 78.1462 15.7935 77.8196 16.1242L77.493 16.455C77.1664 16.455 76.8397 16.7857 76.5131 17.1165H76.1865C75.8598 16.7857 75.5332 17.1165 75.2066 17.4472C75.2066 17.778 75.2066 17.778 75.2066 17.778H74.5533C74.2267 17.778 73.9001 18.1088 73.9001 18.4395C73.2468 19.4318 72.5935 20.0933 71.9403 20.424H71.6136C71.287 20.424 70.9604 20.0933 70.6338 20.424C70.3071 20.424 70.3071 20.424 70.3071 20.7548L69.9805 21.0855C69.6539 21.4163 69.3272 21.4163 69.0006 21.747L68.674 22.4086C68.3473 22.4086 68.3473 22.7393 68.3473 22.7393C68.0207 23.0701 68.0207 23.4008 68.0207 23.4008C67.0408 23.4008 66.3876 23.4008 66.0609 23.4008C65.7343 23.4008 65.4077 23.7316 65.4077 23.7316C65.4077 24.0623 65.081 24.0623 65.081 24.0623L64.7544 24.3931C64.4278 24.3931 64.4278 24.7238 64.1012 24.3931V24.7238L63.7745 25.3853H63.4479H63.1213V26.0468H63.4479C63.1213 26.3776 63.1213 26.3776 63.1213 26.3776C62.7946 26.7083 61.8147 27.0391 61.8147 27.0391C61.4881 27.3699 61.4881 27.7006 61.1615 27.7006C60.8349 28.0314 60.1816 28.3621 59.855 28.3621C59.5283 28.6929 58.8751 29.0236 58.2218 29.3544L57.8952 30.0159L57.5686 30.3466C55.9354 29.6851 55.6088 30.0159 55.6088 30.0159C55.2821 30.0159 55.2821 30.3466 55.2821 30.3466C54.9555 30.3466 54.9555 30.6774 54.6289 31.0081L54.3023 31.3389L53.9756 31.6697C53.649 32.3312 53.649 32.3312 53.3224 32.3312C52.9957 32.3312 52.9957 32.6619 52.6691 32.9927H52.3425C52.0158 33.3234 52.0158 33.3234 51.6892 33.6542C51.6892 33.9849 51.3626 33.9849 51.3626 34.3157V34.9772C51.0359 34.9772 51.036 35.3079 51.036 35.3079L50.7093 35.6387C50.3827 35.6387 49.7294 35.9694 49.4028 36.3002C49.0762 36.3002 49.0762 36.631 48.7495 36.631C48.4229 36.631 48.4229 36.9617 48.0963 36.9617C47.7696 36.631 47.7696 36.9617 47.443 37.2925C47.1164 37.2925 47.1164 37.6232 47.1164 37.6232C45.8099 36.631 45.4832 36.631 45.4832 36.631C44.83 36.9617 44.1767 37.2925 43.8501 37.954C43.5235 37.954 43.5235 37.954 43.5235 38.2847C43.5235 38.6155 43.1968 38.9462 43.1968 38.9462C42.8702 38.6155 42.2169 39.277 41.8903 39.277L41.5637 39.9385C41.237 40.6 40.5838 40.6 40.2572 40.9308L39.6039 41.5923C39.2773 41.923 39.2773 42.2538 38.9506 42.2538C38.624 42.2538 38.624 42.2538 38.624 42.5845C38.2974 42.9153 37.9707 43.246 37.6441 43.246C37.3175 43.246 37.3175 43.5768 36.9909 43.5768C36.6642 43.5768 36.6642 43.9075 36.6642 44.2383C36.3376 44.569 36.3376 44.569 36.011 44.8998C35.6843 44.8998 35.3577 45.2305 35.0311 45.5613H34.7044C34.3778 45.8921 34.3778 46.2228 34.0512 46.2228C34.0512 46.8843 33.7246 46.8843 33.3979 47.2151C32.0914 48.2073 30.4583 48.8688 29.1517 49.8611C28.8251 50.1919 28.8251 50.5226 28.4985 50.5226C27.192 49.8611 27.192 49.8611 27.192 50.1919V50.8534C27.8452 50.8534 28.4985 50.8534 29.4784 51.1841L29.805 50.8534C30.1316 50.1919 30.7849 50.1919 31.4381 50.1919H32.0914C32.418 49.5303 32.7447 49.5303 33.3979 49.5303C33.7246 49.5303 34.0512 49.8611 34.3778 49.8611C34.7044 49.8611 34.7044 49.8611 35.0311 49.5303C36.3376 48.8688 37.6441 47.8766 39.2773 46.8843C39.9305 46.2228 40.9104 45.5613 41.5637 45.2305C42.2169 44.569 42.8702 44.569 43.5235 43.9075H43.8501C44.5033 43.9075 45.1566 43.5768 45.8099 42.9153C45.8099 42.5845 46.1365 42.2538 46.4631 42.2538C46.4631 42.2538 46.4631 41.923 46.7898 41.923C46.7898 41.2615 47.1164 41.2615 47.7696 41.2615H48.0963C48.0963 40.9308 48.4229 40.9308 48.4229 40.9308C48.7495 40.9308 49.0762 40.2692 49.7294 39.9385H50.0561V39.6077C50.3827 38.9462 50.7093 38.9462 51.036 38.9462C51.3626 38.6155 52.0158 38.6155 52.3425 38.2847C52.6691 37.954 52.9957 37.6232 53.649 37.6232C53.9756 36.9617 54.6289 36.9617 54.9555 36.3002C54.9555 36.3002 55.2821 36.3002 55.2821 35.9695C55.6088 35.9695 55.9354 35.3079 56.262 35.3079L56.9153 34.6464C57.2419 34.3157 57.2419 34.3157 57.2419 33.9849C57.5686 34.3157 57.8952 33.9849 58.5484 33.6542C58.8751 33.3234 59.2017 32.9927 59.855 32.6619C60.1816 32.3312 60.1816 32.3312 60.1816 32.3312H60.5082C60.8349 32.0004 61.1615 31.6697 61.4881 31.3389H62.1414C62.468 31.0081 63.1213 30.6774 63.4479 30.3466L63.7745 30.0159C64.7544 30.6774 65.081 30.0159 65.4077 29.6851H65.7343C66.0609 29.3544 66.3876 29.0236 67.0408 28.6929C67.3675 28.3621 67.3675 28.0314 68.0207 28.0314C68.3473 28.0314 68.3473 27.7006 68.3473 27.7006C68.674 27.3699 69.0006 27.3699 69.6539 27.0391C69.6539 26.7084 69.9805 26.7083 69.9805 26.3776C70.3071 26.0468 70.6338 26.0468 70.9604 25.7161C70.9604 25.7161 71.287 25.7161 71.287 25.3853H71.6136C71.9403 25.0546 72.5935 24.7238 72.9202 24.3931C73.2468 24.0623 74.2267 23.7316 74.5533 23.0701C75.2066 23.4008 75.2066 23.4008 75.5332 23.0701H75.8598V22.4086C76.1865 22.4086 76.1865 22.0778 76.1865 21.747C76.5131 21.747 76.5131 22.0778 76.5131 21.747C76.8397 21.747 76.8397 21.4163 76.8397 21.0855H77.1664C77.493 20.7548 77.8196 20.424 77.8196 20.0933C78.1462 20.0933 78.1462 20.0933 78.1462 19.7625C78.4729 19.7625 78.7995 19.4318 79.4528 19.4318L79.7794 19.101C80.106 18.7703 80.106 18.7703 80.4327 18.4395C80.7593 18.4395 80.7593 18.1088 81.0859 17.778C81.0859 17.778 81.0859 17.4472 81.4125 17.4472C81.7392 17.4472 82.7191 16.7857 83.0457 16.7857C83.3723 16.7857 84.0256 15.7935 84.6788 15.4627C85.0055 15.132 85.3321 14.8012 85.9854 14.4705H86.312C86.9653 14.1397 87.6185 13.809 88.5984 13.809C88.925 13.809 88.925 13.809 88.925 13.4782H89.2517C89.9049 13.809 90.5582 14.1397 91.2114 14.4705C91.5381 14.4705 91.5381 14.4705 91.8647 14.8012C92.1913 15.132 92.8446 15.132 93.1712 15.4627C94.4778 16.455 94.4778 16.7857 94.8044 16.7857C94.4778 17.4473 93.8245 17.4473 93.1712 18.1088C92.8446 18.4395 92.518 18.4395 91.8647 18.7703C91.2115 19.101 91.2114 19.4318 90.8848 19.7625C90.8848 20.0933 90.5582 20.424 90.2316 20.424C88.925 21.0855 87.6185 21.4163 86.6386 22.7393C86.312 22.7393 86.312 23.0701 85.9854 23.0701C85.0055 23.0701 85.0055 23.4008 84.3522 23.4008C84.0256 23.7316 83.699 24.0623 83.0457 24.0623C82.3924 24.7238 81.7392 25.0546 80.7593 25.7161C80.4327 25.7161 80.4327 26.0468 80.4327 26.3776L80.106 26.7083C79.7794 26.7083 79.7794 27.0391 79.4528 27.0391C78.7995 27.3699 78.4729 27.3699 78.4729 27.3699C78.1462 27.7006 77.8196 28.0314 77.493 28.0314C77.1664 28.0314 77.1664 28.3621 76.5131 28.6929C75.8598 29.0236 75.2066 29.3544 74.8799 29.6851C74.5533 30.0159 73.5734 30.3466 72.9202 31.0081C72.5935 31.3389 72.2669 31.6697 71.9403 31.6697C71.6136 32.3312 70.9604 32.3312 70.6338 32.6619C69.6539 33.3234 69.0006 33.9849 68.3473 34.3157C68.0207 34.6464 67.3675 34.9772 67.0408 34.9772C66.7142 35.3079 66.3876 35.6387 65.7343 35.6387C64.7544 36.3002 63.7745 36.9617 62.468 37.6232C61.8147 38.2847 61.1615 38.6155 60.1816 39.277C59.5283 39.9385 58.8751 40.2692 57.8952 40.9308C57.2419 41.5923 56.5887 41.5923 55.6088 42.2538C54.3022 43.246 52.9957 43.9075 51.6892 44.8998C51.3626 45.2305 51.0359 45.5613 50.3827 45.8921C50.0561 45.8921 50.0561 46.2228 50.0561 46.2228H49.7294C49.0762 46.5536 48.7495 46.5536 48.0963 47.2151C47.443 47.8766 46.4631 48.5381 45.4832 48.8688C45.1566 48.8688 45.1566 49.1996 45.1566 49.1996C44.83 49.8611 44.1767 49.8611 43.8501 50.1919C43.5235 50.5226 42.5436 50.8534 42.2169 51.5149C41.8903 51.8456 41.8903 51.8456 41.5637 52.1764C41.237 52.5071 40.9104 52.5071 40.5838 52.8379V53.1686C41.237 53.8301 41.5637 54.1609 41.5637 55.1532C41.5637 55.4839 41.5637 55.8147 41.8903 55.8147C41.8903 56.1454 42.2169 56.1454 42.2169 56.4762C42.2169 56.8069 42.5436 56.8069 42.5436 57.1377C42.8702 57.7992 43.1968 57.7992 43.1968 58.4607C43.5235 59.1222 43.8501 59.453 44.1767 60.1145C44.1767 59.7837 44.1767 60.1145 44.1767 60.1145C43.8501 60.4452 43.8501 60.776 43.8501 61.1067C43.5235 61.7682 43.5235 62.099 43.5235 62.4297C43.8501 63.0912 43.8501 63.0912 43.8501 63.7528C43.8501 64.0835 44.1767 64.4143 44.1767 64.4143C44.5033 64.745 44.5033 65.0758 44.5033 65.4065H44.83V65.7373C45.1566 66.7295 45.4832 67.391 45.8099 68.3833C45.8099 68.7141 46.1365 69.0448 46.1365 69.3756C46.1365 69.7063 46.4631 69.7063 46.4631 69.7063C46.7898 70.0371 46.7898 70.3678 46.7898 70.3678C47.1164 71.0293 46.7898 71.0293 46.7898 71.6908V72.3523C47.1164 72.6831 47.1164 73.0139 47.1164 73.3446C47.1164 73.6754 47.1164 74.3369 47.443 74.6676C47.7696 74.9984 48.0963 75.3291 48.0963 75.9906C48.4229 76.6521 48.7495 77.6444 49.4028 78.3059C49.7294 78.9674 49.7294 79.9597 50.3827 80.6212C50.7093 81.2827 51.0359 82.275 51.6892 83.2672C52.0158 83.9287 52.0158 84.921 52.3425 85.2517C52.6691 86.244 53.3224 86.9055 53.649 87.8978C53.9756 88.5593 54.3023 89.5515 54.6289 90.213C54.9555 90.8745 55.2821 91.8668 55.9354 92.8591C56.262 93.5206 56.262 94.5128 56.9153 95.1743C57.2419 95.8359 57.5686 96.8281 57.8952 97.4896C58.2218 98.1511 58.2218 98.4819 58.5484 98.8126C58.5484 99.1434 58.8751 99.4741 58.8751 99.4741C59.2017 100.136 59.2017 100.136 59.2017 100.466C59.5283 101.789 60.5082 103.112 61.1615 104.105C61.8147 104.766 62.1414 105.758 62.468 106.42C63.1213 107.412 63.7745 108.404 64.4278 109.397C64.7544 109.728 64.7544 110.058 65.081 110.389C65.4077 111.051 65.7343 112.043 66.0609 112.704L66.7142 113.366C66.7142 114.027 67.0408 114.027 67.0408 114.358C67.0408 114.689 67.0408 115.02 67.3675 115.02C68.3473 115.02 68.674 115.681 69.0006 116.343C69.0006 116.673 69.3272 116.673 69.3272 117.004C69.6539 117.335 69.6539 117.666 69.6539 117.666C69.6539 117.996 69.9805 118.327 69.9805 118.327C70.3071 118.658 70.3071 118.989 70.3071 118.989C70.6338 119.65 71.287 119.981 71.6136 120.642C71.6136 120.973 71.9403 120.973 71.9403 121.304C72.5935 121.965 72.9202 122.627 73.2468 123.288C73.5734 123.95 73.5734 123.95 73.5734 124.611C74.2267 125.934 75.2066 126.927 76.5131 127.919C76.8397 128.58 77.493 128.911 78.1462 129.573C78.4729 130.234 78.7995 130.234 79.4528 130.896C79.7794 131.226 79.7794 131.557 80.106 131.557C80.4327 132.219 81.4126 132.88 81.7392 133.211C82.3924 133.873 83.0457 134.865 84.0256 135.196C84.3522 135.526 84.6788 135.857 85.3321 136.519C85.6587 136.519 85.6587 136.849 85.6587 137.18C85.9854 137.511 85.9854 137.842 85.9854 137.842C86.312 138.503 86.312 138.503 86.6386 138.503C87.2919 138.503 87.6185 139.165 87.9452 139.495C87.9452 139.826 88.2718 139.826 88.2718 140.157C88.925 140.818 88.5984 141.811 87.9452 142.141C87.9452 142.141 87.6185 142.472 87.6185 142.803C87.2919 143.134 86.9653 143.464 86.312 143.464C85.9854 143.464 85.9854 143.795 85.9854 144.126C85.6587 144.126 85.6587 144.457 85.6587 144.787C85.6587 145.118 85.3321 145.449 85.3321 145.449C85.0055 145.78 85.0055 146.11 85.0055 146.11C84.6788 146.772 84.6788 146.772 84.3522 147.103C83.3723 148.095 82.7191 148.756 81.7392 149.749L81.4125 150.079C81.0859 150.741 80.7593 150.741 80.106 151.402C79.7794 151.733 79.1261 151.733 78.7995 151.402C78.4729 151.402 78.1462 151.072 77.493 150.741C76.8397 150.079 76.1865 150.079 75.2066 149.749C74.8799 149.418 74.8799 149.418 74.8799 149.418H75.2066C74.5533 148.756 73.5734 148.756 72.9202 148.095C72.2669 147.764 71.6136 147.433 70.6338 147.433C70.3071 147.103 69.6539 147.103 69.3272 146.772C68.3474 146.441 67.6941 145.78 66.7142 145.449C66.3876 145.118 65.7343 144.787 65.081 144.457C64.7544 144.457 64.7544 144.126 64.4278 144.457C64.1012 144.457 64.1012 144.126 63.7745 144.126C63.4479 143.795 63.1213 143.795 62.468 143.795H62.1414C61.8147 143.464 61.8147 143.464 61.4881 143.134H61.1615C60.8349 142.803 60.1816 142.803 59.855 142.803C59.5283 142.803 59.5283 142.803 59.2017 142.141C58.5484 142.141 57.8952 141.811 57.5686 141.48C57.2419 141.149 56.5887 141.149 56.262 140.818H55.9354C55.9354 140.488 55.6088 140.157 55.2821 140.157L54.9555 139.826C54.6289 139.495 53.649 139.495 53.3224 139.165C52.9957 139.165 52.9957 138.834 52.9957 138.834C52.3425 138.503 51.6892 138.172 51.036 137.842C50.7093 137.842 50.7093 137.842 50.3827 137.511C49.7294 137.18 49.0762 137.18 48.7495 136.849L48.4229 136.519C47.443 135.857 46.7898 135.857 46.1365 135.857C45.8099 135.526 45.4832 135.196 44.83 135.196C44.5033 134.534 43.8501 134.534 43.1968 134.203L42.8702 133.873C42.5436 133.873 42.5436 133.542 42.5436 133.211C42.2169 132.88 42.2169 132.88 41.8903 132.549H39.2773C38.9506 131.888 38.2974 131.888 37.6441 131.557C37.3175 131.557 36.6642 131.226 36.3376 130.896H36.011C35.3577 130.896 34.7044 130.234 34.3778 129.903C34.0512 129.573 34.0512 129.242 33.7246 129.242C33.3979 128.911 33.3979 128.58 33.0713 128.58C32.418 127.919 31.7648 127.588 30.7849 127.257C30.4583 126.927 30.1316 126.927 29.805 126.596C29.4784 126.265 29.1517 125.934 28.8251 125.934C28.4985 125.604 28.1718 125.273 27.5186 125.273L27.192 124.942C26.8653 122.958 26.5387 122.627 26.2121 122.627C25.8854 122.296 25.5588 121.965 24.9055 121.965C24.5789 121.635 23.9257 121.304 23.599 120.973H23.2724C22.9458 120.642 22.6191 120.642 22.2925 120.642V120.312C22.2925 119.65 22.2925 119.65 21.9659 119.65C21.6392 119.65 21.6392 119.65 21.3126 119.319C20.986 119.319 20.986 118.989 20.986 118.658L20.6594 118.327C20.3327 117.666 20.6594 117.666 20.986 117.666H21.3126V117.335C21.3126 116.673 21.3126 116.012 21.6392 115.681C21.9659 115.35 21.9659 115.02 21.9659 115.02C22.2925 114.689 22.2925 114.358 22.6191 114.027C22.9458 113.697 22.9458 113.697 23.2724 113.366V112.704C23.599 112.374 23.599 112.043 23.9257 111.381H24.2523C24.2523 111.051 24.5789 110.72 24.2523 110.72L24.5789 110.389C24.5789 110.058 24.9055 110.389 24.9055 110.389C26.2121 111.051 26.2121 111.051 26.5387 111.051L26.8653 110.72C26.8653 110.058 27.192 110.058 27.192 109.727C27.5186 109.397 27.5186 109.066 27.8452 109.066C28.4985 109.397 29.1517 109.397 29.4784 109.727C29.805 109.397 30.1316 109.066 30.7849 108.735C31.1115 108.735 31.7648 108.735 32.0914 109.066V108.735C31.7648 108.735 31.7648 108.404 31.7648 108.404L31.4381 108.074C31.1115 107.412 31.4381 107.412 31.7648 107.412C32.0914 107.412 32.7447 107.412 33.0713 108.074C33.3979 108.404 33.3979 108.735 33.7246 108.735C34.0512 109.397 34.3778 109.397 34.7044 109.397C34.7044 109.728 35.0311 109.727 35.0311 109.727C35.3577 110.389 35.6843 110.389 36.011 110.389C36.3376 110.72 36.9909 111.051 37.3175 111.381C37.6441 111.712 37.9707 112.043 38.2974 112.043C38.624 112.374 38.624 112.374 38.624 112.704C38.9506 112.704 38.9506 113.035 39.2773 113.035C39.9305 113.035 40.2572 113.366 40.5838 113.697C40.9104 114.358 41.237 114.358 41.5637 115.02C41.5637 115.02 41.8903 115.35 41.8903 115.681C42.5436 116.343 42.8702 116.343 43.5235 116.673C43.8501 116.673 44.1767 117.004 44.5033 117.335C44.83 117.996 45.4832 118.327 46.1365 118.658C46.4631 118.989 46.4631 118.989 46.4631 119.319C47.1164 119.981 47.7696 120.312 48.4229 120.973C48.7495 120.973 48.7495 121.304 49.0762 121.635C50.3827 122.627 51.3626 123.288 52.6691 123.95C52.9957 124.281 53.3224 124.611 53.9756 124.611H55.6088C55.9354 125.273 56.5887 125.273 56.9153 125.934H57.2419C57.8952 126.265 58.5484 126.596 59.2017 126.596H59.5283C60.1816 126.265 60.8349 126.927 61.8147 126.927C62.1414 126.927 62.468 126.927 62.7946 127.257C62.468 126.927 62.468 126.596 62.468 126.596C62.1414 126.265 62.1414 126.265 62.1414 125.934C61.8147 125.604 61.4881 125.273 61.1615 125.273C60.8349 124.611 60.5082 124.611 60.1816 124.281C59.5283 123.619 58.8751 123.288 58.5484 122.627C58.2218 121.965 57.8952 121.635 57.2419 121.304C56.9153 121.304 56.9153 120.973 56.9153 120.973C56.9153 120.312 56.262 120.312 56.262 119.65C55.9354 118.989 55.6088 118.658 54.9555 118.327C54.6289 117.996 54.6289 117.666 54.6289 117.335C54.3023 116.673 54.3022 116.343 53.649 116.012C53.3224 115.681 53.3224 115.35 53.3224 115.02C52.9957 114.689 52.6691 114.358 52.0158 114.358V114.027C52.0158 113.366 52.0158 113.366 51.6892 113.035H51.3626C51.3626 112.374 51.036 112.374 51.036 112.043C50.7093 112.043 50.7093 111.712 50.7093 111.712C50.3827 111.381 50.3827 111.051 50.3827 110.389C50.3827 110.058 50.0561 110.058 50.0561 109.727C49.7294 109.397 49.7294 109.066 49.4028 109.066V108.735C49.4028 108.074 49.0762 107.743 49.0762 107.081C49.0762 106.751 48.7495 106.42 48.4229 106.42C48.0963 106.089 48.0963 106.089 48.0963 105.758L45.8099 104.766C45.8099 104.766 45.8099 104.435 45.4832 104.435C45.1566 103.774 44.83 103.112 44.1767 102.782C43.8501 102.12 42.8702 101.789 42.8702 101.128C42.5436 100.797 42.5436 100.466 42.2169 100.136C41.8903 99.8049 41.8903 99.4741 41.8903 98.8126C41.8903 98.1511 41.8903 97.8204 41.5637 97.1589C41.5637 97.1589 41.237 97.1589 41.237 96.8281C41.237 96.1666 40.9104 95.8358 40.5838 95.5051C40.5838 95.1743 40.2572 94.8436 40.2572 94.8436C39.9305 94.8436 39.9305 94.5128 39.9305 94.5128C39.6039 94.1821 39.6039 94.1821 39.6039 93.8513C39.6039 93.5206 39.2773 93.1898 39.2773 93.1898C39.2773 92.8591 38.9506 92.8591 38.9506 92.5283C38.624 91.8668 38.624 91.2053 37.9707 90.8745C37.6441 90.5438 37.6441 90.213 37.3175 89.8823C36.011 89.5515 36.011 89.5515 36.011 89.2208C35.6843 88.5593 35.6843 88.5593 35.6843 88.2285C35.3577 87.8978 35.6843 87.8978 35.6843 87.567C35.3577 87.2363 35.3577 86.9055 35.0311 86.9055C34.7044 86.5748 34.7044 86.5748 34.7044 86.5748C34.3778 86.244 34.3778 86.244 34.0512 85.9132C33.7246 85.2517 33.3979 84.921 32.7447 84.2595C32.7447 83.9287 33.0713 83.598 33.0713 83.598V82.9365C32.7447 82.6057 32.7447 82.6057 32.7447 82.2749C32.418 82.2749 32.418 81.9442 32.418 81.6134C32.418 81.2827 32.0914 80.9519 32.0914 80.9519C31.7648 80.6212 31.7648 80.6212 31.7648 80.2904L31.4381 79.9597C31.1115 79.6289 31.1115 79.2982 30.7849 78.9674C30.7849 78.9674 30.7849 78.6367 30.4583 78.3059C30.1316 77.9752 30.1316 77.6444 30.1316 77.3136C30.1316 76.9829 30.1316 76.9829 29.805 76.9829C29.4784 76.3214 29.1517 75.9906 29.1517 75.3291C29.1517 74.9984 28.8251 74.9984 28.8251 74.6676C28.4985 74.0061 27.8452 73.6754 27.5186 73.0139C27.192 73.0139 27.192 72.6831 27.192 72.3523C27.192 72.0216 27.192 71.6908 26.8653 71.3601C26.2121 73.3446 26.2121 72.6831 25.8854 72.6831C25.5588 72.3523 25.5588 72.0216 25.2322 71.3601C25.2322 70.6986 24.9055 70.6986 24.9055 70.0371C24.9055 70.0371 24.5789 70.0371 24.5789 69.7063C24.2523 69.3756 23.9257 69.0448 23.9257 68.7141C23.9257 68.3833 23.599 68.0525 23.599 67.7218C23.599 67.0603 23.2724 66.7295 22.9458 66.068C22.6191 65.4065 22.2925 64.745 21.9659 64.4143L21.3126 63.7528C21.3126 64.4143 21.6392 64.745 21.6392 65.0758C21.3126 65.4065 21.3126 65.7373 20.6594 65.7373C19.6795 66.3988 19.0262 66.7295 18.3729 67.391C18.0463 67.7218 17.7197 68.0526 17.0664 68.0526C16.4132 68.7141 15.7599 69.0448 15.1066 69.3756C14.78 69.3756 14.78 69.7063 14.4534 70.0371C14.1268 70.6986 13.1469 71.0293 12.4936 71.3601C12.167 71.6908 12.167 71.6908 12.167 72.0216C11.8403 72.3523 11.5137 72.6831 11.1871 72.6831C10.8605 72.6831 10.8605 73.0139 10.8605 73.3446C10.2072 74.0061 9.55393 74.3369 8.90067 74.9984C8.57404 75.6599 8.24741 75.6599 7.59415 75.9906C6.28763 76.6521 5.30774 77.3137 4.32785 78.3059C4.00122 78.6367 4.00122 78.6367 3.67459 78.9674C3.34796 79.2982 3.02133 79.6289 2.36807 79.6289C2.36807 79.9597 2.6947 80.2904 2.6947 80.2904C2.6947 80.2904 2.6947 80.9519 2.36807 80.9519C2.04144 81.6134 2.04144 81.6134 1.71481 82.2749C1.71481 82.2749 1.71481 82.6057 1.38818 82.6057C1.06155 82.9365 1.06155 83.2672 1.06155 83.2672C1.06155 83.2672 0.408288 82.6057 0.0816575 82.9365V86.5748V87.2363V87.567C0.408288 87.8978 0.408288 88.2285 0.408288 88.2285C0.0816575 88.5593 0.0816575 88.89 0.408288 88.89C0.408288 89.2208 0.734918 89.5515 0.408288 89.5515C0.408288 89.8823 0.408288 90.213 0.734918 90.5438H0.0816575V91.8668V94.5128C0.0816575 95.1743 0.408288 96.1666 0.408288 97.1589C0.408288 98.1511 0.0816575 98.4819 0.0816575 99.4741C0.0816575 100.466 0.408288 101.128 0.408288 102.12V104.766V107.412V109.727V112.704V117.335V122.627V127.257V130.896V134.534C0.408288 135.196 0.0816575 135.196 0.408288 135.526C0.734918 137.18 0.408288 138.172 0.408288 139.495C0.734918 141.149 0.408288 142.141 0.408288 143.464V145.449V146.441C0.408288 146.772 0.734918 146.772 0.734918 147.103C1.06155 147.433 1.06155 147.764 1.06155 148.095C1.06155 148.756 1.38818 149.087 1.06155 149.749V150.41C1.06155 151.072 1.06155 151.402 0.734918 151.733V152.395V155.371V160.002V163.64V165.625V166.286H1.06155V184.478C1.06155 184.809 0.734918 184.809 0.734918 184.809V186.793V188.447V191.424V193.077C0.734918 193.077 0.734918 193.408 1.06155 193.408C1.38818 194.07 1.38818 195.062 1.71481 195.723C2.04144 196.385 2.6947 197.046 3.02133 197.377C3.02133 198.039 3.34796 198.039 3.34796 198.369C3.34796 198.7 3.67459 199.031 3.67459 199.692C4.00122 200.023 4.32785 200.354 4.98111 200.354C6.28763 200.685 7.26752 201.346 8.24741 202.338C8.57404 202.669 8.57404 203 9.2273 203H10.5338C10.8605 203 11.1871 203 11.8403 202.669C11.8403 202.339 12.167 202.669 12.167 202.669C12.4936 203 12.8202 203 13.1469 203H14.4534C15.4333 203 16.0865 203 17.0664 202.669C17.3931 202.669 17.3931 202.669 17.7197 202.338C18.3729 202.669 18.6996 202.669 19.0262 202.669C19.3528 202.669 19.6795 202.669 20.0061 202.338H20.3327C20.6594 202.669 20.986 203 21.6392 203H23.2724C23.599 203 23.9257 203 24.2523 202.338C24.2523 202.008 24.2523 202.008 24.5789 201.677L25.2322 202.008C25.5588 202.339 25.5588 202.669 25.8854 202.338H26.5387H26.8653C27.8452 202.008 28.4985 201.677 29.1517 201.015C29.1517 200.685 29.4784 200.685 29.4784 200.685C29.805 200.354 29.805 200.023 30.1316 200.023C30.4583 199.362 30.4583 199.362 30.7849 199.692C31.1115 200.023 31.4381 200.354 31.4381 200.685C31.7648 201.015 31.7648 201.346 31.7648 201.677C32.0914 202.008 32.0914 202.338 32.7447 202.338H34.0512H35.0311C35.3577 202.008 35.3577 202.008 35.6843 202.338C36.011 202.338 36.6642 202.669 37.3175 202.338H37.6441H40.5838H43.8501H46.1365H48.7495H52.0158H55.2821C55.6088 202.338 55.6088 202.339 55.6088 202.008H55.9354C56.262 202.339 56.9153 202.338 57.2419 202.338H58.5484H64.7544C66.0609 202.338 67.3675 202.339 68.674 202.008H72.5935H74.8799H77.1664H78.7995H79.4528H82.3924C82.7191 202.008 82.7191 202.008 83.0457 201.677C83.3723 202.339 83.699 202.008 84.3522 202.008C84.6788 202.008 84.6788 201.677 84.6788 202.008H86.9653H88.5984C88.925 202.008 89.5783 201.677 89.9049 201.346H90.8848H91.2114C91.2114 201.677 91.5381 202.008 91.5381 202.008H94.1511C93.8245 201.346 93.8245 201.015 93.8245 200.354C94.4778 200.023 94.4778 200.354 94.8044 201.015L95.131 201.346C95.4576 201.677 95.4576 201.677 95.7843 201.346C95.7843 201.015 96.1109 201.015 96.4375 201.015V201.677C96.4375 202.008 96.4375 202.338 96.7642 202.338H101.337C101.99 202.008 102.97 202.338 103.95 202.338H105.257C105.257 201.677 105.257 201.346 104.93 201.015C104.603 201.015 104.603 200.685 104.93 200.354C104.93 200.023 105.257 200.023 105.257 200.354C105.583 200.685 105.583 201.015 105.91 201.346H106.236V202.008C106.563 202.339 107.543 202.008 107.543 201.346C107.543 201.015 107.543 201.015 107.87 201.015C108.196 201.346 108.196 201.677 108.849 201.677H109.176H113.096H115.055C115.382 201.677 116.035 201.677 116.362 201.346C116.689 201.015 117.015 201.015 117.668 201.346C117.995 201.677 117.995 201.677 117.995 201.677H121.915C122.568 201.346 123.221 201.346 123.874 201.015C124.201 201.015 124.854 200.685 125.181 200.354C125.508 200.354 125.508 200.023 125.508 199.692C125.508 199.362 125.508 199.362 125.834 199.362C126.161 199.362 126.488 199.031 126.814 198.7C127.141 198.039 127.141 198.039 127.467 198.039C127.794 198.369 127.794 198.369 127.794 198.369C128.121 198.369 128.121 198.369 128.447 198.039C128.774 197.377 129.101 197.046 129.754 196.385C130.08 196.054 130.08 196.054 130.407 195.723C130.407 195.723 130.734 195.723 130.734 195.393C130.734 195.062 130.734 195.062 131.06 195.062C131.387 194.731 131.387 194.4 131.387 194.07C131.714 193.739 132.04 193.408 132.04 192.416V191.754C132.04 191.424 131.714 191.093 132.367 191.093V190.431V187.785C132.367 187.124 132.367 186.793 132.693 186.132C132.693 185.47 132.693 185.139 133.02 184.478V183.486C133.347 183.155 133.347 182.824 133.347 182.824C133.02 182.493 133.02 182.493 132.693 182.493C132.367 182.163 132.693 181.832 133.347 181.832V183.155H134ZM107.216 140.488V141.149V141.811V143.134C107.543 143.795 107.543 144.457 107.216 145.118C106.89 145.78 106.89 146.11 106.89 146.441C106.563 146.772 106.563 147.103 106.563 147.103C106.236 147.433 106.236 147.764 106.236 148.426C106.563 149.087 106.236 149.087 106.236 149.418C105.91 149.418 105.91 149.749 105.91 150.079C105.91 150.741 105.583 150.741 105.583 151.402C105.257 152.064 104.93 152.064 104.277 152.064C103.95 151.733 103.623 151.733 103.297 151.733C101.664 152.064 100.03 152.395 98.7239 152.064C98.3973 152.064 98.3973 152.064 98.3973 152.395C97.7441 152.395 97.0908 152.064 96.4375 151.733H96.1109C95.7843 151.733 94.8044 151.072 94.4778 151.402C94.1511 150.741 93.1712 150.741 92.8446 150.741C92.518 150.079 91.8647 150.741 91.5381 151.072C91.2114 151.072 91.2114 151.402 90.8848 151.402C89.9049 150.741 88.925 150.41 87.9452 150.41C87.2919 149.418 87.2919 148.756 87.6185 148.095C87.9451 147.433 87.9452 147.103 87.9452 146.441C88.2718 146.441 88.2718 146.11 87.9452 146.11C87.6185 145.449 88.2718 145.449 88.2718 144.787L88.5984 144.457C88.5984 143.795 88.925 143.464 89.2517 142.803C89.2517 142.472 88.925 142.141 88.925 142.141C88.5984 141.48 88.5984 141.149 88.925 140.488C89.2517 139.826 89.9049 138.834 90.8848 138.834C91.2114 138.834 91.2114 138.834 91.5381 138.503C91.8647 137.842 91.8647 137.842 92.8446 137.842C93.1712 137.842 93.8245 137.511 94.1511 138.172H94.4778C95.131 137.842 96.4375 137.511 96.7642 136.849C97.0908 136.519 97.0908 136.519 97.4174 136.188C98.0707 135.857 98.7239 135.857 99.3772 135.526C99.3772 135.196 99.3772 135.196 99.7038 135.196H100.357C100.357 134.865 100.684 134.865 100.684 134.865C101.337 134.865 101.99 134.534 102.317 134.203C102.644 134.203 102.644 133.873 102.97 133.873C104.277 133.873 105.257 133.542 106.563 134.534C106.563 134.534 106.563 134.865 106.89 135.196C107.216 135.526 107.216 135.857 107.543 135.857C107.543 136.519 107.543 137.18 107.216 137.511V138.172C107.543 139.165 107.543 139.826 107.216 140.488Z"
     fill="#D50032"
     id="path4" />
</svg>
