<?xml version="1.0" encoding="UTF-8" standalone="no"?>
<svg
   xmlns:dc="http://purl.org/dc/elements/1.1/"
   xmlns:cc="http://creativecommons.org/ns#"
   xmlns:rdf="http://www.w3.org/1999/02/22-rdf-syntax-ns#"
   xmlns:svg="http://www.w3.org/2000/svg"
   xmlns="http://www.w3.org/2000/svg"
   xmlns:sodipodi="http://sodipodi.sourceforge.net/DTD/sodipodi-0.dtd"
   xmlns:inkscape="http://www.inkscape.org/namespaces/inkscape"
   width="134"
   height="203"
   viewBox="0 0 134 203"
   fill="none"
   version="1.1"
   id="svg4"
   sodipodi:docname="ice-hockey.svg"
   inkscape:version="0.92.1 r15371">
  <metadata
     id="metadata10">
    <rdf:RDF>
      <cc:Work
         rdf:about="">
        <dc:format>image/svg+xml</dc:format>
        <dc:type
           rdf:resource="http://purl.org/dc/dcmitype/StillImage" />
        <dc:title></dc:title>
      </cc:Work>
    </rdf:RDF>
  </metadata>
  <defs
     id="defs8" />
  <sodipodi:namedview
     pagecolor="#ffffff"
     bordercolor="#666666"
     borderopacity="1"
     objecttolerance="10"
     gridtolerance="10"
     guidetolerance="10"
     inkscape:pageopacity="0"
     inkscape:pageshadow="2"
     inkscape:window-width="640"
     inkscape:window-height="480"
     id="namedview6"
     showgrid="false"
     inkscape:zoom="1.1625616"
     inkscape:cx="67"
     inkscape:cy="101.5"
     inkscape:window-x="0"
     inkscape:window-y="0"
     inkscape:window-maximized="0"
     inkscape:current-layer="svg4" />
  <path
     d="M134 167.824C134 167.496 133.663 167.167 133.663 167.167C133.327 166.838 132.99 166.509 132.653 166.181C132.653 167.167 132.317 168.482 131.307 169.139C130.633 169.797 129.96 169.797 129.286 169.797C126.256 169.468 124.91 169.797 121.879 169.797C120.869 169.797 120.196 169.139 119.523 168.153C119.523 167.824 119.186 167.496 119.186 166.838C118.849 166.181 118.849 165.523 118.849 165.194C118.849 164.537 118.849 164.537 118.513 163.879V163.551C118.849 162.893 118.849 162.564 119.523 162.236C119.859 161.907 120.196 161.907 120.533 161.907C120.533 162.236 120.869 162.236 120.869 161.907C121.543 161.907 122.216 161.907 122.889 161.578C123.226 161.578 123.9 161.249 124.236 161.249C125.92 160.921 126.593 161.249 128.613 161.249H128.95C129.623 161.578 130.633 161.907 131.307 161.907L131.643 162.236V158.619H131.98C132.317 158.291 132.317 157.962 132.317 157.962C132.99 157.633 132.99 157.304 132.99 156.647C132.317 156.647 132.317 156.318 132.317 155.989V140.21V139.552H131.307V139.223H131.98V116.54H131.643C131.98 116.211 131.98 115.883 131.98 115.883C131.98 114.896 131.643 113.91 131.643 112.924C131.643 112.595 131.98 112.266 131.98 111.938C131.98 110.951 131.643 109.965 131.643 108.979C131.643 108.65 131.98 108.321 131.98 107.993C131.98 107.664 131.643 107.335 131.643 107.006C131.643 106.349 131.98 105.363 131.98 104.377C131.98 103.39 131.98 102.404 131.643 101.418C131.643 100.432 131.643 99.4453 131.307 98.4591V96.8154V93.5279V92.5417V92.8704V90.2405V87.2818V86.2955V84.6518C131.307 83.9943 131.307 83.6656 130.97 83.0081C130.296 82.3506 129.96 81.3644 130.296 80.3781V77.7482V75.1182V73.4745V70.187V67.5571V64.5984V63.6121V60.3247V57.6947V54.4073V53.4211C130.296 52.4348 130.296 51.7773 130.633 50.7911C131.307 50.1336 131.307 49.1474 131.307 48.1611V46.8462C131.307 46.1887 130.97 45.5312 130.97 45.2024V43.8875H130.633V43.23V36.6551V35.9976L130.97 35.6688C130.633 35.0113 130.633 35.0113 130.633 34.6826C130.296 34.3538 130.296 34.3538 130.296 34.0251C130.296 33.3676 130.296 33.0389 129.96 33.0389C129.623 32.7101 129.623 32.3814 129.623 32.3814C129.96 32.0526 129.623 31.7239 129.623 31.7239L129.96 31.3951H131.307C131.307 30.7377 131.643 30.0802 131.643 29.4227C131.98 29.0939 131.643 28.7652 131.643 28.4364C131.643 28.1077 131.98 27.7789 131.98 27.7789V28.7652C131.643 28.4364 131.643 28.4364 131.98 28.1077C132.317 27.7789 132.317 27.4502 132.317 27.4502C132.317 26.7927 132.653 26.1352 132.317 25.4777C131.98 25.4777 131.98 25.149 131.98 24.8202C131.98 24.1628 132.317 23.5053 132.317 23.1765V22.519H131.98C131.98 22.1903 131.98 22.1903 132.317 21.8615C132.317 21.8615 132.653 21.8615 132.653 21.5328V20.5466V19.2316C132.653 18.9028 132.653 18.5741 132.317 18.2453C132.317 17.5879 131.98 17.2591 131.98 16.6016C132.317 16.2729 132.317 15.9441 131.98 15.9441C131.643 15.6154 131.307 14.6291 130.633 14.3004C130.296 13.9717 130.296 13.6429 130.296 13.3142L129.96 13.6429C129.96 13.3142 129.623 13.3142 129.623 12.9854C129.286 12.6567 129.286 12.3279 129.286 11.9992C129.286 11.6704 128.95 11.3417 128.95 11.3417C128.276 10.6842 128.276 10.6842 128.276 10.0267C127.94 9.69798 127.94 9.36923 127.94 9.04049C127.603 8.71174 127.603 8.71174 127.603 8.383C127.603 7.39676 127.266 6.73927 127.266 6.08178C126.93 6.08178 126.93 6.41053 126.93 6.41053C126.593 6.41053 126.593 6.08178 126.593 5.75304C126.593 5.42429 126.93 5.09555 126.93 5.09555V4.7668C126.593 4.43806 126.593 4.10931 126.593 4.10931H126.256C125.92 4.10931 125.246 4.10931 124.91 3.45182C124.573 3.12308 124.236 3.12308 123.563 2.79433C123.226 2.46559 123.226 2.46559 122.889 2.79433C122.553 2.46559 122.553 2.13684 122.216 2.13684C121.879 2.13684 121.879 1.8081 121.543 2.13684C121.206 2.13684 120.533 2.46559 120.533 1.8081C120.196 1.8081 119.859 2.13684 119.523 2.46559C119.186 1.8081 118.849 1.8081 118.176 1.8081C117.839 1.8081 117.503 1.47935 116.829 1.15061C116.156 1.15061 115.482 1.47935 114.472 1.47935V1.8081C114.136 1.8081 113.799 1.47935 113.462 1.47935C113.126 1.15061 113.126 1.15061 112.789 1.15061C112.452 1.47935 112.116 1.47935 111.779 1.47935H111.106C110.769 1.15061 110.769 1.15061 110.432 1.15061H109.422H108.075C107.739 1.15061 107.402 0.821862 106.729 0.821862C106.392 0.821862 106.392 1.15061 106.392 1.47935C106.055 1.15061 106.055 1.15061 106.055 1.15061H105.045C104.709 1.15061 104.709 1.15061 104.709 0.821862C104.372 0.493117 104.372 0.493117 104.035 0.821862C104.035 1.15061 103.698 1.15061 103.698 1.15061L103.362 0.493117C103.025 0.821862 102.688 0.821862 102.015 1.15061H101.005C101.005 0.821862 101.005 0.493117 101.342 0.493117H101.005C100.668 0.821862 99.995 0.821862 99.6583 0.493117C99.3216 -0.164372 98.9849 -0.164372 98.6482 0.493117C96.2915 0.821862 95.9548 0.821862 95.6181 1.47935H95.2814C94.9447 0.821862 94.9447 1.15061 94.9447 1.15061C94.608 1.15061 94.608 1.15061 94.2714 1.47935C93.9347 1.47935 93.2613 0.493117 92.9246 1.15061C92.5879 1.15061 92.5879 0.821862 91.9146 1.47935H91.5779H91.2412C90.9045 2.13684 90.5678 2.13684 89.8945 2.13684C89.2211 2.13684 89.2211 2.13684 89.2211 2.46559C88.8844 2.13684 88.5477 2.13684 88.2111 2.13684C88.2111 1.8081 87.8744 1.8081 87.8744 1.8081C87.201 2.13684 86.5276 2.13684 86.191 2.13684C85.5176 1.8081 84.8442 1.47935 84.1709 2.13684C83.1608 1.8081 82.1508 1.8081 81.1407 1.8081C80.804 1.8081 80.804 1.8081 80.804 1.47935C80.4673 1.15061 80.4673 1.15061 80.1307 1.8081H78.7839C78.4472 1.8081 77.7739 2.13684 77.4372 2.13684H77.1005C76.7638 2.13684 76.7638 2.13684 76.0905 2.46559V1.8081C75.7538 1.8081 75.0804 1.15061 74.7437 1.47935C74.407 1.8081 74.407 1.8081 74.0704 1.47935C73.7337 1.15061 73.7337 1.15061 73.397 1.15061C73.0603 1.15061 73.0603 1.47935 73.0603 1.47935L72.7236 1.8081H70.7035C70.3668 1.8081 70.3668 1.47935 70.3668 1.47935V1.8081V2.13684C70.3668 2.13684 70.0302 2.13684 70.0302 1.8081H69.3568C69.3568 1.8081 69.3568 2.13684 69.0201 2.46559C68.6834 2.79433 68.3467 2.13684 68.0101 1.8081C68.0101 1.8081 68.3467 1.8081 68.3467 1.47935C68.01 1.47935 68.0101 1.47935 68.0101 1.15061C68.0101 1.15061 67.6734 1.15061 67.6734 1.47935C67.3367 1.8081 67.3367 1.8081 67 1.8081H66.3266H65.99C65.6533 1.8081 65.6533 1.8081 65.3166 2.46559C65.3166 1.8081 64.6432 1.8081 64.3065 1.8081C64.3065 1.8081 63.9698 2.13684 63.9698 2.46559C63.6332 2.13684 63.6332 1.8081 63.2965 1.8081C62.9598 1.8081 62.2864 2.13684 61.9497 2.13684C61.6131 2.13684 61.6131 2.46559 61.6131 2.13684C61.2764 1.8081 60.9397 2.13684 60.603 2.13684C60.2663 2.46559 60.2663 2.46559 59.593 2.46559H58.2462C57.9095 2.13684 57.9095 2.13684 57.5729 2.13684C57.2362 2.13684 57.2362 1.8081 57.2362 1.8081H56.2261C56.2261 2.46559 55.8894 2.46559 55.5528 2.46559C55.5528 2.46559 55.2161 2.13684 55.2161 2.46559C54.8794 2.79433 54.5427 2.79433 53.8693 2.46559C53.5327 2.46559 53.196 2.79433 53.196 1.8081C52.8593 1.8081 52.5226 1.8081 52.1859 2.13684C51.8492 2.46559 51.5126 2.46559 51.1759 2.46559C50.8392 2.13684 50.5025 2.13684 49.8291 1.8081C49.4925 1.8081 49.4925 1.8081 49.1558 2.13684V2.46559C48.8191 2.13684 48.8191 2.13684 48.8191 2.13684C48.4824 2.13684 48.4824 2.13684 48.1457 1.8081C48.1457 2.46559 47.809 2.46559 47.809 2.46559V1.8081C47.4724 2.13684 47.1357 2.13684 46.4623 2.13684C46.1256 2.46559 45.1156 2.46559 44.7789 2.13684C44.4422 1.8081 43.7688 1.8081 43.7688 2.13684C43.4322 2.79433 43.4322 2.13684 43.0955 2.13684C42.7588 1.8081 42.4221 1.8081 42.0854 2.46559C41.7487 2.13684 41.4121 1.8081 41.0754 1.8081C40.7387 1.8081 40.402 1.8081 39.7286 2.13684C39.392 1.8081 39.392 1.8081 39.392 2.13684C39.0553 2.13684 39.0553 2.46559 39.0553 2.46559C38.3819 2.46559 37.7085 2.46559 37.3719 2.79433C37.7085 2.13684 37.0352 2.46559 36.6985 2.46559C36.6985 2.46559 36.3618 2.79433 36.3618 3.12308H36.6985C33.6683 3.12308 33.6683 2.46559 33.6683 2.13684C33.3317 2.46559 32.995 2.46559 32.995 2.79433C32.6583 2.79433 32.6583 3.45182 32.6583 3.78057C32.6583 4.43806 32.995 4.7668 32.995 5.42429C32.6583 5.09555 31.9849 4.7668 32.3216 4.10931C32.6583 3.45182 32.6583 3.45182 32.3216 2.79433C31.9849 2.79433 31.6482 2.79433 31.3116 2.46559H30.9749C30.6382 2.79433 30.3015 2.79433 29.9648 2.46559H29.6281C29.2915 2.46559 28.9548 2.13684 28.6181 2.13684C28.6181 2.13684 28.2814 2.13684 28.2814 2.46559C28.2814 2.79433 28.2814 2.79433 27.9447 2.79433C27.608 2.79433 27.608 3.12308 27.608 3.12308C27.2714 2.79433 26.9347 2.46559 26.598 2.46559C26.2613 2.46559 25.2513 2.79433 24.9146 2.79433H24.5779C24.2412 2.79433 23.5678 2.13684 22.8945 2.46559C22.8945 2.46559 22.5578 2.79433 22.5578 2.46559C21.5477 2.13684 21.2111 2.79433 20.5377 2.79433V2.46559H19.5276C19.191 2.46559 18.5176 2.46559 18.5176 2.79433C18.1809 3.45182 17.8442 3.12308 17.1709 2.79433C17.1709 3.12308 17.1709 3.45182 16.8342 3.78057C16.4975 3.78057 15.4874 3.45182 15.4874 4.10931C14.8141 3.78057 14.4774 3.78057 13.804 3.78057H13.4673H12.1206C11.4472 3.78057 11.4472 4.10931 10.7739 4.10931C10.4372 4.10931 10.4372 4.43806 10.4372 4.43806C10.1005 4.43806 10.1005 4.43806 9.76382 4.7668C9.76382 5.09555 9.42714 5.09555 9.42714 5.09555C9.42714 5.42429 9.09045 5.09555 9.09045 5.09555C8.41709 5.09555 8.0804 5.42429 7.40704 5.75304C7.74372 6.41053 7.40703 6.41053 7.07035 6.73927C7.07035 6.73927 7.07035 6.73927 7.07035 7.06802C7.07035 7.39676 7.07035 7.72551 6.73367 7.72551C6.73367 7.72551 6.73367 7.72551 6.39699 7.39676C6.39699 7.72551 6.0603 7.72551 5.72362 8.05425V8.383C5.38693 9.04049 5.38693 9.04049 5.72362 9.36923C6.0603 9.36923 6.0603 9.36923 6.0603 9.69798H5.38693C5.38693 9.69798 5.05025 9.69798 5.05025 9.36923C5.05025 10.0267 4.71357 10.0267 4.37688 10.6842C4.37688 11.3417 4.0402 11.6704 4.0402 12.3279V12.6567C3.36683 12.6567 3.36683 12.9854 3.36683 13.6429H3.03015C2.69347 13.6429 2.69347 13.9717 2.35678 14.6291C2.69347 14.3004 3.03015 14.3004 3.36683 14.3004V14.6291C3.03015 14.9579 3.03015 15.2866 2.69347 15.6154C2.35678 16.6016 1.34673 17.5879 1.34673 18.5741C1.34673 18.5741 1.01005 19.2316 1.01005 19.5603C0.673367 19.5603 0.673367 19.8891 0.673367 19.8891C0.336683 19.8891 0.336683 20.5466 0.336683 20.8753C0.336683 21.8615 0.336683 22.8478 0.336683 23.834V25.4777V26.464C0.673367 27.1215 0.673367 27.4502 0.336683 28.1077V28.7652C0.336683 29.0939 0.673367 29.4227 0.673367 29.7514C0.673367 30.4089 0.673367 30.7377 0.336683 31.3951C0.336683 31.7239 0.673367 32.0526 0.336683 32.0526C0.336683 31.7239 0.336683 32.0526 0.336683 32.3814V34.3538H0.673367C1.01005 35.0113 1.01005 35.3401 1.01005 35.6688C1.01005 35.9976 1.01005 35.9976 0.673367 35.9976C0.336683 35.9976 0.336683 36.6551 0 36.9838L0.336683 37.3125C0.673367 37.6413 0.673367 37.97 0.673367 38.2988C0.336683 38.2988 0 38.6275 0.336683 38.9563C0.336683 39.6138 0.336683 40.2713 0.673367 40.6V42.9012C1.01005 42.9012 1.01005 42.9012 1.01005 43.23C0.673367 43.23 0.673367 43.23 0.673367 43.5587C0.673367 43.5587 0.336683 43.5587 0.336683 43.8875C0.336683 43.8875 0.673367 44.2162 0.673367 44.5449V44.8737V45.5312C0.673367 45.8599 0.336683 46.1887 0.673367 46.1887V46.8462C0.673367 46.8462 0.673367 46.5174 1.01005 46.1887C1.34673 46.8462 1.34673 47.8324 1.34673 48.8186L1.01005 49.1474C1.01005 49.4761 1.01005 49.8049 1.34673 50.1336C1.68342 50.4623 1.68342 50.7911 1.34673 51.1198V51.4486C1.68342 51.7773 1.68342 51.7773 1.68342 52.1061C1.68342 52.7636 1.68342 53.4211 1.34673 53.7498C1.01005 54.4073 1.34673 55.0648 1.34673 55.3935V56.7085L1.01005 56.3798V56.7085C1.01005 57.366 1.34673 58.0235 1.34673 58.3522C1.34673 59.0097 1.01005 59.9959 1.01005 60.9822V62.6259V66.2421C0.673367 67.5571 0.673367 68.8721 0.673367 70.187C1.01005 70.8445 1.01005 71.8308 1.01005 72.817V73.1458C0.673367 73.4745 0.673367 73.8032 0.673367 73.8032C0.673367 73.8032 0.673367 74.4607 1.01005 74.4607C1.34673 74.4607 1.34673 74.7895 1.34673 75.1182C1.68342 75.7757 1.68342 76.1045 1.68342 76.7619C1.34673 77.4194 1.34673 77.7482 1.68342 78.4057C1.68342 79.0632 1.34673 79.0632 1.34673 79.0632V81.6931C1.34673 82.0219 1.68342 82.0219 1.68342 82.0219C1.68342 82.6794 2.0201 83.3368 2.0201 83.6656C2.0201 83.9943 1.68342 84.3231 1.68342 84.3231V85.3093C1.68342 85.9668 2.0201 86.953 2.0201 87.6105V88.5968V88.9255C2.0201 89.2542 2.35678 89.583 2.35678 89.583C2.35678 90.2405 2.35678 90.898 2.0201 91.2267V91.5555C1.68342 91.8842 1.68342 92.213 1.68342 92.213C2.0201 92.5417 2.0201 92.8704 2.0201 93.1992C2.0201 93.8567 2.0201 94.1854 1.68342 94.5142V93.8567C0.336683 94.1854 0 94.5142 0 95.1717C0 95.5004 0.336683 95.8291 0.336683 96.1579C0.673367 96.4866 0.673367 96.4866 0.336683 96.8154V98.1304C0.336683 98.7879 0.673367 99.7741 0.673367 100.76C1.01005 100.76 1.01005 101.089 1.01005 101.089V102.404C1.01005 103.39 1.34673 104.377 0.673367 105.363C0.336683 106.02 0.673367 107.006 0.673367 107.335V108.321V122.786V127.717V128.046C1.01005 128.375 1.01005 128.704 1.01005 128.704C1.01005 128.704 1.68342 129.032 1.34673 129.032C1.34673 129.032 1.01005 129.032 1.01005 129.361V130.347C1.01005 130.676 0.673367 131.005 0.673367 131.334V131.991C0.336683 132.977 0.673367 133.964 0.336683 134.95V135.607C0.673367 135.607 0.673367 135.936 0.673367 136.265C0.673367 136.922 0.673367 137.251 1.01005 137.909L1.34673 142.511C1.68342 141.853 2.0201 141.525 2.69347 140.867C3.03015 139.552 3.70352 138.237 4.0402 137.251C4.37688 136.594 4.37688 136.265 4.37688 135.607L5.05025 131.005C5.38693 129.69 5.72362 128.375 6.39699 127.389C6.39699 127.06 6.73367 126.731 6.73367 126.731C7.07035 126.402 7.07035 126.731 7.07035 127.06C7.40703 127.717 7.40704 128.046 7.40704 128.704C7.40704 129.361 7.74372 129.69 7.74372 130.347C8.0804 131.005 8.0804 131.991 8.0804 132.649C8.41709 133.306 9.09045 133.635 9.42714 133.306C9.76382 132.977 9.76382 132.649 9.76382 132.649C10.7739 131.662 29.2915 115.554 44.4422 103.39C44.4422 103.39 42.7588 102.075 41.7487 101.089H41.4121H41.0754V101.418C41.0754 101.418 41.4121 101.418 41.4121 101.747V102.075L41.0754 102.404C40.402 101.747 39.7286 102.075 39.0553 102.733C38.3819 103.062 37.3719 102.733 37.0352 102.075C37.0352 101.418 36.6985 101.418 36.6985 100.76C36.3618 100.103 36.3618 99.7741 36.3618 99.1166C36.0251 98.4591 36.0251 97.8016 36.3618 97.1441C36.6985 96.4866 36.6985 96.1579 36.6985 95.8291C37.0352 94.5142 37.7085 93.5279 38.3819 92.5417C38.7186 91.8842 39.7286 91.8842 40.402 92.5417C40.7387 92.8704 41.0754 93.1992 41.7487 93.5279C43.0955 94.8429 44.1055 96.1579 45.1156 97.1441C46.1256 98.4591 47.1357 99.4453 48.1457 100.76C48.1457 100.432 62.6231 89.583 62.6231 89.583C61.9497 89.2542 60.2663 88.9255 59.2563 88.9255C58.9196 88.5968 58.5829 88.5968 57.9095 88.5968C57.2362 88.268 56.5628 87.9393 55.8895 87.9393C55.5528 87.9393 54.5427 87.9393 53.8693 87.6105C53.196 86.953 52.1859 86.953 51.5126 86.6243C51.1759 86.2955 50.5025 85.9668 50.1658 85.6381C49.8291 85.3093 49.4925 84.9806 48.8191 84.9806C47.809 84.3231 46.799 83.9943 45.7889 83.6656C45.1156 83.3368 44.4422 83.0081 43.4322 82.6794C42.7588 82.0219 42.0854 81.6931 41.0754 81.0356C40.402 80.3781 39.392 80.0494 38.3819 79.3919C38.0452 80.0494 38.0452 81.0356 38.0452 82.0219C37.7085 82.3506 37.7085 82.3506 37.7085 82.0219V83.3368C37.3719 83.9943 38.0452 83.9943 38.0452 84.9806V85.3093C37.7085 85.9668 38.0452 86.2955 38.0452 86.953C38.0452 86.953 38.3819 86.953 38.3819 87.2818C38.3819 87.6105 38.7186 89.2542 38.7186 89.9117V90.2405V90.5692C38.3819 90.2405 38.3819 90.2405 38.3819 90.2405C34.005 88.5968 35.3518 88.9255 30.6382 88.5968V86.2955C30.3015 85.6381 30.3015 84.9806 30.3015 84.3231L29.9648 83.9943C29.6281 83.9943 29.9648 83.3368 29.9648 83.3368C29.9648 82.6794 29.6281 82.6794 29.6281 82.0219V81.3644C29.6281 81.0356 29.2915 80.7069 29.2915 80.0494V79.3919C29.6281 79.0632 29.2915 78.0769 28.9548 77.7482C28.9548 77.4194 28.6181 76.1045 28.6181 75.447C28.6181 74.7895 28.2814 74.132 28.2814 73.4745C27.9447 72.4883 27.9447 71.502 27.608 70.5158V69.8583C27.608 69.2008 27.2714 68.2146 27.2714 67.2283V66.8996C27.2714 66.5709 26.9347 66.2421 26.9347 65.5846C26.9347 64.9271 27.2714 64.2696 27.608 63.9409C27.9447 63.6121 28.2814 62.9547 28.9548 62.6259H29.2915C30.6382 61.9684 30.6382 61.6397 31.6482 60.9822C31.9849 60.6534 32.3216 60.3247 32.995 60.3247C33.6683 60.3247 33.6683 60.3247 34.005 59.996C34.3417 59.996 34.3417 59.6672 34.6784 59.996C35.0151 60.3247 35.0151 59.9959 35.0151 59.6672C35.3518 59.6672 35.3518 59.3385 35.3518 59.0097C35.3518 59.0097 36.0251 58.681 36.6985 58.3522C37.0352 58.3522 37.0352 58.3522 37.0352 58.0235C37.3719 57.366 38.3819 57.366 38.7186 57.6947L39.0553 58.0235C39.392 58.681 46.4623 62.6259 46.4623 62.9547C46.799 63.6121 48.1457 63.9409 48.4824 64.5984C49.1558 65.2559 50.1658 64.5984 51.1759 65.2559C53.196 66.2421 54.8794 66.8996 56.8995 67.8858C58.2462 68.5433 59.2563 68.8721 60.2663 69.5296C61.2764 69.8583 61.9497 70.187 62.6231 70.5158C63.2965 70.8445 63.9698 71.1733 64.9799 71.1733H65.3166H65.6533C65.99 71.502 65.99 71.502 65.99 71.502C66.3266 71.8308 67.3367 71.8308 67.6734 72.1595H68.3467C69.0201 72.4883 69.6935 72.4883 70.7035 72.4883C71.3769 72.817 72.0503 72.817 73.0603 73.1458H77.4372H78.7839H80.1307C81.4774 73.1458 83.8342 72.1595 85.1809 72.4883C85.5176 72.817 85.5176 72.817 85.5176 72.4883C85.8543 72.1595 86.1909 72.4883 86.8643 72.4883H87.201C87.5377 72.1595 87.5377 72.1595 87.8744 72.1595C88.2111 72.1595 88.2111 72.1595 88.2111 71.8308C88.5477 71.502 88.5477 71.502 88.5477 71.502C88.8844 71.502 88.8844 71.8308 89.2211 72.1595C89.2211 72.4883 89.5578 72.817 89.5578 72.817C89.8945 72.817 90.2312 72.817 90.5678 73.4745V73.8032C90.9045 74.132 91.2412 74.4607 91.5779 75.1182C91.5779 75.447 91.9146 75.7757 91.9146 75.7757V76.4332C92.2513 76.7619 92.2513 77.0907 92.2513 77.4194C92.5879 77.4194 92.5879 77.4194 92.5879 77.7482V78.7344C92.5879 79.3919 92.5879 79.3919 92.2513 80.0494V81.3644C92.2513 81.6931 92.2513 82.0219 91.9146 82.3506V83.0081V83.9943V84.3231C91.9146 84.9806 91.5779 85.3093 91.5779 85.9668V86.2955C91.5779 86.6243 91.2412 86.953 91.2412 86.953C91.5779 87.6105 90.9045 87.6105 90.9045 88.268C90.9045 88.9255 90.5678 89.2542 90.5678 89.583C90.2312 89.583 90.5678 89.9117 90.2312 89.9117V90.2405C90.5678 90.898 89.8945 91.5555 89.8945 92.213V92.5417C89.5578 93.1992 89.5578 93.1992 88.8844 93.5279L88.5477 93.8567C87.8744 94.5142 87.201 94.5142 86.8643 94.8429H86.5276H86.191C85.8543 94.8429 85.8543 95.1717 85.5176 95.5004C85.1809 95.5004 84.8442 95.8291 84.5075 96.1579H83.1608C82.8241 96.1579 82.8241 96.4866 82.4874 96.4866C81.1407 97.1441 80.1307 97.4729 79.1206 98.4591C77.7739 99.1166 76.7638 100.103 75.4171 101.089C74.0704 101.747 73.0603 102.733 71.7136 103.719C70.0302 105.034 68.3467 106.349 66.6633 107.664C65.3166 108.65 64.3065 109.636 63.2965 110.623C62.9598 110.951 62.6231 111.28 61.9497 111.938C63.2965 113.253 64.3065 114.568 65.99 115.554C67 116.54 68.01 117.526 69.3568 118.184C70.0302 118.841 70.7035 119.828 71.7136 120.485C73.7337 122.457 75.7538 124.43 77.7739 126.402C79.1206 128.046 80.804 129.032 82.1507 130.676L85.8543 134.292C86.5276 134.95 87.201 135.936 88.2111 136.594C88.5477 137.251 89.2211 137.251 89.5578 137.909C90.9045 139.552 92.2513 140.867 93.9347 142.182C95.6181 143.497 97.3015 144.812 99.3216 146.127C101.678 147.771 103.698 149.743 106.392 151.716C107.402 152.373 108.749 153.36 109.759 154.346H110.095C110.432 154.674 110.769 154.674 111.442 155.003C112.116 155.332 112.789 155.661 113.462 155.661C113.799 155.989 114.472 156.318 114.809 156.318C115.482 156.976 115.819 156.976 116.492 156.318L116.829 156.647L118.176 158.291C119.523 159.277 120.869 159.934 122.553 160.592C123.563 161.249 124.91 161.249 125.92 161.907C125.92 161.907 125.92 162.236 126.256 162.236C125.92 162.564 125.92 162.564 125.92 162.564C124.573 162.893 123.226 162.893 121.543 163.222H119.859C118.513 163.222 116.829 163.222 115.482 163.551H110.432C110.095 163.551 109.422 163.551 109.085 163.222C108.749 162.564 107.739 162.564 107.402 161.907C106.055 160.921 105.045 159.606 104.035 158.619C101.678 156.647 99.6583 154.346 97.6382 152.045C96.2915 150.73 94.9447 149.415 93.598 148.428C92.2513 147.113 91.2412 145.798 89.8945 144.812C88.5477 143.168 87.201 142.182 85.5176 140.867C84.5075 140.21 83.4975 139.223 82.4874 138.237C82.1508 137.58 81.1407 137.251 80.4673 136.594C80.1307 136.265 79.4573 135.936 79.1206 135.279C78.4472 134.621 77.7739 133.635 76.7638 132.977C76.4271 132.649 75.7538 132.32 75.4171 131.662C75.4171 131.334 75.0804 131.334 75.0804 131.662C75.0804 133.306 74.407 134.292 73.7337 135.279C73.0603 136.265 72.0503 137.251 71.3769 138.237C71.0402 138.895 70.7035 139.552 70.0302 139.881C69.3568 140.867 68.6834 141.525 68.0101 142.511C67.3367 143.826 66.6633 145.141 65.99 146.456C64.9799 148.428 63.9698 150.401 62.6231 152.045C61.2764 153.688 60.2663 155.332 58.9196 156.647C58.2462 157.633 57.5729 158.291 56.8995 159.277C56.2261 160.592 55.5528 161.578 55.2161 162.893C54.8794 163.551 54.5427 163.879 53.8693 164.208C53.5327 164.537 52.5226 164.537 52.1859 164.866C51.8492 164.866 51.1759 164.866 50.8392 164.208C50.8392 163.879 50.5025 163.879 50.5025 163.551C49.8291 162.893 48.8191 162.893 47.809 162.893C47.4724 162.893 46.799 162.564 46.799 162.236C46.4623 161.249 46.1256 160.592 45.4523 159.934C44.7789 159.277 44.1055 158.948 43.4322 158.291C43.0955 157.633 42.4221 156.976 41.4121 156.647C40.7387 155.989 40.0653 155.661 39.7286 154.674C39.392 154.346 39.392 154.346 39.392 154.017C39.0553 154.017 38.7186 154.017 38.3819 153.688C38.0452 153.36 37.3719 153.36 37.0352 153.031C36.6985 152.702 33.6683 151.058 33.6683 150.401C33.3317 149.415 33.3317 148.757 32.3216 148.1C31.9849 147.771 31.6482 147.442 31.6482 146.785C31.3116 146.456 31.3116 146.127 31.6482 145.798C31.9849 145.141 32.3216 145.141 32.6583 145.141C32.995 145.141 33.3317 145.141 33.6683 144.812C34.005 144.483 34.3417 144.483 35.0151 144.812C35.3518 144.812 36.3618 145.141 36.6985 144.483H37.0352C37.3719 144.483 37.3719 144.812 37.7085 145.141C38.3819 145.47 38.7186 145.798 39.392 144.812C39.7286 144.155 39.7286 144.483 40.402 144.483C40.7387 144.812 41.0754 144.812 41.7487 144.812C42.4221 144.812 42.4221 144.812 43.0955 144.483L43.7688 143.826C44.4422 143.168 45.1156 142.182 45.7889 141.853C46.4623 141.525 46.799 140.867 47.1357 140.21C47.4724 139.552 47.4724 139.552 47.809 138.895C48.4824 137.908 49.1558 136.922 50.1658 135.936C51.5126 133.964 53.5327 132.32 54.8794 130.347C55.8894 129.032 56.8995 127.717 57.9095 126.731C58.2462 126.402 58.2462 126.074 58.2462 126.074C58.2462 125.745 58.5829 125.745 58.5829 125.416C58.9196 125.087 58.9196 125.087 58.9196 125.087C59.2563 124.43 59.9296 123.772 60.2663 123.444C60.9397 122.129 61.9497 120.814 62.6231 119.499C62.6231 118.841 62.6231 118.841 62.2864 118.513C60.603 116.869 58.9196 115.225 57.5729 113.91C57.2362 113.581 57.2362 113.581 56.8995 113.91C56.5628 114.239 56.5628 114.568 56.2261 114.568C55.5528 115.554 54.206 116.211 53.5327 117.198C52.5226 118.184 51.5126 119.17 50.5025 120.156C49.4925 121.143 48.4824 122.129 47.1357 122.786C46.4623 123.444 45.7889 124.101 44.7789 124.759C43.0955 126.402 41.4121 127.717 39.7286 129.361C37.7085 131.334 35.6884 132.977 33.6683 134.95C32.3216 135.936 31.3116 137.251 30.3015 138.237C29.2915 138.895 28.2814 139.552 27.2714 140.21C25.9246 141.196 24.9146 142.511 23.5678 143.497C22.8945 144.155 22.2211 145.141 21.2111 145.798C20.201 147.113 19.191 148.428 18.1809 150.072C17.1709 151.716 16.1608 152.702 14.8141 153.688C13.1307 155.003 11.7839 156.647 10.7739 158.619C10.4372 159.277 10.4372 159.277 9.76382 158.619C8.41709 157.633 6.73367 156.976 5.38693 155.989H5.05025C4.71357 156.318 4.37688 156.647 4.0402 156.647C3.70352 156.976 3.36683 156.647 3.03015 156.318C3.03015 156.318 3.03015 155.989 3.36683 155.661C3.36683 155.989 3.36683 155.661 3.36683 155.332C3.36683 155.003 3.36683 154.674 3.03015 154.674C2.69347 154.017 1.68342 153.36 1.01005 153.031V148.1C0.673367 148.428 0.673367 148.757 0.673367 148.757C0.336683 148.757 0.336683 149.086 0.336683 149.086V150.072C0.336683 151.716 0.673367 153.031 0.673367 154.674V184.262V184.919H1.68342C1.68342 185.577 1.34673 185.905 1.34673 186.234C1.68342 187.549 1.68342 188.535 1.68342 189.521V190.179C2.0201 190.508 2.35678 190.508 2.69347 190.836C2.69347 190.836 2.69347 191.165 3.03015 191.494C3.03015 191.823 3.03015 192.151 3.36683 191.823L3.70352 192.151C4.0402 192.809 4.37688 192.809 4.0402 193.795C4.37688 193.795 4.71357 193.795 4.71357 194.453C4.37688 194.453 4.71357 194.781 4.71357 194.781C5.05025 195.11 5.05025 195.439 5.05025 195.439C5.38693 196.096 5.38693 196.096 5.72362 196.096C6.39699 194.453 6.39699 194.781 6.39699 194.781C6.73367 194.781 6.73367 195.11 6.73367 195.11C6.73367 195.768 7.07035 196.096 7.07035 196.425C7.40703 196.425 7.74372 196.754 8.0804 197.083C7.74372 197.083 7.74372 197.411 7.74372 197.74C8.0804 198.069 8.0804 198.069 8.41709 197.74H8.75377C9.09045 197.74 9.42714 198.069 9.76382 198.069H10.7739C11.1106 198.398 12.1206 198.398 12.4573 198.726C13.4673 198.726 14.4774 199.055 15.1508 199.055C16.4975 199.384 17.5075 199.713 19.191 199.384H20.201L20.5377 199.713C20.8744 199.713 21.5477 199.713 22.2211 200.041V199.384C22.8945 200.041 23.5678 200.041 23.5678 199.713H23.9045C24.2412 200.041 24.2412 200.041 24.5779 200.041C24.9146 199.713 24.9146 199.713 25.2513 199.713H25.5879C25.9246 199.384 25.9246 199.384 25.9246 199.713C25.9246 200.041 26.2613 200.041 26.2613 200.041C26.598 200.37 27.2714 199.713 27.608 200.041H28.2814C28.6181 200.041 28.6181 200.37 28.9548 200.37C29.2915 200.37 29.9648 200.37 30.3015 200.699C31.3116 200.699 32.3216 201.028 32.995 201.028C33.6683 201.028 34.3417 201.356 35.0151 201.028C35.6884 201.028 36.3618 201.028 37.0352 201.356H37.3719C38.0452 202.014 38.7186 201.685 39.7286 201.356C39.7286 201.356 39.7286 201.028 40.0653 201.028C40.402 201.356 41.4121 201.356 42.0854 201.356C42.4221 201.356 42.4221 201.356 42.4221 201.028C42.7588 200.699 42.7588 200.699 42.7588 201.028L43.0955 201.356C43.4322 201.356 43.7688 201.028 44.1055 201.028C44.7789 201.356 45.7889 201.356 46.4623 201.685C46.799 201.685 47.1357 202.014 47.809 201.028C48.1457 201.685 48.4824 201.685 49.1558 201.685C49.4925 202.014 50.1658 201.685 50.5025 201.685C50.8392 201.685 51.1759 201.356 51.8492 201.356C52.5226 201.685 53.196 201.685 53.8693 201.685H54.206C54.8794 201.356 55.5528 201.356 56.2261 201.685C56.5628 202.014 56.5628 202.014 56.8995 201.685C57.2362 201.685 57.2362 201.685 57.2362 202.014C57.5729 202.343 57.9095 202.342 58.2462 202.342C58.5829 202.342 59.2563 202.014 59.593 202.014C59.9296 202.014 60.603 202.342 60.9397 202.342C61.2764 202.342 61.2764 202.343 61.2764 202.014C61.6131 202.671 61.9497 202.671 62.2864 202.671C62.6231 202.343 62.6231 202.014 62.6231 202.014C62.9598 202.014 62.9598 202.343 62.9598 202.671L63.2965 203C63.6332 203 63.6332 202.671 63.6332 202.671C63.9698 202.343 64.6432 202.343 64.9799 203C65.3166 202.671 65.6533 202.671 65.99 202.342L66.3266 202.671C66.6633 202.014 67 202.014 67.6734 202.342C68.01 202.342 68.3467 202.671 68.6834 202.014V201.685C69.0201 201.685 69.3568 202.014 69.6935 202.014C70.0302 202.014 70.7035 202.342 71.0402 201.685H74.0704C74.407 202.342 75.0804 202.014 75.4171 202.014C75.7538 202.014 75.7538 202.014 75.7538 201.685C76.0905 201.356 76.0905 201.356 76.4271 201.685C76.4271 202.014 76.7638 202.014 76.7638 202.014C77.4372 202.014 78.1105 202.014 78.7839 201.685C79.1206 201.685 79.4573 201.685 79.794 201.356C80.1307 201.356 80.1307 201.356 80.1307 201.028C80.4673 201.028 80.4673 200.699 80.804 201.028H81.1407C81.8141 201.028 82.8241 200.699 83.4975 200.699H83.8342C84.1709 200.699 84.5075 200.699 85.1809 200.37H85.5176C85.8543 200.041 85.8543 200.041 86.191 200.041V200.699C86.191 201.028 86.5276 201.028 86.5276 201.028H86.8643C87.201 201.356 87.5377 201.685 88.2111 201.685H89.2211C89.5578 201.685 89.5578 201.356 89.8945 201.356C89.8945 201.356 90.2312 201.685 90.5678 201.685H90.9045C91.2412 201.685 91.5779 201.685 91.5779 201.028C91.9146 201.356 92.2513 201.356 92.2513 201.356C92.5879 201.685 92.9246 201.685 93.2613 201.356H93.598C94.608 201.028 95.2814 201.685 95.9548 200.699C96.2915 200.37 96.2915 200.37 96.2915 200.041C97.3015 199.713 97.6382 199.055 97.9749 198.398L98.3116 199.055C98.6482 198.726 98.6482 198.726 99.3216 198.726H99.6583C99.995 199.055 101.005 199.055 101.005 199.713C101.342 200.041 101.678 200.37 102.015 200.37C102.352 200.699 102.688 200.699 103.025 200.699C103.025 200.37 103.362 200.041 103.362 200.37C103.698 200.041 103.698 199.713 104.372 199.713C104.709 199.384 105.045 199.384 105.719 199.055C106.055 199.055 106.392 198.726 106.392 198.398C106.392 198.398 106.729 198.398 106.392 198.398H107.739C108.412 198.726 109.085 198.398 109.759 198.726C110.432 199.055 111.106 199.055 112.116 199.055C113.126 199.055 114.472 199.055 115.482 198.726C115.482 198.398 115.819 198.726 115.819 198.398V199.055C115.819 199.713 116.156 200.37 116.492 200.699C116.829 201.028 116.829 201.028 116.829 201.028C117.166 201.356 117.166 201.356 117.166 201.028C117.503 201.028 117.839 200.699 118.176 200.699C118.849 201.028 119.523 200.699 120.196 200.37C120.533 200.37 120.869 200.041 121.543 199.713C121.879 199.713 121.879 199.384 121.879 199.384C122.216 198.726 122.553 198.398 123.226 197.74L123.563 198.069C123.899 197.74 123.9 197.411 124.236 197.411C124.236 197.083 124.573 196.754 124.573 197.083C124.91 197.083 124.91 197.083 124.91 196.754C125.246 196.425 125.246 196.096 125.583 195.768C125.92 195.768 125.92 195.439 125.92 195.439C126.593 195.768 126.593 195.768 126.93 195.11C127.266 195.11 127.266 194.781 127.266 194.781C127.94 194.781 127.94 194.124 127.94 193.795V193.138C127.94 192.809 127.94 192.48 128.276 192.48C128.95 192.809 129.96 192.809 130.97 192.809V192.151V167.824H134ZM1.01005 44.5449V43.8875V44.5449ZM1.01005 45.8599C1.01005 46.1887 1.01005 46.1887 1.01005 45.8599V45.8599ZM87.201 62.6259C86.8643 62.9547 86.8643 63.2834 86.8643 63.9409C87.201 64.5984 86.5276 64.9271 86.191 65.2559H85.5176C84.8442 65.2559 84.1709 65.5846 83.8342 65.9134C83.4975 66.2421 82.8241 66.5709 82.1507 67.2283C81.8141 67.2283 81.8141 67.5571 81.4774 67.8858C81.1407 68.5433 80.1307 68.8721 79.1206 68.5433C78.7839 68.5433 78.1106 68.5433 77.7739 68.8721C77.4372 69.2008 77.4372 69.2008 77.1005 69.2008C76.4271 69.5295 76.0905 69.8583 75.7538 70.5158L75.4171 70.8445C74.7437 70.187 74.7437 70.187 73.7337 70.187C73.0603 70.187 72.7236 69.5295 72.3869 69.2008C72.0503 68.8721 72.0502 68.5433 72.0502 68.2146C71.7136 67.8858 71.3769 67.5571 71.0402 67.5571C70.7035 66.8996 70.3668 66.5708 69.6935 65.9134C69.3568 65.5846 69.3568 65.2559 69.3568 65.2559V64.5984C69.6935 63.9409 69.3568 63.6121 68.6834 63.2834C68.3467 62.6259 68.3467 61.6397 68.0101 61.3109C68.0101 60.9822 68.01 60.6534 67.6734 60.6534C67.3367 59.996 67.3367 59.3385 66.6633 59.0097C66.3266 58.3522 65.99 57.6947 65.99 57.0372V56.3798C65.6533 56.051 65.6533 55.7223 65.6533 55.0648C65.6533 54.736 65.3166 54.736 65.3166 54.736C65.3166 54.4073 64.9799 54.0785 64.9799 54.0785C64.9799 54.0785 64.9799 53.7498 64.6432 53.4211C64.3065 53.0923 64.6432 52.7636 64.6432 52.7636L64.3065 52.4348C63.9698 52.1061 63.9698 51.7773 63.9698 51.7773C63.9698 51.7773 63.6332 51.1198 63.9698 50.4623C64.3065 50.1336 64.6432 49.8049 65.3166 49.8049C65.6533 49.8049 65.99 49.8049 66.3266 50.1336C66.6633 50.4623 67.3367 50.7911 67.6734 50.4623C68.3467 50.4623 69.0201 50.1336 70.0302 50.1336C70.3668 49.8049 70.7035 50.1336 71.3769 50.4623C71.7136 49.8049 72.0503 49.8049 72.7236 50.1336C73.0603 50.4623 73.7337 50.4623 74.0704 50.4623C74.407 50.1336 75.0804 50.4623 75.4171 51.1198L75.7538 51.4486H77.1005C77.4372 51.4486 77.7739 51.4486 78.1106 51.7773C78.4472 51.7773 78.4472 52.1061 79.1206 52.1061C79.4573 52.1061 79.4573 51.7773 80.1307 51.7773C80.4673 51.7773 80.804 52.1061 81.1407 52.1061C81.8141 52.1061 82.4874 52.7636 83.1608 52.7636C83.8342 52.7636 84.1709 53.4211 84.1709 54.0785C84.5075 54.736 84.5075 54.736 84.8442 54.736C85.1809 55.0648 85.1809 55.0648 85.5176 55.3935C85.5176 56.051 86.191 56.051 86.191 56.7085C85.8543 57.366 86.5276 58.0235 86.8643 58.3522L87.201 58.681C87.5377 59.3385 87.5377 59.3385 87.5377 59.996V60.6534C87.5377 60.9822 87.201 60.9822 87.5377 61.3109C87.8744 61.9684 87.5377 62.2972 87.8744 62.9547C87.5377 62.2972 87.201 62.6259 87.201 62.6259Z"
     fill="#D50032"
     id="path2" />
</svg>
