<?xml version="1.0" encoding="UTF-8" standalone="no"?>
<svg
   xmlns:dc="http://purl.org/dc/elements/1.1/"
   xmlns:cc="http://creativecommons.org/ns#"
   xmlns:rdf="http://www.w3.org/1999/02/22-rdf-syntax-ns#"
   xmlns:svg="http://www.w3.org/2000/svg"
   xmlns="http://www.w3.org/2000/svg"
   xmlns:sodipodi="http://sodipodi.sourceforge.net/DTD/sodipodi-0.dtd"
   xmlns:inkscape="http://www.inkscape.org/namespaces/inkscape"
   width="32"
   height="48"
   viewBox="0 0 32 48"
   fill="none"
   version="1.1"
   id="svg4"
   sodipodi:docname="jumping.svg"
   inkscape:version="0.92.1 r15371">
  <metadata
     id="metadata10">
    <rdf:RDF>
      <cc:Work
         rdf:about="">
        <dc:format>image/svg+xml</dc:format>
        <dc:type
           rdf:resource="http://purl.org/dc/dcmitype/StillImage" />
        <dc:title></dc:title>
      </cc:Work>
    </rdf:RDF>
  </metadata>
  <defs
     id="defs8" />
  <sodipodi:namedview
     pagecolor="#ffffff"
     bordercolor="#666666"
     borderopacity="1"
     objecttolerance="10"
     gridtolerance="10"
     guidetolerance="10"
     inkscape:pageopacity="0"
     inkscape:pageshadow="2"
     inkscape:window-width="2880"
     inkscape:window-height="1526"
     id="namedview6"
     showgrid="false"
     inkscape:zoom="4.9166667"
     inkscape:cx="16"
     inkscape:cy="24"
     inkscape:window-x="-11"
     inkscape:window-y="-11"
     inkscape:window-maximized="1"
     inkscape:current-layer="svg4" />
  <path
     d="M31.6327 43.5846C31.7124 43.3456 31.6327 43.1066 31.553 42.8675C31.6327 42.8675 31.6327 42.7878 31.6327 42.7082C31.553 42.4691 31.553 42.2301 31.6327 41.991C31.6327 41.8317 31.6327 41.8317 31.553 41.752C31.4734 41.5926 31.3937 41.513 31.314 41.3536L31.1546 41.1942C31.075 41.1146 31.075 41.1146 31.075 41.1146C30.9953 40.9552 30.9953 40.8755 30.9953 40.7162C30.9953 40.5568 30.9953 40.3975 30.9156 40.3178V40.1584C30.9953 40.0787 30.9953 39.9991 30.9156 39.9991V39.9194C30.9156 39.8397 30.9156 39.76 30.8359 39.76C30.9156 39.6803 30.9156 39.6007 30.9156 39.6007C30.8359 39.6007 30.8359 39.521 30.8359 39.521C30.7563 39.2819 30.7562 39.1226 30.9156 38.9632C30.9953 38.8039 30.9953 38.7242 31.075 38.6445C31.1546 38.4851 31.314 38.3258 31.3937 38.1664V38.0868C31.4734 38.0071 31.4734 37.9274 31.553 37.8477C31.6327 37.6884 31.6327 37.529 31.6327 37.3696V37.1306V36.9712C31.7124 36.7322 31.6327 36.4932 31.6327 36.2541C31.6327 35.9354 31.553 35.6964 31.6327 35.4573C31.6327 35.298 31.6327 35.2183 31.553 35.0589C31.553 34.9793 31.4734 34.8996 31.4734 34.7402C31.3937 34.5809 31.3937 34.5012 31.4734 34.3418C31.4734 34.1825 31.4734 34.1028 31.3937 34.0231C31.314 33.8637 31.3937 33.7841 31.3937 33.6247C31.3937 33.545 31.4734 33.4653 31.4734 33.3857C31.4734 33.306 31.4734 33.2263 31.553 33.2263L31.6327 33.1466C31.553 33.0669 31.6327 32.9873 31.6327 32.9873C31.7124 32.9076 31.7124 32.8279 31.7124 32.8279C31.6327 32.6686 31.6327 32.6686 31.6327 32.5889V31.4734V30.2782V29.6407V29.0033C31.6327 28.8439 31.553 28.6049 31.553 28.3659V27.9675V27.2504V26.6129V26.0552V25.2584C31.553 25.099 31.4734 24.86 31.4734 24.6209V23.9835V23.107V22.4696V21.5931C31.4734 21.2744 31.3937 21.0354 31.3937 20.7963V19.9995V19.3621V18.7247V18.0075C31.3937 17.6888 31.314 17.3701 31.314 17.1311V16.4936V15.5375V14.661V14.422C31.2343 14.3423 31.2343 14.2626 31.2343 14.1829V9.08345C31.2343 9.00377 31.2343 8.92409 31.1546 8.92409V8.76473V8.1273V7.25083V6.53371C31.1546 6.29467 31.075 5.97596 31.075 5.65724V5.0198V4.46205V3.74493V3.1075C31.075 2.86846 31.075 2.7091 30.9953 2.47006V1.67327C31.075 1.67327 31.075 1.67327 30.9953 1.67327C30.8359 1.43423 30.6766 1.27487 30.5969 1.03583C30.5969 0.956153 30.5172 0.876473 30.5172 0.876473C30.3578 0.796794 30.1985 0.717115 30.1188 0.478076C30.0391 0.398397 29.8798 0.318718 29.8001 0.398397C29.7204 0.398397 29.6407 0.398397 29.5611 0.318718C29.4814 0.318718 29.4814 0.239038 29.4017 0.239038H29.322C29.2423 0.159359 29.1627 0.159359 29.0033 0.159359H28.2862H27.6488H27.0113H26.2942C26.2145 0.159359 26.2145 0.159359 26.1348 0.239038C26.1348 0.318718 26.0552 0.318718 25.9755 0.159359L25.8958 0.0796794C25.8161 0.0796794 25.8161 0 25.7364 0H25.6568C25.5771 0.0796794 25.5771 0.0796794 25.4974 0.0796794C25.1787 0.159359 24.86 0.159359 24.5413 0.159359H23.9038H23.2664H22.6289H22.0712C21.9915 0.159359 21.8322 0.159359 21.7525 0.239038H21.4338H20.7963H20.1589H19.6011H18.9637H18.3263H17.5295H16.892H16.2546H15.6968H15.0594H14.3423H13.4658H12.7487H12.1113H11.7129H11.6332C11.5535 0.159359 11.5535 0.159359 11.4738 0.239038H11.1551H10.5974C10.5177 0.239038 10.5177 0.318718 10.5177 0.318718C10.3583 0.398397 10.3583 0.398397 10.199 0.398397H9.24281C9.00377 0.398397 8.76473 0.478076 8.5257 0.478076C8.44602 0.557756 8.28666 0.478076 8.20698 0.557756C8.1273 0.557756 8.04762 0.478076 7.96794 0.557756C7.88826 0.557756 7.7289 0.478076 7.64922 0.398397C7.48986 0.239038 7.48986 0.239038 7.41018 0.239038C7.17115 0.239038 6.93211 0.318718 6.77275 0.318718H6.05563C5.8166 0.318718 5.65724 0.398397 5.4182 0.398397H5.0198L4.94012 0.478076C4.94012 0.557756 4.86044 0.637435 4.86044 0.557756C4.70108 0.398397 4.62141 0.398397 4.54173 0.398397C4.30269 0.478076 4.14333 0.478076 3.90429 0.478076H3.18718H2.94814C2.86846 0.478076 2.86846 0.478076 2.7091 0.398397C2.62942 0.398397 2.62942 0.398397 2.62942 0.478076C2.62942 0.637435 2.54974 0.637435 2.47006 0.637435C2.39038 0.478076 2.3107 0.478076 2.23102 0.557756H2.07166V0.717115C1.99198 0.637435 1.99198 0.637435 1.99198 0.637435C1.99198 0.557756 1.91231 0.557756 1.91231 0.478076C1.83263 0.478076 1.83263 0.557756 1.83263 0.637435C1.83263 0.717115 1.91231 0.796794 1.91231 0.876473C1.99199 0.876473 1.99198 0.876473 1.99198 0.956153V1.03583C2.07166 1.11551 2.07166 1.19519 2.07166 1.19519H1.99198C1.99198 1.11551 1.91231 1.11551 1.91231 1.03583C1.91231 0.956153 1.91231 0.956153 1.83263 0.876473C1.75295 0.876473 1.75295 0.956153 1.75295 1.03583C1.59359 1.03583 1.51391 0.956153 1.43423 0.956153C1.27487 0.956153 1.19519 1.03583 1.03583 1.11551C1.03583 1.19519 0.956153 1.19519 0.956153 1.27487C0.876473 1.51391 0.717115 1.75295 0.478076 1.91231C0.478076 1.99198 0.398397 2.07166 0.398397 2.07166C0.318718 2.23102 0.318718 2.39038 0.159359 2.62942C0.0796794 2.62942 0.0796794 2.62942 0.0796794 2.7091C0.159359 2.94814 0.0796794 3.1075 0.0796794 3.34653C0.0796794 3.42621 0 3.58557 0 3.58557V3.66525V3.82461V4.06365V4.22301V4.6214V4.94012C0 5.33852 0 5.73692 0.0796794 6.13531C0.0796794 6.45403 0 6.93211 0 7.25083C0 7.7289 0.0796794 8.20698 0.0796794 8.68505V9.88025V10.5177V11.1551V11.7926V12.1113V12.7487V13.3861V14.0236V14.661V15.0594V15.9359V16.414C0.159359 16.414 0.159359 16.4936 0.159359 16.4936C0.159359 16.5733 0.0796794 16.5733 0.0796794 16.653C0 16.7327 0 16.8124 0 16.9717V17.9279V18.8043V19.3621V19.4418C0.0796794 19.5215 0 19.6011 0 19.6011V19.7605C0 19.8402 0.0796794 19.9198 0.0796794 19.9198V19.9995C0 20.1589 0 20.2386 0 20.3182V21.2744V21.9118V22.5493V23.1867V23.5851V23.9038V24.5413V25.1787V25.8161V26.3739V27.2504V28.1268V29.083V29.9595C0 30.2782 0.0796794 30.5969 0.0796794 30.9156H0.159359L0.478076 30.7562C0.557756 30.6766 0.557756 30.5969 0.717115 30.5969C0.717115 30.5172 0.717115 30.5172 0.796794 30.5172C0.876473 30.5172 0.956153 30.4375 1.03583 30.3579C1.11551 30.3579 1.27487 30.2782 1.27487 30.1985C1.27487 30.1188 1.35455 30.1188 1.35455 30.1188L1.43423 30.0391C1.59359 29.8798 1.75295 29.8001 1.91231 29.7204C1.91231 29.6407 1.99198 29.6407 1.99198 29.5611C2.07166 29.4814 2.15134 29.4814 2.3107 29.4017C2.54974 29.6407 2.54974 29.5611 2.62942 29.5611C2.7091 29.4017 2.7091 29.4017 2.78878 29.4017C2.86846 29.4017 3.02782 29.322 3.1075 29.2423L3.18718 29.1627C3.26686 29.1627 3.26686 29.1627 3.34653 29.083C3.42621 29.0033 3.42621 29.0033 3.42621 29.0033L3.50589 28.9236V28.8439C3.66525 28.8439 3.82461 28.6846 3.90429 28.6049C4.06365 28.5252 4.22301 28.4455 4.30269 28.3659L4.38237 28.2862C4.38237 28.2862 4.38237 28.2065 4.46205 28.1268C4.46205 28.1268 4.54173 28.1268 4.54173 28.0471C4.62141 28.0471 4.62141 28.0471 4.70108 27.9675C4.78076 27.9675 4.78076 27.9675 4.86044 27.8878C4.94012 27.8878 4.94012 27.8878 4.94012 27.8081C5.0198 27.7284 5.17916 27.6488 5.33852 27.6488C5.33852 27.6488 5.4182 27.5691 5.4182 27.4894C5.49788 27.4894 5.49788 27.4097 5.49788 27.4097C5.65724 27.33 5.73692 27.2504 5.8166 27.1707C5.89628 27.091 5.89628 27.0113 6.05563 27.0113C6.29467 27.1707 6.37435 27.1707 6.37435 27.1707C6.29467 27.1707 6.29467 27.091 6.21499 27.091H5.89628C5.8166 27.091 5.8166 27.091 5.73692 27.0113C5.65724 27.0113 5.57756 26.9316 5.49788 26.9316C5.49788 26.852 5.4182 26.852 5.4182 26.7723C5.4182 26.6926 5.49788 26.6129 5.49788 26.6129C5.49788 26.4536 5.4182 26.4536 5.4182 26.3739C5.33852 26.2942 5.09948 26.2145 5.0198 26.2145C5.0198 26.1348 5.0198 26.1348 4.94012 26.0552C4.94012 25.9755 4.86044 25.8958 4.86044 25.8958C4.78076 25.8161 4.70108 25.7364 4.70108 25.7364C4.62141 25.7364 4.62141 25.6568 4.54173 25.6568C4.54173 25.5771 4.46205 25.5771 4.46205 25.4974H4.22301C4.14333 25.4974 4.06365 25.3381 3.98397 25.3381C3.90429 25.3381 3.90429 25.338 3.90429 25.2584C3.82461 25.1787 3.74493 25.099 3.58557 25.099H3.50589H3.42621C3.34653 24.9397 3.1075 25.099 2.94814 25.099C2.86846 25.099 2.86846 25.099 2.86846 25.0193L2.94814 24.9397L3.02782 24.86C3.02782 24.7803 3.02782 24.7006 3.1075 24.7006C3.1075 24.7006 3.18718 24.6209 3.18718 24.5413V24.7803C3.18718 24.7006 3.26686 24.7006 3.26686 24.6209C3.34653 24.6209 3.42621 24.5413 3.42621 24.4616C3.50589 24.3819 3.50589 24.3022 3.58557 24.2225C3.66525 24.2225 3.66525 24.1429 3.66525 24.1429C3.74493 24.0632 3.66525 24.0632 3.74493 23.9835L3.82461 23.9038C3.98397 23.9038 3.98397 23.8241 3.98397 23.8241V23.5851H4.06365C4.06365 23.5054 4.06365 23.4257 4.14333 23.4257C4.22301 23.4257 4.22301 23.2664 4.22301 23.107C4.22301 23.0273 4.22301 22.9477 4.30269 22.9477C4.38237 22.9477 4.38237 22.868 4.38237 22.868C4.46205 22.7883 4.46205 22.7086 4.54173 22.7883C4.54173 22.7883 4.62141 22.7883 4.62141 22.7086C4.70108 22.6289 4.70108 22.629 4.70108 22.5493C4.78076 22.3899 4.86044 22.3899 4.94012 22.5493C5.09948 22.5493 5.17916 22.3899 5.25884 22.3899C5.33852 22.3899 5.33852 22.3102 5.33852 22.3102C5.33852 22.2306 5.4182 22.1509 5.4182 22.1509C5.49788 22.1509 5.57756 21.9915 5.57756 21.9118C5.65724 21.9118 5.65724 21.7525 5.65724 21.7525C5.73692 21.6728 5.73692 21.6728 5.73692 21.6728C5.8166 21.6728 5.89628 21.5931 5.89628 21.5134C5.89628 21.4338 5.97596 21.4338 5.97596 21.4338C6.05563 21.3541 6.05563 21.3541 6.13531 21.2744C6.21499 21.1947 6.29467 21.115 6.37435 20.9557H6.45403C6.53371 20.7963 6.69307 20.7166 6.77275 20.637V20.5573C6.77275 20.4776 6.85243 20.3979 6.85243 20.3979L6.93211 20.3182L7.17115 20.3979C7.25083 20.3182 7.3305 20.2386 7.3305 20.1589H7.41018C7.48986 20.0792 7.48986 20.0792 7.48986 20.0792C7.56954 19.9995 7.56954 19.9198 7.64922 19.8402C7.7289 19.7605 7.88826 19.7605 7.96794 19.6808C8.1273 19.6011 8.28666 19.5215 8.36634 19.3621C8.44602 19.2824 8.60537 19.2027 8.68505 19.1231C8.76473 19.0434 8.84441 18.9637 9.00377 18.9637L9.32249 18.645C9.48185 18.4856 9.64121 18.4856 9.72089 18.3263C9.80057 18.3263 9.80057 18.3263 9.80057 18.4059H9.88025C9.95992 18.2466 10.0396 18.2466 10.199 18.1669C10.2786 18.1669 10.2786 18.0872 10.3583 18.0872C10.438 18.0075 10.5177 17.9279 10.5974 17.9279C10.677 17.7685 10.7567 17.7685 10.8364 17.7685L10.9161 17.6888C10.9958 17.6091 10.9958 17.5295 11.0754 17.5295C11.1551 17.4498 11.1551 17.4498 11.1551 17.3701C11.2348 17.2904 11.2348 17.2904 11.3145 17.2108L11.4738 17.0514C11.5535 16.9717 11.7129 16.892 11.8722 16.892C12.0316 16.9717 12.1909 16.892 12.2706 16.8124C12.2706 16.8124 12.3503 16.8124 12.3503 16.7327C12.43 16.653 12.43 16.5733 12.5893 16.5733C12.5893 16.5733 12.669 16.5733 12.669 16.4936C12.7487 16.4936 12.7487 16.414 12.8284 16.3343H12.9081C12.9877 16.3343 13.0674 16.2546 13.1471 16.1749C13.2268 16.1749 13.2268 16.0952 13.2268 16.0952C13.3065 16.0156 13.3065 15.9359 13.3861 15.9359C13.4658 15.9359 13.4658 15.8562 13.5455 15.7765C13.6252 15.6968 13.6252 15.6968 13.7049 15.6172C13.7845 15.5375 13.7845 15.5375 13.9439 15.4578C14.0236 15.2984 14.1829 15.2984 14.2626 15.2188C14.3423 15.1391 14.3423 15.0594 14.3423 15.0594C14.3423 14.9797 14.3423 14.9797 14.422 14.9797C14.5017 14.9 14.5813 14.8204 14.661 14.7407C14.661 14.661 14.7407 14.661 14.7407 14.5813C14.8204 14.5017 14.8204 14.5017 14.9797 14.422H15.0594C15.3781 14.422 15.6172 14.2626 15.7765 13.9439C15.7765 13.8642 15.8562 13.8642 15.8562 13.7845C15.9359 13.7845 15.9359 13.7049 16.0156 13.7049C16.0156 13.7845 16.0952 13.7049 16.0952 13.6252L16.1749 13.5455C16.2546 13.5455 16.414 13.5455 16.4936 13.4658C16.5733 13.3861 16.5733 13.3861 16.5733 13.3861C16.653 13.2268 16.653 13.2268 16.7327 13.1471C16.7327 13.1471 16.7327 13.0674 16.8124 13.0674C16.9717 12.9877 17.1311 12.9081 17.2108 12.9081L17.2904 12.7487L17.3701 12.669C17.4498 12.5097 17.3701 12.43 17.2904 12.3503C17.2108 12.2706 17.1311 12.3503 17.0514 12.2706H17.5295C17.3701 12.1909 17.2108 12.2706 17.0514 12.3503C16.9717 12.3503 16.9717 12.43 16.9717 12.43C16.9717 12.43 16.8124 12.43 16.7327 12.5097C16.653 12.5893 16.653 12.5893 16.5733 12.5893H16.4936C16.414 12.669 16.414 12.669 16.3343 12.669C16.2546 12.7487 16.0952 12.7487 16.0156 12.8284C15.9359 12.9081 15.6968 12.8284 15.6172 12.9877H15.4578C15.2188 13.5455 15.1391 13.5455 15.1391 13.6252H14.8204C14.7407 13.6252 14.7407 13.6252 14.7407 13.7049C14.661 13.7049 14.5813 13.7845 14.422 13.7845C14.3423 13.7845 14.3423 13.8642 14.3423 13.8642C14.2626 13.8642 14.2626 13.9439 14.1829 13.9439C14.1033 13.9439 14.1033 13.9439 14.1033 14.0236H14.0236H13.5455C13.4658 14.0236 13.3861 14.1033 13.2268 14.1829C13.1471 14.1829 13.1471 14.1829 13.0674 14.2626C12.9877 14.2626 12.9081 14.3423 12.8284 14.422C12.8284 14.422 12.8284 14.5017 12.7487 14.5017C12.669 14.5017 12.5893 14.661 12.5097 14.661C12.43 14.661 12.3503 14.7407 12.2706 14.8204C12.1909 14.8204 12.0316 14.8204 11.9519 14.9H11.8722C11.7926 14.9797 11.7129 15.0594 11.5535 15.0594C11.4738 15.0594 11.4738 15.1391 11.3942 15.1391C11.3145 15.1391 11.2348 15.1391 11.1551 15.2188C10.9958 15.2984 10.8364 15.3781 10.677 15.3781C10.5974 15.4578 10.5974 15.5375 10.5177 15.5375C10.438 15.6172 10.438 15.6172 10.3583 15.6172C10.2786 15.6968 10.2786 15.6968 10.199 15.6172C10.199 15.6172 10.1193 15.6172 10.1193 15.5375C10.1193 15.4578 10.0396 15.4578 10.0396 15.3781C9.95992 15.2984 9.88025 15.2188 9.72089 15.2188C9.64121 15.1391 9.64121 15.1391 9.48185 15.1391C9.40217 15.1391 9.40217 15.2188 9.32249 15.2984C9.24281 15.3781 9.24281 15.4578 9.08345 15.4578C9.00377 15.4578 9.00377 15.5375 8.92409 15.6172C8.84441 15.6968 8.84441 15.6968 8.84441 15.6968C8.68505 15.6172 8.5257 15.5375 8.36634 15.5375C8.28666 15.4578 8.28666 15.4578 8.20698 15.3781V15.2984V15.2188L8.36634 14.8204V14.7407C8.36634 14.661 8.28666 14.661 8.36634 14.5813L8.28666 14.422C8.20698 14.422 8.1273 14.3423 8.04762 14.2626C8.1273 14.2626 8.1273 14.1829 8.1273 14.1033C8.04762 14.1033 8.04762 14.1033 8.04762 14.1829C7.96794 14.1829 7.96794 14.1829 7.96794 14.1033L8.04762 14.0236C8.04762 14.0236 8.1273 14.0236 8.1273 13.9439C8.04762 13.8642 8.04762 13.8642 8.04762 13.9439C7.96794 13.8642 8.04762 13.8642 8.04762 13.7845C8.1273 13.7049 8.1273 13.6252 8.1273 13.6252C8.1273 13.6252 8.1273 13.4658 8.20698 13.4658C8.28666 13.4658 8.28666 13.3861 8.28666 13.3861C8.28666 13.3065 8.20698 13.3065 8.20698 13.3065C8.28666 13.1471 8.20698 13.0674 8.20698 12.9877C8.1273 12.9081 8.1273 12.8284 8.1273 12.8284C7.7289 12.8284 7.7289 12.8284 7.7289 12.7487V12.5893C7.80858 12.43 7.7289 12.3503 7.64922 12.1909C7.56954 12.1113 7.56954 12.0316 7.56954 12.0316C7.56954 11.9519 7.64922 11.8722 7.7289 11.8722C7.88826 11.7129 8.04762 11.7926 8.20698 11.7129C8.28666 11.6332 8.36634 11.6332 8.44602 11.6332C8.5257 11.6332 8.68505 11.6332 8.76473 11.4738C8.76473 11.4738 8.84441 11.4738 8.84441 11.3942C8.92409 11.3942 9.00377 11.3145 9.08345 11.3145H9.16313C9.24281 11.3145 9.32249 11.3145 9.48185 11.2348C9.48185 11.1551 9.56153 11.1551 9.56153 11.1551C9.64121 11.0754 9.72089 11.0754 9.80057 10.9958H9.88025C9.95992 10.9958 10.0396 10.9161 10.1193 10.9161C10.199 10.9161 10.199 10.8364 10.199 10.8364C10.2786 10.7567 10.3583 10.7567 10.438 10.7567L10.7567 10.5974C10.8364 10.5974 10.9161 10.5974 10.9958 10.5177C10.9958 10.438 11.0754 10.438 11.0754 10.438C11.1551 10.3583 11.3145 10.2786 11.3942 10.2786C11.4738 10.199 11.5535 10.199 11.6332 10.1193C11.7926 10.1193 11.9519 9.95992 12.1113 9.95992C12.1909 9.88025 12.3503 9.80057 12.43 9.80057C12.5097 9.72089 12.7487 9.64121 12.9081 9.64121C12.9877 9.56153 13.2268 9.48185 13.3065 9.48185C13.4658 9.48185 13.6252 9.40217 13.7049 9.32249H13.7845C13.8642 9.24281 14.0236 9.16313 14.1033 9.16313H14.2626C14.3423 9.24281 14.5016 9.16313 14.5813 9.16313C14.661 9.08345 14.9 9.00377 14.9797 9.00377C15.0594 8.92409 15.2188 8.92409 15.2984 8.92409C15.2984 8.84441 15.3781 8.84441 15.3781 8.84441H15.6172H15.6968C15.7765 8.84441 15.8562 8.76473 15.9359 8.76473H16.0156H16.7327C16.892 8.68505 17.0514 8.60538 17.2108 8.60538H17.3701C17.4498 8.5257 17.4498 8.60538 17.5295 8.5257C17.6888 8.5257 17.9279 8.5257 18.0872 8.44602C18.2466 8.44602 18.4856 8.44602 18.645 8.36634C18.8043 8.36634 18.9637 8.36634 19.0434 8.28666H19.1231C19.2824 8.28666 19.4418 8.20698 19.6808 8.20698H19.8402C19.9995 8.1273 20.1589 8.1273 20.3979 8.04762C20.4776 8.04762 20.7166 7.96794 20.7963 7.96794C20.876 7.88826 20.876 7.88826 20.9557 7.88826C21.0354 7.80858 21.1947 7.80858 21.2744 7.80858C21.5134 7.7289 21.6728 7.7289 21.9118 7.7289C22.2306 7.64922 22.4696 7.56954 22.7086 7.56954H23.107C23.1867 7.48986 23.1867 7.48986 23.3461 7.48986C23.4257 7.41018 23.5054 7.41018 23.6648 7.3305H23.8241C24.0632 7.25083 24.3022 7.25083 24.5413 7.25083H24.6209C24.7803 7.17115 24.9397 7.25083 25.0193 7.3305C25.0193 7.41018 25.0193 7.41018 25.099 7.41018C25.1787 7.56954 25.1787 7.7289 25.1787 7.88826C25.1787 7.88826 25.2584 7.88826 25.2584 7.96794C25.2584 7.88826 25.338 7.88826 25.338 7.88826C25.4177 7.96794 25.4177 8.04762 25.4177 8.04762C25.4177 8.20698 25.4974 8.28666 25.4974 8.44602C25.4974 8.5257 25.4974 8.60538 25.5771 8.60538V8.68505L25.6568 8.76473C25.6568 8.92409 25.6568 8.92409 25.7364 9.08345C25.7364 9.08345 25.7364 9.16313 25.8161 9.16313C25.8958 9.24281 25.8958 9.32249 25.8958 9.32249C25.8958 9.40217 25.9755 9.48185 25.9755 9.48185C26.0552 9.64121 26.0552 9.64121 26.0552 9.72089C26.1348 9.88025 26.1348 9.88025 26.2145 9.95992C26.2942 10.0396 26.2942 10.1193 26.3739 10.199C26.3739 10.3583 26.4536 10.3583 26.4536 10.5177V10.5974C26.3739 10.677 26.3739 10.7567 26.3739 10.8364V10.9958V11.1551C26.2942 11.3145 26.2942 11.4738 26.1348 11.5535V11.6332C26.1348 11.7926 25.9755 11.7926 25.8161 11.8722C25.7364 11.9519 25.7364 12.0316 25.7364 12.1113C25.7364 12.1909 25.6568 12.2706 25.6568 12.3503H25.5771C25.4974 12.43 25.4974 12.43 25.4974 12.3503H25.338C25.2584 12.3503 25.1787 12.43 25.099 12.43C25.0193 12.43 25.0193 12.43 25.0193 12.5097C24.86 12.5893 24.7006 12.669 24.5413 12.669C24.4616 12.7487 24.4616 12.7487 24.4616 12.7487C24.0632 12.9877 23.6648 13.2268 23.1867 13.3861C23.0273 13.4658 22.868 13.5455 22.7086 13.6252C22.5493 13.7049 22.3899 13.7845 22.2306 13.7845C22.0712 13.9439 21.9118 13.9439 21.6728 14.1033C21.4338 14.2626 21.1947 14.422 20.9557 14.5017C20.7166 14.5813 20.4776 14.8204 20.2386 14.9C20.1589 14.9797 20.0792 15.0594 19.9995 15.0594C19.8402 15.2188 19.6808 15.2984 19.4418 15.4578C19.3621 15.5375 19.3621 15.6172 19.2824 15.6172C19.2027 15.6172 19.0434 15.6968 18.9637 15.7765C18.884 15.8562 18.7247 15.9359 18.645 15.9359C18.4856 16.0952 18.3263 16.1749 18.0872 16.3343C18.3263 16.8124 18.2466 16.8124 18.0872 16.892C17.9279 16.9717 17.8482 17.0514 17.7685 17.1311C17.6888 17.2107 17.6888 17.2108 17.6091 17.2904C17.1311 17.5295 16.7327 17.8482 16.3343 18.1669C16.2546 18.2466 16.2546 18.3263 16.0952 18.3263C16.0156 18.4856 15.7765 18.5653 15.6968 18.645C15.5375 18.8043 15.3781 18.8043 15.2188 18.9637C15.2188 19.0434 15.1391 19.0434 15.1391 19.0434C14.9797 19.1231 14.9 19.2027 14.7407 19.3621C14.661 19.4418 14.5813 19.5215 14.422 19.6011C14.3423 19.6011 14.3423 19.6808 14.2626 19.7605C14.1829 19.9199 14.0236 20.0792 13.8642 20.1589C13.7845 20.3182 13.5455 20.3979 13.3861 20.5573C13.3065 20.637 13.2268 20.7166 13.1471 20.7963C13.0674 20.876 12.9877 20.9557 12.9081 21.0354C12.669 21.1947 12.43 21.3541 12.1909 21.5931C12.1113 21.7525 12.0316 21.7525 11.8722 21.8322C11.7926 21.9915 11.5535 22.0712 11.4738 22.2306C11.3942 22.2306 11.3942 22.3102 11.3145 22.3899C11.2348 22.3899 11.2348 22.5493 11.2348 22.5493C11.1551 22.7086 11.0754 22.7086 10.9161 22.7883L10.7567 22.9477C10.677 23.0273 10.677 23.0273 10.5974 23.0273L10.438 23.1867L10.3583 23.3461C10.2786 23.3461 10.2786 23.4257 10.199 23.5054L10.0396 23.6648C10.0396 23.6648 10.0396 23.7445 9.95992 23.8241C9.88025 23.8241 9.88025 23.6648 9.88025 23.7445V23.9038C9.88025 23.9038 9.80057 23.9038 9.80057 23.9835C9.72089 23.9835 9.72089 24.0632 9.72089 24.1429C9.64121 24.1429 9.64121 24.1429 9.64121 24.2225C9.64121 24.3022 9.48185 24.3819 9.40217 24.3819C9.32249 24.3819 9.32249 24.5413 9.32249 24.5413V24.6209C9.24281 24.7006 9.16313 24.7803 9.00377 24.86C8.92409 25.0193 8.84441 25.099 8.76473 25.1787C8.68505 25.338 8.60538 25.338 8.5257 25.4974C7.96794 25.099 7.96794 25.099 7.96794 25.2584C7.88826 25.338 7.80858 25.4177 7.7289 25.5771C7.7289 25.6568 7.64922 25.7364 7.64922 25.8958C7.56954 25.9755 7.64922 25.9755 7.64922 26.0552C7.7289 26.1348 7.7289 26.0552 7.7289 26.0552L8.04762 25.8958C8.1273 25.8161 8.28666 25.7364 8.36634 25.6568C8.44602 25.5771 8.44602 25.4974 8.60538 25.4974H8.76473H8.84441C8.92409 25.4974 8.92409 25.4177 9.00377 25.3381C9.08345 25.2584 9.08345 25.1787 9.24281 25.1787C9.32249 25.1787 9.32249 25.099 9.32249 25.099C9.40217 25.0193 9.40217 24.9397 9.56153 24.9397C9.64121 24.7803 9.72089 24.7803 9.88025 24.7803C9.95992 24.7006 9.95992 24.7006 9.95992 24.6209C9.95992 24.6209 10.0396 24.6209 10.0396 24.5413C10.1193 24.5413 10.1193 24.5413 10.1193 24.4616C10.199 24.3819 10.3583 24.3022 10.438 24.3022C10.5177 24.1429 10.5974 24.1429 10.7567 24.0632H10.8364C10.9161 23.9038 11.1551 23.9038 11.2348 23.7445C11.3145 23.7445 11.3145 23.7445 11.3145 23.6648C11.3942 23.6648 11.3942 23.5851 11.4738 23.5054L11.5535 23.4257C11.6332 23.2664 11.8722 23.2664 11.9519 23.107C12.0316 22.9477 12.1909 22.9477 12.2706 22.9477C12.43 22.7883 12.5893 22.7883 12.669 22.7086C12.8284 22.5493 12.9877 22.3899 13.2268 22.3102C13.3065 22.2306 13.3861 22.1509 13.4658 22.1509C13.5455 22.0712 13.7845 21.9915 13.8642 21.9118C13.9439 21.9118 13.9439 21.8322 13.9439 21.8322L14.0236 21.7525C14.0236 21.6728 14.0236 21.6728 14.1033 21.6728C14.1829 21.5134 14.3423 21.5134 14.422 21.3541C14.661 21.1947 14.9 21.0354 15.1391 20.876L15.2188 20.7963C15.2188 20.7963 15.2984 20.7166 15.3781 20.637C15.4578 20.5573 15.4578 20.4776 15.6172 20.4776C15.6172 20.3979 15.6172 20.3979 15.6968 20.3979C15.6968 20.3182 15.7765 20.3182 15.7765 20.3182C15.8562 20.3182 15.9359 20.1589 16.0952 20.0792L16.1749 19.9995C16.2546 19.9995 16.3343 19.9198 16.4936 19.8402C16.653 19.7605 16.8124 19.6808 16.892 19.6011C16.9717 19.5215 16.9717 19.5215 17.0514 19.4418C17.1311 19.3621 17.1311 19.2824 17.2904 19.2824L17.3701 19.1231C17.5295 18.9637 17.6888 18.884 17.8482 18.7247C17.9279 18.7247 17.9279 18.7247 17.9279 18.645H18.0075C18.0872 18.645 18.0872 18.5653 18.0872 18.4856C18.1669 18.4856 18.1669 18.4059 18.2466 18.4059C18.2466 18.4059 18.2466 18.3263 18.3263 18.3263C18.3263 18.2466 18.4059 18.2466 18.4059 18.1669C18.5653 18.1669 18.645 18.0075 18.8043 18.0075C18.884 18.0075 18.884 17.9279 18.9637 17.9279C19.0434 17.8482 19.1231 17.7685 19.2027 17.6888C19.2824 17.5295 19.5215 17.4498 19.6011 17.2904C19.6808 17.2904 19.7605 17.2107 19.8402 17.1311C19.9198 17.1311 19.9199 17.0514 19.9995 16.9717C20.0792 16.892 20.1589 16.8124 20.2386 16.8124C20.3182 16.8124 20.3979 16.7327 20.4776 16.653C20.5573 16.5733 20.637 16.4936 20.7166 16.4936C20.7963 16.4936 20.7963 16.414 20.7963 16.414C20.876 16.3343 20.876 16.2546 20.9557 16.2546C21.0354 16.1749 21.0354 16.1749 21.115 16.0952C21.1947 16.0952 21.1947 16.0156 21.1947 16.0156C21.2744 15.9359 21.4338 15.8562 21.5134 15.8562C21.5931 15.6968 21.7525 15.6968 21.8322 15.6172L22.1509 15.4578C22.2306 15.3781 22.2306 15.2984 22.3899 15.2984C22.3899 15.2188 22.4696 15.2188 22.4696 15.1391C22.629 14.9797 22.7883 14.8204 22.9477 14.7407C23.0273 14.661 23.0273 14.661 23.0273 14.661L23.107 14.5813C23.1867 14.5017 23.1867 14.422 23.2664 14.5017L23.3461 14.422C23.4257 14.3423 23.4257 14.2626 23.5054 14.2626C23.5851 14.2626 23.5851 14.1829 23.7445 14.1033L23.8241 14.0236C23.8241 14.0236 23.9038 13.9439 23.9038 13.8642L23.9835 13.7845L24.0632 13.7049C24.1429 13.6252 24.1429 13.6252 24.2225 13.6252V13.7049C24.1429 13.8642 24.1429 13.9439 24.1429 14.1033C24.0632 14.2626 23.9835 14.5016 23.9038 14.661V14.7407L23.7445 15.2984C23.7445 15.3781 23.7445 15.3781 23.6648 15.4578C23.5851 15.6172 23.5054 15.6968 23.4257 15.8562C23.4257 15.8562 23.4257 15.9359 23.3461 15.9359C23.2664 16.0156 23.2664 16.0156 23.1867 16.0952C23.107 16.1749 23.107 16.1749 22.9477 16.1749C22.868 16.1749 22.868 16.2546 22.868 16.3343C22.7883 16.414 22.7086 16.4936 22.6289 16.4936C22.5493 16.4936 22.5493 16.5733 22.5493 16.5733H22.4696C22.4696 16.653 22.3899 16.653 22.3899 16.653C22.3899 16.653 22.3102 16.653 22.2306 16.7327C22.1509 16.8124 22.1509 16.8124 22.0712 16.8124C21.9915 16.892 21.9118 16.9717 21.7525 16.9717C21.7525 17.0514 21.6728 17.1311 21.6728 17.1311C21.5931 17.2107 21.5931 17.2108 21.5134 17.2904H21.4338C21.4338 17.4498 21.3541 17.4498 21.2744 17.4498C21.1947 17.4498 21.1947 17.5295 21.115 17.5295C21.115 17.6091 21.0354 17.6091 21.0354 17.6888C20.9557 17.6091 20.9557 17.6091 20.876 17.6888C20.7963 17.7685 20.7963 17.7685 20.7963 17.7685C20.7963 17.7685 20.7166 17.7685 20.7166 17.8482C20.637 17.9279 20.4776 18.0075 20.3979 18.0075C20.3182 18.0075 20.3182 18.0872 20.2386 18.1669C20.1589 18.2466 20.1589 18.2466 20.0792 18.3263C19.9995 18.4059 19.9995 18.4856 19.9198 18.4856C19.8402 18.5653 19.7605 18.5653 19.6011 18.645C19.5215 18.7247 19.5215 18.8043 19.4418 18.8043C19.4418 18.884 19.3621 18.884 19.3621 18.884C19.2824 18.9637 19.2824 19.0434 19.1231 19.0434C19.1231 19.0434 19.1231 19.1231 19.0434 19.1231C18.9637 19.1231 18.884 19.2824 18.7247 19.2824H18.645C18.645 19.4418 18.5653 19.4418 18.4059 19.5215H18.3263C18.2466 19.6808 18.0872 19.6808 18.0075 19.6808C17.9279 19.7605 17.9279 19.8402 17.8482 19.8402C17.7685 19.8402 17.7685 19.9995 17.6888 19.9995C17.6091 19.9995 17.6091 19.9995 17.6091 20.0792C17.5295 20.2386 17.2904 20.3182 17.1311 20.4776C17.0514 20.4776 17.0514 20.5573 16.9717 20.637C16.892 20.7166 16.8124 20.7963 16.653 20.7963C16.5733 20.876 16.5733 20.876 16.4936 20.7166C16.414 20.7963 16.4936 20.7963 16.4936 20.876C16.414 20.9557 16.414 21.0354 16.3343 21.0354C16.2546 21.115 16.0952 21.1947 16.0156 21.2744C15.9359 21.2744 15.8562 21.3541 15.7765 21.4338C15.6968 21.5134 15.6172 21.5931 15.5375 21.5931C15.4578 21.6728 15.4578 21.7525 15.3781 21.7525C15.3781 21.8322 15.2984 21.8322 15.2984 21.8322C15.2984 21.8322 15.2188 21.9118 15.1391 21.9915C15.0594 22.0712 14.9797 22.1509 14.9 22.1509C15.1391 22.3102 15.1391 22.3102 15.0594 22.3899C14.9797 22.4696 14.9797 22.3899 14.9 22.3899C14.9 22.4696 14.8204 22.4696 14.8204 22.4696H14.7407C14.661 22.629 14.422 22.7883 14.2626 22.868C14.1829 22.9477 14.1829 22.9477 14.1033 23.0273C14.0236 23.107 14.0236 23.107 13.9439 23.107C13.8642 23.1867 13.7845 23.2664 13.6252 23.3461C13.6252 23.4257 13.5455 23.4257 13.5455 23.5054C13.4658 23.5054 13.3861 23.5851 13.2268 23.6648C13.1471 23.7445 13.0674 23.8241 13.0674 23.9038C13.0674 23.9835 12.9877 24.0632 12.9081 24.0632C12.8284 23.9835 12.8284 24.0632 12.7487 24.0632V23.9038C12.5893 24.0632 12.43 24.1429 12.1909 24.3022C12.1113 24.3022 12.1113 24.3819 12.0316 24.3819C11.9519 24.5413 11.8722 24.5413 11.7129 24.5413H11.6332C11.5535 24.7006 11.3942 24.7803 11.3145 24.86C11.2348 24.86 11.2348 24.9397 11.1551 25.0193H11.0754C11.0754 25.099 11.0754 25.099 10.9958 25.099C10.9161 25.2584 10.8364 25.2584 10.677 25.3381C10.5974 25.4177 10.5177 25.4177 10.438 25.4974H10.3583C10.2786 25.4974 10.1193 25.5771 10.0396 25.6568C9.88025 25.7364 9.72089 25.8161 9.64121 25.8958C9.56153 25.9755 9.56153 25.9755 9.48185 26.0552L9.32249 26.2145C9.24281 26.2145 9.08345 26.2942 9.00377 26.3739C8.92409 26.3739 8.84441 26.3739 8.76473 26.3739C8.68505 26.4536 8.68505 26.4536 8.68505 26.4536C8.60537 26.6129 8.5257 26.6129 8.44602 26.6926C8.36634 26.7723 8.20698 26.852 8.1273 26.852C7.96794 26.9316 7.96794 26.9316 7.96794 27.0113C7.96794 27.0113 7.88826 27.091 7.80858 27.091C7.80858 27.091 7.7289 27.1707 7.7289 27.2504H7.64922C7.56954 27.33 7.56954 27.4097 7.41018 27.4097C7.41018 27.4894 7.3305 27.4894 7.3305 27.5691C7.25082 27.5691 7.25083 27.6488 7.25083 27.7284C7.17115 27.8081 7.17115 27.8081 7.09147 27.8081C7.01179 27.8081 7.01179 27.8878 7.01179 27.8878L6.93211 27.9675L6.85243 28.0471C6.69307 27.9675 6.61339 27.9675 6.53371 27.9675C6.45403 27.9675 6.37435 28.1268 6.29467 28.2065L5.73692 28.6049L5.57756 28.6846V28.7643C5.57756 28.7643 5.49788 28.8439 5.4182 28.8439C5.33852 28.8439 5.33852 28.9236 5.33852 28.9236C5.25884 29.0033 5.25884 29.0033 5.25884 29.083C5.17916 29.083 5.17916 29.1627 5.17916 29.1627H4.94012C4.86044 29.322 4.78076 29.322 4.62141 29.322C4.62141 29.4814 4.54173 29.4814 4.54173 29.4814C4.46205 29.5611 4.22301 29.6407 4.14333 29.6407C4.14333 29.6407 4.06365 29.6407 4.06365 29.7204H3.98397C3.90429 29.8001 3.74493 29.8798 3.66525 29.9595C3.66525 29.9595 3.66525 30.0391 3.58557 30.0391C3.50589 30.1985 3.50589 30.1985 3.34653 30.1985H3.18718H3.1075V30.2782C2.94814 30.4375 2.78878 30.5172 2.54974 30.6766C2.54974 30.7562 2.47006 30.7562 2.47006 30.8359H2.3107C2.23102 30.9953 2.15134 31.075 1.99198 31.1546C1.99198 31.1546 1.99199 31.2343 1.91231 31.2343C1.83263 31.314 1.67327 31.4734 1.51391 31.553C1.51391 31.553 1.43423 31.553 1.43423 31.6327C1.35455 31.6327 1.35455 31.7124 1.19519 31.7921L1.03583 31.9514C0.876473 31.7921 0.796794 31.7921 0.796794 31.8718L0.478076 32.0311C0.398397 32.1108 0.318718 32.1905 0.239038 32.1905C0.159359 32.2702 0.159359 32.2702 0.159359 32.3498V37.4493V38.0868V38.6445C0.0796794 38.8039 0.159359 38.8039 0.239038 38.8039C0.318718 38.8835 0.318718 38.9632 0.318718 39.0429V39.3616V39.4413V39.6007V39.9194L0.239038 40.0787V40.2381V41.3536V42.5488V43.4253V44.3017V45.1782V45.8157V45.975C0.318718 46.1344 0.318718 46.2937 0.398397 46.3734C0.478076 46.5328 0.637435 46.6921 0.717115 46.8515C0.717115 46.9312 0.796794 47.0108 0.796794 47.0905C0.796794 47.0108 0.796794 47.1702 0.876473 47.2499C0.956153 47.3296 0.956153 47.4092 1.11551 47.4092C1.43423 47.4092 1.75295 47.5686 1.91231 47.8076C1.99199 47.8873 1.99198 47.967 2.15134 47.967H2.47006C2.54974 47.967 2.7091 47.967 2.78878 47.8873H2.86846C2.94814 47.967 2.94814 47.967 3.1075 47.967H3.34653C3.58557 47.967 3.82461 47.967 4.06365 47.8873C4.14333 47.8873 4.14333 47.8873 4.22301 47.8076C4.30269 47.8873 4.46205 47.8873 4.62141 47.8873C4.62141 47.8873 4.70108 47.8873 4.70108 47.8076H4.78076C4.86044 47.8873 5.0198 47.967 5.09948 47.967H5.57756C5.65724 47.967 5.65724 47.967 5.73692 47.8076C5.73692 47.728 5.8166 47.728 5.8166 47.6483L5.97596 47.8873C6.05563 47.967 6.05563 48.0467 6.13531 47.967H6.21499C6.45403 47.967 6.61339 47.8873 6.77275 47.728C6.85243 47.6483 6.85243 47.5686 6.85243 47.5686L6.93211 47.4092L7.01179 47.2499C7.09147 47.3296 7.17115 47.4092 7.25083 47.4889C7.3305 47.5686 7.3305 47.6483 7.3305 47.728C7.41018 47.8076 7.41018 47.8873 7.56954 47.8873H7.88826H8.1273C8.20698 47.8873 8.20698 47.8076 8.20698 47.8873H8.5257H8.84441H9.56153H10.5177H11.3942H12.0316H12.5893H13.3065H13.3861L13.4658 47.8076C13.7049 47.8873 13.9439 47.8873 14.1829 47.8873H14.9H15.5375H16.0952H16.7327C16.892 47.8873 17.1311 47.8076 17.3701 47.8076H17.4498H17.7685H18.1669H18.4856H19.9198H19.9995H20.3182C20.4776 47.8873 20.7166 47.8076 20.876 47.8076H21.1947C21.2744 47.8076 21.4338 47.728 21.5134 47.6483H21.6728H21.7525C21.8322 47.8076 21.8322 47.8076 21.9915 47.8076H22.3899C22.4696 47.8076 22.4696 47.8076 22.4696 47.728C22.3899 47.6483 22.3899 47.5686 22.3899 47.4092C22.4696 47.3296 22.5493 47.4092 22.6289 47.4889C22.6289 47.5686 22.6289 47.6483 22.7086 47.6483C22.7883 47.728 22.7883 47.728 22.7883 47.6483C22.7883 47.5686 22.868 47.5686 22.9477 47.5686V47.728C22.9477 47.8076 22.9477 47.8873 23.0273 47.8873H23.5851H24.3022H24.5413C24.6209 47.728 24.5413 47.6483 24.4616 47.5686C24.5413 47.4092 24.5413 47.4092 24.6209 47.4889C24.7006 47.5686 24.7006 47.6483 24.7006 47.6483H24.7803H24.86C24.86 47.728 24.7803 47.8076 24.7803 47.8076C25.0193 47.8873 25.099 47.728 25.1787 47.6483C25.2584 47.728 25.2584 47.8076 25.4177 47.8076H25.4974H26.5332H27.091C27.1707 47.8076 27.1707 47.8076 27.1707 47.728C27.2504 47.6483 27.4097 47.728 27.4894 47.728C27.4894 47.8076 27.5691 47.8076 27.5691 47.8076C27.8878 47.8873 28.2065 47.8076 28.5252 47.8076C28.6846 47.8076 28.8439 47.728 29.0033 47.6483L29.322 47.4889C29.4017 47.4889 29.4017 47.4092 29.4017 47.3296C29.4017 47.3296 29.4017 47.2499 29.4814 47.2499C29.5611 47.3296 29.6407 47.2499 29.7204 47.0905V47.0108C29.8001 46.9312 29.8001 46.9312 29.8001 47.0108H29.8798C29.9595 47.0905 30.0391 47.0905 30.1188 46.9312C30.1985 46.7718 30.2782 46.6921 30.3579 46.5328H30.4375C30.5172 46.4531 30.5969 46.3734 30.6766 46.3734C30.7562 46.214 30.7562 46.214 30.7562 46.1344C30.8359 46.0547 30.9156 45.975 30.8359 45.8157V45.4969C30.8359 45.4173 30.8359 45.4173 30.9156 45.3376C30.9953 45.3376 30.9953 45.2579 30.9953 45.1782V44.5408C30.9953 44.3814 30.9953 44.2221 31.075 44.0627V43.8237C31.075 43.744 31.1546 43.744 31.1546 43.6643C31.1546 43.5846 31.1546 43.505 31.2343 43.505H31.1546C31.553 43.5846 31.553 43.5846 31.6327 43.5846ZM0.0796794 3.34653C0.0796794 3.18718 0.159359 3.18718 0.159359 3.18718C0.159359 3.18718 0.0796794 3.26686 0.0796794 3.34653ZM30.4375 6.69307C30.5172 6.77275 30.5172 6.85243 30.4375 6.85243C30.1985 7.09147 30.2782 7.25083 30.1985 7.41018C30.1985 7.48986 30.2782 7.56954 30.2782 7.64922C30.2782 7.7289 30.2782 7.80858 30.1985 7.88826V8.04762C30.2782 8.20698 30.1188 8.36634 30.1188 8.44602C30.1188 8.60538 30.0391 8.68505 30.0391 8.84441C30.0391 9.00377 30.0391 9.08345 29.9595 9.16313C29.8798 9.24281 29.8798 9.32249 29.8798 9.32249C29.8001 9.48185 29.8001 9.56153 29.7204 9.64121C29.6407 9.72089 29.4814 9.64121 29.4814 9.64121C29.2423 9.72089 29.1627 9.56153 29.0033 9.40217C28.8439 9.32249 28.6846 9.32249 28.5252 9.24281C28.4455 9.24281 28.4455 9.24281 28.4455 9.16313C28.3659 9.00377 28.3659 8.92409 28.1268 8.84441C28.1268 8.84441 28.1268 8.76473 28.0471 8.76473C27.9675 8.76473 27.7284 8.60538 27.6488 8.60538C27.5691 8.60538 27.4894 8.44602 27.4097 8.36634V8.20698C27.1707 8.28666 27.0113 8.20698 26.852 8.04762H26.7723C26.6926 8.04762 26.5332 7.96794 26.4536 7.96794V7.88826C26.3739 7.80858 26.3739 7.7289 26.2145 7.7289C26.1348 7.7289 25.9755 7.56954 25.8958 7.56954H25.8161C25.7364 7.48986 25.7364 7.41018 25.7364 7.41018V7.64922C25.8958 7.48986 25.8161 7.25082 25.8161 7.01179C25.7364 6.77275 25.6568 6.69307 25.4974 6.61339C25.4177 6.29467 25.338 6.05563 25.1787 5.8166C25.099 5.65724 25.099 5.57756 25.099 5.4182C25.0193 5.4182 25.0193 5.33852 25.0193 5.25884C25.0193 5.09948 25.099 5.09948 25.1787 5.0198C25.2584 5.0198 25.338 5.0198 25.4177 4.94012C25.4974 4.78076 25.7364 4.78076 25.8958 4.78076H25.9755C26.0552 4.70108 26.1348 4.70108 26.2942 4.78076C26.4536 4.86044 26.5332 4.86044 26.6129 4.86044H26.7723H26.852C27.0113 4.70108 27.1707 4.78076 27.4097 4.78076C27.6488 4.78076 27.8878 4.78076 28.2065 4.70108H28.2862C28.2862 4.86044 28.3659 4.86044 28.4455 4.86044C28.5252 4.86044 28.6049 4.86044 28.6846 4.94012C28.7643 4.94012 28.7643 4.78076 28.9236 4.86044C29.0033 4.94012 29.0033 4.94012 29.083 5.0198H29.1627C29.2423 4.94012 29.4017 4.94012 29.4814 5.0198C29.4814 5.09948 29.5611 5.09948 29.5611 5.09948C29.6407 5.0198 29.7204 5.17916 29.8798 5.25884C29.9595 5.25884 29.9595 5.33852 30.0391 5.4182C30.0391 5.57756 30.1188 5.8166 30.1985 5.89628C30.2782 6.05563 30.1985 6.13531 30.2782 6.21499C30.2782 6.37435 30.3578 6.37435 30.2782 6.53371V6.45403V6.69307H30.4375Z"
     fill="#D50032"
     id="path2" />
</svg>
