<?xml version="1.0" encoding="UTF-8" standalone="no"?>
<svg
   xmlns:dc="http://purl.org/dc/elements/1.1/"
   xmlns:cc="http://creativecommons.org/ns#"
   xmlns:rdf="http://www.w3.org/1999/02/22-rdf-syntax-ns#"
   xmlns:svg="http://www.w3.org/2000/svg"
   xmlns="http://www.w3.org/2000/svg"
   xmlns:sodipodi="http://sodipodi.sourceforge.net/DTD/sodipodi-0.dtd"
   xmlns:inkscape="http://www.inkscape.org/namespaces/inkscape"
   width="134"
   height="203"
   viewBox="0 0 134 203"
   fill="none"
   version="1.1"
   id="svg4"
   sodipodi:docname="luge.svg"
   inkscape:version="0.92.1 r15371">
  <metadata
     id="metadata10">
    <rdf:RDF>
      <cc:Work
         rdf:about="">
        <dc:format>image/svg+xml</dc:format>
        <dc:type
           rdf:resource="http://purl.org/dc/dcmitype/StillImage" />
        <dc:title></dc:title>
      </cc:Work>
    </rdf:RDF>
  </metadata>
  <defs
     id="defs8" />
  <sodipodi:namedview
     pagecolor="#ffffff"
     bordercolor="#666666"
     borderopacity="1"
     objecttolerance="10"
     gridtolerance="10"
     guidetolerance="10"
     inkscape:pageopacity="0"
     inkscape:pageshadow="2"
     inkscape:window-width="640"
     inkscape:window-height="480"
     id="namedview6"
     showgrid="false"
     inkscape:zoom="1.1625616"
     inkscape:cx="67"
     inkscape:cy="101.5"
     inkscape:window-x="0"
     inkscape:window-y="0"
     inkscape:window-maximized="0"
     inkscape:current-layer="svg4" />
  <path
     d="M133.418 131.667C133.085 130.333 133.418 129 133.418 128C133.418 126.333 133.085 125.333 133.085 124V120.333V117.667V115V112V109.333V106.333V104V101V98.3333V95.6667V92.6667V89V84V81.3333V78.6667V75.6667V73V70.3333V67.6667V63.6667V62.6667C133.085 62.3333 133.085 62 132.752 61.6667V61C133.418 54 133.418 47 133.418 40V38.6667V37V33V28V24.3333V21.6667V18.6667V16V13.3333V10.6667V8.66667C133.418 8.33333 133.085 8 133.085 8C132.42 7.33333 131.754 6.33333 131.421 5.33333C131.421 5 131.421 4.66667 131.089 4.66667C130.423 4.33333 130.091 4 129.425 3C129.092 2.33333 128.76 2.33333 128.094 2.33333C127.762 2.66667 127.429 2.66667 127.429 2.33333C127.096 2 126.764 2 126.764 2C126.431 1.66667 126.431 2 126.431 2C126.098 1.33333 125.765 1.66667 125.1 1.66667C124.435 1.33333 123.436 1.33333 122.771 1.33333H120.109H117.78H115.451C115.119 1.33333 115.119 1.33333 115.119 1.66667C114.786 2 114.453 1.66667 114.453 1.33333C114.12 1.33333 114.12 1 114.12 1C114.12 1 113.788 0.666667 113.455 0.666667H113.122C113.122 0.666667 112.79 1 112.457 1H111.126H108.464H106.135H104.804H100.812H98.8157C98.4829 1 98.1502 1 97.8175 1.33333H96.8194C95.4885 1.33333 93.4922 0.666667 92.4941 0.666667H89.167H86.838H83.5109H80.1837H77.522H75.1931C74.1949 0.666667 73.5295 0.666667 72.5314 0.333333H70.2024H67.5407H65.2117H62.55H60.221C59.5556 0.333333 58.8901 0.333333 57.892 0H57.5593C57.5593 0.666667 57.2266 0.666667 56.8939 0.666667C56.5611 0.666667 56.5611 1 56.2284 1H53.8994H53.5667C53.234 1.33333 52.9013 1.33333 52.2359 1.33333H48.9088C47.9106 1.33333 46.9125 1.33333 46.2471 1.66667H45.5816L45.2489 2H44.9162C44.5835 1.66667 43.9181 1.66667 43.9181 2C43.5854 2.66667 43.5854 2.33333 42.9199 2C42.5872 1.66667 42.5872 1.66667 42.2545 2.33333C41.5891 2 41.5891 1.66667 41.2564 1.66667C40.5909 1.66667 40.2582 2 39.5928 2.33333C39.5928 2 39.2601 2 39.2601 2.33333C39.2601 2.33333 38.9274 2.66667 38.5947 2.66667C38.262 2.66667 37.5965 2.66667 37.2638 3C37.2638 2.33333 36.5984 2.33333 36.5984 2.33333C36.2657 2.33333 36.2657 3 35.933 3V3.33333C35.6003 3.33333 35.6003 2.66667 35.2675 2.66667L34.9348 3C34.9348 3.66667 34.6021 3.66667 34.9348 4.33333C34.9348 5 34.9348 5.33333 35.2675 6C34.2694 4.66667 33.604 4 33.604 3.66667C33.9367 3.33333 34.2694 3 33.604 2.66667C33.604 2.33333 33.2713 2 32.6058 1.66667C32.6058 1.66667 32.6058 2 32.2731 2C31.9404 2.33333 31.6077 2.33333 31.275 2V1.66667C30.9423 1.66667 30.6096 1.66667 30.2768 1.33333V1.66667C29.9441 2 29.9441 2.33333 29.6114 2C29.2787 2 28.946 2.33333 28.946 2.33333C28.6133 2.33333 28.6133 2 28.2806 2H26.617H26.2843C25.6189 2 25.2862 1.33333 24.6207 1.66667C24.6207 1.66667 24.288 2 23.9553 1.66667C23.2899 1.66667 22.6245 2.33333 21.959 2.33333V1.66667H21.2936C20.9609 1.66667 20.2955 1.66667 19.9628 2C19.63 2.66667 19.2973 2.33333 18.6319 2C18.6319 2.33333 18.2992 2.66667 17.9665 3C17.6338 2.66667 16.9683 2.66667 16.6356 3.66667C16.3029 3.33333 15.6375 3.33333 15.6375 3C15.3048 3 14.9721 3.33333 14.9721 3.33333C14.6394 3.33333 13.9739 3 13.6412 3.33333C12.9758 3.33333 12.9758 3.33333 12.3104 3.66667C11.9777 3.66667 11.9777 4 11.9777 3.66667C11.3122 3.66667 11.3122 3.66667 10.9795 4C10.9795 4 10.6468 4.33333 10.3141 4.33333C9.64867 4.66667 9.64867 4.66667 8.98324 5C9.31595 5.66667 8.98324 5.66667 8.65053 6C8.31782 6.33333 8.65053 6.33333 8.65053 6.66667C8.65053 7 8.65053 7.33333 8.31782 7.33333V6.66667C7.65239 7 7.65239 7 7.31968 7.33333C7.31968 7.66667 7.31968 7.66667 6.98696 8C6.98696 8.33333 6.98696 8.66667 7.31968 8.66667C7.31968 9 7.31968 9 7.65239 9C7.31968 9 7.31968 9 6.98696 9C6.65425 9 6.65425 8.66667 6.32154 8.66667C6.32154 9.33333 5.98883 9.66667 5.65611 10C5.3234 10.3333 5.65611 10.6667 5.65611 11.3333C5.65611 11.6667 5.65611 12 5.3234 12C4.99069 12.3333 4.65798 12.6667 4.65798 13C4.32526 13 3.99255 13 3.99255 12.6667C3.99255 13.3333 3.99255 13.6667 3.65984 14C3.99255 13.6667 3.99255 13.6667 4.32526 13.6667V14C4.32526 14.6667 4.32526 14.6667 3.99255 15.3333C3.65984 16 2.6617 16.6667 2.6617 18C2.6617 18.3333 2.32899 18.6667 1.99628 19V19.3333C1.66356 19.6667 1.66356 19.6667 1.66356 20.3333V20.6667V23.3333V25C1.66356 25.6667 1.66356 25.6667 1.99628 26.3333C2.32899 27 1.99628 27 1.99628 27.6667V28.3333V29.6667V30.6667C1.99628 31 1.99628 31.3333 1.66356 31.6667C1.33085 31.6667 1.33085 32 1.33085 32.3333C1.33085 33 1.33085 34 1.66356 34.3333C1.66356 34.6667 2.32899 35.3333 2.32899 35.3333H2.6617C2.32899 35.6667 2.32899 35.6667 2.32899 35.6667V36V37.6667V38.3333V38.6667V40V40.6667V41.3333V43.3333V46V47.3333V51V53.6667V56.3333V59C1.99628 60 1.99628 60.6667 1.99628 61.6667V64.3333V67V69.6667V73.3333V77C1.99628 78.6667 1.99628 79.6667 1.66356 81.3333V85V86.3333C1.66356 86.6667 1.66356 87 1.99628 87V87.3333C1.66356 87.6667 1.66356 87.6667 1.66356 88C1.66356 88.3333 1.33085 87.3333 1.33085 87.3333V91V93.6667V95.3333V97V98.6667V99C1.66356 99.3333 1.33085 99.6667 1.33085 99.6667V100.333C1.33085 101 0.998138 101.333 0.998138 101.667C0.998138 102.333 0.998138 102.333 1.33085 102.667V106C1.33085 107 0.998138 107.667 0.998138 108.667V110.667V114.667V118.333V122.333V126C0.998138 126.667 0.665425 127.667 0.665425 128.667V131.333V134V136.667V138.333V139.667V143.333V148.667V150.667V152C0.665425 154.667 0.665425 157.667 0.332713 160.333V162.667C0.332713 163.333 0.332713 163.333 0.665425 163.667C0.998138 164 0.998138 164 0.998138 164C0.998138 164.667 1.33085 165 0.998138 165.667V167.667C0.998138 168 0.665425 168.333 0.332713 168.333V169V174C0 175.333 0.332713 176.667 0 177.667V180.333V183V185.667V188.333V191V192.667V193C0.332713 193.667 0.332713 194.667 0.998138 195.333C1.33085 196 1.33085 196.333 1.66356 197C1.99628 197.333 1.99628 197.667 1.99628 198C2.32899 198.667 2.6617 199 2.6617 199.667C3.65984 199.333 3.65984 199.667 4.32526 199.667C5.65612 200 6.65425 200.667 7.31968 201.667C7.65239 202 7.9851 202.333 7.9851 202.333H9.31595C9.64867 202.333 9.98138 202.333 10.3141 202C10.3141 201.667 10.6468 202 10.6468 202C10.9795 202.333 10.9795 202.333 11.3122 202.333H12.3104C13.3085 202.333 14.3066 202.333 14.9721 202H15.6375C16.3029 202 16.3029 202 16.9683 202.333C17.3011 202.333 17.6338 202.333 17.6338 202C17.6338 201.667 17.9665 201.667 18.2992 201.667C18.6319 202 30.2768 202.333 30.9423 202.333H32.2731C32.6058 202.333 32.9386 202.333 32.9386 201.667C33.2713 201.333 33.2713 201.333 33.2713 201C33.2713 201.333 33.604 201.667 33.9367 201.667C33.9367 202 34.2694 202.333 34.2694 202.333C34.6021 202 34.9348 202.333 35.2675 202C35.933 201.667 36.9311 201.667 36.9311 201L37.5965 200.333C37.9292 200.333 37.9292 200 37.9292 199.667C38.262 199.333 38.262 199.333 38.262 199C38.9274 199.333 39.2601 199.667 39.5928 200C39.5928 200.667 39.9255 200.667 39.9255 201C39.9255 201.667 40.2582 201.667 40.5909 201.667C40.9237 201.667 41.2564 202 41.9218 202C42.2545 202 42.5872 201.667 42.9199 201.667H43.5854C43.9181 202 44.5835 202 44.9162 202H45.5816H47.2452H50.5723H53.8994H56.2284C56.8939 202 57.5593 202.333 58.5574 202C58.8901 202 59.5556 202.333 59.8883 202H60.8864H61.5518H61.8845C62.55 202.333 63.5481 202 64.5462 202.333H67.5407H70.2024H73.5295H76.8566H78.1875H78.5202C79.1856 202.333 79.5183 202 80.1837 202.333H81.5146H84.1763H85.1744H87.5034C87.8361 202.333 88.1688 202.333 88.1688 202C88.5016 202.333 88.8343 202.333 89.4997 202.333H89.8324H90.4978H92.8268C93.4922 202.333 94.1577 202.333 94.8231 201.667C95.1558 201.667 95.4885 201.667 95.8212 202C95.8212 202.333 96.1539 202.333 96.1539 202.333H98.1502H98.4829C98.4829 201.667 98.1502 201.333 98.1502 200.667C98.8157 200.667 98.8157 200.667 98.8157 201.333C98.8157 201.667 99.1484 201.667 99.1484 201.667C99.4811 202 99.8138 202 99.8138 201.667H100.479V202.333C100.479 202.667 100.479 202.667 100.812 202.667H103.141H105.803H106.801C107.133 202 106.801 202 106.468 201.333C106.468 200.667 106.801 200.667 106.801 201.333C107.133 201.333 107.466 202 107.466 202H107.799V202.667C108.464 203 108.797 202.333 109.462 202C109.795 202.333 109.795 202.667 110.128 202.667H110.793C112.457 202.667 113.788 203 115.451 203C116.117 202.667 116.449 202.667 117.115 202.667C117.448 202 118.113 202.333 118.446 202.667C118.778 202.667 119.444 203 119.777 203C120.442 203 121.44 203 122.106 202.667C122.771 202.667 123.436 202.667 124.435 202C125.1 202 125.433 201.667 126.098 201.333C126.098 201.333 126.431 201 126.431 200.667C126.431 200.333 126.431 200.333 126.764 200.333C127.429 200.333 127.429 200 127.429 199.667C127.762 199.667 127.762 199.333 127.762 199.333C127.762 199 128.094 199 128.427 199V199.333C129.092 199.667 129.425 199.667 129.758 198.667C130.091 198 130.423 198 130.423 197.333C130.756 197.333 130.756 197 130.756 197C131.089 197 131.421 196.667 131.421 196.333C131.754 196 131.754 195.667 131.754 195.333C132.42 195 132.42 194.667 132.42 194V192.667C132.42 192.333 132.42 192.333 132.752 192C132.752 192 133.085 191.667 133.085 191.333V188.333V187.333C133.085 186.667 133.418 186.333 133.418 185.667C133.418 185.333 133.418 185 133.75 185V184.333C133.75 184 133.418 184 133.418 184C133.085 184 133.085 183.333 133.418 183.333C133.75 183.333 133.75 183 133.75 182.667V184C133.75 184 133.418 184 133.418 183.667C133.75 183.333 133.418 183 133.418 182.667C133.085 182.333 133.085 182 133.418 182V181.333C133.085 180.333 133.085 179.333 133.418 178.333C133.75 177.667 133.085 177.333 133.085 176.667L132.752 176C132.42 175.333 132.42 163 132.752 162.333C132.752 162 133.085 162 133.085 161.667C133.085 161.667 133.418 161.333 133.418 161C133.75 160.667 133.75 160.333 133.75 159.667C134.083 159 134.083 158.333 133.75 157.667C133.418 158 132.752 158.333 132.42 158.333C131.754 158.667 131.754 158.333 131.421 158.333L130.756 157.667C130.423 157.667 130.423 157.333 130.423 157C129.758 156.333 129.092 156 128.76 155.333H128.427C127.762 155 127.762 154.667 127.096 154.333C126.764 154 126.431 154 126.431 153.667C125.765 153.333 125.765 153 125.1 153C124.435 152.667 124.102 152.333 123.436 151.667H123.104C122.438 151.667 122.438 151.333 122.106 151.333C121.773 151 121.44 150.667 120.775 150.667H120.442C120.109 150 119.777 150 119.444 150C119.111 150 119.111 149.667 118.778 149.333C118.778 149 118.446 148.667 118.446 149H117.78C117.448 148.667 117.448 148.333 117.115 148H116.782C116.449 147.667 116.449 147.333 116.117 147.333C115.784 147 115.451 147 115.451 146.667H114.786C114.786 146.333 114.453 146 114.453 146H113.788H113.455C113.122 146.333 112.79 146.667 112.124 147H111.791C111.126 147 111.126 147.333 110.793 147.667C110.461 147.667 110.461 147.667 110.461 148H110.128C109.795 148.333 109.13 148.333 108.797 148.333C108.464 148.333 108.464 148.333 108.464 148.667C107.799 149.333 107.133 149.333 106.801 149.667C106.468 149.667 106.135 149.667 106.135 150.333H105.803C105.47 150.333 105.47 150.333 105.137 150C104.804 150.333 104.139 150 103.806 150.667L102.475 151.333C102.143 151.333 101.81 151.667 101.81 151.667C101.145 152 101.145 152 100.479 152H98.4829C98.1502 152 97.4848 152 97.1521 151.667C96.4867 151.333 96.154 151.333 95.4885 151.333C95.1558 151.333 95.1558 151.333 94.8231 151C94.1577 151 94.1577 150.667 93.4922 151C93.1595 151 93.1595 150.667 92.4941 150.667C92.4941 150.333 92.1614 150.333 92.1614 150.333C91.8287 150 91.496 150 91.496 149.667C91.496 149.333 91.1633 149.333 91.1633 149.333H90.8306C90.1651 150.667 89.4997 150.667 89.167 150.333C88.8343 150 88.5016 150 88.5016 149.667H88.1688C87.8361 149.667 87.5034 149.333 87.5034 149.333C87.1707 149.333 87.1707 149 86.5053 149.333C86.1726 149.333 85.1744 149 84.8417 148.667C84.8417 148.667 84.509 148.333 84.1763 148.333C83.8436 148.333 83.5109 148 82.8454 148L82.5127 147.667C82.18 147.333 81.8473 147 81.5146 147C81.1819 147 81.1819 146.667 80.8492 146.667H80.1837C79.851 146.333 79.851 146.333 79.5183 146C78.8529 146 78.8529 146 78.5202 145.667H77.1893C77.1893 145.667 76.8566 146 76.5239 146C76.5239 145.667 76.1912 145.667 76.1912 145.333C75.8585 145 75.8585 144.667 75.1931 144.667C74.8603 145 74.8603 144.667 74.5276 144.333C74.1949 144 74.1949 143.667 73.5295 143.667C73.1968 144 72.8641 143.333 72.5314 143C72.1986 142.667 71.8659 142.333 71.2005 142.333C70.8678 142.333 70.2024 141.667 69.8697 141.667C69.5369 141.333 69.2042 141.333 69.2042 141.333C68.5388 141.333 68.2061 141 67.5407 141V140.667C67.208 140.333 66.8752 140.333 66.5425 140.667C66.2098 140.333 66.2098 140.333 66.2098 140L65.5444 139.333C65.2117 139.333 64.879 139 64.2135 138.667H63.5481C63.2154 139 63.2154 138.667 62.8827 138.333C62.8827 138 62.2173 138 62.2173 137.667C61.8846 138 61.5518 138.333 61.5518 138C61.5518 137.667 61.2191 137.667 61.2191 137.667H60.5537H60.221C59.8883 137.333 59.5556 137.333 59.5556 137.333C59.2228 137 58.8901 136.667 58.8901 137C58.5574 137 58.5574 136.667 58.5574 136.667C58.2247 136.667 57.892 136.333 57.892 136.333C57.5593 136 57.2266 136 57.2266 135.667C56.8939 135.667 56.5611 135.333 56.2284 135.333C55.8957 135.333 55.563 135.333 55.563 135C55.2303 134.333 54.5649 134.333 54.2322 134.333C54.2322 134.333 53.8994 134.333 53.8994 134C53.234 134 53.234 133.667 52.5686 133.667H52.2359C51.9032 133.667 51.5705 133.333 51.5705 133C51.2377 132.333 50.5723 132 50.2396 131.667C49.5742 131.667 48.576 131.333 48.2433 131C47.5779 130.667 47.5779 130.667 46.9125 130.667H45.5816C44.9162 130.333 43.9181 130 43.2526 130H42.9199C42.5872 129.667 42.5872 129.333 42.2545 129.333C41.9218 129.333 41.5891 129 41.5891 129C41.2564 129 40.9237 128.667 40.5909 128.333C40.2582 128.333 40.2582 128.333 39.9255 128C39.5928 128 39.2601 128 38.9274 127.667C38.5947 127.333 38.5947 127.333 38.262 127.333V126.667C38.5947 126.667 38.5947 126.667 38.9274 126.333C38.9274 126.333 39.2601 126 39.2601 125.667C39.5928 125.667 39.9255 125.667 40.2582 125C40.5909 124.667 40.9237 124.333 41.5891 124.333H41.9218H42.5872C42.9199 124.667 43.2526 124.667 43.5854 124.333H43.9181C44.2508 123.667 44.2508 123.667 44.5835 123.667C44.9162 123.667 45.2489 123 45.9143 123V122.667C45.9143 122.333 46.2471 122 46.2471 122C46.5798 121.667 46.5798 121.333 46.5798 121.333V121C47.2452 121 47.2452 120.333 47.2452 120.333L47.5779 119.667C47.5779 119.667 47.9106 119.333 48.2433 119.667L48.576 120C48.576 120.667 48.9088 121 48.9088 121.667V122.333V123V123.333C48.576 123.667 48.576 124 48.576 124.333C48.576 124.667 48.9088 125 49.2415 125C50.5723 125.667 52.5686 126.667 54.2322 127C54.5649 127 54.5649 127.333 54.5649 127H55.2303C55.2303 127.667 55.563 127.667 55.563 127.667C58.2247 128.333 60.221 129.333 62.8827 130.333C64.2135 131 65.2117 131.333 66.5425 132C67.8734 132.333 68.8715 132.667 69.8697 133.333C70.5351 133.333 70.8678 133.667 71.5332 134C71.8659 134.333 71.8659 134.333 71.8659 134.333H72.5314C72.8641 135 73.1968 135 73.8622 135C74.1949 135 74.5276 135.333 75.1931 135.333C75.8585 136 76.1912 136 76.5239 136C77.1893 136 77.1893 136.333 77.522 136.333C77.522 136.667 77.8548 136.667 77.8548 136.667C78.1875 137.333 78.5202 137.333 79.1856 137V137.333C79.5183 137.667 79.5183 137.667 79.851 137.667C80.1837 138 80.1837 138 80.5165 138.333C80.8492 138.667 81.5146 138.667 82.18 139C84.509 140 86.838 141 89.4997 142C92.1614 143 94.8231 144 97.4848 145H97.8175C98.1502 145 98.4829 144.667 99.1484 145H99.4811V144.667C100.146 145 100.479 144.667 101.145 144.333C101.477 144.333 101.477 144 101.477 144C101.81 144 102.143 143.667 102.143 143.333C102.143 143 102.475 143 102.475 142.667C102.808 142 103.141 141.667 103.474 141C103.806 140.667 104.139 140.333 104.139 139.667V139C103.806 139 103.806 138.667 103.806 138.667C103.806 138 103.474 138 103.141 138C102.808 138 102.475 138 102.475 137.667L102.143 137.333C101.81 137 101.477 136.667 101.145 136.667C100.812 136.667 100.812 136.333 100.479 136C100.146 136 99.8138 135.667 99.4811 135.333H99.1484C98.8157 135.333 98.4829 135 98.1502 135C97.8175 134.667 97.4848 134.667 97.1521 134.333C96.4867 134.333 96.4867 134 95.8212 133.667H95.4885C94.8231 133.333 94.8231 133.333 94.1577 133.333C93.825 133.333 93.825 133.333 93.4922 133C93.1595 132.667 93.1595 132.667 92.8268 132.667C92.8268 132.333 92.4941 132.333 92.4941 132.333H91.8287C91.8287 131.667 91.496 131.667 91.1633 131.667C90.1651 137.333 89.8324 137.333 89.4997 137C89.167 137 88.8343 136.667 88.5016 136.667C88.5016 136.667 88.1688 136.667 88.1688 136.333C87.8361 136 87.5034 135.667 87.1707 135.667C86.838 135.667 86.838 136 86.5053 136C86.1726 136 86.1726 136.333 86.1726 136.333H85.5071C85.1744 136 85.1744 136 85.1744 136.333C85.1744 136.667 85.1744 136.667 84.8417 136.667V136.333C84.509 135.667 84.1763 135.667 83.5109 135.333H82.5127V135C81.8473 135.333 81.5146 134.667 81.1819 134.667C80.8492 134.333 80.8492 134.333 80.5165 134.667L79.851 134C79.5183 134 79.5183 134 79.1856 134C78.8529 133.667 78.5202 133.333 78.1875 133.333C77.522 133.667 77.522 133 76.8566 133C76.5239 132.667 76.5239 132.667 76.5239 132.667H76.1912C75.8585 132 75.5258 132 74.8603 132C74.5276 132 74.5276 131.667 74.1949 131.667C73.5295 131.333 72.8641 131 72.5314 131C72.1986 131 71.8659 130.667 71.8659 130.667C71.5332 130.667 71.2005 130.667 70.8678 130.667C70.5351 131 70.2024 130.667 69.8697 130.667C69.8697 130.333 70.2024 130 69.8697 130C69.5369 130 69.5369 130.333 69.5369 130.667C68.8715 131 68.2061 130.667 67.8734 130.333C67.5407 130.333 67.5407 130 67.208 129.667C67.208 129.667 67.208 129.333 66.8752 129.333C66.5425 129.667 66.2098 129 65.5444 129C65.2117 129 64.879 128.667 64.879 128.333C64.5462 128.333 64.5463 128 64.2135 128C63.8808 127.667 63.8808 127.667 63.5481 127.667C63.2154 127.333 62.8827 127.333 62.55 127C62.55 127.333 62.55 127.333 62.55 127.333C61.8846 127.333 61.8845 127 61.2191 126.667H60.221C59.8883 126.667 59.5556 126.333 58.8901 126C58.5574 125.667 58.2247 125.667 57.5593 125.667H56.8939C56.5611 125.333 56.2284 125 55.563 125H55.2303C54.5649 124.667 54.5649 124.667 53.8994 124.667C53.5667 124.333 53.5667 124 53.5667 124C53.234 123.667 52.9013 123.667 52.9013 123.333H52.5686C52.2359 123 51.9032 123 51.9032 123.333C51.9032 124 51.5705 124 51.5705 124C51.5705 124 51.2377 123.667 50.905 123.667C50.5723 123.333 50.5723 123.333 50.2396 123.333C49.9069 123.333 49.9069 123.333 49.5742 123C49.2415 122.333 48.9088 122.667 48.576 122.333C48.2433 122 47.9106 122 47.5779 122C47.2452 121.667 46.9125 121.667 46.2471 122.333C45.9143 122.333 45.9143 122.333 45.5816 122.667C45.2489 122.667 44.5835 122.333 44.2508 122.667C43.9181 122.667 43.5854 122.333 43.5854 122C43.2526 121.333 43.2526 121.333 42.5872 121.333C42.5872 121.333 42.2545 121.333 42.2545 121C41.9218 120.667 41.9218 120.333 41.5891 120H41.2564L40.9237 119.667L40.5909 119.333C40.2582 119.667 39.9255 119 39.9255 119.333C39.5928 119.333 39.2601 119 38.9274 119C38.5947 119.333 38.5947 119.333 38.262 119.667C38.262 119.667 37.9292 120 37.9292 119.667C37.2638 119.333 36.2657 119 35.933 118.333C35.933 118.333 35.933 118 35.6003 118C35.2675 118 34.9348 117.333 34.2694 117.333C34.2694 117 33.9367 117 33.9367 117H33.604V116V115.333C33.604 114.667 33.9367 114.667 33.9367 114C34.2694 113.667 34.2694 113.333 34.2694 113.333C33.9367 113 34.2694 112.667 34.2694 112L34.6021 111.667C34.9348 111.667 34.9348 111.333 34.9348 111C34.6021 110.667 34.6021 110.333 34.9348 110.333C35.2675 110 35.2675 109.667 35.2675 109V108.333C35.933 107.667 35.933 107.667 35.933 107.667C36.2657 107 36.5984 107 36.5984 106.667C36.9311 106.333 36.9311 106 36.9311 105.667C36.9311 105 36.9311 105 37.2638 104.667C37.9292 104.333 37.9292 104 37.5965 103.333C37.5965 103 37.2638 102.667 37.2638 102.667C37.2638 102.667 37.5965 102.667 37.9292 102.333C37.9292 102 37.9292 101.667 38.262 101.667V101.333V101C38.262 100.333 38.5947 100.333 38.9274 100.333C39.2601 100 39.2601 99.6667 39.2601 99.6667C39.2601 99.6667 38.9274 99.6667 38.9274 99.3333V99H39.9255H40.2582C40.2582 99.3333 40.2582 99.6667 39.9255 99.6667C39.5928 99.6667 39.5928 100.333 39.9255 100.333C40.2582 100.667 40.2582 101 40.2582 101V101.333C40.2582 101.667 40.5909 101.667 40.9237 101.667C41.2564 102.333 41.5891 102.333 42.2545 102.333C42.5872 102.667 42.9199 102.667 43.2526 102.667C43.5854 102.667 43.9181 103 44.2508 103C44.5835 103.333 44.5835 103.667 45.2489 103.667C45.5816 104 45.9143 104 46.2471 104H46.5798C46.9125 104.333 47.2452 104.667 47.5779 104.667C47.9106 104.667 48.2433 105 48.2433 105C48.576 104.667 48.9088 105 48.9088 105C48.9088 105.333 49.2415 105.333 49.2415 105.333C49.9069 105.333 49.9069 105.667 49.9069 105.667C50.5723 106.333 51.2377 106.333 51.9032 106.333C52.2359 106.667 52.5686 106.333 53.234 106.333C53.5667 106.333 53.8994 106.333 53.8994 106.667C53.8994 107 54.2322 107.333 54.2322 107.333C54.5649 107.667 54.8976 107.667 54.8976 107.667C55.2303 107.667 55.563 108 55.563 108C55.8957 108.333 55.8957 108.333 55.8957 108.333H56.2284C56.5611 108.667 56.8939 108.333 57.5593 108.667C57.892 109 58.8901 109 59.5556 109.333C59.8883 110 60.8864 110 61.5518 110.333H61.8845C62.2173 110.333 62.55 110.667 62.55 110.667C62.8827 110.333 63.2154 110.667 63.5481 110.667C63.8808 111 64.2135 111 64.5462 111.333H65.5444C65.8771 111.333 65.8771 111.667 65.8771 111.667C66.2098 112 66.5425 112 66.5425 112C66.8752 112 67.2079 112 67.8734 112.333C68.2061 112.667 68.5388 112.667 69.2042 112.667C69.5369 113 69.8697 113 70.2024 113C70.2024 113 70.5351 113 70.5351 113.333C70.8678 113.667 71.2005 113.667 71.8659 113.667H72.5314C72.8641 113.667 72.8641 114 73.1968 114C73.1968 114.333 73.5295 114.333 73.5295 114.333C73.8622 114.333 73.8622 114.333 74.5276 114.667C74.8603 114.667 74.8603 114.333 75.5258 114.333H75.8585C76.1912 114.333 76.1912 114.667 76.1912 114.667C76.5239 115.333 76.8566 115.333 77.1893 115.333C77.522 115.333 77.8548 115.667 77.8548 115.667C78.1875 115.667 78.5202 116 78.8529 116L79.1856 116.333C79.5183 117 79.851 117 79.851 117C80.1837 117.333 80.5165 117.333 80.5165 117.667C80.8492 117.667 80.8492 118 81.5146 118C81.5146 118.333 81.8473 118.333 81.8473 118.667C81.8473 119 82.18 119 82.5127 119C82.8455 119 82.8454 119 82.8454 119.333C83.5109 119.667 83.8436 120 84.509 120C84.8417 120.333 84.8417 120.333 84.8417 120.667C84.8417 120.667 85.1744 121 85.5071 121C85.8399 121 85.8399 121 86.1726 121.333C86.5053 121.333 86.838 121.333 86.838 121.667C86.838 121.667 87.1707 121.667 87.5034 122C87.8361 122.333 88.1688 122.667 88.8343 122.667C89.167 122.667 89.167 122.667 89.167 123C89.4997 123 90.1651 123 90.4978 123.333C90.1651 120.667 90.4978 120.667 90.4978 120.667C90.8306 120.667 90.8305 120.667 91.1633 121C91.496 121 91.8287 121.333 91.8287 121.333C92.4941 121 92.4941 121.333 93.1595 121.667C93.1595 122 93.4922 122.333 93.825 122C94.1577 122 94.1577 122.333 94.1577 122.333C94.4904 122.667 94.8231 123 94.8231 123C95.4885 123 95.4885 123.333 95.8212 123.333L97.4848 124H97.8175C98.1502 123.667 98.8157 124 99.1484 124.667C99.4811 124.667 99.4811 124.667 99.8138 125C100.146 125.333 100.479 125.667 100.812 125.667C100.812 126 101.145 126 101.145 126C101.477 126 101.81 126.333 102.475 126.667C102.808 126.667 102.808 126.667 103.141 127L103.474 126.667C103.806 126.333 103.806 126.333 104.139 126C104.472 125.667 104.472 126 104.472 126C104.804 126 105.137 126.333 105.137 126.667C105.47 127 106.135 127.333 106.801 127.333H107.466C107.799 127.333 108.132 127.667 108.797 127.333C108.797 127.333 109.13 127.333 109.13 127.667C109.462 128 109.795 128 109.795 128C109.795 128.333 110.128 128.333 110.128 128.333C110.461 129 110.793 129 111.126 129H111.459C111.791 129.667 112.79 129.667 113.455 130C113.788 130.667 113.788 130.333 114.12 130.667C114.453 131 114.786 131.333 115.119 131.333C115.451 131.667 115.451 131.667 115.784 131.333C116.117 131.333 116.117 131 116.449 130.667C116.782 130.333 117.115 130.333 117.78 130.333H118.113V130C118.113 129.333 118.778 128.667 119.111 128.667C119.777 128.667 120.109 129.333 120.109 130V130.667C120.109 131.333 120.442 131.667 120.442 132V133.667V134C120.775 134.333 120.775 134.667 121.107 134.667C121.44 135 121.773 135 121.773 135C122.106 135 122.438 135 122.438 134.333C122.771 135 122.771 135 122.771 135.333C123.104 135.667 123.436 136 123.436 136C123.769 136 124.102 135.667 123.769 135.333C123.769 135 124.102 135 124.102 134.667H124.435C124.102 135.333 124.435 135.333 124.435 136C124.767 136.667 124.767 136.667 125.433 136.667C125.765 136.667 125.765 137 126.098 137.333C126.431 138 126.431 138 127.429 138C127.762 138.333 128.427 138.333 128.76 138.333H129.092C129.425 138.667 129.425 138.667 129.425 138.667C129.758 138.667 129.758 138.333 130.091 138V137.333H130.423C130.756 137.333 130.756 137.333 130.756 137.667C131.421 138.333 131.421 138.667 131.754 139.333C132.087 139.667 132.087 139.667 132.087 140C132.752 141 133.418 142 133.418 143V143.333C133.75 143 133.75 143 133.75 142.667V138.333V131.667H133.418ZM34.6021 101.333C34.2694 101.667 34.2694 102 34.2694 102C33.9367 102.333 33.604 102.667 33.604 102.667C33.2713 103 32.9386 103.333 32.9386 103.667C32.6058 104 31.9404 104.333 31.275 104.333C31.275 104 30.9423 104.333 30.9423 104.333C30.6096 104.333 30.2769 104.667 29.6114 104.667C29.2787 104.667 28.946 104.667 28.946 104.333H28.6133C28.2806 104.333 27.9479 104.667 27.9479 104.667C27.6152 104.667 27.2824 104.333 26.9497 104.667H25.9516C25.2862 104.333 24.6207 104.333 23.6226 104.333C23.2899 104.333 20.2955 102.667 20.2955 102.333C19.9628 102 19.63 101.667 19.2973 101.667C18.6319 101.333 18.6319 101 18.2992 100.333C18.2992 100 17.9665 100 17.9665 100C17.6338 99.3333 16.9683 99 16.6356 98.3333C15.9702 98 15.9702 97.6667 15.9702 97C15.6375 96.3333 15.6375 96 14.9721 95.6667C14.6394 95.3333 14.6394 95 13.9739 94.3333C13.6412 94.3333 13.6412 94.3333 13.3085 93.6667C12.9758 93 12.3104 93 12.3104 92.3333C11.9777 92 11.6449 91.6667 11.3122 91.3333C10.6468 90.6667 10.3141 90.3333 9.64867 90.3333C9.64867 89.6667 9.31595 89 9.31595 88.3333C9.64867 88.6667 9.98138 88.6667 10.3141 88.6667C10.6468 88 11.3122 87.3333 12.3104 87.3333H12.6431C12.9758 87.3333 13.6412 86.6667 14.6394 86.3333C14.9721 86 14.9721 86 15.6375 86C15.9702 86 16.3029 86 16.6356 85.6667C16.9683 85.3333 16.9683 85.3333 17.3011 85.3333C17.6338 85 17.9665 85 17.9665 85C18.2992 84.6667 18.6319 84.6667 18.9646 84.6667C19.2973 84.3333 19.63 84.6667 19.9628 84.6667C20.2955 84.3333 20.9609 84.3333 21.6263 84.3333H23.6226C23.6226 84.6667 23.9553 84.3333 23.9553 84.3333H24.6207C25.2862 84.3333 25.9516 84.3333 26.2843 85H26.617C26.9497 86 26.9497 86 27.2824 86.3333C28.2806 87 28.946 88 29.9441 89H30.2768C30.2768 89.6667 30.6096 89.6667 30.9423 90C31.275 90 31.6077 90.3333 31.6077 90.6667C31.9404 91.3333 32.2731 91.6667 32.6058 92.3333C32.9385 93 33.2713 93.3333 33.9367 93.6667C33.9367 94 34.2694 94 34.6021 94.3333C34.9348 94.3333 34.9348 94.6667 34.9348 94.6667C35.2675 95.3333 34.6021 96 34.6021 96C34.9348 96.6667 34.9348 96.6667 34.9348 97C35.2675 97.6667 35.2675 97.6667 35.2675 98C35.6003 98.6667 35.2675 99.3333 35.6003 99.6667C35.933 99.6667 35.933 100 35.6003 100C35.2675 100 35.2675 101 34.6021 101.333Z"
     fill="#D50032"
     id="path2" />
</svg>
