<?xml version="1.0" encoding="UTF-8" standalone="no"?>
<svg
   xmlns:dc="http://purl.org/dc/elements/1.1/"
   xmlns:cc="http://creativecommons.org/ns#"
   xmlns:rdf="http://www.w3.org/1999/02/22-rdf-syntax-ns#"
   xmlns:svg="http://www.w3.org/2000/svg"
   xmlns="http://www.w3.org/2000/svg"
   xmlns:sodipodi="http://sodipodi.sourceforge.net/DTD/sodipodi-0.dtd"
   xmlns:inkscape="http://www.inkscape.org/namespaces/inkscape"
   width="134"
   height="203"
   viewBox="0 0 134 203"
   fill="none"
   version="1.1"
   id="svg8"
   sodipodi:docname="nordic-combined.svg"
   inkscape:version="0.92.1 r15371">
  <metadata
     id="metadata14">
    <rdf:RDF>
      <cc:Work
         rdf:about="">
        <dc:format>image/svg+xml</dc:format>
        <dc:type
           rdf:resource="http://purl.org/dc/dcmitype/StillImage" />
        <dc:title></dc:title>
      </cc:Work>
    </rdf:RDF>
  </metadata>
  <defs
     id="defs12" />
  <sodipodi:namedview
     pagecolor="#ffffff"
     bordercolor="#666666"
     borderopacity="1"
     objecttolerance="10"
     gridtolerance="10"
     guidetolerance="10"
     inkscape:pageopacity="0"
     inkscape:pageshadow="2"
     inkscape:window-width="640"
     inkscape:window-height="480"
     id="namedview10"
     showgrid="false"
     inkscape:zoom="1.1625616"
     inkscape:cx="67"
     inkscape:cy="101.5"
     inkscape:window-x="0"
     inkscape:window-y="0"
     inkscape:window-maximized="0"
     inkscape:current-layer="svg8" />
  <path
     d="M134 156.335V154.68C133.665 154.018 133.665 153.025 133.665 152.032C133.33 152.032 133.33 151.37 133.33 151.37V147.399C133.33 147.399 133.33 147.068 132.995 147.068C132.66 147.399 132.66 147.399 132.325 147.399L131.99 148.06C131.99 148.722 131.655 148.722 131.655 149.053V149.384C131.32 149.715 130.65 150.046 130.315 150.046C129.98 150.046 129.98 150.377 129.98 150.377C129.645 150.708 129.645 150.708 128.975 151.039H128.64C128.305 151.37 127.635 151.37 127.3 151.701C126.965 152.032 126.294 152.363 125.959 152.032C125.624 152.032 125.624 152.032 124.954 152.363C124.619 152.363 124.284 152.694 123.614 152.694H122.944C121.269 152.363 119.594 152.694 117.584 152.363C116.578 152.363 115.238 152.363 114.233 152.694C113.898 152.694 113.228 152.363 112.893 152.694H112.558C112.223 152.363 111.888 152.363 111.218 152.363C110.548 152.363 109.878 152.363 108.873 153.025C108.538 153.025 108.538 153.025 108.538 152.694C108.538 152.363 108.203 152.363 107.867 152.363H103.512C101.167 152.363 98.8215 152.032 96.4762 152.032H89.7755H89.1055H88.7704C88.1003 152.032 87.0952 152.363 86.4252 151.701C86.4252 151.37 86.0901 151.701 86.0901 151.701C85.7551 151.37 85.085 151.701 84.75 151.37C84.415 151.039 83.7449 151.039 83.4098 151.37C83.4098 151.701 83.4099 151.701 83.0748 151.701C82.7398 151.37 82.4047 151.37 81.7347 151.37C81.3996 151.039 81.0646 151.039 80.3945 151.37C80.0595 151.37 79.7244 151.039 79.3894 151.039C78.7193 150.708 78.0493 150.708 77.7142 151.039C77.0442 151.039 76.7091 151.37 76.3741 151.039C76.0391 151.039 76.0391 150.708 76.0391 150.708H74.0288H73.0237H70.3434H69.3383C69.0033 150.377 68.3332 150.708 67.9982 150.708H67.6632C67.3281 151.039 67.3281 150.708 67.3281 150.377C66.9931 150.046 66.658 150.046 65.988 150.046C65.6529 150.377 65.3179 150.708 65.3179 151.039C64.9829 151.37 64.9829 151.701 64.9829 151.701C64.6478 152.032 64.6478 152.363 63.9778 152.694C63.9778 153.025 63.6427 153.356 63.6427 153.356C63.6427 154.018 63.6427 154.018 63.9778 154.68C64.3128 154.68 64.3128 155.011 64.3128 155.342C63.9778 155.673 63.9778 156.004 63.3077 156.004C63.3077 156.004 62.9727 156.004 62.9727 156.335C62.6376 156.996 62.6376 156.996 61.9675 157.327C61.2975 157.658 61.2975 157.989 61.2975 158.651C61.2975 159.644 60.9624 160.306 60.6274 160.968C60.6274 160.968 60.2924 161.299 60.2924 160.968L59.9573 161.299C59.9573 161.961 59.6223 162.292 58.9522 162.954C58.6172 163.285 58.2821 163.616 57.9471 163.947C58.2821 164.278 58.2821 164.278 58.6172 164.278C58.9522 164.609 59.6223 164.94 60.2924 164.94C61.9675 165.601 63.6427 166.263 65.3179 166.925C66.9931 167.587 68.6683 168.58 70.6785 168.911C72.3537 169.573 74.0288 170.566 76.0391 171.228C77.3792 171.89 78.3843 172.221 79.3894 172.552C80.0595 173.214 80.7296 173.214 81.7347 173.214C81.7347 173.214 82.0697 173.214 82.0697 173.544C82.7398 174.206 83.4098 174.206 84.415 174.537C84.75 174.537 85.4201 174.868 85.7551 175.199C86.0901 175.199 86.0901 175.199 86.4252 175.53C86.7602 175.53 86.7602 175.53 86.7602 175.861C87.4303 176.192 88.1003 176.523 88.7704 176.523H89.4405C89.7755 176.854 90.4456 177.185 91.1157 177.185C92.1208 177.516 92.7909 177.847 93.796 177.847C94.8011 177.847 95.8062 178.509 96.4762 178.509C97.8164 179.171 99.8266 179.502 101.167 179.833C101.502 180.164 101.502 180.164 101.837 180.164H102.172C102.507 180.164 102.507 180.164 102.507 180.495C102.507 180.826 102.172 180.826 102.172 180.826C101.502 181.157 101.167 181.819 100.497 181.819C100.162 182.48 99.8266 182.48 99.4916 182.811C99.1565 183.473 98.1514 183.473 97.8164 183.473C97.4814 183.473 97.4814 183.142 97.4814 183.142H97.1463C96.8113 183.804 96.1412 183.473 95.8062 183.142C94.131 182.48 92.4558 181.819 91.1157 181.157C89.1055 180.495 87.0952 179.502 85.4201 178.84C85.085 178.509 84.415 178.178 84.0799 178.178C83.7449 178.178 83.4098 177.847 82.7398 177.516C82.4047 177.516 82.4047 177.185 82.4047 177.185C82.0697 176.854 81.0646 176.523 80.7296 176.523C79.3894 175.861 77.3792 174.868 75.704 174.206C74.0288 173.544 72.0186 172.883 70.3434 172.221C69.3383 171.559 67.9982 171.228 66.9931 170.897C66.658 170.235 65.6529 170.235 64.9829 169.904C63.6427 169.242 62.3026 168.911 60.6274 168.249L58.2821 167.587C56.607 166.925 54.9318 165.932 52.9216 165.601C50.2413 164.278 47.226 163.285 44.5457 162.292C44.2106 161.961 43.8756 161.63 43.2055 161.63C42.8705 161.299 42.5354 160.968 41.8654 160.968C41.5303 160.968 41.5303 160.968 41.5303 160.637C40.8603 159.975 39.8552 159.975 39.1851 159.644H37.1749C31.8143 157.327 26.1187 155.342 20.7581 153.025C15.3975 151.039 10.037 149.053 4.67638 147.068C4.67638 146.737 4.34135 146.737 4.34135 146.406C3.67127 146.075 2.66617 146.075 1.99609 146.406V147.73C1.99609 148.391 1.99609 148.722 2.33113 149.053C1.99609 149.384 2.33113 149.715 1.99609 149.715V150.046V150.708C1.99609 152.363 1.99609 153.356 2.33113 154.68V155.011C2.66617 155.342 2.66617 155.673 2.66617 156.004V156.665V157.658V161.961C2.66617 162.292 3.0012 162.623 2.33113 162.623V164.278V165.932C2.33113 166.263 2.33113 166.594 2.66617 166.594V167.256V179.171V179.833H3.67127V180.164C3.67127 180.826 3.33624 181.819 3.33624 182.48V183.142C3.0012 183.142 3.0012 183.473 3.0012 183.804C3.0012 184.466 3.0012 185.459 2.66617 185.79C2.66617 186.452 2.33113 186.452 2.33113 186.783C2.66617 187.445 2.66617 188.438 2.66617 189.431C2.66617 189.431 2.66617 189.762 3.0012 189.762C3.33624 189.762 3.33624 190.093 3.33624 190.424V190.754C3.67127 190.093 3.67127 190.424 3.67127 190.754C3.67127 191.416 4.00631 191.416 4.34135 191.416C4.67638 192.078 5.01142 192.409 4.67638 193.071H5.01142C5.34645 193.071 5.34645 193.402 5.34645 193.402C5.01142 194.064 5.68149 194.395 5.68149 195.057L6.01653 195.388H7.02163C7.02163 195.719 7.02163 195.719 7.35667 196.05V196.712C7.35667 197.374 7.69171 197.374 8.02674 197.705C8.36178 198.036 8.36178 198.036 8.69681 198.367C8.36178 198.698 8.36178 199.028 8.36178 199.028C8.69681 199.359 8.69681 199.359 9.03185 199.028C9.36689 198.698 9.70192 198.698 10.372 199.028C10.707 199.028 10.707 199.359 11.0421 199.359H11.3771C11.7121 199.359 11.7121 199.69 12.3822 199.69C13.7224 198.698 14.3924 199.028 14.7275 199.028H15.3975C16.4026 199.359 17.7428 199.69 18.7479 199.69H19.418H20.4231C20.7581 199.69 20.7581 200.021 21.0931 200.021H22.4333L22.7683 199.69C23.1034 200.021 23.1034 200.352 23.4384 200.352C23.7734 200.352 23.7734 200.352 23.7734 200.021C24.1085 200.021 24.4435 200.352 25.1136 200.352C25.4486 199.69 25.7836 200.021 26.1187 200.021C26.4537 200.021 26.4537 199.69 26.4537 199.69C26.7888 199.69 26.4537 200.352 26.7888 200.352C27.1238 200.352 27.4588 200.683 28.1289 200.352H28.4639C28.799 200.683 29.134 200.683 29.469 200.021C29.469 200.352 29.8041 200.352 29.8041 200.683C30.1391 200.683 30.8092 200.683 31.1442 201.014H32.4844C32.8194 201.345 33.8245 201.345 34.1596 201.345C34.4946 201.345 35.1647 201.345 35.4997 201.676C35.8347 201.345 35.8347 201.345 36.5048 201.676H37.1749H38.515H38.8501C39.1851 202.338 40.1902 202.338 40.5252 202.007C40.8603 201.676 40.8603 201.676 40.8603 201.676H41.5303C41.8654 202.007 41.8654 202.007 41.8654 202.007C42.2004 201.676 43.2055 202.338 43.2055 201.345H43.5406C43.5406 202.007 43.8756 202.007 44.2106 201.676H44.8807C45.8858 201.676 46.5559 202.007 47.561 202.338C47.896 202.338 47.896 202.338 47.896 202.007C47.896 202.007 48.2311 202.007 48.2311 201.676C48.5661 202.338 48.5661 202.338 48.9011 202.338H50.5763C50.9114 202.007 51.5814 202.007 52.2515 202.007C52.5865 202.338 53.2566 202.338 53.5916 202.338C53.5916 202.338 53.9267 202.338 53.9267 202.007C54.2617 202.007 55.2668 202.007 55.6019 202.338C55.9369 202.338 55.9369 202.669 56.2719 202.669C56.607 202.338 56.607 202.338 56.942 202.669C56.942 203 57.277 203 57.277 203H57.9471C58.2821 203 58.6172 202.669 59.2873 202.669C59.9573 202.669 59.9573 203 60.6274 203C61.2975 203 63.3077 202.338 63.9778 202.338V201.676C64.3128 201.345 64.3128 201.676 64.3128 202.007C64.3128 202.338 64.6478 202.338 64.6478 202.338C64.9829 202.007 65.6529 202.007 65.988 201.676C65.988 202.007 65.988 202.338 66.323 202.338C66.6581 202.338 66.658 202.007 67.3281 202.007H67.6632C67.9982 201.676 68.3332 201.345 69.0033 201.676C69.3383 201.676 69.6734 202.007 70.0084 201.345H71.0135C71.3485 201.676 71.6836 202.007 72.3537 201.676C72.6887 201.345 72.6887 201.014 73.0237 201.676H73.3588H74.0288C74.3639 201.676 74.3639 201.676 74.3639 201.345C74.6989 201.014 74.6989 201.014 74.6989 201.345C75.034 201.345 75.0339 201.676 75.0339 201.676C75.369 201.676 76.0391 201.676 76.3741 201.345H76.7091C77.0442 201.345 77.0442 201.345 77.3792 201.014C77.7142 201.014 78.3843 201.014 78.7193 200.352C79.0544 200.683 79.0544 201.014 79.7244 200.683C79.7244 200.352 80.0595 200.683 80.0595 200.352H81.0646H81.3996C81.7347 200.683 81.7347 200.352 82.4047 200.352C82.7398 200.352 82.7398 200.352 83.4098 200.021C83.7449 199.69 83.7449 199.69 84.0799 199.69V200.352C84.0799 200.683 84.0799 200.683 84.415 200.683C84.75 200.683 85.085 201.014 85.7551 201.014C86.0901 201.345 86.4252 201.345 86.7602 201.345H87.0952C87.4303 201.345 87.4303 201.345 87.4303 201.014C87.7653 201.345 88.1003 201.345 88.1003 201.345H89.1055C89.4405 201.345 89.4405 201.345 89.4405 201.014H90.1106C90.4456 201.345 90.7806 201.345 91.1157 201.345C91.4507 201.345 91.4507 201.014 91.7857 201.014H93.1259C93.4609 201.014 93.4609 200.352 94.131 200.352C94.131 200.021 94.466 199.69 94.466 199.69L94.8011 199.359C95.1361 198.698 95.8062 198.698 96.1412 198.036C96.4762 198.698 97.1463 198.367 97.4814 198.036C97.8164 198.367 98.4865 198.698 98.8215 198.698C98.8215 199.359 99.1565 199.69 99.4916 200.021C99.8266 200.683 100.497 200.352 100.832 200.683C101.167 200.352 101.167 200.352 101.502 200.352V200.021C101.837 200.021 101.837 199.359 102.172 199.359C102.507 199.028 103.177 198.698 103.512 198.698C103.847 198.698 103.847 198.367 103.847 198.367C103.847 198.036 104.182 197.705 104.182 197.705C104.517 197.043 104.517 196.381 105.187 196.05C105.522 196.05 105.522 196.05 105.522 196.381C105.857 196.05 105.857 195.719 105.857 195.719C105.857 195.388 105.857 195.057 106.192 195.057C106.527 195.388 106.862 195.388 107.532 195.719V196.381C107.867 197.043 107.867 197.043 107.867 197.705C108.203 199.359 109.208 200.352 110.548 200.352H111.888H113.228H113.563C113.898 200.683 113.898 200.683 114.568 201.014C114.903 200.683 115.573 200.352 115.908 200.683C116.243 200.683 116.578 200.683 117.248 200.352C117.584 200.352 118.254 199.69 118.924 199.69H119.259C119.594 199.028 119.929 198.698 120.599 198.036C120.599 198.036 120.934 198.036 120.934 198.367C121.269 198.036 121.269 197.705 121.604 197.705C121.604 197.374 121.939 197.043 121.939 197.043C122.274 197.374 122.274 197.043 122.274 197.043C122.609 196.712 122.609 196.381 122.944 196.05C123.279 196.05 123.279 195.719 123.279 195.719C123.614 196.05 123.949 196.05 124.284 195.719C124.284 195.057 124.619 195.057 124.619 195.057C124.954 194.726 124.954 194.726 124.954 194.726V193.402C124.954 193.071 124.954 193.071 125.289 192.74C125.624 192.74 125.624 192.409 125.959 192.078V191.747L126.294 192.078C126.294 191.416 126.629 191.416 126.629 191.085V190.754C126.965 190.424 126.965 190.093 126.965 190.093C127.3 189.762 127.3 189.431 127.3 189.431L127.97 187.776C128.305 187.114 128.305 186.783 128.305 186.121C128.305 185.79 128.64 185.459 128.64 185.128C128.975 184.466 128.975 184.466 128.975 183.804L129.31 183.473C129.645 183.142 129.645 182.811 129.645 182.48C129.31 181.819 129.31 181.488 129.31 180.826C129.31 180.164 129.31 179.502 129.645 179.171V178.84H129.98V179.171V177.516V175.861V174.537C130.315 173.875 130.315 173.875 129.645 173.875H129.31C129.645 173.545 129.645 173.214 129.645 172.883V171.228V170.897V170.235C129.645 169.904 129.645 169.904 129.98 169.573C130.315 168.911 130.315 168.249 130.315 167.918C130.315 167.587 129.98 167.587 129.98 167.587V166.925C130.315 166.263 129.98 166.263 129.645 165.932C129.645 165.601 129.31 165.601 129.31 165.27C129.645 164.94 129.31 164.609 129.645 163.947C129.645 164.278 129.98 164.278 129.98 164.278V162.623V160.968H129.645C129.645 160.637 129.645 160.637 129.98 160.637C130.315 159.975 130.315 159.644 130.315 158.982V158.651C130.315 157.989 129.98 157.327 130.315 156.996V156.004C133.665 156.665 133.33 156.335 134 156.335Z"
     fill="#D50032"
     id="path2" />
  <path
     d="M73.2251 143.619C73.5601 143.619 73.8951 143.619 73.8951 142.958C74.2302 142.958 74.2302 142.958 74.2302 142.627C74.5652 141.965 75.2353 141.634 75.5703 140.972C75.9053 140.31 76.9105 139.317 77.2455 138.655V137.993C77.2455 137.662 77.2455 137.331 77.5805 137.331C77.9156 137 78.2506 136.669 78.5856 136.669C78.9207 136.338 79.2557 136.338 79.5907 136.007H79.9258C80.2608 136.007 80.5958 135.345 80.9309 135.014C80.9309 134.684 81.2659 134.353 81.601 134.353C81.936 133.36 82.271 132.698 82.9411 132.698C82.9411 132.036 82.9411 132.036 83.2761 132.036C83.2761 131.705 83.6112 131.374 83.6112 131.374C83.9462 130.712 83.9462 130.381 84.6163 130.05C84.9513 129.388 84.9513 129.057 85.6214 128.395C85.6214 127.733 85.9564 127.402 86.6265 127.071C86.2915 126.41 86.9615 126.41 86.9615 126.41C86.9615 126.079 86.6265 126.079 86.6265 125.748C86.9615 125.417 86.9615 125.086 87.6316 124.755C87.6316 124.424 87.9666 124.093 87.9666 124.093L88.3017 123.762V123.431C88.6367 123.1 88.9718 122.769 88.9718 122.438C88.9718 122.107 89.3068 121.776 88.9718 121.114C89.3068 120.452 89.3068 120.452 89.3068 119.79C89.6418 119.459 89.3068 119.128 88.9718 119.128C88.6367 119.459 88.6367 119.459 88.3017 119.79C87.9666 119.459 87.9666 119.459 87.9666 119.79C87.9666 120.121 87.6316 120.121 87.6316 120.121C87.6316 120.452 87.2966 120.452 87.2966 120.783C86.9615 120.783 86.9615 121.114 86.9615 121.114C86.6265 121.776 86.6265 122.107 85.9564 122.438C85.6214 122.438 85.6214 122.769 85.2864 123.1H84.9513C84.6163 123.1 84.6163 123.431 84.6163 123.762C84.2812 124.093 83.9462 124.424 83.6112 124.424C83.6112 124.755 83.2761 124.755 83.2761 125.086C82.9411 125.748 81.936 126.41 81.936 127.071H81.601C81.2659 127.402 81.2659 127.733 80.9309 127.733C80.5958 128.395 80.2608 128.726 79.9258 129.388L79.5907 130.05C79.2557 130.381 79.2557 130.381 78.9207 130.712C78.5856 130.712 78.5856 131.043 78.5856 131.374C78.5856 131.705 78.2506 131.705 78.2506 132.036C77.9156 132.036 77.9156 132.698 77.9156 132.698C77.5805 133.36 77.5805 133.36 77.2455 133.691C76.9105 134.353 76.5754 134.353 76.5754 135.014C76.5754 135.014 76.5754 135.345 76.2404 135.345C76.2404 135.676 75.9053 135.676 75.9053 136.007C75.5703 136.338 75.5703 136.669 75.2353 136.669L74.2302 136.338C74.2302 136.669 73.8951 137 73.8951 137C73.5601 137.331 73.5601 137.331 73.5601 137.662C73.2251 138.324 73.2251 138.655 72.555 139.317C72.2199 139.648 72.22 139.979 72.22 139.979C71.8849 140.31 71.8849 140.641 71.8849 140.641C71.5499 140.972 71.5499 140.972 71.5499 141.303L70.8798 141.965C70.5448 141.965 70.5448 142.296 70.5448 142.627C70.5448 142.958 69.8747 142.296 69.8747 142.296C69.5397 142.958 69.5397 142.958 69.2046 143.619C68.8696 144.281 68.8696 144.281 68.1995 144.612C67.8645 144.943 67.8645 145.274 67.8645 145.274C67.8645 145.274 67.8645 145.936 67.5294 145.936C67.5294 146.267 67.1944 146.598 67.1944 146.598C66.8594 146.929 66.8594 147.26 66.8594 147.26C66.8594 147.26 66.8594 147.591 67.1944 147.591C67.5294 147.591 68.1995 147.591 68.5346 147.922H68.8696C69.2046 147.591 69.2046 147.922 69.2046 147.922H69.8747C70.2097 148.253 70.2097 148.253 70.5448 148.253C70.5448 148.253 70.8798 148.253 70.8798 147.922C71.2148 147.591 71.5499 147.591 71.2148 147.26V146.598C71.2148 146.267 71.5499 145.936 71.5499 145.936C71.8849 145.936 71.8849 145.605 71.8849 145.274C71.5499 144.612 71.8849 144.281 71.8849 143.619H73.2251Z"
     fill="#D50032"
     id="path4" />
  <path
     d="M1.67518 137.349C1.67518 138.011 1.67518 139.004 2.01022 139.335C2.34525 139.996 2.34525 140.327 2.34525 140.989C2.34525 141.32 2.68029 141.651 2.68029 141.651V142.313H3.35036C10.7212 145.292 18.0919 147.94 25.4627 150.918C28.8131 152.242 31.8284 153.566 35.5138 154.559C35.5138 154.559 35.8489 154.559 35.8489 154.89C36.1839 155.221 36.1839 155.221 36.5189 155.221C36.854 155.221 36.854 155.221 36.854 155.552C36.854 155.883 37.189 155.883 37.524 155.883H37.8591C38.1941 156.214 38.8642 156.545 39.1992 156.545C39.5342 156.545 39.5343 156.876 39.5343 156.876C39.8693 157.537 40.8744 157.537 41.5445 157.868C42.2145 158.199 42.8846 158.199 43.8897 158.53H44.2248C44.5598 158.199 44.5598 157.868 44.8948 157.868C45.2299 157.206 45.2299 157.206 44.8948 156.545V156.214C45.2299 155.883 45.2299 155.552 45.2299 155.552C45.2299 155.552 45.5649 154.89 45.2299 154.89C45.5649 154.228 46.235 153.235 46.235 152.242C46.235 152.242 46.57 152.242 46.57 151.911C46.57 151.58 46.905 151.249 46.905 151.249C46.905 150.587 47.2401 150.587 46.905 149.925C47.2401 149.594 47.2401 149.263 47.2401 149.263V148.932V148.271C47.2401 147.94 47.2401 147.609 47.5751 146.947C47.5751 146.947 47.9102 146.616 47.9102 146.285C47.5751 145.623 47.5751 145.292 47.9102 144.63C47.9102 144.299 47.9101 143.968 48.2452 143.637C48.5802 143.637 48.5802 143.968 48.5802 144.63C48.9153 144.63 49.2503 144.961 49.5853 145.292C49.5853 145.623 49.5853 145.623 49.9204 145.623C50.2554 145.954 50.5904 145.954 50.9255 145.623H51.2605C51.5955 145.954 52.2656 145.623 52.6007 145.623C52.9357 145.292 53.2707 145.292 53.6058 144.961C53.6058 144.63 53.9408 144.299 53.9408 144.299C54.2758 143.968 54.2758 143.637 54.2758 143.637C54.2758 142.975 54.6109 142.644 54.9459 142.313L55.616 141.651C55.951 140.989 55.951 140.327 56.6211 140.327V139.996C56.9561 139.666 56.9561 139.335 57.2912 139.004C57.2912 138.673 57.2912 138.342 57.6262 138.342C57.9612 137.68 58.6313 136.687 58.9663 136.356L59.3014 135.694C59.6364 135.363 59.6364 135.032 59.6364 134.701C59.9714 134.37 60.3065 134.039 60.6415 133.377C60.6415 133.046 60.6415 132.715 60.9766 132.715C61.3116 132.384 61.6466 132.053 61.9817 131.392C62.3167 130.73 62.6517 130.068 63.3218 129.737L63.6568 129.406C63.9919 128.744 64.3269 128.413 64.6619 127.751C64.997 127.42 64.997 127.089 65.332 126.758C65.332 126.758 65.6671 126.427 65.6671 126.096C66.0021 125.765 66.0021 125.765 66.0021 125.434L66.3371 124.772C66.6722 124.441 67.0072 124.11 67.3422 123.779C67.6773 123.448 68.0123 123.117 68.3473 122.787C68.6824 122.125 69.0174 121.794 69.3525 121.132C69.6875 120.47 70.0225 119.808 70.6926 119.477C71.0276 119.146 71.0276 119.146 71.0276 119.146C71.3627 119.146 71.3627 118.484 71.6977 118.484L72.0327 118.153C72.3678 117.822 72.7028 117.491 73.0378 117.491C73.3729 116.829 73.3729 116.498 74.043 116.167C74.378 116.167 74.713 115.505 74.713 115.505C75.0481 115.505 75.0481 115.505 75.0481 115.174C75.3831 114.843 76.0532 114.512 76.3882 114.182C76.7232 113.52 77.0583 113.189 77.7284 112.527C77.7284 112.196 77.7284 112.196 78.0634 112.196C78.3984 111.865 78.3984 111.534 78.3984 111.203C78.3984 110.872 78.3984 110.541 78.7335 110.541L79.0685 110.21C79.0685 109.879 79.4035 109.548 79.7386 109.548H80.0736C80.0736 109.548 80.0736 109.217 80.4086 109.217C81.0787 109.217 81.4137 108.555 81.7488 108.555C82.0838 108.224 82.0838 107.893 82.4189 107.893C82.7539 107.562 82.7539 107.231 83.0889 106.9C83.424 106.9 83.424 106.569 83.424 106.569C83.759 106.238 83.759 106.238 83.759 105.908C84.094 105.246 85.0992 104.915 85.7692 104.584C85.7692 104.253 86.1043 104.253 86.1043 103.922C86.4393 103.591 86.4393 103.591 86.4393 103.26C86.7743 102.929 87.4444 102.598 87.7794 102.267C88.1145 101.936 88.4495 101.605 89.1196 101.274H89.4546C89.4546 100.943 89.7896 100.943 89.7896 100.943C89.7896 100.281 90.1247 100.281 89.7896 99.9502C89.4546 99.9502 89.4546 100.281 89.4546 100.281C89.1196 100.943 88.4495 100.943 87.7794 101.274C87.4444 101.274 87.4444 101.605 87.4444 101.605C87.1094 101.936 86.7743 102.267 86.4393 102.267C86.1043 102.929 85.0992 102.929 84.4291 103.26H84.094C83.759 103.26 83.424 103.591 82.7539 103.922C82.4189 103.922 82.4189 104.253 82.0838 104.253C81.7488 104.253 81.4137 104.253 81.4137 104.915H81.0787C80.7437 105.246 80.4086 105.246 80.0736 105.577C79.7386 105.908 78.7335 106.238 78.3984 106.569C78.0634 106.569 77.7284 107.231 77.3933 107.231C77.0583 107.231 77.0583 107.562 77.0583 107.562C76.7233 107.893 76.3882 107.893 76.0532 108.224C75.7181 108.224 75.7181 108.555 75.3831 108.886C75.0481 108.886 75.0481 109.217 74.713 109.548C74.378 109.548 74.043 109.879 73.3729 110.21C73.0378 110.541 72.7028 110.872 72.3678 110.872C72.0327 110.872 72.0327 111.203 71.6977 111.534C71.3627 111.865 71.3627 112.196 70.6926 111.865C70.6926 111.865 70.6926 112.196 70.3576 112.196C70.0225 112.527 70.0225 112.858 69.3525 112.858C69.3525 112.858 69.0174 112.858 69.0174 113.189C68.6824 113.52 68.3474 113.851 67.6773 113.851C67.3422 114.182 67.3422 114.513 66.6722 114.513C66.3371 114.182 66.6722 113.851 66.6722 113.52C66.0021 113.52 65.332 113.52 65.332 112.858H65.6671C66.0021 112.858 66.0021 112.858 66.0021 112.527C66.0021 112.196 66.0021 112.196 66.3371 112.196C66.0021 111.865 65.6671 111.534 65.332 111.865C63.9919 112.196 63.3218 111.534 62.3167 111.534C61.3116 111.203 60.3065 110.872 59.3014 111.203H58.2963C57.6262 111.203 57.9612 112.196 56.9561 112.196C56.9561 111.865 56.6211 111.534 56.6211 111.534C56.6211 111.203 56.286 111.203 56.286 110.872H54.2758C53.9408 110.872 53.9408 111.203 53.6058 110.872C52.2656 110.541 51.2605 110.872 50.2554 110.872H49.9204C48.9153 111.534 48.2452 111.203 47.5751 110.541C47.2401 110.872 47.2401 110.872 46.905 111.203C46.57 110.872 46.57 110.541 46.235 110.872H44.8948C44.5598 110.541 43.8897 110.21 43.5547 110.872C43.2196 111.203 43.2196 110.872 42.8846 110.872C42.5496 110.872 42.5496 110.541 42.2145 110.541H40.8744C40.2043 110.541 39.5343 110.541 38.8642 110.872C38.1941 110.21 37.189 110.541 36.1839 110.872H34.8437H34.5087C33.8386 110.872 33.1686 111.203 32.1635 111.203H32.4985H31.1583L30.8233 109.879C30.8233 109.548 31.1583 109.217 31.1583 109.217C31.4934 108.886 31.4934 108.886 31.8284 108.886H36.1839C37.524 109.217 38.5291 109.217 39.5343 109.217C39.8693 109.217 40.5394 108.886 40.8744 108.886H41.5445C41.8795 109.217 42.5496 109.217 43.2196 108.886H44.5598C45.2299 108.886 45.8999 109.217 46.905 109.217H64.3269H66.0021C65.6671 108.886 65.332 108.555 64.997 108.224H64.6619C64.3269 108.224 64.3269 108.555 64.3269 108.555C63.9919 109.217 63.9919 109.217 63.3218 108.886V108.555C62.9868 107.893 62.9868 107.893 62.9868 108.224H62.6517H62.3167C62.3167 107.562 61.9817 107.562 61.9817 107.562L61.6466 106.9C61.3116 106.9 61.3116 106.569 60.9766 106.238C61.3116 105.577 61.3116 104.584 61.3116 104.253C61.6466 103.922 61.6466 103.591 61.6466 103.591C61.9817 103.591 62.3167 102.929 62.6517 102.598C62.6517 102.267 62.9868 101.936 62.9868 101.605C63.3218 101.274 63.3218 100.943 63.3218 100.943C63.6568 100.612 63.6568 100.281 63.6568 100.281C63.9919 99.9502 63.9919 99.6193 64.6619 99.6193C64.997 99.6193 64.997 99.9502 65.332 99.6193C65.6671 98.9573 66.6722 98.9573 67.0072 98.2954C67.0072 97.9644 67.3422 97.9644 67.3422 97.9644C67.3422 97.9644 67.6773 97.9644 67.6773 97.6335C68.0123 97.9644 68.0123 97.9644 68.3473 97.6335C68.6824 97.3025 68.6824 97.3025 68.6824 97.3025C68.6824 97.3025 69.0174 97.3025 69.0174 96.9716C69.3525 96.6406 70.3576 96.3096 70.6926 96.3096C71.0276 96.3096 71.0276 96.3096 71.3627 95.9787C71.6977 95.3168 72.0327 95.6477 72.7028 95.3168C73.0379 95.6477 73.3729 95.3168 74.043 94.9858C74.378 94.6548 74.378 94.6548 74.713 94.6548C75.0481 94.6548 75.7181 94.3239 76.0532 93.9929C76.3882 93.662 76.3882 93.662 76.3882 93.662C76.7232 93.662 77.3933 93.331 77.7284 93.331C78.0634 93 78.7335 92.6691 79.0685 92.6691C79.4035 92.3381 79.7386 92.3381 80.0736 92.0071C80.4086 92.0071 80.4086 92.0071 80.4086 91.6762C80.7437 91.6762 81.4137 91.6762 81.7488 91.3452V93.331C83.759 93.331 83.759 93.331 84.094 93.331C84.094 93 84.4291 92.6691 84.7641 92.6691C85.0991 92.3381 85.0991 92.0071 85.0991 92.0071C85.4342 92.3381 85.4342 92.3381 85.4342 92.6691C85.7692 92.3381 85.7692 92.0071 86.1043 92.0071C86.1043 92.0071 86.4393 92.0072 86.4393 92.3381C86.7743 92.0072 86.7743 91.6762 87.1094 91.6762C87.4444 91.6762 87.4444 91.3452 87.7794 91.3452H88.1145H88.4495C88.7845 91.3452 89.4546 91.0143 89.7896 90.6833H90.1247C90.4597 91.0143 90.4597 90.6833 90.7948 90.6833C91.1298 90.6833 91.1298 90.3523 91.4648 90.3523C91.7999 91.0143 92.4699 90.0214 92.805 90.3523C93.14 90.0214 93.8101 89.6904 94.1451 89.6904H95.1502C95.4853 89.0285 96.4904 89.0285 97.1604 89.0285C97.8305 88.6975 98.5006 88.3666 98.8356 88.0356C99.1707 88.3666 99.1707 88.3666 99.1707 88.6975C99.5057 89.0285 99.8407 89.0285 100.176 89.0285C100.511 88.6975 100.511 88.6975 100.511 88.6975C100.846 88.6975 101.181 88.6975 101.516 88.3666C101.851 88.3666 101.851 88.6975 102.186 88.6975C102.186 88.6975 102.521 88.6975 102.521 89.0285C102.856 89.3595 102.856 89.3595 103.526 89.3595C103.191 90.0214 103.861 90.3523 104.866 90.6833C104.531 90.6833 104.531 91.0143 104.531 91.3452C104.866 91.3452 104.866 91.6762 105.201 91.6762C105.201 91.6762 105.201 91.3452 105.536 91.3452C105.536 92.0071 105.871 92.0071 106.206 92.0071V92.3381L106.876 93L107.547 93.662C107.882 93.9929 108.217 93.9929 108.217 94.3239C108.552 94.6548 108.552 94.9858 108.552 95.3168C108.887 95.3168 108.887 95.6477 108.887 95.6477C108.887 95.9787 108.887 95.9787 109.222 96.3096C109.557 96.3096 109.557 96.6406 109.557 96.9716C109.557 97.3025 109.557 97.6335 109.892 97.6335L110.227 97.9644C110.562 98.6264 110.562 98.9573 110.562 99.6193C110.897 100.281 111.232 100.612 111.567 100.943V101.605C111.902 101.605 111.902 101.936 111.902 101.936C112.237 102.598 112.237 102.929 112.572 103.591V103.922C112.572 104.584 112.237 104.584 112.237 104.584C111.902 104.915 111.902 105.246 111.902 105.246L111.567 105.908C111.232 105.908 111.232 105.908 111.232 106.238C110.897 106.238 110.562 106.238 109.892 106.569C109.557 106.9 109.557 107.231 108.887 107.562C108.552 108.224 107.882 108.224 107.547 108.224C106.876 108.555 106.206 108.886 105.871 108.886C105.536 109.217 105.536 109.217 105.201 109.548C104.866 109.879 104.531 109.879 103.861 110.21H103.526C103.191 110.872 102.856 111.203 102.186 111.203C101.851 111.203 101.851 111.534 101.851 111.534H101.516C101.181 111.865 100.846 112.196 100.511 112.527C100.176 113.189 99.5057 113.189 98.8356 113.52C98.5006 113.851 98.1656 114.182 97.8305 114.182C97.4955 114.512 97.4955 114.843 97.1604 114.843C96.4904 115.174 95.8203 115.505 95.4853 115.836C94.8152 116.498 94.1451 116.498 93.475 117.16C93.8101 116.167 93.8101 116.498 93.475 117.491C93.475 117.822 93.14 118.153 93.8101 118.484C93.4751 119.146 93.4751 119.146 94.1451 119.146C94.1451 119.146 94.4802 119.146 94.4802 119.477H94.8152C94.8152 119.477 95.1502 119.477 95.1502 119.808H95.4853H96.1553C96.4904 119.808 96.4904 119.808 96.4904 120.139C97.1604 120.139 97.8305 120.139 98.1656 120.801C98.5006 121.132 99.1707 121.463 99.5057 121.463C100.176 122.125 100.846 122.456 101.851 123.117C102.186 123.448 102.186 123.779 102.521 124.11C102.521 124.772 102.856 124.772 102.856 125.434C103.191 126.096 103.526 127.089 103.191 127.751C103.191 128.413 102.856 128.744 102.186 128.744C101.516 128.744 100.846 129.075 100.846 129.737C100.511 129.737 100.176 129.737 99.8407 130.068C99.5057 130.73 99.5057 130.73 99.1707 130.73C98.8356 131.061 98.5006 131.392 98.1656 131.392C98.1656 131.722 97.8305 131.722 97.8305 132.053C97.4955 132.053 97.4955 132.384 97.4955 132.715C97.1604 132.715 97.1604 133.046 97.1604 133.046C96.8254 133.708 96.8254 133.708 96.4904 134.039C96.4904 134.37 96.1553 134.701 96.1553 134.701C95.8203 135.032 95.8203 135.363 95.1502 135.363V135.694C94.8152 136.356 94.4802 136.687 93.8101 137.018C93.4751 137.349 93.14 137.349 93.14 137.68C93.14 138.342 92.805 138.342 92.805 138.673C92.4699 139.335 92.1349 139.335 91.7999 139.996C91.4648 140.658 91.1298 140.989 90.4597 141.651H90.1247C89.7896 142.313 89.4546 142.313 89.4546 143.306C89.1196 143.968 89.1196 144.299 88.4495 144.63C88.4495 144.961 88.1145 144.961 88.1145 145.292C88.1145 145.623 87.7794 145.954 87.7794 145.954C87.7794 146.285 87.4444 146.616 87.4444 146.616C87.1094 147.278 87.1094 147.278 87.1094 147.278V147.94C87.1094 148.601 87.4444 148.932 87.4444 149.594V149.925C87.4444 150.587 87.1094 150.587 87.1094 150.918L87.4444 151.249H89.1196H94.4802H97.4955C97.4955 151.249 97.8305 151.249 97.8305 150.918L98.1656 151.249H99.8407H102.186C102.521 151.249 103.526 151.58 103.861 151.249H105.201H105.536H106.876C107.212 151.249 107.882 151.249 108.217 151.58C108.552 151.58 108.552 151.249 108.552 151.249C109.557 151.58 110.562 151.58 111.567 151.58H116.928H117.263C117.598 151.58 117.598 151.249 117.933 151.58C118.603 151.58 119.273 151.58 119.943 151.249C120.278 151.58 120.613 151.249 121.283 151.249C121.953 151.249 122.288 150.918 122.623 150.918C122.958 150.918 123.628 150.587 123.963 150.918C124.968 150.918 125.639 150.587 126.644 150.256C126.979 150.256 127.314 150.256 127.649 149.925H128.319C128.654 149.594 128.654 149.594 128.654 149.594C129.324 149.925 129.994 149.594 130.664 149.263C130.999 149.263 130.999 148.932 131.334 148.601V147.94V133.708V132.384H131.669C132.004 131.722 131.669 131.722 131.334 131.392C131.334 131.392 130.999 131.061 131.334 130.73C131.334 130.73 131.669 130.73 131.669 131.061V129.075V126.427C131.669 125.765 132.004 125.103 132.004 124.441V123.117C131.669 123.117 131.669 122.787 131.669 122.456C132.004 122.125 131.669 121.794 131.669 121.794C131.334 121.794 131.334 122.125 131.334 122.125C130.999 121.132 131.334 120.47 131.669 119.477C131.334 119.477 131.334 119.146 131.334 119.146C131.334 118.815 131.669 118.484 131.334 118.484V117.822V117.16L130.999 116.829C130.664 116.829 130.664 116.498 130.664 116.167C130.999 115.836 130.999 115.505 130.999 115.174V114.182L131.334 113.52C131.669 113.189 131.669 112.858 131.669 112.858V113.189C132.004 112.527 132.004 111.534 131.669 111.203V109.879H132.004V107.562C132.004 107.562 132.004 107.231 131.669 107.231C131.669 106.569 131.334 105.908 131.334 105.577V104.584V103.26C131.334 103.26 131.334 102.929 130.999 102.929C130.999 102.598 130.999 102.267 130.664 102.267C130.664 101.605 130.329 101.605 130.329 101.274V100.612C130.664 100.281 130.664 99.9502 130.329 99.9502V99.2883V98.2954C130.329 97.9644 129.994 97.6335 129.994 96.9716V94.3239V93.662C130.329 93.331 130.329 93 129.994 93V92.3381V91.6762C130.329 92.0071 130.329 92.0072 130.329 92.3381C130.664 92.3381 130.664 92.3381 130.664 92.0071C130.999 91.3452 130.999 91.3452 130.999 91.0143C131.334 90.0214 130.999 89.3595 131.334 88.3666C131.334 87.7047 130.999 87.7047 130.999 87.3737C131.334 87.0427 131.334 87.0427 131.334 86.7118C130.999 86.7118 130.999 86.3808 130.999 86.3808C130.999 85.7189 130.999 85.7189 130.664 85.3879C130.329 84.726 130.329 84.726 130.329 84.395C130.664 83.7331 130.664 82.7402 130.329 82.0783C130.329 82.0783 129.994 81.7474 129.994 81.4164V78.7687C129.994 78.4378 129.994 78.1068 130.329 78.1068C130.664 76.7829 130.664 75.7901 130.664 74.4662C130.664 73.8043 130.329 73.1424 129.994 72.8114C129.994 72.8114 129.659 72.4805 129.659 72.1495H129.994C130.329 71.8185 130.664 71.4876 130.664 71.1566C130.329 70.4947 130.664 70.1637 130.664 69.5018H130.999C131.334 69.1708 131.334 68.5089 130.999 68.178C130.664 67.847 130.664 67.516 130.664 67.1851C130.664 66.5232 130.999 65.5303 130.664 65.1993V64.8683C130.664 64.2064 130.664 64.2064 130.329 64.2064C130.329 63.5445 129.994 63.2135 129.994 62.8826C129.659 62.5516 129.324 62.2207 128.989 61.8897C128.654 61.5587 128.654 61.2278 128.654 61.2278C130.664 62.8826 130.664 62.8826 130.664 62.5516C130.329 62.2207 130.329 61.8897 130.329 61.2278V60.2349C129.994 60.2349 129.994 60.5659 129.994 60.5659V60.2349C130.329 59.573 130.329 59.242 129.994 58.5801C129.659 57.2562 129.324 55.9324 129.659 54.6086C129.659 54.2776 129.994 53.9466 129.994 53.9466C129.659 53.6157 129.659 53.2847 129.659 53.2847C129.994 52.6228 129.994 52.2918 129.659 51.9609C129.324 51.6299 129.324 51.299 129.324 50.968C129.324 50.637 128.989 50.3061 128.989 49.6441C128.989 49.3132 128.654 49.3132 128.654 49.3132L128.319 48.9822C127.984 47.9893 127.984 43.6868 128.319 43.3559C128.654 44.0178 128.654 44.3488 128.654 45.0107C128.989 45.0107 128.989 44.6797 128.989 44.3488V43.6868C128.989 43.3559 128.989 43.0249 129.324 43.0249H129.659C129.659 42.363 129.994 42.032 129.324 41.3701C129.324 40.7082 128.989 40.7082 129.659 40.0463C129.659 40.3772 129.659 40.3772 129.994 40.3772C129.994 40.0463 130.329 39.7153 129.994 39.7153C129.659 39.7153 129.659 39.3844 129.994 39.3844C129.994 39.0534 130.329 39.0534 130.329 38.7224C130.329 39.3844 130.329 39.3844 130.664 39.7153C130.664 39.3844 130.999 39.0534 130.999 39.0534C130.999 38.7224 131.334 38.7224 131.334 38.3915C131.334 38.3915 131.334 38.0605 130.999 37.7295C131.334 37.7295 131.334 37.3986 131.669 37.3986V37.0676C131.669 36.7367 131.334 36.4057 132.004 35.7438C131.669 35.4128 131.669 34.7509 131.334 34.4199V34.089C131.334 33.4271 131.334 33.4271 130.999 33.0961C130.664 33.0961 130.664 32.7651 130.664 32.4342V33.0961H130.999C130.999 32.4342 131.334 32.4342 130.664 31.7723C130.329 31.7723 130.329 32.1032 130.329 32.4342C129.994 31.7723 129.994 31.4413 129.994 30.7794H129.324C127.984 31.1103 127.314 30.4484 126.979 30.4484L126.644 30.1174V29.7865C126.979 30.1174 127.314 30.1174 127.984 30.1174C127.984 30.7794 128.319 30.7794 128.319 30.4484C128.654 30.1174 128.654 30.1174 128.654 29.7865V28.7936C128.319 28.1317 128.654 28.1317 128.989 28.1317V28.7936C128.989 29.4555 129.324 29.7865 129.324 30.4484C129.659 30.4484 129.659 30.4484 129.659 30.1174C129.324 31.1103 129.324 31.1103 129.994 31.1103C130.329 31.1103 130.329 30.4484 130.664 30.1174V29.7865C130.999 29.4555 130.999 29.1246 130.999 29.1246C130.664 28.7936 130.664 28.4626 130.999 28.4626C131.334 28.1317 131.334 27.8007 131.334 27.1388C131.669 26.8078 131.334 26.4769 131.334 26.4769C131.334 25.815 130.999 25.484 130.999 24.8221C130.999 24.4911 130.999 24.1602 131.334 23.4982V22.5053H130.664C130.664 22.5053 130.664 22.1744 130.999 22.1744C131.334 21.8434 131.334 21.5125 131.334 21.5125V20.5196C130.999 20.1886 130.999 19.8577 131.334 19.1957V18.5338C130.999 17.8719 130.664 17.21 130.999 16.879C130.999 16.548 130.999 16.2171 130.664 15.8861C130.329 15.5552 129.994 15.2242 129.994 14.5623C129.659 14.2313 129.659 13.9004 129.324 13.2384C129.324 13.2384 128.989 13.2384 128.989 12.9075C129.324 12.2456 128.654 12.2456 128.654 11.5836C128.654 11.5836 128.654 10.9217 128.319 10.9217C127.649 11.2527 127.649 10.9217 127.314 10.5908V9.59787L126.979 9.26691C126.644 9.26691 126.644 8.93595 126.644 8.60499C126.644 7.94306 126.309 6.95018 125.974 6.28826V6.95018C125.639 6.95018 125.303 6.95018 125.639 6.28826V5.29538C125.303 4.96441 125.303 4.63345 125.303 4.63345C125.303 4.30249 124.968 4.30249 124.633 4.30249H123.963C123.293 3.97153 122.623 3.64057 122.288 3.30961C121.953 3.30961 121.618 2.97865 121.283 3.30961C121.283 2.97865 120.948 2.64769 120.948 2.64769C120.613 2.64769 120.278 2.64769 119.943 2.31673H119.608C119.273 1.98577 119.273 1.6548 118.938 1.98577H118.603C118.268 1.6548 117.598 1.32384 117.263 1.6548C116.928 1.6548 116.257 1.32384 115.922 1.98577H114.582C114.247 1.6548 114.247 1.98577 114.247 2.31673C113.912 1.98577 113.577 2.31673 113.242 1.6548C113.242 1.32384 112.907 1.32384 112.572 1.6548C112.237 1.98577 111.902 1.98577 111.232 1.98577C110.897 1.6548 110.897 1.6548 110.897 1.6548C110.897 1.6548 110.562 1.6548 110.562 1.32384C110.227 0.992883 110.227 0.992883 109.892 0.992883C109.557 1.32384 109.557 1.32384 109.222 0.992883C108.887 0.661922 108.217 0.661922 107.882 1.32384C107.547 1.32384 107.547 1.32384 107.547 0.992883C106.876 0.992883 106.876 0.992883 106.541 1.6548H106.206L105.871 1.32384C105.536 1.6548 105.536 1.32384 105.201 0.992883L104.866 0.330961C104.531 0.661922 103.861 0.992883 103.526 0.661922H103.191C102.856 0.992883 102.856 0.992883 102.521 0.992883H102.186C101.851 1.32384 101.516 1.32384 101.181 0.992883C101.181 0.661922 101.516 0.661922 101.516 0.330961C101.181 0.330961 101.181 0 101.181 0.330961C100.846 0.661922 100.176 0.330961 99.8407 0C97.4955 0.661922 97.1604 0.661922 96.8254 0.661922L96.4904 0.992883C96.1553 0.661922 96.1553 0.661922 95.8203 1.32384H95.1502C95.1502 0.992883 94.8152 0.992883 94.8152 0.992883C94.4802 0.661922 94.1451 0.661922 93.8101 0.992883C93.4751 0.992883 92.805 0.330961 92.4699 1.32384C92.1349 0.992883 92.1349 0.661922 91.7999 0.992883C91.7999 1.32384 91.4648 1.32384 91.4648 1.32384H91.1298C90.7948 1.6548 90.7948 1.98577 90.1247 1.6548C89.7896 1.98577 89.7897 1.98577 89.4546 1.98577L89.1196 1.6548H87.7794C87.4444 1.98577 87.1094 1.6548 86.7743 1.6548C86.4393 1.32384 86.1043 1.32384 85.7692 1.6548H85.4342H83.759C83.424 1.6548 82.4189 1.98577 82.0838 1.6548H81.0787C80.7437 1.6548 80.4086 1.6548 80.0736 1.32384C79.7386 0.992883 79.7386 0.992883 79.7386 1.32384C79.4035 1.6548 79.0685 1.6548 78.3984 1.6548H77.7284C77.3933 1.98577 76.7232 1.6548 76.3882 1.6548H75.3831C75.0481 1.32384 75.0481 1.6548 75.0481 1.6548H74.713C73.7079 1.6548 73.7079 1.32384 73.7079 1.32384C73.3729 0.992883 73.3729 0.992883 72.7028 1.32384H72.3678H72.0327V1.98577C71.6977 1.98577 71.6977 1.98577 71.6977 1.6548C71.3627 1.6548 71.3627 1.32384 71.3627 1.6548V2.31673C71.0276 1.98577 70.3576 1.98577 70.3576 1.6548C70.0225 1.6548 70.0225 1.32384 70.0225 1.32384C69.6875 1.6548 69.6875 1.6548 69.3525 1.6548C69.0174 1.32384 69.0174 1.32384 68.6824 1.6548C68.3473 1.98577 68.3473 2.31673 68.0123 1.98577C68.0123 1.98577 67.6773 1.98577 67.6773 2.31673H67.3422C67.0072 1.98577 67.0072 1.98577 66.6722 2.31673H66.3371H66.0021C66.0021 2.31673 66.0021 2.64769 65.6671 2.97865C65.332 2.64769 64.997 2.31673 64.6619 2.64769H64.3269C63.9919 2.31673 63.3218 2.64769 62.9868 2.64769H61.9817H61.6466C61.3116 2.97865 60.6415 2.97865 60.3065 2.64769C59.9714 2.64769 59.3014 2.97865 59.3014 2.31673H58.2963V2.97865H57.6262C57.2912 2.64769 57.2912 2.64769 57.2912 2.97865H56.6211H55.2809V1.98577V1.6548C54.9459 1.6548 54.6109 1.6548 54.2758 1.98577C53.9408 1.98577 53.9408 2.31673 53.9408 2.31673C53.6058 1.98577 52.6007 1.98577 52.2656 1.6548C52.2656 1.32384 51.9306 1.32384 51.9306 1.32384C51.5955 1.6548 51.2605 1.6548 50.9255 1.6548C50.5904 1.32384 49.5853 1.6548 49.2503 1.6548C48.9153 1.6548 48.5802 1.98577 48.2452 1.6548C47.9101 1.6548 47.5751 1.32384 46.905 1.6548H43.5547C43.2196 1.98577 43.2196 2.31673 42.8846 1.98577C42.5496 1.32384 42.2145 1.6548 41.5445 1.98577L40.8744 1.32384C40.5394 1.32384 39.8693 1.32384 39.5343 1.98577C38.8642 1.98577 38.1941 2.31673 37.524 2.31673C37.189 1.98577 36.854 1.98577 36.5189 1.98577C36.1839 2.31673 35.8489 2.31673 35.8489 2.64769C35.5138 2.64769 35.5138 1.98577 35.5138 1.98577C34.8437 1.98577 34.8437 1.98577 34.8437 2.64769V2.97865C34.5087 3.30961 34.8437 4.63345 34.8437 4.63345C35.1788 4.63345 35.1788 4.96441 35.1788 4.96441H34.8437C33.8386 4.30249 33.5036 3.97153 33.8386 3.30961C34.1737 2.64769 34.1737 2.64769 33.5036 2.31673C33.5036 1.98577 33.1686 1.98577 33.1686 1.6548H32.4985V1.98577C32.1635 1.98577 31.8284 1.98577 31.8284 1.98577C31.4934 1.6548 31.4934 1.6548 31.1583 1.6548C30.4883 1.32384 30.4883 1.6548 30.1532 1.98577C29.8182 1.98577 29.4832 2.31673 29.1481 1.98577H28.8131C28.4781 1.98577 27.473 1.6548 26.8029 1.98577C26.4678 2.31673 26.1328 2.31673 25.7978 1.98577H25.1277C24.7927 1.6548 24.4576 2.31673 23.7876 1.98577H23.4525C23.1175 1.98577 22.7824 1.98577 22.4474 2.31673V1.6548H22.1124C21.7773 1.6548 21.7773 1.6548 21.7773 1.98577H20.7722C20.4372 1.98577 20.4372 1.98577 20.1022 2.31673C20.1022 2.31673 20.1022 2.64769 19.7671 2.64769C19.4321 2.64769 19.4321 2.31673 19.0971 2.31673C18.762 2.31673 18.762 2.64769 18.762 3.30961H18.427C18.0919 2.97865 17.7569 2.97865 17.0868 3.30961C16.4168 2.97865 16.0817 2.97865 15.7467 2.97865H15.4117H15.0766C14.7416 2.97865 14.7416 3.30961 14.7416 2.97865H14.4065C13.7365 2.97865 13.4014 3.30961 13.4014 3.30961H13.0664C12.7314 3.64057 12.3963 3.64057 12.3963 3.64057C12.0613 3.64057 12.0613 3.64057 11.7263 3.97153H11.3912C11.0562 3.64057 10.7212 3.97153 10.3861 4.30249H10.0511C10.0511 4.63345 9.71604 4.96441 9.71604 4.96441C9.71604 5.29538 10.0511 5.29538 10.0511 5.62634C10.0511 5.9573 9.38101 6.28826 9.04597 6.28826C8.71094 5.9573 8.71094 6.28826 8.3759 6.28826C8.3759 6.61922 8.04086 6.61922 8.04086 6.95018V8.27402C7.70583 8.60499 7.70583 8.60499 8.04086 8.93595L8.3759 9.26691V9.59787C8.04086 9.59787 7.70583 9.26691 7.37079 9.26691C6.70072 8.93595 6.70072 9.26691 6.36568 9.26691V9.59787C6.36568 9.92883 6.03065 9.92883 6.03065 10.2598C6.03065 10.5908 6.03065 10.9217 6.03065 11.2527C6.03065 11.5836 6.03065 11.9146 5.69561 11.9146C5.36058 11.9146 5.36058 12.2456 5.36058 12.5765H4.6905C5.02554 13.2384 4.35547 13.2384 4.35547 13.5694H5.02554C5.02554 13.5694 5.02554 13.9004 4.6905 13.9004V14.5623C4.6905 14.8932 4.35547 15.2242 4.02043 15.8861C4.02043 16.2171 3.6854 16.548 3.6854 16.548C3.35036 17.21 3.35036 17.5409 3.35036 18.2029C3.01532 18.2029 3.01532 18.2029 2.68029 18.5338V19.1957C2.68029 19.5267 2.68029 19.5267 2.34525 19.5267C2.34525 19.8577 2.34525 20.1886 2.34525 20.5196C2.68029 21.1815 2.68029 21.1815 2.68029 21.5125C2.68029 21.8434 2.34525 22.1744 2.68029 22.5053V24.1601C2.34525 24.8221 2.34525 24.8221 2.68029 25.484C3.01532 26.1459 3.01532 26.1459 2.68029 26.8078V28.4626C2.68029 28.4626 3.01532 28.4626 2.68029 28.7936V30.1174C2.68029 30.7794 3.01532 31.1103 2.34525 31.4413V31.7723C2.34525 31.7723 2.34525 32.1032 2.01022 32.1032C1.67518 32.1032 2.34525 32.4342 2.34525 33.0961C2.68029 33.4271 2.68029 33.758 2.68029 34.089C2.68029 34.4199 2.68029 34.7509 2.34525 34.7509V35.0819C2.01022 35.0819 2.01022 35.4128 2.01022 35.7438C2.01022 36.0747 2.01022 36.4057 2.34525 36.4057C2.68029 36.4057 2.34525 36.7367 2.34525 37.0676C2.34525 37.0676 2.34525 37.0676 2.01022 37.0676V38.7224C2.01022 39.3844 2.34525 39.3844 2.34525 40.0463C2.34525 40.7082 2.68029 41.3701 2.68029 42.032C2.34525 42.363 2.68029 42.694 3.01532 42.694C2.68029 43.3559 2.68029 43.6868 2.68029 44.3488H3.01532V45.6726V46.0036C2.68029 46.0036 2.68029 46.3345 2.68029 46.6655C2.68029 46.9965 3.01532 47.3274 2.68029 47.6584V47.9893V48.3203V49.9751V50.3061C2.68029 49.9751 3.01532 49.6441 3.01532 49.6441C3.35036 49.6441 3.35036 49.9751 3.35036 50.3061V51.6299C3.35036 51.6299 3.35036 52.2918 3.01532 52.2918C2.68029 52.6228 2.68029 52.6228 2.68029 52.9538V53.6157C3.01532 53.9466 3.01532 54.2776 3.01532 54.2776C2.68029 54.6086 2.68029 54.9395 2.68029 54.9395C3.01532 54.6086 3.01532 54.6086 3.01532 54.6086C3.01532 55.2705 2.68029 55.6014 2.68029 56.2634C2.68029 56.9253 2.34525 56.9253 2.34525 57.5872V56.9253C2.34525 57.5872 2.68029 57.9182 2.68029 58.5801C2.68029 58.9111 2.34525 58.9111 2.34525 58.9111L2.01022 58.5801V58.9111V59.242C2.34525 60.2349 2.34525 60.8968 2.34525 61.8897C2.34525 62.2207 2.01022 62.2207 2.01022 62.5516V66.1922V68.8399V69.1708C2.01022 69.5018 1.67518 69.8328 1.67518 69.8328V70.4947V73.1424L2.01022 73.4733V76.121C1.67518 76.452 1.67518 76.783 1.67518 77.1139C1.67518 77.7758 1.67518 77.7758 2.01022 77.7758C2.34525 78.1068 2.34525 78.4378 2.34525 78.7687V79.4306C2.68029 80.0926 2.68029 80.0926 2.34525 80.4235V80.0926C2.68029 80.4235 2.68029 80.7545 2.68029 80.7545L2.34525 81.0854C2.01022 81.0854 2.01022 81.0854 2.01022 80.7545V80.0926V80.7545V83.4022C2.01022 84.0641 2.34525 84.3951 2.34525 85.057V86.7118L2.01022 86.3808V86.7118V87.7047V88.0356C2.34525 88.3666 2.01022 88.6975 2.01022 89.0285V90.0214V92.6691V95.3168V96.6406V97.6335V98.2954C2.01022 99.2883 2.34525 99.9502 2.68029 100.943C2.68029 101.274 2.68029 101.274 3.01532 101.605C3.01532 102.267 3.01532 102.267 2.68029 102.929V103.922C2.34525 104.584 2.01022 104.915 2.34525 105.577C2.01022 106.238 2.01022 106.569 2.01022 107.231C2.01022 107.893 2.34525 108.555 2.01022 108.886L2.34525 109.217C2.68029 108.886 2.68029 108.886 2.68029 108.886C3.35036 108.224 3.35036 108.224 3.6854 107.893H4.02043C4.35547 107.893 4.35547 107.562 4.6905 107.231C4.6905 106.9 5.02554 106.9 5.02554 106.9C5.36058 106.569 5.36058 106.569 5.36058 106.569C5.69561 105.908 6.70072 105.908 7.03576 105.246C7.37079 104.915 8.04086 104.584 8.3759 104.584C8.71094 104.253 8.71094 103.922 9.04597 103.922C9.38101 103.591 9.38101 103.26 9.71604 103.26C10.0511 103.26 10.3861 102.929 10.7212 102.598C11.0562 102.598 11.0562 102.598 11.0562 102.267C11.3912 101.936 12.0613 101.605 12.3963 101.605C12.7314 101.605 12.7314 101.605 13.0664 101.274C13.7365 100.612 14.4065 100.612 15.0766 99.9502C16.4168 100.281 16.7518 99.9502 16.7518 99.2883C17.0868 98.9573 17.0868 98.9573 17.0868 98.9573C17.0868 98.6264 17.4219 98.6264 17.4219 98.6264C17.7569 98.6264 17.7569 98.2954 18.0919 98.2954C18.427 98.2954 18.427 97.9644 18.762 97.9644C19.0971 97.6335 19.4321 97.3025 19.7671 97.3025C20.1022 97.3025 20.1022 96.9716 20.1022 96.9716L21.4423 96.6406C21.7773 96.6406 21.7773 96.3096 22.1124 96.3096C22.4474 95.6477 22.7824 95.6477 23.4525 95.3168L23.7876 94.9858C23.4525 94.6548 23.4525 94.6548 23.1175 94.9858C22.7824 95.3168 22.1124 95.6477 21.7773 95.6477C21.4423 95.6477 21.4423 95.9787 21.1073 95.9787C20.7722 95.9787 19.7671 95.9787 19.4321 95.6477C19.0971 95.3168 19.0971 95.3168 18.762 94.9858C19.0971 94.3239 19.0971 94.3239 19.0971 93.9929C19.0971 93.662 18.762 93.662 18.762 93.662C18.427 93.662 18.0919 93.331 17.7569 93.331C17.4219 93.331 17.0868 93.331 17.0868 93C17.0868 93 16.7518 93 16.7518 92.6691H16.4168C16.0817 92.0071 15.4117 92.0071 15.0766 91.3452C15.0766 91.0143 14.7416 91.0143 14.7416 90.6833L13.4014 90.0214H12.7314C12.0613 89.6904 11.3912 89.3595 10.3861 89.6904C10.3861 90.0214 10.3861 90.0214 10.3861 90.0214L10.0511 89.6904V89.3595L10.3861 89.0285C10.3861 88.6975 10.3861 88.6975 10.7212 88.3666C11.0562 88.3666 11.0562 88.0356 11.0562 87.7047C10.7212 87.0427 11.3912 87.0427 11.3912 87.0427C11.7263 86.7118 11.7263 86.7118 11.7263 86.3808C11.7263 86.0499 12.0613 85.7189 12.0613 85.7189C12.3963 85.3879 12.3963 84.726 13.0664 84.726V84.395C13.4014 84.0641 13.4014 83.7331 13.4014 83.4022V83.0712C14.0715 83.4022 14.4065 83.4022 14.4065 82.7402C14.4065 82.0783 14.7416 81.7474 14.7416 81.4164L15.0766 81.0854C15.4117 81.4164 15.4117 81.0854 15.4117 80.7545C15.4117 80.7545 15.4117 80.4235 15.7467 80.4235L16.0817 80.0926C16.4168 80.0926 16.4168 80.0926 16.4168 80.4235C16.7518 80.0926 17.4219 79.7616 17.7569 79.0997L18.0919 78.7687C18.427 78.4378 18.762 78.1068 19.0971 77.4449C19.4321 77.4449 19.4321 77.1139 19.4321 77.1139C19.7671 77.1139 19.7671 76.7829 20.1022 76.452V76.121C20.4372 75.7901 20.7722 75.4591 21.4423 75.1281C21.7773 74.4662 22.1124 74.1353 22.7824 73.4733L23.1175 73.1424C23.1175 72.4805 23.4525 72.4805 23.7876 72.1495L24.4576 71.4876C24.7927 71.4876 24.7927 71.1566 24.7927 71.1566C25.1277 70.4947 26.1328 70.1637 26.4678 69.8328C26.8029 69.5018 28.4781 70.1637 29.1481 70.1637C29.4832 69.8328 29.8182 69.5018 30.4883 69.1708C31.1583 68.5089 31.8284 68.178 32.4985 67.516C32.8335 66.8541 33.5036 66.8541 33.8386 66.1922C34.1737 66.5232 34.1737 66.5232 34.5087 66.1922C34.8437 65.8612 34.8437 65.8612 35.1788 65.5303C35.8489 65.5303 36.1839 64.8683 36.5189 64.5374C36.854 64.5374 36.854 64.2064 37.189 64.2064C37.189 63.8755 37.189 63.8755 37.524 63.8755C37.8591 63.2135 38.5291 63.2136 38.8642 62.5516C39.1992 62.2207 39.5342 61.8897 39.8693 61.8897C40.2043 61.5587 40.8744 61.2278 41.2094 61.2278H41.8795C42.5496 60.8968 42.8846 60.5659 43.2196 60.2349C43.5547 59.9039 43.8897 59.573 44.2248 59.573C44.5598 59.242 45.2299 59.242 45.5649 58.9111H45.8999C46.235 58.9111 46.235 58.5801 46.57 58.2491C46.905 57.9182 46.905 57.9182 46.905 57.5872C47.5751 56.9253 48.2452 56.5943 49.2503 56.2634V56.9253C49.5853 56.2634 49.5853 56.2634 49.9204 56.2634C50.2554 55.9324 50.2554 55.6014 50.2554 55.6014C50.2554 55.2705 50.5904 55.2705 50.5904 54.9395C50.9255 54.9395 50.9255 54.6086 51.2605 54.6086C51.2605 54.2776 51.5955 54.2776 51.5955 54.2776C52.9357 54.2776 53.6058 53.6157 53.9408 52.6228C53.9408 52.2918 54.2758 51.9609 54.6109 51.9609C54.9459 51.9609 54.9459 51.9609 54.9459 51.6299C55.2809 51.2989 55.2809 51.299 55.2809 51.299C55.951 51.299 56.6211 50.968 56.6211 50.637C56.9561 50.3061 56.9561 49.9751 57.2912 49.9751C57.6262 49.6441 57.6262 49.6441 57.9612 49.3132C58.2963 48.9822 58.9663 48.6513 59.3014 48.3203C59.6364 47.9893 59.6364 47.6584 59.3014 47.6584C58.9663 47.3274 58.9663 47.3274 58.9663 47.3274C58.6313 47.3274 58.2963 46.9965 57.6262 46.9965H57.2912C56.9561 47.3274 56.2861 47.6584 55.951 47.6584C55.616 47.6584 55.616 47.6584 55.616 47.9893C55.616 47.9893 55.2809 48.3203 54.9459 48.3203H54.6109C54.2758 48.3203 53.9408 48.6513 53.2707 48.6513C52.9357 48.9822 51.9306 48.9822 51.5955 49.3132C51.2605 49.6441 52.2656 50.3061 51.5955 50.3061H51.2605C50.2554 50.3061 49.2503 50.968 48.2452 50.968C47.9101 50.968 47.9102 51.299 47.2401 51.299C46.57 51.299 45.8999 51.6299 45.5649 51.6299L44.2248 52.2918C43.8897 52.6228 43.2196 52.9538 42.8846 53.2847C42.5496 53.2847 42.5496 53.6157 42.2145 53.6157C41.8795 53.6157 41.2094 53.9466 40.5394 54.2776C39.8693 54.6086 39.1992 54.9395 38.1941 54.9395C37.8591 54.9395 37.8591 55.2705 37.524 55.6014C37.189 55.9324 36.1839 55.9324 35.8489 56.2634C35.5138 56.5943 34.8437 56.5943 34.8437 56.2634C34.5087 55.6014 33.8386 55.6014 33.5036 55.2705C33.1686 54.9395 32.4985 54.9395 32.1635 55.6014C31.8284 55.9324 31.8284 55.9324 31.4934 55.9324C31.1583 56.2634 31.1583 56.2634 31.1583 56.5943C30.8233 56.9253 30.8233 56.9253 30.8233 56.9253C30.1532 56.2634 29.4832 56.2634 28.4781 55.9324V55.2705C28.8131 54.9395 28.8131 54.6086 28.8131 54.6086V53.6157C28.8131 52.9538 28.8131 52.2918 28.143 52.2918L27.808 51.9609C27.808 51.9609 27.808 51.6299 28.143 51.299C27.808 51.299 27.473 51.9609 27.1379 51.299C27.473 51.299 27.473 51.299 27.473 50.968C27.473 50.637 27.1379 50.968 26.8029 50.637C26.8029 50.968 26.4678 50.3061 27.473 49.6441C27.1379 49.6441 27.1379 49.6441 27.1379 49.3132C27.1379 48.6513 27.1379 48.3203 26.8029 47.9893C26.4678 47.6584 26.4678 47.3274 26.8029 46.9965C27.1379 46.3345 26.4678 46.0036 26.4678 45.3417C26.4678 45.0107 26.1328 44.6797 26.1328 44.6797C26.1328 44.3488 26.4678 44.0178 26.4678 44.0178L26.8029 43.6868H27.1379L27.473 43.3559H28.4781C29.4832 44.0178 29.4832 44.0178 30.1532 43.6868C30.1532 43.6868 30.1532 43.3559 30.4883 43.3559C30.8233 43.3559 31.1583 43.0249 31.8284 43.0249C32.1635 43.0249 32.1635 43.0249 32.1635 42.694H32.4985C32.8335 42.363 33.8386 42.032 34.5087 42.032H34.8437C35.1788 41.7011 36.1839 41.3701 36.5189 41.3701H36.854C37.189 41.3701 37.189 41.3701 37.189 41.0392C37.524 41.0392 37.8591 40.3772 38.1941 40.7082C39.1992 40.0463 39.8693 40.0463 40.5394 39.7153C41.5445 39.0534 42.5496 38.7224 43.8897 38.0605C44.5598 37.7295 45.5649 37.3986 46.235 37.3986C46.905 37.0676 47.5751 37.0676 47.9102 36.7367C48.2452 36.4057 48.9153 36.0747 49.5853 36.4057C49.9204 36.4057 49.9204 36.4057 50.2554 36.0747C50.5904 36.0747 51.2605 35.7438 51.5955 35.7438C51.9306 35.4128 52.6007 35.4128 52.9357 35.0819C53.9408 35.0819 54.9459 35.0819 55.616 34.7509C56.2861 34.4199 56.9561 34.4199 57.6262 34.089C57.9612 34.089 57.9612 34.089 58.2963 33.758H58.6313C59.6364 33.758 60.9766 33.4271 61.9817 33.4271C62.3167 33.4271 62.6517 33.0961 63.3218 33.0961C63.9919 33.0961 64.997 33.0961 65.6671 32.7651C66.3371 32.7651 67.0072 32.7651 67.6773 32.4342C68.0123 32.4342 68.6824 32.1032 69.3525 32.1032C69.6875 31.7723 70.0225 31.7723 70.6926 31.4413C71.3627 31.1103 72.0327 31.1103 72.7028 31.1103C73.7079 31.1103 74.713 30.7794 75.7181 30.7794C76.3882 30.4484 77.0583 30.1174 78.0634 30.1174C78.7335 30.1174 79.4035 30.1174 80.0736 29.7865C80.4086 29.4555 80.4086 29.4555 80.4086 29.4555H81.0787C82.4189 29.1246 83.424 29.1246 84.4291 29.1246C84.7641 29.1246 85.4342 29.4555 85.7692 29.7865C85.7692 30.4484 86.1043 30.7794 86.1043 31.1103H86.4393C86.4393 31.7723 86.7743 31.7723 86.7743 32.4342C86.7743 33.0961 87.1094 33.758 87.1094 34.089C87.4444 34.7509 87.4444 35.0819 87.7794 35.4128V35.7438C88.1145 36.4057 88.4495 37.0676 88.7845 37.3986C89.1196 37.7295 89.1196 38.0605 89.4546 38.3915C89.7897 39.0534 89.7896 39.3844 89.7896 40.0463C89.7896 40.7082 89.4546 40.7082 89.4546 41.3701V41.7011C89.1196 42.363 89.1196 42.363 89.1196 43.0249C88.7845 43.3559 88.7845 43.6868 88.7845 43.6868C88.7845 43.6868 88.4495 43.6868 88.4495 44.0178C88.1145 44.0178 88.1145 44.3488 87.7794 44.6797C87.4444 44.6797 87.4444 45.0107 87.4444 45.3417C87.4444 46.0036 87.1094 46.0036 86.7743 46.3345C86.4393 46.3345 86.4393 46.0036 86.4393 46.3345C86.1043 46.3345 85.4342 46.3345 85.0991 46.6655C84.7641 46.9965 84.4291 47.3274 83.759 47.3274C83.424 47.3274 83.424 47.6584 83.0889 47.6584C81.7488 48.3203 80.7437 49.3132 79.0685 49.6441C78.0634 49.9751 76.7233 50.3061 75.7181 50.968C75.3831 51.299 75.3831 51.2989 75.0481 51.6299C74.378 52.2918 73.3729 52.6228 72.7028 53.2847C71.3627 53.9466 70.3576 54.6086 69.3525 54.9395C69.0174 55.6014 68.3473 55.6014 68.0123 55.9324C67.0072 56.9253 65.6671 57.5872 64.6619 58.2491H64.3269C63.9919 58.5801 63.3218 58.9111 62.9868 59.242C62.3167 59.9039 61.3116 60.5659 60.6415 60.8968C59.9714 61.5587 58.9663 61.8897 58.2963 62.5516C56.9561 63.2136 55.951 63.8755 54.9459 64.8683C54.2758 65.5303 53.2707 66.5232 52.2656 66.8541C51.9306 67.1851 51.9306 67.1851 51.5955 67.516C50.9255 68.178 50.2554 68.5089 49.5853 69.1708C49.5853 69.1708 49.5853 69.5018 49.2503 69.5018C48.5802 70.1637 47.9101 70.4947 46.905 71.1566C46.57 71.8185 45.5649 72.4805 44.8948 72.8114C44.5598 73.1424 44.5598 73.4733 44.2248 73.4733C43.8897 73.8043 43.5547 74.1353 42.8846 74.4662C42.2145 74.7972 41.8795 75.1281 41.5445 75.7901C40.8744 76.452 40.2043 77.1139 39.1992 77.7758C38.8642 78.1068 38.5291 78.4378 37.8591 78.7687C37.524 79.4306 36.854 79.7616 36.5189 80.4235C36.1839 80.7545 35.8489 81.0854 35.5138 81.0854C35.1788 81.0854 35.1788 81.4164 35.1788 81.7474C34.8437 81.7474 34.8437 82.0783 34.5087 82.0783C34.5087 82.4093 34.1737 82.4093 34.1737 82.4093C33.8386 83.4022 33.5036 83.4022 33.1686 83.7331V84.0641C32.8335 84.0641 32.8335 83.7331 32.8335 83.7331C32.4985 84.0641 32.4985 84.395 32.4985 84.395C32.1635 84.726 32.1635 85.057 31.8284 85.057C31.1583 85.7189 30.4883 86.0499 29.8182 86.7118C29.4832 87.3737 28.8131 88.0356 28.4781 88.6975C28.143 89.3595 27.473 89.3595 27.473 90.0214C27.1379 90.0214 26.8029 90.0214 26.8029 90.3523C26.4678 91.0143 26.4678 91.0143 26.4678 91.6762C26.4678 92.0071 26.4678 92.3381 26.8029 92.3381C26.8029 92.6691 26.8029 92.6691 26.4678 93C27.1379 92.3381 27.808 92.3381 28.143 91.6762C28.4781 91.0143 29.1481 91.0143 29.8182 90.6833C30.1532 90.3523 31.1583 90.0214 31.8284 89.6904L33.1686 88.3666C33.5036 88.6975 34.1737 88.3666 34.5087 88.0356C34.8437 87.7047 34.8437 87.7047 34.8437 87.7047C35.1788 87.0427 35.5138 87.0427 36.1839 86.7118C36.854 86.3808 36.854 86.0499 37.189 86.0499C37.524 85.7189 38.1941 85.3879 38.5291 85.3879C38.8642 84.726 39.1992 84.726 39.8693 84.726C40.2043 84.3951 40.2043 84.3951 40.2043 84.0641C40.5394 83.4022 40.8744 83.4022 41.5445 83.4022L41.8795 83.0712C42.2145 83.0712 42.2145 82.7402 42.5496 82.4093C42.8846 82.4093 43.2196 82.0783 43.5547 81.7474C43.8897 81.4164 44.2248 81.0854 44.8948 80.7545C45.5649 80.4235 46.235 80.0926 46.57 79.7616C46.905 79.4306 46.905 79.0997 47.2401 79.0997C47.5751 78.7687 47.9102 78.4378 47.9102 78.4378C48.2452 78.4378 48.2452 78.1068 48.2452 78.1068C48.5802 78.1068 48.5802 78.1068 48.9153 77.7758C49.2503 77.4449 49.5853 77.1139 50.2554 77.1139C50.9255 76.452 51.5955 76.121 52.2656 75.7901C52.6007 75.4591 52.9357 75.1281 53.6058 75.1281L53.9408 74.7972C54.2758 74.4662 54.6109 74.1353 55.2809 74.1353C55.616 73.4733 55.951 73.4733 56.6211 73.1424C56.9561 72.8114 57.6262 72.4805 57.9612 72.1495C58.2963 71.8185 58.2963 71.4876 58.6313 71.4876C59.3014 71.1566 59.9714 70.8257 60.3065 70.4947C60.6415 70.1637 60.6415 69.8328 61.3116 69.8328C61.6466 69.8328 61.9817 69.5018 62.3167 69.1708C62.6517 68.8399 62.6517 68.5089 62.6517 68.5089C62.9868 68.178 63.3218 68.178 63.6568 67.847C63.9919 67.516 64.3269 67.1851 64.6619 67.1851C64.997 67.1851 64.997 66.8541 64.997 66.8541C65.332 66.5232 65.6671 66.5232 66.3371 66.1922C66.6722 65.8612 67.0072 65.5303 67.6773 65.1993C68.0123 64.5374 69.0174 64.5374 69.3525 63.8755C69.6875 63.8755 69.6875 63.5445 70.0225 63.2135C70.3576 62.5516 71.0276 62.5516 71.3627 62.2207C71.3627 61.8897 71.3627 61.8897 71.6977 61.8897C72.0327 61.8897 72.0327 61.8897 72.3678 61.5587H72.7028C73.0379 61.5587 73.3729 61.2278 73.7079 60.8968C74.043 60.5659 74.043 60.2349 74.378 60.2349C74.713 59.573 75.0481 59.573 75.3831 59.242C75.7181 58.9111 76.3882 58.5801 76.7232 58.2491C77.0583 57.5872 77.7284 57.5872 78.0634 57.2563C78.0634 56.9253 78.3984 56.5943 78.3984 56.5943C78.7335 55.9324 79.4035 55.9324 79.7386 55.6014C80.0736 55.2705 80.4086 54.9395 81.0787 54.6086H81.4137C81.4137 54.2776 81.7488 53.9466 82.0838 53.9466C82.4189 53.6157 82.4189 53.2847 82.7539 53.2847C83.424 52.9538 84.094 52.6228 84.7641 52.2918C85.0991 51.9609 85.4342 51.6299 85.7692 51.6299C86.1043 51.6299 86.1043 51.299 86.4393 50.968C86.7743 50.968 86.7743 50.968 86.7743 50.637L88.1145 49.3132C88.4495 48.9822 88.4495 48.9822 88.7845 48.6513C90.1247 48.3203 91.1298 47.9893 92.4699 47.6584C92.805 47.3274 92.805 47.3274 92.805 47.3274C92.4699 47.9893 92.4699 47.9893 92.4699 48.3203C92.1349 48.6513 92.1349 48.9822 92.1349 49.3132C91.7999 49.9751 91.7999 50.637 91.7999 51.299L93.8101 53.2847C93.4751 53.9466 93.475 53.9466 93.14 54.6086C92.805 54.9395 92.805 55.2705 92.4699 55.2705L92.1349 55.6014C91.7999 55.9324 91.7999 56.2634 91.1298 56.2634C90.7948 56.2634 90.7948 56.5943 90.7948 56.9253C90.4597 56.9253 90.4597 57.2563 90.4597 57.5872C90.1247 57.9182 89.4546 58.2491 89.1196 58.2491C88.7845 58.2491 88.4495 58.2491 88.4495 58.5801H88.1145C87.7794 58.9111 87.1094 59.242 86.7743 59.242H86.4393C86.1043 59.9039 86.1043 59.9039 85.7692 59.9039C85.4342 60.2349 85.4342 60.2349 85.4342 60.2349C84.7641 60.2349 84.4291 60.2349 83.759 60.5659C83.424 60.8968 83.424 61.2278 82.7539 61.2278C82.4189 61.2278 82.0838 61.5587 81.7488 61.8897C81.4137 62.2207 80.7437 62.5516 80.4086 62.5516C80.4086 62.8826 80.0736 62.8826 80.0736 62.8826C79.7386 63.5445 78.7335 64.2064 78.0634 64.5374C77.7284 64.8683 77.0583 65.1993 76.7232 65.5303H76.3882C76.0532 65.8612 76.0532 65.8612 75.7181 66.1922C75.3831 66.1922 75.3831 66.1922 75.0481 66.5232C74.713 66.8541 74.043 67.1851 73.7079 67.1851C73.3729 67.847 73.3729 67.847 72.7028 67.847L72.3678 68.178C72.0327 68.5089 72.0327 68.5089 72.0327 68.5089C71.6977 68.8399 71.0276 69.1708 70.6926 69.1708C70.3576 69.5018 70.3576 69.5018 70.0225 69.8328C69.6875 70.1637 69.3525 70.4947 69.0174 70.4947C68.6824 70.8257 68.6824 71.1566 68.0123 71.1566C67.3422 71.4876 66.6722 71.8185 66.0021 72.4805C65.6671 72.8114 65.6671 72.8114 64.997 72.4805H64.6619C64.997 72.4805 64.997 72.8114 64.997 72.8114C64.3269 73.4733 63.6568 73.8043 62.9868 74.4662C62.6517 74.7972 62.6517 74.7972 62.3167 75.1281C61.9817 75.4591 61.3116 75.7901 60.9766 76.121C60.6415 76.452 60.6415 76.7829 60.3065 76.7829C59.9714 76.7829 59.9714 77.1139 59.9714 77.1139C59.6364 77.4449 59.3014 77.7758 58.6313 77.7758V78.1068C58.2963 78.1068 58.2963 78.4378 57.9612 78.4378L57.2912 79.0997C56.9561 79.7616 56.2861 79.7616 55.951 80.0926C55.616 80.4235 55.2809 80.4235 54.6109 80.7545H53.6058C53.2707 80.7545 52.6007 81.4164 52.2656 81.7474C51.9306 82.0783 51.5955 82.4093 50.9255 82.4093C50.5904 82.7402 50.2554 83.0712 50.2554 83.4022C50.2554 83.7331 49.9204 84.0641 49.9204 84.0641C49.5853 83.7331 49.2503 84.0641 48.9153 84.395C48.5802 84.395 48.2452 84.726 47.9102 85.057C47.5751 83.4022 47.2401 83.4022 46.905 83.7331C46.57 84.0641 45.8999 84.3951 45.2299 84.726C44.8948 85.057 44.5598 85.3879 44.2248 85.3879C43.5547 86.0499 42.8846 86.0499 41.8795 87.0427C41.5445 87.3737 41.2094 87.7047 40.5394 87.7047C40.2043 88.3666 39.5343 88.6975 38.8642 88.6975C38.5291 88.6975 38.5291 89.0285 38.5291 89.0285C38.1941 89.3595 37.8591 89.6904 37.189 89.6904C37.189 90.0214 36.854 90.0214 36.5189 90.3523C36.1839 91.0143 35.1788 91.3452 34.5087 91.6762C34.5087 91.6762 34.1737 91.6762 34.1737 92.0071C33.8386 92.0071 33.8386 92.3381 33.5036 92.3381C33.1686 92.6691 33.1686 92.6691 33.1686 93C32.4985 93 32.1635 93.331 31.8284 93.331C31.1583 93.9929 30.4883 93.9929 30.1532 94.6548C29.8182 94.9858 29.4832 95.3168 28.8131 95.3168C28.4781 95.9787 27.808 95.9787 27.473 96.6406C27.1379 96.9716 26.8029 97.3025 26.1328 97.3025H25.7978C25.4627 97.6335 25.4627 97.9644 25.1277 97.9644C24.4576 98.6264 23.4525 99.2883 22.7824 99.9502C22.4474 100.281 22.4474 100.612 21.7773 100.612C21.4423 100.943 21.4423 100.943 21.1073 101.274C21.1073 101.605 21.1073 101.605 20.7722 101.605C20.4372 101.936 19.7671 102.267 19.4321 102.267V102.598C19.0971 103.26 18.427 103.26 17.7569 103.26C17.4219 103.26 17.4219 103.26 17.0868 103.591C16.7518 103.922 15.7467 103.922 15.4117 104.253C15.4117 104.584 15.0766 104.915 15.0766 104.915C14.4065 105.246 14.0715 105.577 13.7365 106.238C13.4014 106.238 13.4014 106.569 13.4014 106.569H12.3963C11.7263 107.231 11.0562 107.562 10.0511 108.224C9.71604 108.886 9.04597 108.886 8.71094 109.548H8.3759C8.04086 109.217 7.37079 109.879 7.03576 109.879C7.03576 110.21 7.03576 110.21 6.70072 110.21C6.36568 110.872 6.36568 110.872 5.69561 110.872C5.36058 111.534 4.6905 111.534 4.35547 111.865C4.02043 111.865 4.02043 111.865 4.02043 112.196C3.6854 112.196 3.6854 112.527 3.35036 112.858C3.01532 113.189 3.01532 113.52 2.34525 113.189V114.843V116.167C2.34525 116.829 2.34525 116.829 2.01022 116.829C1.67518 116.829 1.67518 116.829 1.34014 117.16C1.00511 117.491 1.00511 117.822 0.670072 117.822C0 117.491 0 117.491 0 117.822V118.484C0 118.815 0 119.146 0.335036 119.477C0.670072 119.808 1.00511 120.139 1.34014 120.47C1.34014 120.47 1.67518 120.801 1.67518 121.132C2.01022 120.801 2.01022 120.801 2.01022 120.801V121.463V123.117V125.434C2.34525 126.096 2.34525 126.427 2.34525 127.089C2.01022 127.751 2.34525 128.082 2.34525 128.744C2.34525 129.075 2.34525 129.406 2.68029 129.737C2.68029 130.068 2.34525 130.068 2.34525 130.399C2.34525 130.73 2.68029 130.73 2.68029 131.061V131.722C2.34525 132.053 2.01022 132.715 2.34525 133.046C2.34525 133.708 2.34525 133.708 2.01022 134.039C1.67518 134.701 1.67518 135.363 1.67518 136.025V136.356C1.67518 136.687 1.34014 137.018 1.67518 137.018V137.349ZM106.876 78.7687C107.547 78.7687 108.217 78.7687 108.887 78.4378C109.222 78.4378 109.222 78.4378 109.557 78.7687H110.227H110.897H111.232C111.567 78.4378 111.567 78.7687 111.902 78.7687C112.237 78.7687 112.237 79.0997 112.572 79.0997C112.907 79.0997 113.242 79.4306 113.912 79.4306C114.247 79.7616 114.917 79.7616 115.252 80.0926C115.252 80.4235 115.587 80.4235 115.587 80.4235H115.922C116.257 80.7545 116.928 81.0854 116.928 81.4164H117.263C117.263 81.7474 117.598 81.7474 117.598 82.0783L118.938 84.395C118.938 85.057 118.938 85.057 119.273 85.057C119.608 85.3879 119.608 85.7189 119.608 85.7189C119.608 86.3808 119.943 86.3808 119.943 87.0427C119.943 87.7047 120.278 88.0356 120.278 88.3666L120.613 88.6975C120.948 89.0285 120.948 89.0285 120.948 89.3595C120.948 89.6904 120.613 90.0214 120.613 90.0214C120.613 90.3523 120.948 90.6833 120.948 90.6833V91.3452C120.948 92.0071 120.613 92.0071 120.613 92.6691C120.278 93.331 119.943 93.662 119.273 93.9929C118.938 93.9929 118.938 94.3239 118.938 94.3239C118.603 94.3239 118.603 94.6548 118.603 94.6548C118.268 94.9858 117.933 94.9858 117.598 95.3168C117.263 95.3168 116.593 95.3168 116.257 94.9858H115.922H115.252C114.917 94.9858 114.917 94.6548 114.917 94.6548L114.582 94.3239C114.247 94.3239 114.247 94.3239 114.247 94.6548C113.912 94.3239 113.912 93.9929 113.577 93.9929C113.242 93.9929 113.242 93.9929 112.907 93.662C112.572 93.331 111.902 93 111.567 93C111.232 93 111.232 92.6691 110.897 93C110.562 93 110.562 93 110.227 92.6691C109.892 92.3381 109.892 92.0071 109.557 91.6762C109.557 91.3452 109.892 91.0143 109.892 91.0143C109.557 90.6833 109.557 90.3523 109.557 90.3523C109.222 90.0214 109.222 89.6904 109.222 89.3595V89.0285C108.887 88.3666 108.887 88.3666 108.552 87.7047C108.217 87.3737 108.217 87.0427 108.217 86.7118C108.217 86.3808 107.882 86.0499 107.882 85.7189C107.882 85.3879 107.547 85.057 107.547 84.726C107.212 84.3951 107.212 84.0641 107.212 83.7331C106.876 83.4022 106.876 83.0712 106.876 82.7402C106.541 82.4093 106.541 82.0783 106.541 82.0783C106.206 81.4164 106.206 81.0854 105.536 80.7545C105.871 80.0926 105.536 80.0926 105.871 79.4306C106.206 79.7616 106.206 79.7616 106.206 79.7616C105.536 78.7687 105.871 78.4378 106.876 78.7687ZM95.1502 34.089C94.4802 33.758 93.8101 33.4271 93.14 33.0961H92.805C92.4699 33.0961 92.1349 32.7651 91.4648 32.7651C91.1298 32.4342 91.1298 32.1032 90.7948 32.1032C90.4597 32.1032 90.1247 31.4413 89.7896 31.4413H89.4546C89.1196 31.1103 89.1196 31.1103 89.1196 30.7794C89.4546 30.7794 89.4546 30.4484 89.4546 30.4484C89.7897 29.7865 89.7897 29.1246 89.4546 28.4626C89.1196 27.8007 89.1196 27.4698 88.1145 27.1388C88.1145 26.1459 87.7794 25.484 87.1094 24.4911C87.1094 23.8292 86.7743 23.8292 86.7743 23.1673V23.8292C86.7743 23.1673 87.1094 23.1673 87.4444 23.1673C87.7794 23.1673 87.7794 23.1673 87.7794 22.8363C88.1145 22.1744 88.7845 22.1744 89.4546 22.1744H89.7896C90.1247 21.8434 90.4597 22.1744 90.7948 22.1744C91.1298 22.5053 91.7999 22.5053 92.1349 22.5053H92.805H93.14C93.475 21.8434 94.4802 22.1744 94.8152 22.1744H97.1604H97.4955C97.8305 21.8434 97.8305 21.8434 98.1656 21.8434H98.8356C99.1707 21.8434 99.1707 21.5125 99.8407 21.8434C100.176 22.1744 100.176 22.1744 100.511 22.5053C100.511 22.1744 100.511 22.1744 100.846 22.1744C101.181 22.1744 101.516 22.1744 101.851 22.5053H102.186C102.521 22.5053 102.856 22.8363 103.191 23.1673C103.526 23.1673 103.526 23.4982 103.861 23.8292C103.861 24.4911 104.196 24.8221 104.196 25.484C104.531 26.1459 104.196 26.1459 104.531 26.4769C104.531 26.8078 104.866 27.1388 104.531 27.4698V27.1388V28.1317V28.7936C104.196 29.4555 104.196 30.1174 104.196 30.4484C104.196 30.7794 104.196 31.1103 104.531 31.4413C104.531 31.7723 104.196 31.7723 104.196 32.1032C104.196 32.4342 103.861 32.4342 103.861 32.7651C104.196 33.4271 103.861 33.758 103.526 34.089C103.526 34.7509 103.191 35.0819 103.191 35.7438C103.191 36.4057 103.191 36.4057 102.856 36.7367C102.521 37.0676 102.521 37.3986 102.521 37.3986C102.186 37.7295 102.186 38.0605 101.851 38.3915L101.516 38.7224C100.846 38.7224 100.176 38.3915 100.176 37.7295C99.5057 37.7295 98.8356 37.7295 98.5006 37.3986L98.1656 37.0676C97.8305 36.4057 97.8305 36.4057 97.1604 36.0747C96.8254 36.0747 96.8254 35.7438 96.8254 35.7438C96.4904 35.7438 95.8203 35.0819 95.4853 35.0819C95.4853 34.7509 95.1502 34.4199 95.1502 34.089Z"
     fill="#D50032"
     id="path6" />
</svg>
