<?xml version="1.0" encoding="UTF-8" standalone="no"?>
<svg
   xmlns:dc="http://purl.org/dc/elements/1.1/"
   xmlns:cc="http://creativecommons.org/ns#"
   xmlns:rdf="http://www.w3.org/1999/02/22-rdf-syntax-ns#"
   xmlns:svg="http://www.w3.org/2000/svg"
   xmlns="http://www.w3.org/2000/svg"
   xmlns:sodipodi="http://sodipodi.sourceforge.net/DTD/sodipodi-0.dtd"
   xmlns:inkscape="http://www.inkscape.org/namespaces/inkscape"
   width="134"
   height="203"
   viewBox="0 0 134 203"
   fill="none"
   version="1.1"
   id="svg4"
   sodipodi:docname="short-track.svg"
   inkscape:version="0.92.1 r15371">
  <metadata
     id="metadata10">
    <rdf:RDF>
      <cc:Work
         rdf:about="">
        <dc:format>image/svg+xml</dc:format>
        <dc:type
           rdf:resource="http://purl.org/dc/dcmitype/StillImage" />
        <dc:title></dc:title>
      </cc:Work>
    </rdf:RDF>
  </metadata>
  <defs
     id="defs8" />
  <sodipodi:namedview
     pagecolor="#ffffff"
     bordercolor="#666666"
     borderopacity="1"
     objecttolerance="10"
     gridtolerance="10"
     guidetolerance="10"
     inkscape:pageopacity="0"
     inkscape:pageshadow="2"
     inkscape:window-width="640"
     inkscape:window-height="480"
     id="namedview6"
     showgrid="false"
     inkscape:zoom="1.1625616"
     inkscape:cx="67"
     inkscape:cy="101.5"
     inkscape:window-x="0"
     inkscape:window-y="0"
     inkscape:window-maximized="0"
     inkscape:current-layer="svg4" />
  <path
     d="M132.98 73.1608C132.98 72.8304 132.98 72.5 133.32 72.5C133.32 72.1696 133.32 71.8392 132.98 71.8392V71.1785C132.98 70.8481 132.64 70.5177 132.64 70.5177C132.299 70.1873 132.299 69.857 132.64 69.857V69.1962C132.98 68.5354 132.98 68.5354 132.98 67.8747V66.5532V65.8924C132.64 65.562 132.64 65.2316 132.64 64.9013V63.5797C132.98 62.919 132.98 62.5886 132.98 61.9278V61.2671C133.32 60.6063 132.98 60.6063 132.98 60.2759C132.98 59.6152 132.64 58.9544 132.98 58.624V58.2937C132.64 57.9633 132.64 57.6329 132.64 57.3025V56.6418V56.9721C132.98 56.6418 132.98 56.3114 132.64 56.3114C132.64 55.981 132.299 55.6506 132.299 55.6506C131.959 55.3202 131.959 54.9899 132.299 54.9899V53.6684C132.299 53.6684 132.299 53.338 132.64 53.0076V52.3468C132.299 52.0165 132.299 51.6861 132.64 51.3557C132.98 50.6949 132.98 50.6949 132.64 50.3646C132.299 50.0342 132.64 50.0342 132.64 50.0342C132.98 49.7038 132.98 49.3734 132.64 49.3734V48.7127C132.98 48.3823 132.98 48.0519 132.98 48.0519C133.32 47.7215 133.32 47.3911 133.32 47.0608V46.4C133.32 46.0696 133.66 46.0696 133.66 46.0696C133.32 45.4089 133.32 45.4089 133.66 45.0785C133.66 44.4177 133.66 44.0873 133.32 43.4266C132.98 43.0962 132.98 43.0962 132.98 42.7658C133.32 42.4354 133.32 42.4354 132.98 42.1051C132.64 42.1051 132.64 42.1051 132.64 41.7747C132.98 41.4443 132.64 41.1139 132.98 40.7835C132.98 40.4532 133.32 40.4532 133.32 40.4532C133.32 39.7924 133.32 39.1316 132.98 38.8013C132.98 38.1405 132.98 38.1405 133.32 37.8101V37.4797C132.98 37.1494 133.32 36.819 133.32 36.4886C132.98 36.1582 132.98 36.1582 133.32 35.8278V35.4975V34.8367C133.32 34.5063 133.66 34.1759 133.32 33.5152V33.1848C133.32 32.5241 133.32 31.8633 133.66 31.5329C134 31.2025 134 30.5418 134 29.881C134 29.5506 133.66 29.2203 134 29.2203V28.8899C133.66 28.5595 133.66 28.2291 133.66 28.2291C133.66 27.5684 133.32 27.238 133.32 26.5772V26.2468C132.98 25.9165 133.32 25.5861 133.32 25.5861C133.66 25.2557 133.66 24.9253 133.66 24.9253V24.2646C134 23.9342 133.66 23.6038 133.66 23.2734V21.2911V19.9696V19.3089C133.32 18.9785 133.66 18.6481 133.66 18.6481C132.64 18.6481 132.64 18.3177 132.64 18.3177V17.657V16.9962C132.98 16.6658 132.98 16.3354 132.98 16.3354H132.64V15.3443C132.98 14.6835 132.98 14.0228 132.64 13.6924V13.362C132.299 12.7013 132.299 12.3709 132.299 12.0405L132.64 11.3797C132.64 11.3797 132.299 11.0494 132.64 10.3886C132.64 10.3886 132.299 10.3886 132.299 10.0582V9.39747C132.299 8.73671 132.299 8.40633 131.959 7.74557C131.619 7.74557 131.619 7.41519 131.619 7.41519C131.619 7.08481 131.279 6.75443 131.279 6.75443C130.939 6.09367 130.259 5.76329 129.919 5.10253C129.579 4.77215 129.579 4.44177 129.239 4.44177C129.239 3.78101 128.898 3.78101 128.558 3.78101C127.878 3.12025 127.198 2.78987 126.178 2.12911C125.838 1.79873 125.157 1.79873 124.817 1.79873C124.477 1.79873 124.477 1.79873 124.477 1.46835C124.137 1.13797 124.137 1.13797 123.797 1.13797C123.457 0.807595 123.457 0.807595 123.117 0.807595C122.777 0.477215 122.437 0.477215 122.096 0.477215C121.756 0.146835 121.416 0.146835 121.076 0.477215C120.736 1.13797 120.056 1.13797 119.716 0.477215H119.036C118.695 0.477215 117.675 0.146835 117.335 0.146835C116.995 -0.183544 116.655 0.146835 115.975 0.146835C115.635 -0.183544 115.635 0.146835 115.294 0.146835C114.954 0.146835 114.954 0.477215 114.614 0.477215H114.274C113.934 0.477215 113.594 0.807595 113.254 0.477215C112.914 0.146835 112.234 0.477215 111.893 0.807595C111.213 0.477215 110.533 0.807595 109.513 1.13797C109.173 1.46835 108.492 1.46835 108.152 1.13797C107.812 0.807595 107.132 0.807595 106.792 0.477215H105.772C105.431 1.46835 105.431 1.46835 104.751 1.46835C104.411 1.46835 104.411 1.46835 104.411 1.79873C104.411 2.12911 104.071 2.12911 104.071 2.12911H103.051L102.711 2.45949C102.371 2.78987 101.69 2.78987 101.35 2.45949C101.01 2.45949 101.01 2.12911 100.67 2.12911H100.33C99.9898 2.45949 99.6497 2.45949 99.3096 2.45949C98.9695 2.45949 98.9695 2.45949 98.6294 1.79873C98.6294 1.13797 98.2893 1.13797 98.2893 1.13797C97.6091 0.807595 97.269 0.807595 96.9289 0.807595H95.5685H93.868H92.8477C92.5076 0.807595 91.8274 0.807595 91.4873 1.46835H91.1472C90.8071 1.79873 89.7868 1.46835 89.1066 1.46835C88.4264 1.79873 80.6041 1.46835 79.9239 1.79873C79.5838 1.79873 79.5837 1.46835 79.5837 1.46835C78.9035 1.13797 78.9035 0.807595 78.5634 0.807595H77.203C76.5228 0.807595 75.8426 1.13797 75.5025 0.807595C75.1624 0.807595 74.8223 1.13797 74.8223 1.13797H74.1421H73.1218C72.7817 1.46835 72.7817 1.46835 72.4416 0.807595H71.0812H68.7005H67C66.6599 0.807595 65.9797 0.807595 65.6396 1.13797H64.6193C64.2792 0.807595 63.9391 1.13797 63.2589 1.13797H61.5584C61.2183 1.13797 60.8782 0.807595 60.5381 1.13797C60.198 1.46835 60.198 1.46835 59.5178 1.46835H58.4975C58.4975 1.46835 58.1574 1.46835 58.1574 1.13797C57.4772 0.807595 57.4772 0.807595 56.797 0.807595H56.1167H54.0761C54.0761 0.807595 53.736 0.807595 53.736 1.13797C53.3959 1.13797 53.3959 1.13797 53.0558 1.46835C52.7157 1.13797 52.7157 1.13797 52.7157 1.13797C52.3756 1.46835 51.3553 0.807595 51.0152 1.46835C50.6751 1.13797 50.335 1.46835 49.6548 1.13797H48.9746H47.2741C46.934 0.807595 45.9137 1.13797 45.2335 1.13797C45.2335 0.807595 44.8934 1.13797 44.8934 1.13797H44.2132C43.8731 1.13797 43.533 1.13797 42.8528 1.46835H42.5127C42.1726 1.13797 42.1726 1.46835 41.8325 1.79873H41.4924C41.1523 1.46835 41.1523 1.46835 40.8122 1.79873C40.4721 2.12911 40.4721 2.12911 40.4721 2.12911H39.7919C39.4518 1.79873 39.4518 1.79873 39.1117 1.79873C38.7716 1.79873 38.4315 2.12911 38.0914 1.79873L37.7513 2.12911H37.4112C37.0711 2.12911 37.0711 1.79873 37.0711 1.79873C35.3706 1.46835 35.0305 0.807595 34.0102 1.46835H33.3299C32.9898 1.79873 32.9898 1.46835 32.9898 1.46835C32.6497 1.13797 32.3096 1.13797 31.9695 1.13797H29.9289H27.8883C27.2081 1.13797 26.5279 1.46835 25.8477 1.46835C25.5076 1.46835 25.5076 1.13797 25.1675 1.13797C24.1472 1.13797 23.467 0.807595 22.4467 1.13797C22.4467 1.46835 22.4467 1.46835 22.1066 1.46835C21.7665 1.13797 21.7665 1.13797 21.0863 1.13797H20.066H18.7056H18.0254C17.3452 1.46835 16.3249 1.46835 15.3046 1.46835H13.264C12.9239 1.46835 12.9239 1.79873 12.5838 2.12911C12.2437 2.12911 12.2437 2.45949 11.5635 2.78987C11.2233 2.78987 10.8832 3.12025 10.5431 3.45063C9.86294 3.45063 9.52284 3.78101 9.18274 4.11139C8.84264 4.44177 8.50254 4.44177 8.16244 4.44177C7.14213 4.77215 6.46193 5.43291 6.12183 6.42405C5.78173 7.41519 5.44162 7.74557 5.10152 8.40633C4.76142 8.73671 4.76142 9.06709 4.42132 9.39747C4.42132 9.72785 4.42132 9.72785 4.08122 10.0582C4.08122 10.3886 3.74112 10.719 3.74112 11.0494C3.40102 11.0494 3.40102 11.3797 3.40102 11.7101C3.40102 12.0405 3.40102 12.3709 3.06091 12.7013C3.06091 13.362 2.72081 13.6924 2.72081 14.3532C2.38071 15.0139 2.38071 16.0051 2.38071 16.6658L2.04061 16.9962C2.04061 17.3266 1.70051 17.3266 1.70051 17.9873V18.6481V19.9696V22.2823V22.943V25.5861C1.70051 26.2468 1.70051 26.9076 2.04061 27.5684C2.38071 27.5684 2.38071 28.2291 2.38071 28.2291V28.8899V30.2114V30.8722C2.38071 31.2025 2.38071 31.5329 2.04061 31.5329V31.8633C2.04061 32.524 2.38071 33.5152 2.72081 33.8456C3.40102 34.1759 3.40102 34.1759 3.40102 34.5063V35.1671C3.40102 35.1671 3.40102 35.1671 3.40102 35.4975C3.06091 35.4975 3.06091 35.8278 3.06091 35.8278C8.50254 38.1405 18.3655 43.757 21.4264 45.4089C21.7665 45.7392 21.7665 45.7392 22.1066 45.7392C23.1269 46.4 24.1472 46.7304 24.4873 46.7304C24.4873 46.7304 24.8274 46.7304 24.8274 47.0608C25.1675 47.0608 25.1675 47.3911 25.5076 47.3911C25.8477 48.0519 25.8477 48.0519 26.5279 48.3823H26.868C27.2081 49.043 27.8883 49.043 28.2284 49.043C28.5685 49.043 28.5685 49.3734 28.5685 49.7038C28.9086 49.7038 28.9086 50.0342 29.2487 50.0342C29.5888 50.3646 29.5888 50.6949 29.9289 50.6949C30.269 50.3646 30.6091 50.6949 30.9492 50.6949C30.9492 51.0253 30.9492 51.3557 31.2893 51.3557C31.6294 51.6861 31.9695 52.0165 32.3096 52.0165H32.6497C32.9898 52.3468 33.3299 52.6772 33.67 52.6772C34.0102 52.6772 34.3503 53.0076 34.6904 53.338L35.0305 53.6684C35.3706 53.338 35.3706 53.6684 35.7107 53.9987C36.0508 54.3291 39.4518 55.6506 39.4518 55.6506C39.7919 55.6506 40.132 55.981 40.132 56.3114C40.4721 56.6418 40.4721 56.6418 40.4721 56.6418H40.8122C41.1523 56.9721 41.4924 57.3025 41.8325 57.3025C41.8325 57.3025 42.1726 57.3025 42.1726 57.6329C42.5127 57.9633 42.5127 58.2937 43.1929 58.2937V58.624C43.533 58.624 43.8731 58.9544 44.2132 59.2848C44.5533 59.6152 44.5533 59.9456 44.8934 59.9456C45.2335 60.2759 45.5736 60.6063 45.9137 60.6063C46.2538 61.2671 46.2538 61.5975 46.934 61.5975C47.2741 61.5975 47.2741 61.9278 47.2741 61.9278C47.6142 62.2582 47.6142 62.2582 47.6142 62.2582V62.5886H47.9543C48.2944 62.919 48.9746 63.2494 49.3147 63.5797C49.3147 63.9101 49.3147 64.2405 49.6548 64.2405C49.9949 64.2405 49.9949 64.5709 49.9949 64.9013V65.562C49.9949 66.2228 49.6548 66.2228 49.6548 66.5532C49.3147 66.5532 49.3147 66.8835 48.9746 67.2139H48.6345C48.2944 67.5443 48.2944 67.5443 48.2944 67.8747V68.2051C48.6345 68.8658 48.6345 69.5266 47.9543 69.857C47.6142 70.1873 47.6142 70.5177 47.6142 71.1785C47.6142 71.8392 47.2741 71.8392 46.934 71.8392C46.5939 72.1696 46.2538 72.1696 46.2538 72.5C45.9137 72.8304 45.5736 73.1608 44.8934 73.1608L44.5533 72.8304C44.2132 73.4911 43.1929 74.8127 42.8528 75.143H42.5127C42.1726 75.8038 41.8325 75.4734 41.4924 75.4734C41.4924 75.8038 41.8325 76.1342 41.8325 76.4645L42.5127 78.1164C42.5127 78.4468 42.8528 78.4468 42.8528 78.4468C43.1929 79.1076 43.533 79.438 44.2132 80.0987C44.2132 80.4291 44.5533 80.4291 44.5533 80.7595C44.5533 81.0899 44.5533 81.0899 44.8934 81.4202C45.2335 81.7506 45.2335 82.081 45.2335 82.081C45.2335 82.081 45.5736 82.081 45.5736 82.4114L45.9137 83.0721C45.9137 83.4025 46.2538 83.4025 46.2538 83.7329C46.2538 83.7329 46.2538 84.0633 46.5939 84.0633V84.3937C46.934 84.724 46.934 85.0544 47.2741 85.0544C47.6142 85.7152 47.9543 86.0456 48.6345 86.7063C48.9746 87.0367 48.9746 87.3671 48.9746 87.3671C49.3147 87.6975 49.3147 87.6975 49.3147 88.0278C49.3147 88.0278 49.6548 88.0278 49.6548 88.3582L49.9949 88.6886C50.335 89.019 50.335 89.3494 50.6751 89.6797L51.0152 90.0101C51.3553 90.0101 51.6954 90.0101 52.3756 90.3405V90.6709C52.0355 91.0013 52.3756 91.3316 52.7157 91.3316C53.0558 91.662 53.0558 91.9924 53.0558 91.9924V92.6532C53.3959 93.3139 53.3959 93.6443 53.3959 94.3051C53.3959 94.3051 53.3959 94.6354 53.736 94.6354C53.736 94.9658 54.0761 95.2962 54.0761 95.2962C54.4162 95.957 54.7563 96.2873 55.0964 96.6177C55.4365 96.6177 55.4365 96.9481 55.4365 96.9481V93.3139H54.4162C54.4162 93.3139 54.0761 92.9835 54.0761 93.3139C53.736 93.3139 53.736 93.6443 53.3959 93.6443C53.0558 93.9747 53.0558 94.3051 52.7157 94.3051H52.3756C52.0355 94.6354 52.0355 94.6354 51.6954 94.6354H51.0152C51.0152 94.9658 50.6751 94.9658 50.6751 94.9658C50.335 94.6354 49.9949 94.6354 49.6548 94.9658C49.6548 94.6354 49.3147 94.6354 49.3147 94.6354H48.6345L48.2944 94.3051H47.2741C47.2741 93.6443 46.934 93.6443 46.934 93.6443V93.3139C46.5939 93.3139 46.5939 92.9835 46.5939 92.6532H46.2538C46.2538 92.3228 45.9137 91.9924 45.9137 91.9924C45.9137 91.662 45.5736 91.662 45.5736 91.662C45.5736 91.3316 45.2335 91.0013 45.2335 91.0013C44.8934 91.0013 44.8934 90.6709 44.8934 90.6709C44.8934 90.3405 44.5533 90.3405 44.5533 90.3405C44.2132 90.0101 43.1929 88.6886 43.1929 88.6886V88.3582C42.8528 88.3582 42.8528 88.0278 42.8528 87.6975H42.5127L42.1726 87.3671C41.8325 87.3671 41.8325 87.0367 41.8325 87.0367C41.8325 86.7063 41.4924 86.3759 41.4924 86.3759C41.1523 86.3759 41.1523 86.0456 41.1523 85.7152H40.8122C41.1523 85.3848 40.8122 85.3848 40.8122 85.3848C40.4721 85.0544 40.4721 84.724 40.4721 84.724C40.4721 84.724 40.4721 84.3937 40.132 84.3937V84.0633C40.132 83.7329 40.132 83.4025 39.7919 83.0721C39.7919 83.0721 40.132 82.7418 40.132 82.4114C39.7919 82.4114 39.7919 82.081 39.7919 82.081V81.7506C39.4518 81.4202 39.4518 81.0899 39.4518 81.0899C39.4518 80.4291 39.1117 80.0987 39.4518 79.7683V79.438C39.4518 79.1076 39.1117 78.7772 39.4518 78.7772C39.1117 78.4468 39.4518 78.4468 39.4518 78.1164C39.4518 78.1164 39.4518 77.7861 39.1117 77.7861V77.1253C39.4518 77.1253 39.4518 76.7949 39.4518 76.7949C39.1117 76.4645 39.1117 76.1342 39.1117 76.1342V76.7949V76.1342V75.8038C39.1117 75.4734 38.7716 75.4734 38.7716 75.143C39.1117 74.8127 38.7716 74.4823 38.7716 74.4823C38.7716 74.4823 38.7716 73.8215 39.1117 73.8215V73.4911V73.1608C38.7716 73.1608 38.7716 73.1608 38.7716 72.8304C38.4315 72.8304 38.4315 72.5 38.0914 72.5C37.7513 72.1696 37.7513 72.1696 37.7513 72.1696C36.3909 71.8392 25.8477 72.1696 25.1675 72.1696H22.1066H21.0863C20.7462 72.1696 20.4061 72.1696 19.7259 71.8392H19.0457C18.0254 71.8392 14.6244 70.8481 13.9442 70.5177C13.9442 70.5177 13.9442 70.8481 13.6041 70.8481V71.5089C14.2843 71.5089 18.0254 72.5 18.3655 72.8304H18.7056C19.0457 73.1608 19.3858 73.4911 19.7259 73.4911C20.4061 73.4911 21.0863 74.1519 21.4264 74.1519H21.7665C22.1066 74.1519 22.1066 74.1519 22.1066 74.4823C22.4467 74.4823 22.7868 74.4823 23.467 74.8127C23.8071 75.143 23.8071 75.143 23.8071 75.143C24.1472 75.143 24.1472 75.143 24.4873 75.4734H24.8274C25.1675 75.4734 25.1675 75.4734 25.5076 75.8038H25.8477C26.1878 75.4734 26.5279 76.1342 26.868 76.1342C26.868 76.1342 27.2081 76.1342 27.2081 76.4645C27.5482 76.4645 27.5482 76.7949 27.5482 76.7949H27.8883C27.8883 76.4645 28.2284 76.4645 28.2284 76.4645C28.5685 76.7949 28.5685 77.1253 28.9086 77.1253H29.2487C29.5888 77.1253 29.5888 77.1253 29.5888 77.4557C29.9289 77.4557 29.9289 77.4557 29.9289 77.7861C30.269 77.7861 30.269 78.1164 30.269 78.1164V78.7772V79.438V79.7683H30.6091C30.9492 79.7683 30.9492 79.7683 30.9492 80.4291C31.2893 80.7595 30.9492 81.0899 30.9492 81.0899V81.4202V82.4114C30.9492 82.4114 30.9492 82.7418 30.6091 83.0721C30.269 83.4025 30.269 83.7329 30.269 84.0633V83.4025C29.9289 83.7329 29.9289 84.0633 29.9289 84.0633C30.269 84.3937 30.269 84.3937 29.9289 84.724V85.0544C29.5888 85.0544 29.5888 85.3848 29.5888 85.7152C30.6091 85.3848 30.6091 85.3848 30.6091 85.7152C30.269 86.0456 30.269 86.3759 30.269 86.3759V86.7063V87.3671C30.269 87.6975 22.4467 93.6443 22.1066 93.9747H21.7665H20.7462C20.4061 94.3051 20.7462 94.6354 20.4061 94.6354C20.066 94.6354 20.066 94.6354 20.066 94.9658C19.7259 95.2962 19.7259 95.2962 19.3858 95.6266C19.0457 95.957 19.0457 95.957 18.7056 96.2873C18.3655 96.2873 18.7056 96.9481 18.3655 96.9481H18.0254C17.6853 96.6177 17.6853 96.6177 17.3452 96.6177C17.0051 96.9481 17.0051 97.2785 16.665 97.6088C16.3249 97.6088 16.3249 97.9392 16.3249 97.9392C16.3249 98.2696 15.9848 98.2696 15.9848 98.6H15.6447C15.3046 98.6 14.9645 98.9304 14.6244 99.2607C14.2843 99.5911 13.9442 99.5911 13.6041 99.5911C13.6041 99.2607 13.6041 99.2607 13.6041 99.5911V100.252C11.9036 101.243 10.203 102.895 9.18274 104.877H9.52284H9.86294H10.203H10.5431C10.5431 104.877 10.8832 105.208 10.8832 104.877C11.2233 104.877 11.2233 104.877 11.2233 105.208C11.5635 105.208 11.5635 105.208 11.5635 105.538C11.5635 105.538 12.2437 107.19 12.9239 108.181H12.5838C12.2437 108.181 11.9036 108.181 11.9036 107.851H11.5635H10.8832H10.5431C10.203 107.851 10.203 107.52 10.203 107.52H8.84264H8.50254H7.82233L7.48223 107.19C7.48223 107.19 7.14213 107.19 7.14213 106.859C7.14213 107.19 6.80203 107.19 6.80203 107.52C6.46193 107.19 6.46193 106.859 5.78173 106.859C4.08122 106.199 3.40102 106.199 0 105.208V105.868C0.340102 106.199 0.340102 106.529 0.340102 106.529C0 107.19 0.340102 107.19 0.340102 107.52C0.340102 108.181 0 108.181 0 108.511C0 108.842 0.340102 109.172 0.340102 109.503C0.680203 109.833 0.680203 110.163 0.340102 110.494V110.824C0.680203 111.485 0.340102 111.485 0.340102 111.815C0.340102 112.476 0.340102 112.476 0.680203 113.137V114.458V115.119C1.0203 115.119 1.0203 115.449 1.0203 115.449C1.0203 116.11 1.0203 116.44 0.680203 116.771C0.340102 117.432 0.680203 118.423 0.680203 119.084V119.414V119.744C1.0203 120.405 0.680203 121.066 1.0203 121.727C0.680203 122.387 0.680203 122.387 0.680203 122.718C0.340102 123.048 0.340102 123.048 0.340102 123.378C0.340102 123.709 0.680203 124.039 0.680203 124.37C0.680203 124.7 0.680203 125.361 0.340102 125.691V126.352C0.340102 127.013 0.340102 127.013 0.680203 127.343C0.680203 128.004 0.340102 128.995 0.340102 129.325V130.977V132.299C0.680203 132.629 0.680203 132.959 0.680203 132.959C0.680203 132.959 0.680203 132.959 0.340102 132.959C0.340102 133.62 0.680203 133.62 0.680203 133.951C0.680203 134.281 1.0203 134.611 1.0203 134.611V134.942V135.603C1.36041 136.263 0.680203 136.924 1.0203 137.254C0.680203 137.585 1.0203 137.915 1.0203 137.915V148.487C1.0203 149.148 0.680203 149.148 0.680203 149.809C0.340102 150.139 0.680203 150.47 1.0203 150.47V151.461C0.680203 151.791 0.680203 152.122 1.0203 152.122C1.0203 152.452 1.36041 152.452 1.0203 152.782V153.773V154.434C1.0203 155.095 1.36041 155.756 1.36041 156.086C1.70051 156.747 1.70051 157.077 1.70051 157.408C1.36041 157.408 1.36041 157.738 1.36041 158.068C1.36041 158.399 1.0203 158.399 1.0203 158.729L0.680203 159.059V161.042C0.680203 161.703 0.680203 162.033 1.0203 162.694V164.015V164.676V166.328C1.36041 166.989 1.36041 167.98 1.36041 168.641V169.301V169.632C1.36041 169.962 1.36041 170.292 1.0203 170.623C1.0203 170.953 1.0203 171.284 1.36041 171.944C1.36041 172.275 1.36041 172.275 1.0203 172.605C1.0203 172.935 0.680203 173.266 0.680203 173.266V173.927C1.0203 173.927 1.0203 173.927 1.0203 174.257C1.0203 174.587 1.0203 174.918 0.680203 174.918V175.248V175.909V176.239C0.680203 176.57 0.680203 176.9 1.0203 176.9V177.23V177.561V178.552V180.204C0.680203 180.534 1.0203 180.865 1.0203 180.865V182.186C1.0203 182.186 1.0203 182.516 1.36041 182.516C1.70051 182.847 1.70051 183.177 1.36041 183.177V184.168V184.499V185.159C1.70051 185.49 1.70051 185.49 1.36041 185.82C1.36041 186.151 1.36041 186.481 1.0203 187.142V187.803V188.794C1.0203 189.124 1.0203 189.454 0.680203 189.454C0.680203 189.785 1.0203 190.115 0.680203 190.446V191.767C1.0203 192.097 0.680203 192.097 0.680203 192.428C0.680203 192.758 1.0203 193.089 1.0203 193.089V193.419C1.0203 193.749 1.36041 194.08 1.36041 194.41V195.071C1.36041 195.732 1.36041 195.732 1.70051 196.062C2.04061 196.723 2.38071 197.053 2.72081 197.714C3.06091 198.375 3.06091 198.375 3.40102 199.035C3.74112 199.035 3.74112 199.366 3.74112 199.366C4.08122 199.696 4.08122 200.027 4.08122 200.027C4.08122 200.357 4.42132 200.357 4.42132 200.687H4.76142C5.10152 200.357 5.10152 200.357 5.44162 200.687C5.78173 201.018 6.80203 201.348 6.80203 202.009C7.14213 201.678 7.14213 202.009 7.82233 202.009H8.16244C8.50254 202.009 8.84264 202.339 9.18274 202.339C9.52284 202.009 9.52284 202.339 9.52284 202.009H9.86294C10.203 202.339 10.8832 202.009 11.2233 202.339C11.5635 202.009 12.2437 202.009 12.5838 201.678H13.6041C13.9442 202.009 14.2843 202.009 14.9645 201.678C15.3046 201.678 15.6447 201.678 15.9848 201.348C16.3249 201.348 16.665 201.348 16.665 201.678C16.665 202.009 16.665 202.339 17.0051 202.339H18.0254C18.3655 202.67 18.3655 202.67 19.0457 202.339C19.7259 202.009 20.066 202.009 20.7462 202.009H21.0863C21.4264 201.678 21.4264 201.678 22.1066 201.678C22.4467 201.348 22.7868 201.348 23.467 201.678C23.8071 201.678 23.8071 201.348 24.1472 201.018C24.4873 200.687 24.4873 200.687 24.4873 201.018H25.8477H26.1878C26.5279 201.018 26.868 201.018 27.2081 200.687H27.5482C27.8883 201.018 27.8883 201.018 28.2284 201.018H28.9086C29.2487 201.018 29.5888 200.357 30.269 201.018H31.9695H32.3096C32.6497 201.348 32.6497 201.678 32.6497 201.678C33.3299 201.678 34.0102 201.678 34.6904 202.009H35.0305C35.3706 202.009 35.3706 202.009 35.7107 202.339H36.3909H36.731C38.4315 202.67 40.132 202.67 42.1726 202.67H45.5736H48.9746H52.3756H52.7157C53.0558 202.67 53.736 202.339 54.0761 202.67C54.4162 202.67 54.4162 202.67 54.7563 202.339H55.4365H55.7766C56.1167 202.339 56.7969 202.009 57.1371 202.009C57.1371 202.339 57.1371 202.339 57.4772 202.009C57.8173 201.678 58.1574 202.67 58.8376 202.009H61.2183C61.5584 202.009 61.5584 202.009 61.8985 202.339H62.2386H62.9188C63.2589 202.009 63.599 202.009 64.2792 202.009H65.2995C65.6396 201.678 65.6396 201.678 65.9797 202.009H66.3198C66.6599 202.009 67.3401 202.009 67.6802 202.339C68.0203 202.67 68.7005 202.67 69.0406 203H69.3807C69.7208 202.67 70.401 202.67 70.7411 202.67C71.4213 202.67 72.1015 202.339 73.1218 202.339H78.2233C79.9239 202.339 88.7665 202.339 90.8071 202.009C91.4873 202.009 92.5076 202.339 93.1878 202.009C93.5279 201.678 93.868 201.678 94.5482 201.678C95.2284 201.678 95.5685 201.348 95.9086 201.348H96.5888H97.9492H98.6294C98.9695 201.348 98.9695 201.348 99.3096 201.678C99.6497 201.678 99.6497 201.348 99.6497 201.018C99.9898 200.687 99.9898 200.357 99.9898 200.357C99.9898 199.696 100.33 199.696 100.33 199.696C100.33 199.696 100.67 199.696 100.67 199.366C101.01 199.366 101.69 199.366 102.03 199.696C102.371 199.696 102.371 200.027 102.711 200.027C103.051 200.357 103.051 200.357 103.391 200.027C103.731 200.027 103.731 200.027 103.731 200.357C104.071 200.687 104.411 201.018 105.091 201.018H107.132H109.513H109.853H110.193C110.533 200.687 110.873 201.018 111.213 201.018C112.233 201.678 113.594 201.348 114.614 201.348H116.995H117.335H119.376H119.716H120.056C120.396 201.348 121.076 201.348 121.416 201.018C121.416 200.687 121.756 200.687 121.756 200.687H123.457C123.797 200.687 124.137 200.687 124.817 200.357H125.838C126.178 200.357 126.518 200.357 126.858 200.027C127.198 200.357 127.538 200.357 128.218 200.357C128.218 200.027 128.558 200.027 128.558 200.027C128.898 200.027 129.239 200.027 129.579 199.696C129.919 199.366 130.259 199.035 130.599 198.705C130.939 198.375 131.279 198.044 130.939 197.384C130.939 197.053 130.939 196.723 131.279 196.723C131.619 196.392 131.619 196.392 131.279 196.062V195.732C131.279 195.071 131.619 195.071 131.619 194.74C131.959 194.74 131.959 194.41 131.959 194.08C131.959 194.08 131.959 193.749 132.299 193.749C132.299 193.089 132.64 192.758 132.64 192.097C132.64 191.437 132.299 191.106 132.64 190.446V190.115V189.124C132.98 188.794 132.98 188.463 132.64 187.803C132.64 187.472 132.64 187.142 132.98 187.142V186.811V186.151C132.98 185.49 133.32 185.49 133.32 184.829V183.838C132.98 183.508 133.32 183.177 133.32 182.847C133.32 182.516 133.66 182.186 133.32 181.856C132.98 181.856 133.32 181.525 133.32 181.525V180.865V179.873V179.213C133.66 178.552 133.32 178.552 132.98 178.222C132.64 178.222 132.64 177.891 132.64 177.561V177.23C132.64 176.57 132.299 175.909 132.299 175.578V175.248C132.299 175.248 132.299 174.918 131.959 174.918C132.299 174.587 132.299 174.587 132.299 174.257V173.596C131.959 173.266 131.959 172.935 131.959 172.605C132.299 171.944 132.299 171.944 131.959 171.614L132.299 170.953C132.299 170.623 132.64 170.292 132.98 170.292C132.98 169.301 132.98 169.301 132.299 168.641V169.301C131.959 169.301 131.959 168.971 132.299 168.641C132.64 168.31 132.64 167.98 132.64 167.98C132.98 167.649 132.64 167.319 132.64 167.319V166.989C132.299 166.658 132.299 166.328 132.299 166.328L131.959 165.667V165.337C132.299 165.006 132.299 164.676 132.299 164.676L132.64 164.015C132.64 163.354 132.299 163.354 132.299 163.024C131.959 162.694 131.959 162.363 131.959 162.033C131.619 161.703 131.619 161.372 131.619 161.042C131.619 160.381 131.959 160.051 131.959 160.051C132.299 159.39 132.299 159.059 132.299 158.399C132.299 158.068 132.299 157.738 131.959 157.738V157.077C131.959 156.747 131.959 156.416 131.619 156.416C131.279 156.086 131.279 156.086 131.279 155.756C131.619 155.095 131.279 154.765 131.619 154.434C131.619 153.773 131.619 153.773 131.279 153.773L130.939 153.113C130.939 152.452 131.279 152.452 131.279 151.791C131.279 151.13 131.279 150.8 131.619 150.139C131.619 149.809 131.279 149.809 131.279 149.478H130.939V149.148V148.487C130.599 147.827 130.599 147.827 130.939 147.166C130.939 146.505 130.939 146.505 130.599 146.175C130.259 145.844 130.259 145.514 130.599 145.514V145.184L130.259 144.853V143.862C130.259 143.201 130.599 142.871 130.599 142.21V141.88C130.939 141.549 130.939 141.219 130.939 141.219V140.558C130.939 140.228 130.939 139.897 130.599 139.897V138.906C130.599 138.906 130.599 138.576 130.259 138.246L130.599 137.915C130.599 137.585 130.939 137.585 130.939 137.585C131.279 137.915 131.279 137.585 131.619 137.585C131.619 137.254 131.959 137.254 131.959 137.254C132.299 136.594 132.299 136.594 132.299 135.933V134.942C132.64 134.611 132.64 134.281 132.64 133.951V132.959C132.64 132.629 132.299 132.299 132.64 131.968C132.98 131.638 132.299 131.308 132.299 131.308L132.64 130.977C132.64 130.647 132.64 130.647 132.299 130.316C131.959 129.986 131.959 129.986 131.959 129.656L131.619 129.325C131.279 128.995 131.279 128.665 131.279 128.004C131.619 127.673 131.619 127.343 131.619 126.682C132.64 127.013 132.64 126.352 132.64 125.691V125.361C132.98 125.03 132.98 124.7 132.98 124.7V123.709C132.98 123.378 133.32 123.048 132.98 123.048V121.396C132.98 121.066 132.98 121.066 133.32 120.735C133.66 120.405 133.32 120.075 133.32 119.744C133.32 119.744 132.98 119.414 133.32 119.414C133.32 118.753 133.32 118.423 133.66 117.762V117.101C133.32 116.771 133.32 116.441 133.32 116.441C132.64 116.441 132.64 116.441 132.98 116.11C133.32 115.78 133.32 115.449 132.98 115.449V114.789L133.32 114.458C133.32 113.797 132.98 112.806 133.32 112.146H132.98V110.824C133.32 110.494 133.32 110.163 132.98 109.833V109.172C132.98 108.511 132.98 108.511 133.32 107.851C132.98 107.19 132.98 106.859 133.32 106.529C133.32 106.199 132.98 105.868 132.98 105.868C132.98 105.208 132.64 105.208 132.98 104.547V104.216C132.64 103.886 132.64 103.556 132.98 103.225C132.98 102.565 132.98 102.565 132.64 101.904V101.243C132.98 100.913 132.98 100.582 132.98 100.252C132.64 100.252 132.64 99.9215 132.64 99.9215C132.64 99.5911 132.98 99.5911 132.98 99.5911C133.32 99.2607 133.32 98.9304 133.32 98.6C132.98 98.2696 133.32 98.2696 133.32 97.9392C133.66 97.2785 133.32 97.2785 132.98 96.6177C132.64 96.6177 132.64 96.2873 132.64 95.957V95.6266C132.299 95.2962 132.64 94.9658 132.64 94.9658C132.98 94.6354 132.98 94.3051 132.98 94.3051V93.6443C132.98 93.3139 132.64 92.9835 132.98 92.6532V93.3139V92.6532C133.32 92.3228 133.32 91.9924 132.98 91.9924V91.3316C133.32 91.0013 132.98 91.0013 132.98 90.6709V90.0101C132.98 89.6797 132.98 89.3494 133.32 89.019C132.98 88.6886 132.98 88.3582 132.98 88.3582C132.98 88.0278 132.64 87.6975 132.64 87.6975C132.98 87.0367 132.64 87.0367 132.64 86.7063V86.0456C132.64 85.7152 132.64 85.3848 132.98 85.0544C132.98 84.724 132.98 84.3937 132.64 84.3937C132.299 83.7329 132.64 83.7329 132.64 83.0721C132.64 83.0721 132.98 83.0721 132.98 82.7418C132.64 82.4114 132.64 82.4114 132.64 82.081V80.7595V80.0987C132.64 79.438 132.299 79.438 132.299 78.7772C132.98 78.7772 132.64 78.1164 132.64 77.7861C132.64 77.4557 132.64 77.1253 132.98 77.1253C132.98 76.7949 132.98 76.4645 132.64 76.4645V75.8038C132.64 75.4734 132.64 75.143 132.98 75.143V74.8127C132.98 74.4823 133.32 74.1519 132.98 73.8215V73.4911C132.98 73.1608 132.98 73.1608 132.98 73.1608ZM54.7563 65.8924C54.4162 65.562 54.4162 65.2316 54.4162 65.2316C54.0761 64.5709 54.0761 63.9101 53.736 63.2494C53.3959 62.2582 53.0558 61.2671 53.3959 59.9456C53.736 59.9456 53.3959 59.6152 53.3959 59.6152C53.3959 58.2937 53.736 57.3025 53.736 55.981C53.3959 55.3203 53.736 54.9899 53.3959 54.3291C53.0558 53.9987 53.0558 53.6683 53.0558 53.338C52.7157 52.3468 52.0355 51.6861 51.6954 50.6949C51.6954 50.3646 52.3756 50.0342 52.3756 50.0342C53.736 49.7038 54.7563 50.0342 56.1167 50.0342C56.4568 50.3646 59.8579 52.0165 60.198 52.3468C61.2183 53.0076 62.5787 53.9987 63.599 54.6595C63.9391 54.9899 64.2792 55.3202 64.6193 55.3202C64.9594 55.981 65.2995 55.981 65.9797 55.981C67.3401 56.3114 67.6802 56.6418 67.3401 57.6329V58.624C67.6802 59.2848 67.6802 59.9456 67.6802 60.2759V60.6063C67.3401 61.2671 67.3401 61.2671 67.3401 61.5975C67 62.2582 67.6802 63.2494 67 64.2405C66.6599 64.9013 67 65.8924 66.3198 66.5532V66.8835C66.3198 67.5443 65.9797 67.8747 65.9797 68.2051C65.2995 68.5354 64.6193 68.8658 63.599 68.8658C62.2386 68.2051 56.797 65.8924 56.1167 66.2228H54.7563V65.8924ZM43.533 90.3405C43.1929 90.3405 43.1929 90.0101 43.533 90.3405V90.3405ZM99.6497 150.47C99.6497 150.8 99.9898 150.8 99.6497 150.47C99.6497 150.8 99.6497 150.47 99.6497 150.47ZM114.954 114.789C114.614 115.78 115.294 116.771 114.614 117.432V117.762V120.405C114.954 121.066 114.614 121.066 113.934 121.066C111.893 120.405 109.513 119.744 107.472 119.084C106.452 118.753 104.071 118.423 103.051 119.084C102.711 119.414 102.03 119.084 101.69 119.744H101.35L101.01 120.075C100.67 120.075 100.67 120.405 100.67 120.405C100.33 120.735 100.33 121.066 100.33 121.066C100.33 121.396 100.33 121.396 100.67 121.727C101.01 122.387 100.67 122.387 100.33 123.378C99.9898 123.709 99.9898 124.37 99.9898 125.03C100.33 125.691 99.9898 126.022 99.6497 126.352C99.3096 126.352 99.3096 126.682 99.3096 126.682C99.3096 127.013 99.3096 127.013 98.9695 127.343V127.673C98.6294 128.004 98.6294 128.334 98.2893 128.334C97.9492 128.334 97.9492 128.665 97.9492 128.665C97.9492 128.995 97.9492 129.325 97.6091 129.325C97.269 129.656 96.5888 131.968 96.2487 132.299C96.5888 132.959 96.5888 133.29 96.9289 133.951C97.269 134.611 97.9492 134.942 98.2893 135.603C98.6294 135.603 98.6294 135.933 98.6294 135.933C98.9695 136.594 99.9898 136.924 100.33 137.585C100.33 137.915 100.67 138.246 100.67 138.246C100.67 138.576 100.67 138.906 101.01 138.906C101.35 139.237 101.35 139.567 101.35 139.567C101.35 139.897 101.35 139.897 101.69 140.228C101.69 140.558 102.03 140.889 102.03 140.889C102.03 141.219 102.371 141.219 102.371 141.219C102.371 141.549 102.711 141.549 102.711 141.549C102.711 141.88 103.051 141.88 103.051 142.21C103.051 142.21 103.051 142.541 103.391 142.541C103.731 143.201 103.731 143.201 104.071 143.201C104.411 143.862 105.431 144.523 105.772 145.184C106.112 145.514 106.452 145.844 106.112 145.844C106.112 146.175 106.452 146.175 106.452 146.505C106.792 146.505 106.792 146.835 106.792 146.835C107.132 147.166 107.132 147.166 107.132 147.496C107.472 147.827 107.812 148.157 108.152 148.487L108.492 148.818C108.832 148.818 109.513 148.818 109.853 149.148C109.853 149.148 110.193 149.478 109.853 149.478C109.853 149.809 110.193 150.139 110.193 150.139L110.533 150.8V151.461C110.873 152.122 110.873 152.452 110.873 153.113C110.873 153.113 110.873 153.443 111.213 153.443L111.893 154.104C112.234 154.765 112.914 155.425 113.254 155.756C113.254 156.086 113.594 156.416 113.594 156.416H113.254C112.914 156.416 112.914 156.086 112.574 156.747C112.233 156.416 112.233 157.077 111.553 157.077C111.213 157.408 111.213 157.738 110.873 157.738C110.533 157.738 110.533 157.738 110.533 158.068C110.193 158.399 109.853 158.399 109.513 158.729H108.832C108.492 158.729 108.152 158.729 107.812 159.059C107.472 158.729 107.472 158.729 107.132 158.729H106.792C106.452 158.729 106.112 158.399 105.772 158.399C105.431 158.399 105.091 158.729 104.751 158.399C104.411 158.068 104.411 157.738 104.071 157.738C104.071 157.408 104.071 157.408 103.731 157.408C103.731 157.077 103.391 157.077 103.391 156.747L103.051 156.416C102.711 156.086 102.711 155.756 102.371 155.425H102.03C102.03 155.095 101.69 154.765 101.69 154.765C101.35 154.765 101.35 154.434 101.35 154.434C101.01 154.104 101.01 154.104 101.01 154.104C100.67 153.443 99.3096 152.452 99.3096 152.122C99.3096 152.122 98.9695 152.122 98.9695 151.791C98.6294 151.791 98.6294 151.461 98.2893 151.13H97.9492C97.9492 150.8 97.6091 150.8 97.6091 150.8C97.269 150.47 97.269 150.139 97.269 150.139C96.9289 149.809 96.9289 149.809 96.5888 149.478V149.148C96.2487 149.148 96.2487 148.487 95.9086 148.487C95.9086 148.157 95.5685 148.157 95.5685 148.157C95.5685 147.496 95.5685 147.496 95.2284 147.166C95.2284 146.835 95.2284 146.835 94.8883 146.505C94.8883 145.844 94.8883 145.844 94.5482 145.184C94.2081 144.853 94.5482 144.853 94.5482 144.523C94.2081 144.192 94.2081 144.192 94.2081 143.862C94.2081 143.862 94.2081 143.532 93.868 143.532C93.5279 142.871 93.5279 142.871 93.5279 142.541C93.5279 141.88 93.1878 141.549 93.5279 140.889C93.5279 140.889 93.1878 140.889 93.1878 140.558V139.897V139.567C92.8477 139.237 93.1878 139.237 93.1878 138.906C93.1878 138.906 93.1878 138.576 92.8477 138.576C92.5076 138.246 92.5076 137.915 92.8477 137.915V137.585C92.5076 137.254 92.5076 136.924 92.5076 136.594V135.603C92.1675 135.272 92.1675 134.942 92.1675 134.942V134.611C91.8274 133.62 91.8274 133.29 91.8274 133.29C91.8274 132.629 91.8274 132.629 91.4873 131.968C91.4873 131.968 91.4873 131.638 91.1472 131.638C90.8071 131.638 90.467 131.638 90.1269 131.308H89.7868C89.4467 131.308 88.4264 131.308 88.0863 130.977H87.7462C86.3858 131.308 73.4619 133.951 73.1218 133.951C72.4416 133.951 71.7614 133.951 70.7411 134.281C70.401 134.611 69.7208 134.281 69.3807 134.281C69.0406 134.611 68.7005 134.611 68.0203 134.611H67C65.6396 134.942 61.5584 134.611 60.198 134.281C60.198 134.611 60.5381 134.611 60.5381 134.611H60.8782C61.2183 134.942 61.2183 135.272 61.5584 135.272C61.8985 135.603 65.9797 135.933 65.9797 135.933H66.3198C66.6599 136.263 67.3401 136.263 67.6802 136.263C68.3604 136.263 69.7208 136.263 70.401 136.594H71.0812H71.4213C71.7614 136.924 72.4416 136.924 72.7817 136.924H73.4619C73.802 136.924 73.802 136.924 74.1421 137.254H74.4822C74.8223 136.924 75.1624 137.254 75.8426 137.254C76.1827 136.924 76.8629 137.254 77.203 137.254C77.5431 137.254 77.5431 137.254 77.5431 137.585C77.5431 137.915 77.8832 137.915 77.8832 137.915H78.2233C78.2233 137.585 78.5634 137.585 78.5634 137.585C78.5634 137.585 78.9035 137.915 79.5837 138.246V137.915C79.9239 137.915 79.9239 137.915 80.264 138.246C80.6041 138.246 80.6041 137.915 80.6041 138.576H80.9442C81.2843 138.246 81.2843 138.576 81.2843 138.906C81.2843 138.906 81.6244 139.237 81.6244 139.567V139.897C81.6244 140.228 81.6244 140.228 81.9645 140.558H82.3046C82.6447 140.228 82.6447 140.228 82.9848 140.889V141.88V142.541C83.3249 142.871 83.3249 143.201 83.3249 143.532V142.871V143.201C82.9848 143.532 82.9848 143.862 82.9848 144.523V144.853C82.6447 145.184 82.6447 145.514 82.9848 145.844V146.175C82.6447 146.175 82.6447 146.505 82.6447 146.505C82.6447 146.835 82.6447 147.166 82.3046 147.166V147.827C82.3046 148.157 82.3046 148.157 82.3046 147.827C81.9645 148.487 81.9645 149.478 81.9645 150.139C81.6244 150.139 81.9645 150.139 81.9645 150.47C81.9645 150.8 76.5228 156.747 76.5228 157.077C76.5228 157.408 74.4822 159.059 74.1421 159.72C74.8223 159.39 74.8223 159.39 74.4822 159.39C74.1421 159.72 74.4822 160.051 74.1421 160.381H73.802C73.4619 161.042 73.1218 161.042 73.1218 161.372C72.7817 161.703 72.7817 162.033 72.1015 162.033C71.7614 162.363 72.4416 162.694 72.4416 163.024C72.1015 163.024 72.1015 163.354 72.1015 163.354C71.7614 163.685 71.4213 163.685 71.0812 164.015C70.7411 164.346 70.7411 165.006 70.7411 165.337L70.401 165.667C70.0609 165.997 70.0609 166.328 70.0609 166.328C69.7208 166.658 69.0406 166.989 68.7005 167.319C68.3604 167.649 68.0203 167.649 67.6802 167.98C67.3401 167.98 67.3401 168.31 67.3401 168.641V169.301C65.6396 171.284 63.9391 173.927 62.5787 176.9H62.9188H63.2589C63.599 176.57 63.599 176.239 63.9391 176.57H64.2792V176.239V176.9C64.6193 176.9 64.6193 176.57 64.6193 176.9H64.9594C65.2995 177.23 65.2995 177.23 65.2995 177.23C65.2995 176.9 65.6396 176.9 65.6396 176.9H65.9797C66.3198 176.57 66.3198 176.57 66.3198 176.9C66.6599 176.9 66.6599 176.9 67 176.57C67.3401 176.239 67.6802 176.57 68.0203 176.9C68.3604 176.57 68.3604 176.57 68.3604 176.9C68.3604 176.9 70.0609 179.543 71.0812 180.534C71.0812 180.865 70.7411 180.865 70.7411 180.534H70.401C70.0609 180.865 69.7208 180.865 69.0406 180.534H68.7005H68.3604C68.0203 180.534 68.0203 180.534 67.6802 180.865H68.0203H67.3401H65.9797C65.9797 180.865 65.6396 180.865 65.6396 181.195H65.2995H64.6193H63.9391C63.9391 180.865 63.599 180.865 62.9188 180.865C58.8376 180.534 58.8376 180.534 51.0152 180.204H50.6751C50.335 180.204 50.335 179.873 50.335 179.543L49.9949 179.213C49.9949 179.543 49.9949 179.543 49.6548 179.873C49.6548 179.543 48.6345 179.873 48.6345 179.543C48.2944 179.213 48.2944 179.213 48.2944 179.213L47.9543 178.882C47.6142 178.882 46.934 179.543 46.934 179.213H46.5939C46.2538 179.213 46.2538 178.882 45.9137 178.882H45.5736C45.2335 178.882 44.8934 178.552 44.5533 178.882C44.2132 178.552 44.2132 178.222 44.2132 178.222H43.8731C43.533 178.222 43.533 178.222 43.1929 178.552L42.1726 178.882C42.1726 178.882 45.2335 174.918 45.5736 174.587C45.5736 174.587 45.9137 174.587 45.9137 174.918C46.2538 174.918 46.2538 174.918 46.2538 174.587C46.5939 174.587 46.5939 174.257 46.5939 174.257C46.5939 174.257 46.934 174.257 46.934 174.587C46.5939 174.918 46.934 174.918 47.2741 175.248H47.6142C47.6142 175.248 47.6142 174.918 47.2741 174.918C46.934 174.587 46.934 174.257 46.934 174.257H46.5939C48.2944 170.623 47.9543 170.623 50.6751 167.649C50.6751 167.98 51.3553 165.997 51.6954 165.997C52.0355 165.667 52.7157 165.337 53.0558 165.006C53.3959 165.006 53.3959 164.676 53.3959 164.676C53.3959 164.346 53.736 164.015 53.736 164.015C54.0761 163.685 54.0761 163.354 54.4162 163.354V162.694C54.7563 162.363 54.0761 162.033 54.4162 162.033C54.4162 161.703 55.0964 159.39 55.7766 159.39C56.4568 159.39 57.1371 157.077 57.4772 156.747H57.8173C57.8173 156.416 58.1574 156.086 58.1574 156.086C58.1574 156.086 58.4975 155.756 58.8376 155.425C58.8376 155.095 59.1777 153.773 59.1777 153.773C59.5178 153.773 59.5178 153.773 59.5178 153.443C59.8579 153.113 59.8579 152.782 60.198 152.452C60.5381 152.452 60.198 151.791 60.5381 151.791C60.8782 151.791 61.8985 149.809 62.2386 149.478L62.5787 148.818C62.9188 148.818 63.2589 149.148 63.2589 148.487L64.9594 148.157C65.2995 148.157 65.6396 147.496 65.9797 147.496C65.9797 147.496 65.6396 147.827 65.2995 147.496C64.9594 147.166 64.9594 147.166 64.6193 147.166H64.2792C63.9391 146.835 63.599 146.505 63.2589 146.835H62.9188C62.5787 146.505 62.2386 146.505 61.8985 146.505L61.5584 146.175C61.2183 145.844 61.2183 145.844 60.8782 145.844C60.5381 145.844 60.5381 145.844 60.5381 145.514H60.198H59.8579H59.5178C59.1777 145.514 59.1777 145.184 58.8376 145.184C54.7563 150.8 41.4924 155.425 37.0711 156.086C36.731 156.086 36.731 156.416 36.3909 156.747C35.0305 156.747 34.0102 157.408 34.0102 157.408H33.3299C32.9898 157.408 32.6497 157.408 32.3096 157.738C31.9695 157.408 31.6294 157.408 30.9492 157.738C30.6091 157.408 29.5888 157.738 29.2487 158.068C28.9086 159.39 28.5685 159.39 28.2284 159.39C27.8883 159.39 27.8883 159.39 27.5482 159.39H26.5279C26.1878 159.059 25.8477 159.39 25.5076 159.39C25.1675 159.39 24.8274 159.39 24.8274 159.39C24.4873 159.39 23.8071 159.39 23.8071 159.39H23.1269C22.7868 159.39 22.4467 159.72 22.1066 159.72C21.7665 159.72 21.0863 160.051 20.7462 159.72C20.4061 160.051 20.066 160.051 19.7259 160.051C19.3858 159.72 19.3858 160.051 19.0457 160.051C18.7056 160.381 18.7056 160.381 18.3655 160.051C18.3655 160.051 18.0254 160.051 18.0254 160.381H17.3452C17.0051 160.381 16.665 160.381 16.3249 160.711H15.9848C15.6447 160.381 15.3046 160.381 14.6244 160.381C14.2843 160.381 13.9442 160.711 13.264 160.381V160.051C12.9239 160.381 12.5838 160.381 12.2437 160.381C11.9036 160.381 11.9036 160.381 11.5635 160.051C11.2233 160.051 10.5431 159.72 10.203 160.051H9.86294C9.52284 159.72 9.52284 159.72 9.52284 160.051C9.18274 160.051 9.18274 160.381 9.18274 160.381C8.84264 160.381 8.16244 160.711 7.82233 160.051C7.48223 160.051 7.48223 159.72 7.14213 159.72H6.46193C6.46193 159.72 6.80203 159.72 6.80203 160.051C6.80203 160.381 7.14213 160.711 6.80203 160.711V161.042H6.46193C6.46193 161.372 6.46193 161.372 6.12183 161.703V162.033C5.78173 162.363 5.78173 162.363 5.78173 162.694C6.12183 162.694 6.12183 162.694 6.12183 163.024V162.694C6.12183 163.024 5.78173 163.024 6.12183 163.354V163.685C6.46193 164.015 6.12183 164.346 5.78173 164.346C6.12183 164.346 6.12183 164.676 5.78173 164.676C5.78173 164.676 3.74112 165.997 2.38071 166.658C2.04061 166.658 2.04061 166.658 2.38071 166.658V165.997V165.337C2.72081 165.337 2.72081 165.006 2.38071 165.006V164.346C2.38071 164.015 2.72081 163.685 2.38071 163.685C2.38071 163.354 2.72081 163.024 2.38071 163.024C2.38071 162.363 2.38071 162.363 2.72081 161.703C2.72081 161.703 2.72081 161.372 2.38071 161.372V160.711V160.051C2.38071 159.72 2.38071 159.72 2.72081 159.39H3.40102C3.74112 156.086 3.74112 156.086 4.76142 149.809V149.478C4.76142 149.148 4.76142 148.818 5.10152 148.818C5.10152 148.818 5.44162 148.818 5.44162 148.487H5.10152C5.10152 148.157 5.10152 147.496 5.44162 147.496C5.44162 147.166 5.78173 147.166 5.78173 146.835V146.505C6.12183 146.175 5.44162 145.514 5.78173 145.514H6.12183C5.78173 145.184 6.12183 144.853 6.12183 144.853V144.523C6.46193 144.192 6.46193 143.862 6.46193 143.862C6.80203 143.862 6.80203 143.532 6.80203 143.532V143.201H7.14213C6.80203 142.871 7.14213 142.541 6.80203 142.541C6.46193 142.541 6.46193 141.88 6.80203 141.88V141.219C6.80203 141.219 8.84264 143.862 9.52284 144.523C9.86294 144.523 9.86294 144.192 9.86294 143.862L10.203 143.532C10.5431 142.871 11.5635 142.871 11.5635 143.862V144.192H12.5838H13.6041C13.9442 144.523 13.9442 144.523 13.9442 144.523C14.9645 144.523 15.6447 144.523 16.3249 144.853H17.3452C17.3452 144.523 17.6853 144.853 18.0254 144.523C18.3655 144.523 18.3655 144.853 18.7056 145.184C19.0457 145.514 19.0457 145.514 19.3858 145.514H20.4061H20.7462C21.0863 145.514 21.7665 145.514 22.1066 145.844C22.4467 145.844 22.4467 145.844 22.7868 146.175H23.8071H25.1675C25.5076 146.175 26.1878 146.175 26.5279 146.505C26.868 146.505 27.2081 146.505 27.8883 146.175C28.2284 146.175 28.5685 146.175 28.9086 146.175C29.2487 146.175 28.9086 146.175 28.9086 146.175H29.2487C29.2487 146.175 29.5888 146.175 29.5888 146.505H30.6091C30.9492 146.175 30.9492 146.175 31.6294 146.175H31.9695C32.3096 145.844 32.3096 146.175 32.3096 146.175C32.6497 146.175 32.9898 146.175 32.9898 146.175H33.3299H34.0102L34.3503 146.505H35.0305H35.3706C35.7107 146.175 36.0508 146.175 36.3909 145.844H36.731H37.0711H37.4112C37.7513 145.844 37.7513 146.175 37.7513 146.175H38.4315C38.7716 146.175 38.7716 146.175 39.4518 146.505C39.1117 146.505 39.4518 146.505 39.4518 146.505C39.7919 145.844 40.4721 145.844 40.8122 145.844C41.1523 145.844 41.8325 146.175 42.1726 145.844H42.5127C42.8528 146.175 42.8528 146.175 43.1929 146.175C43.533 146.175 44.2132 146.175 44.2132 146.175H44.5533C44.8934 146.175 53.0558 146.505 54.0761 145.844H54.4162C54.0761 145.514 54.0761 145.514 53.736 145.514C53.3959 145.514 52.7157 145.184 52.3756 145.184C52.0355 145.184 47.9543 144.853 47.6142 144.523H47.2741C46.5939 144.192 43.533 143.532 42.8528 142.871C42.8528 142.871 42.5127 142.54 42.5127 142.21V142.871C41.8325 142.871 41.1523 142.21 40.8122 141.219C40.8122 140.558 41.1523 139.567 41.1523 138.576C41.1523 138.576 41.1523 138.246 40.8122 138.246C41.1523 135.933 41.4924 133.951 42.1726 132.299C43.533 128.665 45.5736 125.361 47.6142 122.057H47.9543C48.6345 122.057 49.3147 121.727 49.6548 122.057C50.335 123.048 51.0152 123.048 51.3553 123.048C51.6954 122.718 52.0355 122.718 52.3756 122.718H52.7157C53.0558 122.718 53.0558 122.387 53.3959 122.387H53.736C54.0761 122.718 54.0761 122.718 54.4162 122.718C54.7563 122.718 54.7563 122.718 55.0964 122.387H55.4365C55.7766 122.718 55.7766 122.387 56.4569 122.387C56.4569 122.057 56.797 122.057 56.797 122.057H57.8173C58.1574 122.057 58.4975 122.387 59.1777 122.057C59.5178 122.057 60.5381 122.057 60.5381 121.727H60.8782C61.2183 121.396 61.2183 122.387 61.5584 122.057H61.8985C62.2386 121.727 62.2386 121.727 62.9188 121.727L63.2589 122.057C64.2792 121.727 64.9594 122.057 65.6396 122.057C65.9797 121.727 65.9797 121.727 65.9797 121.727C66.3198 121.727 67 121.066 67.3401 121.396C67.6802 121.396 67.6802 121.727 67.6802 121.396H68.0203C68.3604 121.727 68.7005 121.727 69.3807 121.727H69.7208C70.0609 121.727 70.401 121.066 70.7411 121.066H71.4213C71.7614 121.066 72.7817 120.735 73.1218 121.066C73.4619 121.066 74.4822 120.735 74.4822 120.735C74.8223 120.735 74.4822 120.075 74.8223 120.075C76.1827 119.744 77.203 119.414 78.2233 119.414C78.2233 118.753 78.2233 118.423 77.8832 118.092C77.5431 118.423 68.3604 113.797 62.9188 113.797C62.5787 113.797 62.5787 113.467 62.5787 113.467C62.2386 113.797 62.2386 113.467 62.2386 113.137C61.8985 112.806 61.8985 112.806 61.5584 112.476H61.2183C61.2183 112.146 60.8782 112.146 60.8782 112.146V113.137L60.5381 112.806C60.198 112.806 60.198 112.476 59.8579 112.476C59.8579 112.146 58.4975 112.146 58.1574 112.146C57.8173 112.146 57.8173 111.815 57.1371 111.815C57.1371 112.146 56.797 112.146 56.797 111.815L56.4569 111.485H56.1167C56.1167 111.154 55.7766 110.824 55.7766 110.824C55.4365 110.824 55.4365 110.494 55.0964 110.494C54.7563 110.163 54.7563 109.833 54.4162 109.833C53.736 109.833 53.0558 110.494 52.7157 110.163H51.6954C51.3553 110.163 51.3553 110.163 51.6954 110.163C51.6954 109.833 51.3553 109.833 51.3553 109.833C51.0152 109.503 50.6751 109.172 50.335 109.172C49.9949 108.842 49.6548 109.172 49.3147 108.842C49.3147 108.511 40.4721 106.199 40.132 106.199C39.4518 105.868 40.4721 103.225 39.7919 102.565C38.7716 101.904 40.132 102.565 39.1117 102.234C38.7716 101.904 38.4315 101.573 38.0914 101.573C38.0914 101.243 37.7513 101.243 37.7513 101.243H37.4112C37.4112 101.243 37.0711 99.5911 36.3909 97.2785C36.0508 95.2962 35.7107 93.6443 35.7107 93.6443C49.3147 96.2873 57.1371 97.6088 61.5584 99.2607H62.5787C63.9391 99.9215 64.9594 99.9215 64.9594 99.9215C65.2995 99.9215 65.2995 99.9215 65.2995 100.252C65.2995 100.582 65.6396 100.582 65.9797 100.582C66.3198 100.913 67 101.243 67.3401 101.243H67.6802C68.0203 101.904 69.0406 101.904 69.3807 101.904C69.7208 101.904 69.7208 101.904 70.0609 102.234C70.401 102.565 70.401 102.565 70.7411 102.895C71.0812 102.895 71.4213 102.895 71.7614 103.225C72.1015 103.886 72.4416 103.886 73.1218 103.886H73.802C74.1421 104.216 74.8223 104.216 75.1624 104.547C75.1624 104.547 75.5025 104.547 75.5025 104.877C75.5025 105.208 76.1827 105.208 76.5228 105.538C76.8629 105.538 77.5431 105.538 77.8832 106.199H78.2233C78.5634 106.199 78.5635 106.529 78.9035 106.529C79.2437 106.859 83.3249 108.181 83.3249 107.851C83.665 107.851 84.0051 108.181 84.0051 108.511C84.3452 108.842 84.3452 108.842 84.3452 108.842H84.6853C85.0254 109.172 85.3655 109.172 86.0457 109.503C86.0457 109.503 86.3858 109.503 86.3858 109.833C86.7259 110.163 87.066 110.494 87.7462 110.494L88.0863 110.824C88.4264 110.824 88.7665 111.154 89.1066 111.485L89.4467 111.815C89.7868 111.815 90.1269 112.146 90.467 112.476C90.8071 112.806 91.1472 112.806 91.4873 113.137C91.8274 113.797 91.8274 113.467 92.8477 113.797C92.8477 113.797 93.1878 113.797 93.1878 114.128C93.5279 114.128 93.5279 114.458 93.868 114.458C94.2081 114.458 94.5482 115.119 94.8883 115.119C95.2284 115.119 95.9086 115.78 96.5888 116.11C96.2487 115.449 96.2487 114.789 96.2487 113.797L95.9086 113.467C95.5685 112.146 95.9086 110.824 95.5685 109.833C95.2284 109.172 94.8883 108.842 94.5482 108.181C94.2081 107.851 94.2081 107.52 93.868 107.52C93.5279 106.529 93.1878 105.208 92.5076 104.216C92.5076 103.886 92.1675 103.556 92.1675 103.225C91.1472 102.565 91.8274 102.234 91.8274 101.573C91.8274 100.913 92.1675 100.913 92.8477 100.913C93.1878 101.573 93.868 101.573 94.5482 101.573C95.5685 101.243 96.2487 101.573 96.9289 102.234C97.269 102.565 98.2893 102.565 98.9695 102.565C100.33 102.895 101.35 102.565 102.03 103.886C102.03 103.886 102.371 103.886 102.371 104.216C103.731 104.877 106.792 105.868 107.812 106.529C107.472 106.199 108.152 106.859 107.812 106.529C108.152 107.19 109.173 107.19 109.513 107.19C111.213 106.859 111.553 107.19 111.553 108.842C111.553 109.172 111.553 109.503 111.893 109.833C112.234 110.494 112.574 111.154 112.914 111.815L112.574 112.146V113.137C114.614 113.137 115.635 113.797 114.954 114.789Z"
     fill="#D50032"
     id="path2" />
</svg>
