<?xml version="1.0" encoding="UTF-8" standalone="no"?>
<svg
   xmlns:dc="http://purl.org/dc/elements/1.1/"
   xmlns:cc="http://creativecommons.org/ns#"
   xmlns:rdf="http://www.w3.org/1999/02/22-rdf-syntax-ns#"
   xmlns:svg="http://www.w3.org/2000/svg"
   xmlns="http://www.w3.org/2000/svg"
   xmlns:sodipodi="http://sodipodi.sourceforge.net/DTD/sodipodi-0.dtd"
   xmlns:inkscape="http://www.inkscape.org/namespaces/inkscape"
   width="134"
   height="203"
   viewBox="0 0 134 203"
   fill="none"
   version="1.1"
   id="svg6"
   sodipodi:docname="skeleton.svg"
   inkscape:version="0.92.1 r15371">
  <metadata
     id="metadata12">
    <rdf:RDF>
      <cc:Work
         rdf:about="">
        <dc:format>image/svg+xml</dc:format>
        <dc:type
           rdf:resource="http://purl.org/dc/dcmitype/StillImage" />
        <dc:title></dc:title>
      </cc:Work>
    </rdf:RDF>
  </metadata>
  <defs
     id="defs10" />
  <sodipodi:namedview
     pagecolor="#ffffff"
     bordercolor="#666666"
     borderopacity="1"
     objecttolerance="10"
     gridtolerance="10"
     guidetolerance="10"
     inkscape:pageopacity="0"
     inkscape:pageshadow="2"
     inkscape:window-width="640"
     inkscape:window-height="480"
     id="namedview8"
     showgrid="false"
     inkscape:zoom="1.1625616"
     inkscape:cx="67"
     inkscape:cy="101.5"
     inkscape:window-x="0"
     inkscape:window-y="0"
     inkscape:window-maximized="0"
     inkscape:current-layer="svg6" />
  <path
     d="M43.9181 102.674C43.9181 102.343 44.2508 102.011 44.2508 102.011C44.5835 101.349 44.9162 101.349 44.9162 100.356H45.2489C45.5816 100.356 45.5816 100.687 45.9143 100.687C46.247 101.018 46.247 101.349 46.9125 101.018H47.2452C47.5779 101.018 47.5779 101.349 47.5779 101.349C47.9106 101.68 48.2433 101.68 48.576 101.68C48.9087 102.011 49.5742 102.011 49.9069 102.343H50.2396H50.5723C50.905 102.674 51.2377 103.005 51.9032 103.005C52.2359 103.336 52.5686 103.336 52.9013 103.336H53.234C53.5667 103.667 53.8994 103.998 54.2321 103.998C54.2321 103.998 54.2321 104.33 54.5649 104.33C54.8976 104.33 54.8976 104.661 55.2303 104.992C55.563 104.992 55.563 105.323 56.2284 105.323V105.654C56.5611 105.985 56.8938 106.316 57.5593 106.316H57.892C58.2247 106.648 58.8901 106.648 59.2228 106.979C59.5555 107.31 60.5537 107.31 60.8864 107.641C61.2191 107.641 61.2191 107.972 61.2191 107.972C61.5518 107.972 62.2172 108.303 62.55 108.635C62.8827 108.966 63.2154 109.297 63.8808 109.297H64.2135C64.5462 109.628 64.879 109.628 65.2117 109.628L65.5444 109.959C65.5444 110.29 65.8771 110.29 65.8771 110.29C66.2098 110.29 66.2098 110.29 66.2098 109.959C66.5425 109.959 66.5425 109.959 66.5425 110.29C66.8752 110.622 66.8752 110.622 67.2079 110.622C67.5406 110.622 67.5406 110.622 67.5406 110.29C67.8734 110.29 67.8734 110.29 67.8734 109.959V109.628C67.8734 109.297 67.5406 109.297 67.5406 108.966C67.2079 108.635 67.2079 108.303 66.5425 108.303C66.2098 107.972 66.2098 107.641 65.8771 107.641C65.5444 107.31 65.2117 106.979 64.5462 106.979C64.2135 106.648 64.2135 106.316 63.8808 106.316C63.5481 106.316 62.8827 105.985 62.55 105.654V105.323C62.2172 105.323 62.2173 104.992 61.8845 104.992C61.8845 104.661 61.5518 104.661 61.5518 104.661C61.2191 104.33 60.5537 104.33 60.221 103.998H59.8883H59.5555V103.336C59.5555 103.005 59.5555 102.674 59.2228 102.674C58.8901 102.011 58.8901 102.011 58.5574 102.343C58.2247 102.674 58.2247 102.674 57.892 103.005C57.892 102.674 57.5593 102.674 57.5593 102.343C57.2266 102.011 57.2266 101.68 56.8938 101.68C56.5611 101.349 56.5611 101.018 55.8957 101.018H56.2284C55.8957 100.687 55.8957 100.356 55.563 100.356C55.2303 99.6933 54.5649 99.6933 53.8994 99.031L52.5686 97.3752C52.2359 97.044 51.9032 96.7129 51.5704 96.7129C51.2377 96.3817 50.905 96.0506 50.2396 96.0506C49.9069 95.3883 49.2415 95.3883 48.9087 94.7259H48.576C48.2433 94.3948 47.5779 94.0636 47.2452 93.7325C47.2452 93.7325 47.2452 93.4013 46.9125 93.4013C46.5798 93.4013 46.247 93.0701 45.9143 92.739C45.9143 92.4078 45.5816 92.4078 45.5816 92.4078H45.2489C44.9162 91.7455 44.5835 91.7455 43.9181 91.0832C43.2526 90.4209 42.9199 90.0897 42.2545 89.7586C41.9218 89.4274 41.5891 89.0963 41.2564 89.0963C41.2564 88.4339 40.9236 88.4339 40.5909 88.1028C40.2582 87.7716 40.2582 87.7716 39.9255 87.4405C39.5928 86.7781 39.2601 86.7781 38.5947 86.7781C38.2619 86.7781 37.5965 86.7781 37.2638 86.1158C36.9311 85.4535 36.5984 84.7912 35.933 84.7912V84.46C35.6002 84.1289 35.6002 84.1289 35.2675 84.46C34.9348 84.46 34.9348 84.1289 34.6021 83.7977L34.2694 83.4666C32.9385 84.46 32.9385 83.7977 32.6058 83.4666C32.2731 82.8042 31.6077 81.8108 30.6096 81.8108C30.6096 81.8108 30.6096 81.4796 30.2768 81.1484L29.9441 80.8173C29.6114 80.8173 29.6114 80.4861 29.6114 80.155C29.2787 79.4927 28.946 79.4927 28.2806 79.1615C27.9479 78.8303 27.9479 78.8303 27.9479 78.4992C27.6151 78.168 27.2824 77.8369 26.9497 77.1746H26.617C26.617 76.8434 26.2843 76.8434 26.2843 76.8434C25.9516 76.1811 25.6189 76.1811 25.2862 76.1811H24.9534C24.6207 75.5188 23.6226 75.5188 23.6226 74.8564C23.2899 75.1876 22.9572 75.1876 22.9572 74.8564C22.9572 74.5253 22.6245 74.5253 22.6245 74.1941C22.2917 74.1941 22.2917 73.5318 21.6263 73.5318C21.6263 73.5318 21.6263 73.2007 21.2936 73.2007C20.9609 72.5383 20.9609 72.5383 20.6282 72.2072C20.2955 71.5449 19.63 71.2137 19.2973 70.5514C19.2973 70.5514 18.9646 70.2202 18.9646 69.8891C18.6319 69.5579 17.9665 69.2268 17.6338 68.5644C17.3011 68.2333 17.3011 67.9021 16.9683 67.9021C16.6356 67.2398 15.9702 67.2398 15.6375 66.5775C15.3048 65.9152 14.6394 65.584 13.9739 65.2529C13.6412 65.2529 13.3085 64.9217 12.6431 64.5905C12.3104 64.2594 12.3104 63.9282 11.6449 63.9282C11.3122 63.5971 10.9795 63.2659 10.6468 62.9347C10.6468 62.2724 10.3141 62.2724 10.3141 62.2724C9.98138 61.6101 9.31595 61.279 8.98324 60.6166C8.65053 60.2855 8.31781 59.9543 7.9851 59.6232C6.98696 60.2855 6.98696 60.2855 6.65425 60.2855H6.32154C5.98883 59.6232 5.65611 59.292 5.3234 58.9608C5.3234 58.6297 4.99069 58.2985 4.99069 58.2985C4.99069 57.6362 4.65798 57.6362 4.32526 57.3051L3.99255 56.9739C3.65984 56.9739 3.32713 56.6427 2.6617 56.3116C2.32899 55.9804 2.32899 55.6493 2.32899 55.3181C2.32899 54.9869 1.99628 54.6558 1.66356 54.6558H0.665425C0.332713 53.9935 0.332713 53.6623 0.332713 53V87.1093C0.665425 87.4405 0.665425 87.4405 0.665425 87.4405C0.665425 87.7716 0.665425 88.1028 0.332713 88.1028C0.332713 88.4339 0 88.7651 0 89.0963V92.739V94.0636H0.332713C0.665425 93.4013 1.33085 92.739 1.66356 92.0767C1.99628 91.7455 1.99628 91.7455 1.99628 92.0767H2.99441H3.65984C3.32713 92.739 3.32713 93.7325 3.65984 94.0636V94.7259C3.65984 94.7259 3.65984 95.0571 3.99255 95.0571C3.99255 95.7194 4.32526 95.7194 4.32526 96.3817C4.65798 96.7129 4.65798 97.044 4.65798 97.7064C4.99069 98.0375 4.99069 98.3687 5.3234 98.3687V99.031C5.3234 99.6933 5.65611 99.6933 5.65611 100.024C5.98883 100.024 5.98883 100.687 6.32154 100.687C6.32154 100.687 6.32154 101.018 6.65425 101.018C6.98696 101.68 7.9851 102.343 8.31781 102.674C8.65053 103.005 8.65053 103.336 8.98324 103.336C9.31595 103.998 9.64866 104.33 10.3141 104.992C10.6468 105.323 10.9795 105.654 11.3122 105.654L11.6449 105.985C12.3104 106.316 12.9758 106.648 13.3085 107.31L13.6412 107.641C13.9739 107.972 13.9739 107.972 13.9739 107.972C14.3066 107.972 14.3066 108.303 14.3066 108.303C14.6394 108.635 15.3048 108.303 15.6375 108.966C15.9702 109.297 15.9702 109.628 16.6356 109.628C16.9683 109.628 16.9683 109.959 17.3011 109.959C17.6338 110.29 17.6338 110.29 17.9665 110.622C18.2992 111.284 18.9646 111.615 19.63 111.946C19.9628 112.277 20.2955 112.608 20.9609 112.94C21.2936 112.94 21.2936 113.271 21.6263 113.271C21.959 113.602 22.9572 113.933 23.2899 113.933C23.6226 113.933 23.6226 114.264 23.6226 114.264C23.9553 114.264 23.9553 114.595 23.9553 114.595C24.288 114.595 24.6207 114.595 24.9534 114.927C24.9534 115.258 24.9534 115.258 25.2862 115.258C25.6189 115.258 26.2843 115.589 26.617 115.92C26.9497 116.251 26.9497 116.251 26.9497 116.251C27.2824 116.251 27.2824 116.582 27.2824 116.582C27.6151 116.914 27.6151 117.245 27.9479 117.245C28.2806 117.576 28.2806 117.576 28.6133 117.907L28.946 118.238C31.6077 116.251 31.9404 116.582 32.2731 116.582C32.6058 116.582 32.9385 116.914 33.2713 117.245C33.604 117.245 33.604 117.245 34.2694 117.576C34.2694 117.576 34.6021 117.907 34.9348 117.907H35.2675C35.6002 118.238 36.2657 118.569 36.5984 118.569C36.9311 118.9 36.9311 118.9 36.9311 119.232L37.2638 119.894C37.5965 119.894 38.2619 120.225 38.5947 120.556C38.9274 120.887 39.5928 121.219 39.9255 121.219C40.2582 121.55 40.5909 121.881 40.9236 121.881H41.2564C41.5891 122.212 41.5891 122.212 41.5891 122.212C41.9218 122.543 42.2545 122.874 42.9199 122.874C43.2526 123.206 43.2526 123.206 43.9181 123.537C44.2508 124.199 44.5835 124.199 45.2489 124.53C45.2489 124.861 45.5816 124.861 45.5816 124.861C45.9143 125.193 46.247 125.193 46.5798 125.524C46.9125 125.524 46.9125 125.855 47.2452 125.855C47.5779 126.186 47.5779 126.186 47.5779 126.186C47.9106 126.186 47.9106 126.517 48.2433 126.848C48.576 127.179 48.9087 127.511 49.2415 127.511C49.5742 127.842 50.2396 128.173 50.2396 128.173L50.5723 128.504C50.905 128.504 50.905 128.173 50.905 128.173C51.2377 128.504 51.2377 128.504 51.5704 128.835H52.9013H53.234C53.234 129.166 53.5667 129.166 53.5667 129.166C53.8994 129.498 54.2321 129.498 54.2321 129.829C54.2321 130.16 54.5649 130.16 54.8976 130.491C55.2303 130.491 55.2303 130.16 55.563 129.829V129.498C55.8957 129.829 55.8957 129.829 55.8957 130.16C55.8957 130.491 56.2284 130.491 56.2284 130.491H57.5593C58.5574 130.822 59.5555 130.822 60.5537 130.822C60.8864 130.822 60.8864 130.822 60.8864 130.16V129.498C60.8864 128.835 60.5537 128.173 59.8883 127.842C59.5555 127.842 59.5555 127.842 59.5555 127.511C59.5555 126.848 58.2247 125.855 57.892 125.855C57.5593 125.855 57.5593 125.524 57.2266 125.192C56.8938 124.861 56.8938 124.53 56.5611 124.53C56.2284 123.868 55.563 123.537 54.8976 123.206C54.5649 122.543 53.8994 122.543 53.5667 121.881C53.234 121.55 52.9013 121.55 52.5686 121.219C52.2359 120.887 52.2359 120.556 51.5704 120.556C51.2377 120.556 51.2377 120.556 50.905 120.225C49.9069 119.563 48.9087 118.9 48.2433 118.238C47.5779 117.576 46.9125 116.914 46.247 116.582C45.9143 116.251 45.5816 115.92 45.2489 115.92C45.2489 115.589 44.9162 115.589 44.9162 115.589C44.2508 114.927 43.5853 114.595 42.5872 113.933L42.9199 113.602V112.94C42.5872 112.608 42.5872 112.277 42.9199 111.946C42.9199 111.615 42.9199 111.284 42.5872 111.284C42.9199 110.953 42.9199 110.622 42.9199 110.622C42.9199 109.959 42.9199 109.959 43.2526 109.628C43.5853 109.297 43.5853 108.966 43.5853 108.966C43.9181 108.303 43.9181 107.972 43.9181 107.31V106.648V106.316C44.2508 105.654 44.2508 105.323 43.9181 104.992V104.661C43.5853 104.33 43.5853 104.33 43.9181 103.998C43.5853 103.336 43.9181 103.336 43.9181 102.674Z"
     fill="#D50032"
     id="path2" />
  <path
     d="M133.667 164.586C133.667 163.923 133.667 163.261 133.335 162.93V161.274C133.335 160.612 133.002 159.949 133.002 159.287C133.002 158.956 132.669 158.625 132.669 158.625C133.335 157.962 133.002 157.3 133.002 156.969H132.336V155.644L132.669 155.313C133.002 155.313 132.669 154.982 132.669 154.651C132.669 154.32 132.336 153.989 133.002 153.657C133.002 153.657 133.002 153.326 132.669 153.326V152.995C133.002 152.333 133.002 152.002 133.002 151.339C133.002 151.339 133.002 151.008 132.669 151.008V151.67C132.336 151.67 132.336 151.339 132.336 151.008C132.004 150.346 132.004 150.346 132.004 149.684C132.336 149.352 132.336 149.021 132.336 149.021C132.669 148.69 132.669 148.359 133.002 148.359C133.002 148.028 133.002 147.697 132.669 147.697C132.336 147.697 132.336 147.034 132.669 146.703C132.669 146.372 133.002 146.372 132.669 146.041H132.336V144.385C132.669 144.054 132.669 143.723 133.002 143.392C133.002 143.06 133.002 143.06 132.669 142.729V143.06V142.729C133.002 142.729 133.002 142.729 133.002 143.06V142.729V142.398C132.669 141.405 132.669 140.742 133.002 139.749V139.086V135.444C133.002 134.781 133.335 133.788 133.335 132.794C133.335 133.457 133.335 133.126 133.335 133.126C133.335 132.794 133.335 132.463 133.667 132.463V131.801C133.335 130.807 133.335 128.821 133.335 128.158C133.335 127.827 133.667 127.827 133.667 127.827V126.502V122.86C133.667 121.866 133.667 120.873 133.335 119.879V116.568V113.256V110.607V107.958V104.315C133.335 103.653 133.335 102.659 133.335 101.666V99.0163V96.0359V93.3866V90.7374C133.335 89.4127 133.002 88.0881 133.002 87.0946V84.1142V80.4715V77.491V73.8483C133.002 72.8548 132.669 71.8613 132.669 70.8679V68.2186V65.5693V63.5824V62.5889V62.2578C132.336 61.9266 132.336 61.5954 132.336 60.9331V40.4013C132.336 40.0701 132.336 39.739 132.004 39.739V39.0767V33.7781V30.1354V27.155V23.8434C131.671 22.8499 131.671 21.8564 131.671 20.863V17.2202V14.571V10.9282C131.671 9.60359 131.338 8.61011 131.338 7.28548C131.338 6.95432 131.338 6.62316 131.006 6.62316C130.34 5.96085 129.675 4.96737 129.675 3.9739C129.342 3.64274 129.342 3.31158 129.009 3.31158C128.677 2.64927 127.678 2.31811 127.678 1.65579C127.346 0.993475 126.68 0.993475 126.348 0.993475C126.015 1.32463 125.682 1.32463 125.349 0.993475C125.017 0.662317 124.684 0.662317 124.351 0.662317H124.019C124.019 0.331158 123.686 0.331158 123.686 0.331158C122.355 0 121.024 0 119.361 0H115.701H113.372H113.039C112.706 0 112.374 0 112.041 0.331158C112.041 0.662317 111.708 0.662317 111.376 0.331158C111.376 0 111.043 0 111.043 0C110.045 0.662317 109.712 0.662317 109.379 0.662317H109.047C108.714 0.662317 108.714 0.993475 108.381 0.993475H106.718H101.727H100.396H99.0652H96.4035H93.4091H91.4128C91.0801 1.32463 91.0801 1.32463 90.7474 1.32463C90.4146 1.65579 90.0819 1.65579 89.7492 1.65579H88.7511H86.4221H83.4277H80.766H78.437H76.7734H75.4426H74.1117H71.45H69.121H66.7921H65.4612H61.8014H58.1415H54.4817H52.1527H50.8218H49.491C49.1583 1.32463 48.8256 1.32463 48.4929 1.65579H48.1601H45.8312H45.1657C44.833 1.98695 44.5003 2.31811 43.8349 2.31811H40.175H38.8442C38.1788 1.98695 37.5133 2.31811 36.5152 2.64927H34.1862H33.5208C32.8554 2.64927 32.1899 2.64927 32.1899 1.98695C31.8572 1.32463 31.5245 1.32463 31.5245 1.32463H29.861C29.1955 1.32463 28.1974 1.32463 27.532 1.65579H24.5376C23.8721 1.65579 22.874 1.65579 22.2086 1.98695H21.5431C21.2104 1.98695 21.2104 1.98695 21.2104 2.31811C21.2104 2.64927 20.8777 2.64927 20.8777 2.31811C20.2123 1.98695 19.8796 1.98695 19.5469 1.98695H16.5525C15.5543 2.31811 14.8889 2.31811 13.8907 2.31811H13.2253C12.8926 2.31811 12.5599 1.98695 12.2272 1.98695C11.8945 1.98695 11.8945 1.98695 11.5618 2.31811C11.5618 2.64927 11.229 2.64927 11.229 2.64927H9.8982H9.56549C9.23277 2.98042 9.56549 2.98042 9.56549 3.31158C9.23277 3.31158 9.23277 3.31158 8.90006 2.98042C8.90006 2.98042 8.90006 2.64927 8.56735 2.31811L8.23464 2.98042C8.23464 3.64274 8.56735 3.9739 8.56735 3.9739C8.90006 3.9739 8.90006 4.30506 9.23277 4.63622C9.23277 4.96737 9.56549 5.29853 9.23277 5.29853V5.62969H8.56735V4.63622C8.56735 4.30506 8.56735 4.30506 8.23464 4.30506C7.90192 4.30506 7.90192 4.63622 7.90192 4.96737C7.56921 4.63622 6.90379 4.30506 6.57107 4.30506C5.90565 4.30506 5.57294 4.63622 4.90751 4.96737C4.5748 4.96737 4.5748 5.29853 4.5748 5.29853C4.24209 6.29201 3.57666 7.28548 2.57852 8.27896C2.24581 8.27896 2.24581 8.61011 2.24581 8.94127C2.24581 9.60359 1.58038 10.2659 1.58038 10.9282C1.24767 11.2594 1.24767 11.2594 1.24767 11.5905C1.24767 12.584 1.24767 13.5775 0.91496 14.571V14.9021C0.582247 15.2333 0.582247 15.8956 0.582247 16.2268V18.876V22.5188V22.8499C0.91496 22.8499 0.91496 22.8499 1.24767 22.5188C1.24767 22.1876 1.24767 21.8564 1.58038 21.8564V22.8499C1.58038 23.1811 1.24767 23.5122 0.91496 23.1811C0.582247 23.1811 0.582247 23.1811 0.582247 22.8499C0.582247 23.1811 0.582247 23.5122 0.582247 23.8434V26.8238V30.1354H0.91496C1.24767 30.4666 0.91496 30.4666 0.582247 30.4666V32.1223V33.7781V39.4078V43.0506V45.3687V48.0179C0.582247 48.6803 0.91496 48.6803 0.91496 48.3491C1.24767 48.3491 1.24767 48.0179 1.24767 48.0179C1.58038 47.6868 1.9131 47.3556 2.24581 47.3556C2.57852 47.0245 2.57852 47.0245 2.91124 46.6933C3.57666 47.3556 3.90937 47.0245 4.24209 46.6933C4.5748 46.6933 4.5748 46.3622 4.90751 46.3622C5.24022 46.031 5.24022 45.6998 5.24022 45.3687C5.57294 44.7064 5.90565 44.044 6.57107 43.7129C6.90379 43.3817 7.56921 43.0506 7.90192 43.0506C8.23464 42.7194 8.23464 42.7194 8.23464 42.3883C8.56735 42.0571 8.56735 41.7259 8.56735 41.7259C8.90006 41.0636 10.2309 40.4013 11.229 41.0636H11.5618V40.4013V39.739C11.229 39.739 11.229 39.739 11.229 39.4078C11.229 39.0767 11.229 39.0767 11.5618 39.0767C11.8945 39.0767 11.8945 39.0767 12.5599 39.4078C12.5599 39.4078 12.8926 39.739 12.8926 39.4078C13.2253 39.0767 13.2253 39.4078 13.2253 39.4078C14.2235 40.0701 14.5562 40.4013 14.8889 40.4013C15.5543 40.7325 16.2197 41.0636 16.5525 41.0636C16.8852 41.3948 16.8852 41.3948 17.2179 41.3948C17.5506 41.3948 18.216 42.0571 18.5487 42.3883C18.8814 42.7194 18.8814 43.0506 19.5469 43.0506C19.5469 43.0506 19.8796 43.3817 19.8796 43.7129C20.2123 44.044 20.545 44.3752 21.2104 44.3752C21.8759 45.0375 22.5413 45.6998 23.2067 46.031H23.5394C23.5394 46.3622 23.5394 46.3622 23.5394 46.3622C22.874 47.0245 23.2067 47.6868 23.5394 48.3491C23.8721 48.3491 23.8721 49.0114 23.8721 49.0114C24.2048 49.3426 24.2048 49.3426 24.5376 49.6737C24.5376 50.0049 24.8703 50.3361 24.8703 50.3361C25.5357 50.3361 25.5357 50.3361 25.8684 50.6672C26.2011 50.9984 26.2011 50.9984 26.2011 51.3295L26.5338 51.6607C26.5338 51.9918 26.8665 52.323 26.8665 52.323C27.1993 52.6542 27.1993 52.6542 27.1993 52.9853C27.532 53.6476 27.8647 53.6476 28.1974 53.9788C28.5301 54.6411 28.5301 54.9723 29.1955 55.6346C29.861 56.2969 30.1937 56.9592 30.5264 57.6215C30.5264 57.6215 30.8591 57.6215 30.8591 57.9527C31.1918 58.2838 31.1918 58.615 31.8572 59.2773C32.1899 59.6085 32.1899 59.9396 32.8554 59.9396C33.1881 59.9396 33.1881 60.2708 33.5208 60.602C33.8535 60.9331 33.8535 61.2643 34.5189 61.5954L34.8516 61.9266C35.1844 62.2578 35.1844 62.5889 35.5171 62.5889C35.8498 63.2512 36.5152 63.5824 36.8479 64.2447C37.1806 64.907 37.8461 65.5693 38.1788 65.9005C38.5115 65.9005 38.5115 65.9005 38.5115 66.2316C38.8442 66.2316 38.8442 66.5628 38.8442 66.5628C39.1769 67.2251 39.5096 67.2251 40.175 67.5563C40.175 67.8874 40.5078 68.2186 40.5078 68.2186C40.8405 68.8809 40.8405 68.8809 41.5059 69.2121H41.8386C41.8386 69.5432 42.1713 69.5432 42.1713 69.8744C42.504 69.8744 42.504 69.8744 42.504 70.2056C42.8367 70.8679 43.1695 70.8679 43.8349 71.199C44.1676 71.5302 44.1676 71.5302 44.1676 71.8613C44.1676 72.1925 44.5003 72.5237 44.5003 72.5237C44.833 72.8548 45.1657 73.186 45.4984 73.186C45.8312 73.5171 46.1639 73.8483 46.4966 74.1795H46.8293C47.4947 74.8418 47.8274 75.1729 48.1601 75.8352C48.4929 76.4976 48.8256 76.8287 49.491 77.491C49.491 77.491 49.491 77.8222 49.8237 77.8222C50.4891 78.4845 51.1546 79.1468 52.1527 79.478C52.1527 79.8091 52.4854 79.8091 52.4854 79.8091L52.8181 80.1403C53.1508 80.8026 53.1508 80.8026 53.8163 81.1338C54.149 81.4649 54.149 81.7961 54.4817 82.1272C54.8144 82.4584 54.8144 82.4584 54.8144 82.7896C55.1471 82.7896 55.4798 83.1207 55.8125 83.4519C56.1453 83.4519 56.1452 83.783 56.1452 84.1142C56.478 84.7765 56.8107 84.7765 57.1434 85.1077C57.4761 85.4388 57.4761 85.4388 57.8088 85.77C58.1415 86.1011 58.1415 86.1011 58.1415 86.4323C58.4742 86.4323 58.4742 86.7635 58.4742 86.7635C58.8069 87.0946 58.807 87.4258 59.1397 87.4258C59.4724 87.4258 59.4724 87.4258 59.8051 87.0946C60.1378 87.4258 60.4705 87.4258 60.8032 87.7569C60.8032 88.0881 60.8032 88.0881 61.1359 88.4193H63.4649C63.7976 88.7504 63.7976 89.0816 64.1304 89.0816C64.1304 89.4127 64.4631 89.4127 64.4631 89.4127C64.7958 89.7439 64.7958 89.7439 64.7958 90.075C64.7958 90.4062 65.1285 90.4062 65.1285 90.4062C65.4612 90.7374 65.7939 90.7374 66.4593 91.0685L66.7921 91.3997C67.1248 91.7308 67.7902 92.062 68.1229 92.3932L68.4556 92.7243C68.7883 93.0555 69.121 93.3866 69.4538 93.3866C69.4538 93.7178 69.7865 93.7178 69.7865 93.7178C70.1192 94.3801 70.4519 94.3801 71.1173 95.0424H71.45C71.7827 95.0424 72.1155 95.3736 72.1155 95.7047C72.4482 96.0359 72.7809 96.3671 73.4463 96.3671C73.4463 96.6982 73.779 97.0294 73.779 97.0294C74.1117 97.0294 74.1117 97.3605 74.1117 97.3605C74.4444 97.3605 74.4444 97.6917 74.4444 97.6917C74.7772 97.3605 74.7772 97.6917 75.1099 98.0228C75.4426 98.0228 75.4426 98.0228 75.4426 98.354C75.4426 98.354 75.7753 98.6852 75.7753 99.0163C76.4407 99.3475 76.7734 99.6786 77.1061 100.341C77.4389 100.341 77.4389 100.672 77.4389 100.672H77.7716C78.1043 101.003 78.7697 101.334 79.1024 101.334L80.1006 96.6982C80.4333 96.6982 80.766 97.0294 81.0987 97.0294C81.4314 97.3605 81.4314 97.3605 81.4314 97.3605C81.7641 98.0228 81.7641 98.0228 82.4296 98.354H82.7623C82.7623 98.6852 83.095 99.0163 83.095 99.0163C83.4277 99.3475 83.4277 99.6786 83.4277 99.6786C83.7604 99.6786 84.0931 100.01 84.7585 100.341C85.0912 100.672 85.0912 101.003 85.7567 101.003C86.0894 101.334 86.0894 101.334 86.0894 101.666C86.4221 101.997 86.4221 101.997 86.7548 102.328C87.0875 102.659 87.4202 102.99 87.7529 102.99L88.0857 103.321C88.4184 103.653 88.7511 103.984 89.0838 103.984L89.4165 104.315C89.7492 104.315 89.7492 104.646 89.7492 104.646L90.0819 104.977C90.4146 104.977 90.7474 105.308 91.0801 105.639C91.4128 106.302 92.0782 106.302 92.4109 106.633C92.7436 106.964 92.7436 106.964 92.7436 107.295C93.0763 107.958 93.4091 107.958 94.0745 107.958C94.4072 107.958 94.4072 107.958 94.4072 108.289H94.7399C95.0726 107.958 95.738 108.62 96.0708 108.951L96.4035 109.282C96.7362 109.613 97.0689 109.945 97.7343 110.276C98.067 110.607 98.3997 110.607 98.7325 110.607C99.0652 110.276 99.0652 110.607 99.0652 110.607C99.3979 110.938 99.7306 111.269 100.063 111.269L100.396 111.6C100.729 111.6 101.061 111.6 101.727 111.269V109.945H102.06C102.392 109.613 102.392 109.945 102.392 109.945C102.725 110.607 103.058 110.607 102.725 111.269C102.725 111.931 103.058 112.263 103.058 112.594C103.058 112.925 103.39 113.256 103.39 113.256L103.723 113.587C104.056 113.587 104.056 113.918 104.056 114.25C103.723 114.912 103.723 115.243 103.39 115.574C103.058 116.237 103.058 116.237 103.39 116.899L103.723 116.568C103.39 116.568 103.39 116.899 103.058 117.23C103.058 117.561 102.725 117.561 102.725 117.561V117.892L102.392 118.223C102.06 118.555 102.06 118.886 102.06 118.886L101.727 119.217C101.727 119.217 101.727 119.548 101.394 119.548C101.061 119.879 101.061 120.21 100.729 120.873C100.729 121.204 100.396 121.535 100.396 121.535H100.063C99.7306 122.197 99.7306 122.197 99.3979 122.529C99.0652 122.529 99.0652 122.86 99.0652 123.191C99.0652 123.522 98.7325 123.853 98.7325 123.853C98.3997 124.184 98.3997 124.515 98.3997 124.847C98.067 125.509 98.067 125.84 97.7343 126.171C97.7343 126.502 97.7343 126.834 97.4016 126.834C97.0689 126.502 97.0689 126.834 97.0689 127.165C97.0689 127.496 97.0689 127.496 96.7362 127.827V128.489V129.152H96.4035C96.0708 129.483 96.0708 129.483 95.7381 129.483C95.4053 129.483 95.4053 129.152 95.4053 128.821L95.0726 128.489H93.4091C93.0763 128.821 92.7436 128.489 92.0782 128.821H91.7455C91.4128 128.489 91.0801 128.489 90.4146 128.489C90.0819 128.821 89.7492 128.821 89.4165 128.489H89.0838C88.7511 128.821 88.4184 128.489 88.0857 128.158C87.7529 128.158 87.7529 127.827 87.7529 127.827C87.4202 128.158 87.4202 128.158 87.4202 127.827C87.0875 127.496 86.4221 127.827 86.0894 127.165H85.7567C85.424 126.834 85.0912 126.502 84.4258 126.502C84.0931 126.171 84.0931 126.171 83.7604 126.171C83.4277 126.171 83.4277 126.171 83.095 125.84C82.7623 125.509 82.7623 125.509 82.4296 125.509H82.0968C81.7641 125.178 81.4314 124.847 80.766 124.847C80.4333 124.847 80.1006 124.847 79.7678 124.516C79.4351 124.184 79.4351 124.516 79.1024 124.516H78.7697C78.437 124.184 78.437 123.853 77.7716 123.853C77.7716 123.522 77.4389 123.853 77.4389 123.853C77.1061 123.522 76.4407 123.191 75.7753 123.191H75.4426C75.1099 122.86 74.7772 122.529 74.1117 122.529C73.779 122.197 73.1136 122.197 72.7809 121.866C72.4482 121.866 72.4482 121.535 72.4482 121.535C72.1155 121.204 71.45 120.873 71.1173 121.204C71.45 121.535 71.45 121.866 71.7827 121.866C72.1155 122.529 72.7809 122.529 73.1136 123.191C73.4463 123.853 74.1117 124.515 74.4444 124.847C74.7772 124.847 74.7772 125.178 74.7772 125.178C75.4426 125.84 75.7753 126.834 75.7753 127.496V128.158C76.108 128.489 76.108 128.821 75.7753 128.821C75.7753 129.152 75.7753 129.483 76.108 129.483V130.145C76.108 130.145 76.4407 130.476 76.108 130.476C76.108 130.808 75.7753 131.139 75.7753 131.139C75.4426 131.801 74.7772 132.132 74.4444 132.794C74.1117 133.457 73.779 134.119 73.1136 134.45C72.7809 134.45 72.4482 135.113 72.1155 135.113C72.1155 135.113 71.7827 135.444 71.7827 135.775C72.1155 136.106 72.1155 136.106 72.4482 136.106C72.7809 136.437 72.7809 136.437 72.7809 136.768L73.1136 137.1C73.4463 137.431 73.4463 137.431 73.4463 137.762C73.4463 137.762 73.4463 138.093 73.4463 137.762C73.779 137.762 73.779 137.762 73.779 137.431C74.1117 137.762 74.4444 137.762 74.7772 138.093C75.1099 138.755 75.4426 138.755 76.108 138.755C76.4407 138.755 76.4407 138.755 76.7734 139.086H77.1061C77.4389 139.086 77.4389 139.418 77.4389 139.418C77.7716 139.418 78.1043 139.749 78.437 140.08C78.7697 140.411 79.4351 140.742 79.7678 140.742C80.1006 140.742 80.766 141.073 81.0987 141.073C81.7641 141.736 82.7623 141.736 83.4277 142.067C84.0931 142.729 84.7585 142.729 85.7567 143.392C86.0894 143.392 86.4221 143.723 86.7548 144.054C87.4202 144.716 88.0857 144.716 89.0838 144.716C89.4165 145.047 89.7492 145.047 90.4146 145.378C90.0819 145.378 89.7492 145.71 89.0838 145.71C88.4184 146.041 87.4202 146.041 86.7548 146.372C84.7585 146.041 84.0931 146.372 83.4277 146.372C82.0968 147.034 81.0987 147.365 79.7678 147.697C79.4351 148.028 78.437 148.028 78.1043 148.028C77.1061 148.028 76.4407 148.028 75.7753 148.359C75.4426 148.359 75.4426 148.359 75.1099 148.028C74.7772 147.697 74.7772 147.697 74.4444 147.697H73.1136C73.1136 147.697 72.7809 147.697 72.7809 147.365C72.4482 147.034 72.1155 146.703 71.45 146.703C71.1173 146.372 71.1173 146.041 70.7846 146.703C70.1192 146.372 70.1192 146.372 70.1192 146.372C69.7865 146.041 69.7865 145.71 69.121 146.041L68.7883 145.71C68.4556 145.378 67.7902 145.047 67.4575 145.047C67.1248 144.385 66.4593 144.385 66.1266 144.385C64.7958 144.385 63.7976 143.723 63.4649 142.729L63.1322 142.067C62.7995 141.736 62.7995 141.736 62.7995 141.405C62.4668 141.405 62.4668 141.073 62.4668 141.073C62.4668 140.742 62.1341 140.742 62.1341 140.742C62.1341 140.411 61.8014 140.411 61.8014 140.411C61.4687 140.08 60.8032 139.749 60.4705 139.749C60.1378 139.749 60.1378 139.418 60.1378 139.418C60.1378 139.086 59.8051 139.086 59.8051 139.418C59.8051 138.755 59.8051 138.755 59.4724 138.755C59.1397 138.424 59.1397 138.093 58.807 138.093C58.4742 137.762 58.4742 137.431 58.1415 137.431L57.8088 137.1C57.8088 136.768 57.4761 136.768 57.1434 136.768C56.8107 136.437 55.8125 136.106 55.4798 135.775C54.4817 136.768 53.8163 136.437 53.4836 136.437C53.1508 136.437 53.1508 136.106 53.1508 136.106C52.8181 135.775 52.8181 135.775 52.4854 135.775C52.1527 135.775 52.1527 135.444 52.1527 135.444C51.1546 134.781 50.4891 134.45 49.8237 133.788C49.491 133.788 49.1583 133.457 48.4929 133.126C48.1601 133.126 48.1601 132.794 47.8274 132.794C47.4947 132.463 47.162 132.132 46.8293 131.801C46.4966 131.47 45.8312 131.139 45.4984 131.139C45.1657 131.139 44.5003 130.476 44.1676 130.476C43.8349 130.145 43.8349 129.814 43.5022 129.814C43.1695 129.814 43.1695 129.483 43.1695 129.483C42.8367 129.483 42.1713 128.821 41.8386 128.821C41.5059 128.489 41.5059 128.158 40.8405 128.158C40.5078 127.827 40.5078 127.827 40.175 127.496C39.8423 127.165 39.5096 126.834 38.8442 126.834L38.5115 126.502C38.1788 126.171 38.1788 125.84 37.5133 125.84C37.1806 126.171 37.1806 125.84 36.8479 125.509C36.5152 125.178 36.5152 125.178 36.1825 124.847C35.8498 124.515 35.1844 124.184 34.8516 123.853C34.5189 123.522 34.5189 123.522 34.1862 123.522C33.8535 123.522 33.5208 123.191 33.1881 122.86C32.8554 122.86 32.1899 122.529 31.8572 122.197C31.5245 121.866 31.1918 121.866 30.8591 121.866C30.5264 121.866 30.1937 121.204 29.861 121.204C29.5282 120.873 29.5282 120.873 29.1955 120.542C28.8628 120.542 28.8628 120.21 28.5301 120.21C28.1974 119.879 28.1974 119.548 27.532 119.548H25.5357C25.203 119.217 25.203 119.217 25.203 118.886C24.8703 118.886 24.8703 118.555 24.5376 118.886C24.2048 118.886 24.2048 118.555 23.8721 118.223C23.5394 118.223 23.2067 117.561 22.5413 117.561C22.2086 117.561 22.2086 117.23 21.8759 116.899C21.5431 116.568 21.5431 116.568 20.8777 116.568C20.545 116.568 20.545 116.237 20.2123 115.905C19.8796 115.574 19.8796 115.574 19.5469 115.574H18.8814C18.5487 115.243 18.5487 114.912 17.8833 114.912C17.5506 114.912 17.5506 114.912 17.2179 114.581L16.8852 113.918C16.5525 116.899 15.2216 116.568 15.2216 116.568C14.8889 116.237 14.8889 116.237 14.5562 115.905C13.8907 115.243 13.2253 114.912 12.2272 114.25C11.8945 114.25 11.8945 114.25 11.5618 113.918C11.229 113.918 11.229 113.918 11.229 113.587C10.2309 113.918 9.8982 113.256 9.56549 113.256C9.23277 113.256 8.90006 112.925 8.56735 112.594H7.90192L7.56921 112.263C7.2365 111.6 6.23836 111.6 5.57294 111.269C5.24022 110.938 5.24022 110.938 4.90751 110.938C4.5748 110.938 4.5748 110.607 4.24209 110.276C4.24209 109.945 4.24209 109.613 3.90937 109.613V109.945C3.90937 109.613 3.90937 109.613 3.57666 109.613C3.24395 108.951 2.91124 108.62 2.57852 107.958C2.24581 107.958 2.24581 107.626 2.24581 107.626C1.58038 106.964 0.91496 106.633 0.91496 105.971V105.639V105.971V109.945V112.594V115.243V116.899V118.223V120.21V121.866V122.86C0.582247 123.522 0.582247 124.515 0.582247 125.178C0.582247 125.84 0.91496 126.834 1.24767 127.165C1.58038 127.165 1.58038 127.496 1.58038 127.496L1.24767 127.827C0.91496 128.158 0.249534 128.489 0.582247 128.821C0.582247 129.483 0.249534 129.814 0.249534 130.476C-0.0831781 130.808 -0.0831781 131.47 0.249534 131.801C0.582247 132.132 0.582247 132.463 0.582247 132.794C0.582247 133.457 0.582247 134.45 0.91496 135.113V135.444C0.91496 135.775 0.91496 136.106 1.24767 136.106C1.24767 136.437 1.24767 137.1 1.58038 137.431C1.9131 137.762 -0.0831781 138.093 0.249534 138.093V138.424C0.582247 138.424 0.582247 138.755 0.582247 139.086C0.91496 139.086 0.91496 139.418 0.582247 139.749C1.24767 140.08 1.24767 140.411 1.24767 141.073V141.736V142.398C1.58038 142.067 1.58038 142.067 1.58038 142.067V142.398C1.24767 143.06 1.24767 143.392 1.58038 144.054C1.9131 145.378 2.24581 146.703 1.9131 148.028C1.9131 148.359 1.58038 148.69 1.58038 148.69C1.9131 149.021 1.9131 149.352 1.9131 149.684C1.58038 150.015 1.58038 150.346 1.9131 151.008C2.24581 151.339 2.24581 151.67 2.24581 151.67C2.24581 152.333 2.57852 152.664 2.57852 152.995C2.57852 153.326 3.57666 152.333 3.57666 152.333H3.90937C4.24209 153.657 4.24209 157.962 3.90937 158.294C3.57666 157.631 3.57666 157.3 3.57666 156.638C3.24395 156.638 3.24395 156.969 3.24395 157.3V157.962C3.57666 158.294 3.24395 158.625 2.91124 158.625H2.57852C2.57852 159.287 2.24581 159.949 2.91124 160.281C2.91124 160.612 3.24395 160.943 2.57852 161.274H2.24581V161.936C2.57852 161.936 2.57852 162.268 2.24581 162.599L1.9131 162.93C1.9131 162.599 1.58038 162.268 1.58038 162.268C1.58038 162.268 1.24767 162.599 1.24767 162.93C0.91496 162.93 0.91496 163.261 0.91496 163.261C0.91496 163.592 0.91496 163.923 1.24767 163.923C0.91496 163.923 0.91496 163.923 0.582247 164.254C0.249534 163.592 0.582247 164.254 0.249534 164.586V164.917C0.582247 165.248 0.582247 165.91 0.91496 165.91V166.241C0.91496 166.904 0.91496 167.235 1.24767 167.566C1.58038 167.566 1.58038 167.897 1.58038 168.228V169.222H1.24767C1.24767 169.884 0.91496 169.884 1.58038 170.546C1.9131 170.546 1.9131 170.215 1.9131 169.884C2.24581 170.546 2.24581 171.209 2.24581 171.54H2.91124C3.24395 171.54 3.90937 171.871 4.24209 171.871L4.5748 172.202V172.865C4.24209 172.865 3.90937 172.533 3.57666 172.533C3.57666 171.871 3.57666 171.871 3.24395 172.202C2.91123 172.533 2.91124 172.865 2.91124 172.865V173.527C3.24395 174.189 2.91124 174.189 2.57852 174.189C2.57852 173.858 2.91124 173.527 2.57852 173.527C2.57852 172.865 2.24581 172.533 2.24581 171.871C1.9131 171.871 1.9131 172.202 1.9131 172.202C2.24581 171.54 2.24581 171.209 1.58038 171.209C1.24767 171.871 1.24767 171.871 1.24767 172.533C1.24767 172.865 1.24767 172.865 0.91496 173.196C0.91496 173.527 0.582247 173.858 0.91496 173.858C1.24767 173.858 1.24767 174.189 0.91496 174.189C0.582247 174.852 0.582247 175.183 0.582247 175.845C0.249534 176.507 0.249534 176.507 0.582247 176.839V178.163C0.582247 178.825 0.91496 179.157 0.582247 179.819V179.488H0.91496L0.582247 179.819C0.249534 180.15 0.249534 180.481 0.249534 180.481V181.475C0.582247 182.137 0.582247 182.137 0.249534 182.799V183.793C0.582247 184.455 0.582247 184.786 0.582247 185.449C0.582247 186.111 0.582247 186.111 0.91496 186.442C1.24767 187.104 1.58038 187.104 1.58038 188.098C1.9131 188.098 1.9131 188.76 2.24581 189.423C2.24581 189.423 2.57852 189.423 2.57852 189.754C2.24581 190.416 2.91124 190.416 2.91124 190.747C2.91124 191.078 2.91123 191.409 3.24395 191.409C3.57666 191.409 3.57666 192.072 3.57666 192.072C3.57666 192.403 3.57666 192.734 3.90937 193.065V193.396C4.24209 193.396 4.24209 193.728 4.24209 194.059C4.24209 195.052 4.5748 195.715 4.90751 196.708H5.24022V196.046C5.57294 196.046 5.57294 196.046 5.57294 196.708C5.57294 197.039 5.57294 197.37 5.24022 197.701C5.57294 198.033 5.57294 198.364 5.57294 198.364C5.90565 198.695 5.90565 199.026 6.23836 199.026H6.90379C7.2365 199.357 8.23464 199.688 8.56735 199.688C9.8982 199.357 10.2309 199.357 10.5636 199.357C10.8963 199.357 10.8963 199.688 10.8963 199.688C11.229 200.02 11.5618 200.02 11.8945 200.02C12.2272 200.02 12.2272 200.02 12.2272 200.351C12.5599 200.682 12.5599 200.682 12.8926 200.351C13.2253 200.351 13.2253 200.351 13.2253 200.682C13.558 200.682 14.2235 201.013 14.5562 201.013C14.8889 201.013 15.5543 201.013 15.887 200.682H16.8852H18.216C18.5487 200.682 18.5487 200.682 18.5487 200.351C18.8814 200.351 18.8814 200.351 19.2141 200.682C19.5469 201.013 19.8796 201.013 19.8796 201.013C20.2123 200.351 20.8777 200.682 21.2104 200.682H21.8759C21.8759 200.682 21.8759 201.013 22.2086 201.013C22.5413 201.344 22.5413 201.675 22.874 201.344H23.2067C23.5394 201.675 24.5376 202.007 24.5376 201.344H24.8703C25.5357 201.675 25.5357 201.675 25.8684 201.013C26.2011 201.013 26.2011 201.013 26.2011 200.682C26.5338 201.013 26.5338 201.013 26.5338 201.013C26.8665 201.013 27.1993 201.344 27.532 201.675C27.532 202.007 27.532 202.007 27.8647 202.007C28.1974 202.007 28.8628 201.675 29.1955 202.007H29.5282C29.861 201.675 29.861 201.344 30.5264 201.675H30.8591C31.1918 201.344 31.1918 201.344 31.8572 201.675C31.5245 201.675 31.5245 202.007 31.5245 202.338H32.1899C32.5227 202.007 33.1881 202.007 33.5208 202.669C33.8535 202.669 33.8535 203 34.1862 203C34.1862 203 34.5189 202.669 34.5189 202.338C34.8516 202.669 34.8516 202.669 35.1844 202.338C35.5171 202.007 35.5171 202.007 35.5171 202.338C35.8498 202.338 35.8498 202.669 36.1825 202.669C36.5152 203 36.5152 202.669 36.8479 202.338C37.1806 202.669 37.8461 203 38.1788 202.338C38.5115 202.669 38.5115 202.669 38.8442 202.338H39.1769C39.5096 202.338 39.5096 202.338 39.5096 202.007C39.8423 202.007 39.8423 201.675 40.5078 202.007V201.675C40.8405 201.344 40.8405 201.675 41.1732 201.675H43.5022H44.833C45.1657 201.675 45.1657 201.675 45.8312 202.007H46.8293H47.162H48.1601C48.8256 201.675 49.491 201.675 50.1564 201.675C50.4891 201.675 50.8218 202.007 51.1546 202.007C51.4873 202.007 51.82 202.007 52.1527 202.338C52.4854 202.338 52.4854 202.669 52.4854 202.338C52.8181 202.007 53.1508 201.675 53.8163 202.007C54.149 202.007 54.149 202.007 54.4817 201.675C54.8144 201.675 55.4798 201.675 55.8125 202.007H56.8107H57.4761H57.8088C58.1415 201.675 58.1415 201.675 58.4742 202.007C58.8069 202.338 58.807 202.338 59.1397 202.338C59.4724 202.007 59.4724 202.338 59.8051 202.007H60.1378C59.8051 202.007 59.8051 201.675 59.8051 201.675C60.1378 201.344 60.1378 201.675 60.4705 201.675C60.4705 202.007 60.8032 202.007 60.8032 202.007V201.344C61.1359 201.675 61.8014 201.675 61.8014 202.338C62.1341 202.338 62.1341 202.338 62.1341 202.669C62.4668 202.007 62.4668 202.007 62.7995 202.338C63.1322 202.669 63.1322 202.669 63.4649 202.007C63.7976 201.675 63.7976 201.344 64.1304 201.675H64.4631H64.7958H65.4612H65.7939H66.1266C66.1266 201.344 66.4593 201.013 66.4593 201.013C66.7921 201.344 67.1248 201.675 67.7902 201.344H68.1229C68.4556 201.675 69.121 201.344 69.7865 201.344C70.1192 201.344 70.1192 201.013 70.7846 201.013H71.1173H72.4482C72.7809 201.344 73.1136 201.013 73.4463 201.675H74.4444V201.013H75.1099H75.4426C75.7753 200.682 75.7753 200.682 76.108 200.682C76.4407 200.682 76.7734 201.013 77.4389 201.013V201.344C77.7716 201.675 78.1043 201.344 78.7697 201.344C78.7697 201.013 79.1024 201.013 79.1024 201.013C79.7678 201.344 80.4333 201.013 80.766 201.675H83.4277C83.7604 201.675 84.0931 201.344 84.7585 201.675C85.0912 201.675 85.7567 201.675 86.4221 201.344H87.4202C87.7529 201.675 88.0857 201.675 88.7511 201.675H89.4165C89.7492 201.013 89.7492 201.013 90.0819 201.344C90.4146 201.675 90.7474 201.675 91.4128 201.013C91.7455 201.344 94.0745 201.675 94.4072 201.675C94.7399 201.675 95.4053 201.675 95.7381 201.013L96.0708 201.344C96.7362 201.013 97.4016 201.013 98.067 200.682C98.3997 201.344 98.3997 201.013 99.0652 201.013C99.7306 201.013 99.7306 200.682 99.7306 200.351C100.063 200.351 100.063 201.013 100.063 201.013C100.729 201.013 100.729 201.013 100.729 200.351V200.02C101.061 199.357 100.729 198.364 100.729 198.033C100.396 198.033 100.396 198.033 100.396 197.701H100.729C101.061 198.033 101.394 198.364 101.061 199.026C100.729 199.688 100.729 199.688 101.394 200.351L101.727 200.682C102.06 201.013 102.06 201.013 102.392 200.682H102.725L103.058 201.013H103.723V201.344C104.056 201.344 104.389 201.344 104.721 201.013C105.054 200.682 105.387 200.351 105.719 201.013H106.052C106.718 201.013 107.383 201.013 108.381 200.682C108.714 200.351 109.047 200.682 109.379 200.682C109.712 201.013 109.712 201.013 110.045 201.013C110.377 201.013 110.71 200.682 111.376 201.013H111.708C112.041 200.682 112.374 200.682 112.706 200.682V201.013H113.372H113.705H114.37C114.703 201.013 114.703 201.013 115.035 200.351H115.368H116.034C116.366 200.351 116.366 199.688 116.366 199.688H116.699C117.032 200.02 117.697 200.02 118.03 199.688H118.363C118.695 199.688 119.028 200.02 119.693 199.688C120.026 199.688 120.026 200.02 120.026 199.688H120.359C120.691 200.02 120.691 199.688 120.691 199.688H121.69C121.69 199.357 121.69 199.357 122.022 199.357C122.022 199.026 122.355 199.026 122.688 199.026C123.02 198.695 123.02 198.695 123.353 198.695C123.353 198.695 123.353 198.364 123.686 198.364C124.019 198.695 124.019 198.364 124.351 198.364C124.684 198.364 124.684 198.033 124.684 197.701C124.684 197.37 125.017 197.37 125.017 197.37C125.017 197.039 124.684 196.708 124.684 196.708C124.684 196.046 125.017 195.715 125.349 196.046C125.682 196.046 125.682 195.715 126.015 195.715C126.015 195.383 126.348 195.383 126.348 195.383C126.348 194.721 126.348 194.39 126.68 194.059C126.68 193.728 126.68 193.396 126.348 193.396C126.348 193.065 126.015 193.065 126.015 193.065V192.734C126.348 192.734 126.68 193.065 127.013 193.065C127.346 192.734 127.346 192.403 127.346 192.403C127.346 192.403 127.678 192.072 127.346 192.072C127.346 191.741 127.678 191.741 127.678 191.409V191.078V190.416C127.678 190.085 127.678 189.754 128.011 189.754C128.344 189.423 128.344 189.091 128.344 189.091V189.423L128.677 189.754C128.677 189.091 129.009 189.091 129.009 188.429C128.677 188.76 128.677 188.76 128.344 188.76C128.677 188.429 128.677 188.429 128.677 188.098L129.009 187.767C129.009 187.104 129.342 186.773 129.675 186.111C130.007 185.78 130.007 185.449 130.007 185.117C130.007 184.455 130.34 184.124 130.34 183.462C130.34 183.131 130.673 183.131 130.673 182.799V182.468C131.338 182.137 131.006 181.806 131.006 181.475V180.481V179.488V177.832V176.507C130.673 175.845 130.673 175.514 130.673 174.852C131.006 174.189 131.006 174.189 130.673 173.527V173.196C130.673 172.533 130.673 172.202 131.006 171.54C131.006 170.878 130.673 170.878 131.338 170.215V169.884V169.553C131.671 168.891 131.006 168.228 131.338 167.566H133.335C133.002 167.235 133.002 166.904 133.002 166.573C133.002 166.241 133.002 165.91 133.335 165.91C133.667 165.91 133.667 165.579 133.667 165.579C133.667 165.248 133.667 165.248 134 164.917C134 164.586 134 164.254 133.667 164.254C133.335 165.579 133.335 165.248 133.335 165.248C133.335 164.586 133.335 164.586 133.667 164.586ZM128.344 120.542C128.011 120.873 128.011 121.204 127.678 121.204C126.68 121.866 126.348 122.86 125.349 123.522C124.684 124.515 123.353 125.178 122.688 126.171C122.355 126.834 121.69 126.834 121.357 127.496C121.024 128.489 119.693 129.152 119.028 130.145C118.363 130.807 117.697 131.47 117.032 131.801C116.699 132.132 116.699 132.463 116.699 132.463C116.034 132.794 115.368 133.126 115.035 134.119C114.703 134.119 114.703 134.45 114.703 134.781C114.37 134.45 113.705 134.45 113.372 134.119C112.706 133.788 112.706 133.457 112.706 132.794V132.132C112.374 131.801 112.374 131.47 112.706 131.47C113.039 131.47 113.039 130.807 113.039 130.807C113.039 130.145 112.706 129.152 112.041 128.821C111.708 128.489 111.708 127.827 111.708 127.165C111.708 126.502 111.376 125.84 110.71 125.509C110.377 125.178 110.377 124.847 110.377 124.516C110.377 124.184 110.045 123.191 109.712 122.86C109.712 122.86 109.379 122.529 109.379 122.197C109.379 121.535 109.047 121.204 109.047 120.542C108.714 119.879 108.381 119.548 108.381 118.886C108.381 118.223 108.048 118.223 107.716 117.561C107.716 116.899 108.048 116.237 107.716 115.905C107.383 115.905 107.716 115.243 107.716 115.243L108.714 114.25C109.047 113.918 109.379 113.587 109.712 113.256C109.712 112.594 110.045 112.263 110.377 111.931C110.71 111.269 110.71 110.276 110.71 109.945C110.71 108.951 110.71 107.958 111.043 107.295C111.376 106.633 111.376 105.971 112.041 105.639C112.706 105.639 113.705 105.639 114.703 105.971C115.035 106.302 115.368 106.633 115.701 106.964H117.364C117.697 106.964 117.697 106.964 118.03 107.626C118.363 108.289 118.695 108.62 119.361 108.951C119.693 108.951 119.693 109.282 119.693 109.613C120.026 110.276 120.359 110.938 121.024 111.269C121.024 111.269 121.357 111.269 121.357 111.6C121.69 112.263 122.022 112.263 122.688 112.263C123.02 112.925 123.686 113.256 124.019 113.918C124.351 113.918 124.351 114.25 124.351 114.25C124.684 113.918 125.349 114.581 125.682 114.912C126.015 115.574 126.348 116.237 127.013 116.568L127.346 116.899V117.561C127.678 117.561 127.678 117.892 128.011 117.892C128.344 117.892 128.344 118.223 128.344 118.223C128.677 118.555 128.677 118.886 129.009 118.886C129.342 119.548 128.677 120.21 128.344 120.542Z"
     fill="#D50032"
     id="path4" />
</svg>
