<?xml version="1.0" encoding="UTF-8" standalone="no"?>
<svg
   xmlns:dc="http://purl.org/dc/elements/1.1/"
   xmlns:cc="http://creativecommons.org/ns#"
   xmlns:rdf="http://www.w3.org/1999/02/22-rdf-syntax-ns#"
   xmlns:svg="http://www.w3.org/2000/svg"
   xmlns="http://www.w3.org/2000/svg"
   xmlns:sodipodi="http://sodipodi.sourceforge.net/DTD/sodipodi-0.dtd"
   xmlns:inkscape="http://www.inkscape.org/namespaces/inkscape"
   width="134"
   height="203"
   viewBox="0 0 134 203"
   fill="none"
   version="1.1"
   id="svg4"
   sodipodi:docname="snowboard.svg"
   inkscape:version="0.92.1 r15371">
  <metadata
     id="metadata10">
    <rdf:RDF>
      <cc:Work
         rdf:about="">
        <dc:format>image/svg+xml</dc:format>
        <dc:type
           rdf:resource="http://purl.org/dc/dcmitype/StillImage" />
        <dc:title></dc:title>
      </cc:Work>
    </rdf:RDF>
  </metadata>
  <defs
     id="defs8" />
  <sodipodi:namedview
     pagecolor="#ffffff"
     bordercolor="#666666"
     borderopacity="1"
     objecttolerance="10"
     gridtolerance="10"
     guidetolerance="10"
     inkscape:pageopacity="0"
     inkscape:pageshadow="2"
     inkscape:window-width="640"
     inkscape:window-height="480"
     id="namedview6"
     showgrid="false"
     inkscape:zoom="1.1625616"
     inkscape:cx="67"
     inkscape:cy="101.5"
     inkscape:window-x="0"
     inkscape:window-y="0"
     inkscape:window-maximized="0"
     inkscape:current-layer="svg4" />
  <path
     d="M133.334 161V160.333V160C133.334 159.333 133.334 159.333 133 159C133 158.667 132.667 158.333 133.334 158.333V158C133 157 133 156 133 155C133.334 154.333 132.667 106.333 132.667 106C132.334 106 132.334 105.667 132.001 105.333C131.668 104.667 132.667 104.333 132.001 104C131.668 104 131.668 103.667 131.668 103.333C131.334 103 131.334 102.667 131.334 102.667C131.334 102 131.334 101.333 131.001 100.667C131.001 100.333 131.001 94.3333 131.334 94L131.668 93.6667C131.668 93.3333 132.001 93 132.001 93C132.001 93 131.668 92.3333 131.668 92C131.668 91.6667 132.001 91.6667 132.001 91.6667C132.334 91.3333 132.334 91 132.667 91C132.667 90.6667 133 90.3333 133 90C133.334 89.3333 133.334 88.6667 133.334 88C133.334 87.6667 133 87.6667 133.334 87.3333V84.3333C133.334 83.6667 133 83 133 82.3333C133 82 133 81.6667 133.334 81.3333C133.334 80.6667 133.334 80.3333 133 79.6667C132.667 79.3333 132.667 79 132.667 78.6667V77.3333C133 76.6667 132.667 76.3333 132.667 76V75.6667C132.667 76.3333 132.334 76.3333 132.334 76V75.3333V67.3333V65.6667V64V61.6667C132.334 60.6667 132.334 59.6667 132.001 58.6667V58V57.3333C131.668 57 131.334 56.6667 131.001 56.6667L130.668 57H129.668C129.002 56.6667 129.002 56.6667 129.002 57.3333C128.669 58 128.336 58 127.669 58L127.336 58.3333C126.336 58.6667 125.67 58.6667 125.003 57.6667C124.67 57.3333 124.337 57.3333 124.337 57.3333H123.337C123.004 57 123.004 57.3333 123.004 57.3333C122.338 57.3333 122.005 57.3333 121.671 56.6667C121.671 56.3333 121.338 56.3333 121.005 56.3333C120.672 56.3333 120.672 56.3333 120.339 56H120.005C119.339 56 118.339 55.6667 117.34 55.6667H116.007H109.676C108.343 55.6667 107.344 55.6667 106.011 55.3333C105.678 55.3333 105.011 55.3333 104.678 55H104.012H103.345C103.012 55 102.679 54.6667 102.679 55H102.346C101.679 55 101.679 55 101.013 55.3333C100.679 55.3333 100.679 55.3333 100.346 55C100.013 54.6667 99.6799 54.3333 99.3467 54.6667H99.0135H98.0138C98.0138 55 98.3471 55 98.3471 55.3333C98.6803 55.6667 99.0135 56 99.0135 56.3333C99.3467 56.6667 99.3467 56.6667 99.3467 57C99.6799 57.3333 99.6799 57.6667 99.6799 58C100.013 58.3333 100.013 58.3333 100.346 58.3333C100.679 58.6667 100.679 58.6667 101.013 58.6667C101.346 59 101.346 59.3333 101.679 59.3333C102.346 60 103.012 60 103.678 60.6667C104.012 61 104.345 61.3333 104.345 61.3333C105.011 62 105.678 62 106.011 62.3333C106.677 63 107.01 63 107.677 63.3333C108.01 63.6667 108.343 64 109.01 64.3333C109.343 64.3333 109.343 64.6667 109.343 65V65.6667C109.01 66.6667 109.01 67.6667 109.343 68.6667V69.3333C109.01 69.6667 109.01 70 109.01 70.3333C108.676 71 108.676 71 108.343 71.6667C108.01 72.3333 108.01 73.3333 107.677 74.3333C107.344 74.6667 107.344 75 107.01 75.3333C106.677 76 106.344 76.3333 105.678 77C105.678 77.3333 105.344 77.3333 105.344 77C105.011 76.3333 104.345 76.3333 104.012 76.3333C103.678 76.3333 103.345 76.3333 103.012 76C102.346 75.6667 102.346 75.6667 101.679 76C101.013 76 100.346 76.3333 99.6799 76.6667C99.0135 77.3333 98.6803 77.3333 98.0138 77.3333C98.0138 77.3333 98.0138 77.6667 97.6806 77.6667L97.3474 78C96.3478 78 96.0146 78.6667 95.015 79.3333C94.3486 80 93.6822 80 93.0158 80.6667C92.3494 81.3333 91.683 81.3333 91.3497 82C91.0165 82.3333 90.6833 82.3333 90.3501 82.6667C90.0169 83 90.0169 83.3333 89.6837 83.6667C89.3505 84 89.0173 84.3333 88.3509 84.6667C88.0177 85.3333 87.3513 86 87.0181 86.3333C86.3517 87 86.0185 87.3333 85.3521 88C85.0189 88.6667 84.3524 89.6667 84.0192 90.3333C83.686 90.6667 83.686 91 83.686 91C83.686 91.6667 83.3528 92 83.3528 92.6667C83.3528 92.6667 83.3528 93 83.686 93.3333C83.686 93.6667 84.0192 94 84.0192 94.3333C84.0192 94.6667 84.3524 94 84.0192 94C83.686 94.3333 83.686 94.6667 83.686 95.3333C83.686 95.6667 84.0192 96 84.6856 96C85.0189 96 85.6853 96 86.0185 95.6667C86.6849 95.3333 87.6845 95 88.0177 94.6667C88.6841 94.3333 89.0173 94 89.6837 94H90.0169C90.6833 93.6667 91.3497 93.3333 92.3494 92.6667C93.0158 92.3333 93.349 92.3333 94.0154 92C94.3486 91.6667 94.6818 91.6667 95.015 91.3333C95.3482 91 96.0146 90.6667 96.3478 90.6667C97.0142 90.3333 97.3474 90 98.0138 89.6667C98.3471 89.6667 98.3471 89.3333 98.6803 89.3333C99.6799 88.6667 100.679 88 101.679 87.6667C102.679 87.3333 103.345 86.6667 104.345 86C104.678 85.6667 105.011 85.3333 105.344 85.3333C105.344 85 105.678 85 106.011 84.6667C106.344 84.3333 106.677 84 107.344 84C108.01 83.6667 108.343 83.3333 108.676 83.3333C109.01 83.3333 109.343 83 109.676 83C110.009 82.6667 110.342 82.3333 111.009 82.3333C111.342 82 111.342 82 111.342 82C112.008 81.6667 112.008 81.3333 112.675 81.3333C113.341 80.6667 114.008 80.6667 115.007 80C115.674 79.3333 116.673 79 117.673 78.6667C118.339 78 119.006 78 119.672 77.6667C120.339 77.3333 121.005 77 121.671 77H122.005C122.671 76.6667 123.337 76.3333 124.004 76C124.337 76 124.67 75.6667 125.003 75.3333C125.003 75.3333 125.337 75 125.337 75.3333C125.67 75.3333 125.67 75.6667 125.337 75.6667C125.337 76.3333 125.003 76.3333 125.003 76.6667C124.67 77.3333 124.67 78 124.67 78.6667C125.003 79.3333 125.67 81.3333 125.67 82.3333C125.67 82.6667 125.003 81 125.003 81.3333C125.003 82 125.67 84 125.67 84.3333C125.67 84.6667 125.337 85.3333 124.67 86C124.337 86.6667 124.004 86.6667 123.337 87C123.004 87.3333 122.671 87.6667 122.671 87.6667C122.338 88 122.338 88.3333 122.338 88.6667C122.005 89 121.671 89.3333 121.671 89.3333C121.338 89.6667 121.005 89.6667 120.672 90C120.005 90.3333 119.339 90.6667 119.006 90.6667C119.006 90.6667 119.006 91 118.673 91C117.673 91 117.007 91.6667 116.007 92.3333H115.674C115.341 92.6667 115.007 93 114.341 93H113.341C112.675 93.6667 111.675 94 111.009 94.6667C109.676 95.3333 108.676 96 107.677 96.3333C107.344 96.6667 107.01 97 106.677 97.3333C106.011 97.6667 105.344 98 105.011 98.3333C104.678 98.6667 104.345 98.6667 104.345 99C103.345 99.6667 102.346 100.333 101.013 101C100.013 101.667 99.0135 102.333 98.0138 102.667C97.3474 103.333 96.3478 103.667 95.3482 104.333C94.3486 105 93.349 105.667 92.3494 106C92.0162 106 91.683 106.333 91.683 106.333C91.683 106.333 91.3497 106.333 91.3497 106.667C91.0165 106.667 90.6833 107 90.6833 107C90.3501 107 90.3501 107.333 90.3501 107.333C90.0169 107 90.0169 107.333 90.0169 107.333C89.6837 107.333 89.6837 107.667 89.3505 107.667C88.6841 108 88.6841 108.333 88.3509 108.333C88.0177 108.333 88.0177 109 88.0177 109.333V110.333C88.0177 110.667 87.6845 111 87.6845 111C87.6845 111.333 87.3513 111.667 87.3513 111.667H85.6853C84.6856 111.667 83.686 111.667 82.6864 112.333C82.02 112.333 82.02 112.667 81.6868 113C81.0204 113.333 80.6872 113.667 80.0208 114C79.6876 114 79.3544 114.333 79.0212 114.667C78.0215 115.333 77.0219 116 76.0223 116.333C75.0227 117 74.0231 117.667 73.0235 118.333C72.6903 119 72.3571 119 71.6906 119.333C71.0242 120 70.0246 120.333 69.025 121C68.6918 121.333 68.0254 121.667 67.6922 121.667C67.6922 122 67.6922 122 67.359 122C67.0258 122.667 66.0262 123.333 65.0265 123.667C64.6933 123.667 64.6933 124 64.0269 124C63.6937 124 63.6937 124.333 63.6937 124.667C63.3605 125.333 63.0273 125 63.0273 124.667C62.3609 123.667 62.0277 122.667 61.6945 122C61.3613 121 61.3613 120.333 61.0281 119.333C60.6949 118.333 59.3621 116 59.0289 115.333C58.6956 115.333 58.6956 115 58.6956 115C58.3624 114.333 58.0292 114 57.696 113.667C57.3628 113 57.0296 112.667 56.3632 112C56.03 111.667 56.03 111.333 56.03 111.333L55.6968 111C55.3636 110.333 55.3636 110.333 54.6972 110C54.364 109.667 54.364 109.333 54.364 109C54.6972 108.333 55.0304 108 55.6968 108.333C56.03 108.667 56.3632 108.667 56.6964 108.333C57.0296 108 57.3628 108 57.3628 107.667C57.696 107.667 58.0292 107.333 58.0292 107.333C58.6956 107.333 59.3621 107 60.0285 106.667C60.6949 106.333 61.3613 106 62.3609 105.333C63.0273 105 63.3605 104.667 64.0269 104.667C64.3601 104.333 64.3601 104.333 64.6933 104C65.0265 103.667 65.693 103.667 66.0262 103.667C66.6926 103.667 67.359 103.333 67.6922 103C68.0254 102.333 68.3586 102 68.3586 101.333V100.667V98.6667C68.3586 98 68.6918 98 68.6918 97.3333C69.025 96.6667 69.025 96 69.3582 95.3333V95C69.3582 94.3333 69.3582 94.3333 69.6914 94C70.0246 93.3333 70.0246 93 70.0246 92.3333C69.3582 92.3333 69.025 92.6667 68.3586 93C68.0254 93.3333 68.0254 93.6667 67.6922 94C67.359 94 67.359 94.3333 67.359 94.6667L67.0258 95C67.0258 95.3333 66.6926 95.6667 66.6926 96C66.3594 96 66.0262 95.6667 66.0262 95.6667C65.693 95.3333 65.693 95.6667 65.693 96C65.3597 96.3333 65.0265 96.6667 65.0265 97.3333C65.0265 97.6667 64.6933 97.6667 64.3601 97.6667H64.0269C63.6937 97.6667 63.3605 97.6667 63.3605 97.3333C63.0273 96.6667 63.0273 96.6667 62.6941 96.6667V96.3333C62.3609 95.6667 62.0277 96 61.3613 96C61.0281 96 61.0281 96.3333 60.6949 96.3333C60.3617 96.6667 60.0285 97 59.3621 97C59.0289 97 58.6956 97.3333 58.3624 97.6667C58.0292 98 57.696 98.3333 57.0296 98.3333C57.0296 98.3333 57.0296 98.6667 56.6964 98.6667C56.03 98.6667 55.6968 99.3333 55.0304 99.3333C54.6972 99.6667 54.364 99.6667 54.364 100C54.0308 100.333 54.0308 100.667 53.6976 100.667H53.3644C53.0312 101 52.698 101 52.3647 101.333C52.0315 101.667 51.6983 102 51.3651 102H51.0319C50.3655 102 49.6991 102.333 49.3659 102.667C49.0327 103 48.6995 103.333 48.3663 103.333C48.0331 103.333 48.0331 103.667 48.0331 103.667C48.0331 104 48.0331 104.333 47.3667 104.333C47.0335 104 46.7003 104.333 46.3671 104.333C46.3671 104.333 46.3671 104.667 46.0339 104.667C46.0339 105 45.7006 105 45.3674 105C45.0342 105.333 45.0342 105.333 45.0342 105.667C45.0342 105.667 44.701 106 44.3678 106C44.0346 106.333 44.0346 106.667 43.3682 106.667C43.035 107 42.3686 107.333 41.7022 107.667C41.369 107.667 41.0358 107.667 41.0358 108C40.7026 108 40.3694 108.333 40.0362 108.667C40.0362 109 39.703 109 39.703 109C39.0365 109.333 38.7033 109.667 38.3701 110C38.0369 110 38.0369 110.333 38.0369 110.667H37.7037C37.0373 110.333 37.0373 111 36.7041 111.333C36.3709 111.667 36.0377 112 36.0377 112C36.7041 110.667 36.7041 110.333 36.7041 110.333H36.0377C35.7045 110.333 35.0381 110.333 34.7049 111H34.3717C34.0385 111.333 33.7053 111.667 33.7053 112C33.7053 112.667 33.7053 112.667 33.0389 112.667H32.3724C32.0392 112.333 31.706 112.667 31.706 112.667C31.3728 113 31.0396 113.333 31.0396 113.667C31.3728 113.667 31.3728 114 31.706 114C32.0392 114.333 32.7057 114.667 33.3721 114.667C34.0385 114.667 35.0381 115.333 36.0377 115H36.3709C37.3705 115.333 38.3701 115.333 39.3698 115.333H43.3682H44.0346C44.3678 115.667 44.701 115.667 45.3674 115.667C45.7006 115.667 46.0339 115.667 46.3671 116H46.7003C47.3667 116 48.3663 116.333 49.0327 116.667H50.0323C50.6987 116.667 51.3651 117 51.6983 117.333C52.0315 117.667 52.3647 118 52.3647 118C52.698 118.333 52.698 118.667 52.698 118.667C53.3644 119.667 54.0308 120.667 54.6972 121.333C55.3636 122 55.6968 122.333 56.3632 123C56.6964 123.667 57.0296 124.333 57.696 124.667C58.0292 125 58.0292 125 58.3624 125.333C58.6956 126 59.3621 126.667 59.6953 127.667C60.0285 127.667 60.0285 128 60.0285 128C60.0285 128.667 60.3617 128.667 60.3617 129.333C60.6949 129.333 60.6949 129.333 60.6949 129.667C61.0281 130 61.0281 130.333 61.0281 130.333C60.0285 129.333 60.0285 130 60.0285 130.333V130.667C60.0285 131.333 60.0285 131.333 59.3621 131.667H59.0289C58.6956 131.667 58.3624 131.667 58.3624 132C57.696 132 57.0296 132.667 56.6964 133H56.3632C55.6968 133.667 54.6972 133.667 53.6976 134.333C53.3644 134.667 52.3647 135 52.0315 135C51.3651 135.333 51.0319 135.667 50.3655 135.667C49.6991 136 49.3659 136.333 48.6995 136.333C48.3663 136.333 48.0331 136.667 47.6999 137C47.3667 137.333 47.3667 137.333 46.7003 137.333V137.667C46.3671 138 46.0339 138 45.7006 138.333C45.3674 138.667 45.0342 139 44.3678 139C44.0346 139 43.7014 139.333 43.7014 139.333V140H44.0346C44.701 140 45.0342 140 45.7006 139.667C46.0339 139.667 46.7003 139.333 47.0335 139C47.6999 138.667 48.6995 138.333 49.6991 138.333C50.0323 138.333 50.0323 138.667 50.3655 138.667C51.0319 138.333 52.0315 138.667 52.698 139H53.3644C55.0304 139.333 56.6964 139.333 58.3624 139.333C59.0289 139.333 60.0285 139 60.3617 139.333C61.0281 139.333 61.6945 139 62.0277 138.667C62.6941 138.667 62.6941 138.667 63.0273 139.333C63.3605 140 63.6937 140 64.0269 140C64.6933 140 64.6933 139.667 65.0265 139.667C65.3597 139.667 65.693 139.667 65.693 140C66.0262 140.667 67.0258 141.667 67.359 142.667C68.0254 143.333 68.3586 144 68.6918 144.333L69.025 144.667C69.3582 144.667 70.0246 144.667 70.3578 144.333C70.3578 144.333 70.691 144 71.0242 144C71.3574 143.667 72.3571 143.333 73.0235 143.333C73.6899 143 74.0231 142.667 74.6895 142.667C75.3559 142.333 76.0223 142 76.6887 141.667C76.6887 141.333 77.0219 141 77.0219 141C77.6883 141 77.6883 140.667 78.3548 140.333C79.0212 139.667 80.0208 139.333 80.354 138.667C81.3536 138 82.02 137.667 83.0196 137C83.686 136.333 84.3524 136 85.3521 135.667C86.0185 135.333 86.0185 135 86.6849 134.667H87.0181C87.3513 134.667 87.6845 134.333 88.0177 134.333C88.0177 134 88.3509 134 88.3509 134C88.3509 134 89.0173 133.667 89.3505 133.333C89.6837 133.333 89.6837 133 90.0169 133V133.667C89.6837 134.333 89.6837 135 90.0169 135.667C90.3501 136.667 91.3497 139 91.683 140C91.683 140 91.683 140.333 91.3497 140.667C90.6833 141.333 90.0169 142.333 89.6837 143.667V144.333V146C90.0169 146.333 90.0169 146.333 89.6837 146.667C89.3505 147 89.3505 147.333 89.3505 147.333L89.0173 147.667C88.6841 148 88.0177 148.333 87.6845 148.333C87.0181 148.667 86.3517 149 86.0185 149.667C85.6853 150 85.6853 150.333 85.0189 150.333C84.6856 150 84.0192 150.333 83.686 150.667C83.3528 150.667 83.0196 150.667 83.0196 151C82.6864 151 82.3532 151.333 82.3532 151.333C82.02 152 81.6868 152 81.3536 152.667C81.0204 153 80.6872 153.333 80.0208 153.667C79.6876 153.667 79.3544 154 79.3544 154C79.0212 154.333 78.688 154.667 78.3548 154.667C78.0215 154.667 78.0215 155 77.3551 155H76.6887C76.3555 155.333 76.0223 155.667 75.6891 155.667C75.3559 156 75.0227 156.333 74.6895 156.333C74.0231 156.667 73.3567 157 72.6903 157.667C72.6903 157.667 72.3571 157.667 72.0238 158H71.6906C71.0242 158.333 71.0242 158.667 70.3578 158.667C69.6914 159.333 69.3582 159.333 68.6918 159.667C68.3586 160 68.0254 160.333 67.359 160.333C67.359 160.667 67.359 160.667 67.0258 160.667C66.6926 160.667 66.3594 160.667 66.3594 161C65.3597 161.667 65.0265 161.667 64.0269 162.333C63.3605 163 62.6941 163.333 61.6945 163.667C61.0281 164 61.0281 164.333 60.3617 164.333C60.0285 164.667 59.6953 165 59.3621 165C59.0289 165.333 58.6956 165.667 58.0292 165.667C57.3628 166 56.6964 166.333 55.6968 167C55.3636 167.333 55.0304 167.667 54.364 167.667C54.364 168 54.364 168 54.0308 168C53.6976 168.333 53.0312 168.667 52.3647 168.667C52.0315 169.333 51.3651 169.333 50.6987 170C50.3655 170.333 50.3655 170.333 50.3655 170.667C50.3655 170.667 50.0323 170.667 50.0323 171C49.6991 170.667 49.3659 170.667 48.6995 170.667C48.3663 171 48.0331 171.333 47.3667 171.333H47.0335C46.3671 171.667 46.0339 172 45.3674 172C45.0342 172.333 44.701 172.667 44.3678 172.667C44.0346 172.667 44.0346 172.667 44.0346 173H43.7014C43.3682 173.333 43.035 173.667 42.3686 173.667C42.0354 174 41.369 174.333 41.0358 174.667C40.3694 175 40.0362 175.333 39.703 175.333C39.0365 175.667 39.0365 175.667 38.7033 176C38.0369 176.333 37.3705 176.667 36.7041 177C36.3709 177.333 36.0377 177.333 35.7045 177.667C35.0381 177.667 35.0381 178.333 34.7049 178.333L33.3721 178.667C33.0389 179 32.7057 179.333 32.0392 179.333C31.706 179.667 31.706 180 31.3728 180C31.3728 180.333 31.0396 180.333 31.0396 180.667C30.7064 180.667 30.3732 180.333 30.3732 180.333L30.04 180.667C29.7068 180.333 29.3736 180.333 29.0404 180.333C28.7072 180.333 28.7072 180.333 28.374 180C28.0408 180 27.7076 180 27.7076 180.333C27.3744 180.667 27.0412 180.333 27.0412 180.333C26.708 179.667 26.3748 179.667 26.0415 179C25.7083 178.333 25.7083 178 25.3751 177.333C25.0419 177 25.0419 176.667 24.7087 176C24.0423 175.333 22.7095 172.667 22.0431 172C21.7099 171.333 21.0435 170.333 20.7103 169.667C20.0439 169 19.7106 168 19.0442 167.667C18.711 167.667 18.711 167.333 18.3778 167V166.333C19.0442 166 19.0442 166 19.7106 166C20.3771 166 20.7103 165.667 21.0435 165.333C21.3767 165.333 21.7099 165 21.7099 165C22.0431 165.333 22.0431 165 22.7095 164.667C23.0427 164 23.3759 164 23.7091 163.333C24.7087 162.667 25.7083 162 26.708 161.667C27.0412 161.333 27.7076 161 28.0408 161C28.374 161 28.7072 161 28.7072 161.333C29.3736 161.667 30.04 161.667 30.7064 161.333C31.0396 161.333 31.3728 161 31.706 160.667C32.3724 160.333 32.7057 160.333 33.3721 160C33.7053 159.667 34.3717 159.333 34.7049 159.333C35.3713 159 36.0377 158.667 36.7041 158.667C37.0373 158.667 37.3705 158.333 37.3705 158.333C38.3701 157.667 39.0365 157.667 39.703 157.333C40.3694 156.667 41.369 156.667 42.3686 156C43.035 155.667 44.0346 155.333 45.0342 154.667C45.7006 154.333 46.3671 154 46.7003 154C47.0335 153.667 47.6999 153.333 48.0331 153.333C49.0327 152.667 50.0323 152.333 51.0319 152C51.6983 151.333 52.698 151 53.6976 150.667C54.0308 150.333 54.364 150.333 54.364 150C54.364 150 54.6972 150 54.6972 149.667C55.0304 149.333 54.6972 149 54.364 149H51.6983C51.0319 149 50.3655 148.667 49.6991 148.667C49.0327 148.667 48.3663 148.333 47.6999 148H46.7003H43.3682H40.0362C39.3698 148 38.3701 148 37.3705 148.667H36.7041C36.3709 148.667 36.0377 148.667 35.7045 149H35.0381C34.7049 148.667 34.7049 148.667 34.7049 148.667C34.3717 148.333 34.3717 148.333 34.0385 148.333C33.7053 148.667 33.7053 148.333 33.7053 148.333C33.0389 147.667 32.3724 147 32.0392 146.667C31.706 146 31.3728 145.667 31.3728 145C31.0396 144.333 31.0396 143.667 31.0396 143C31.0396 142.333 31.0396 141.667 30.7064 141C30.7064 140.333 30.3732 139.667 30.04 139.333C29.7068 138.667 29.7068 137.667 29.3736 136.667C29.3736 136 29.3736 136 29.0404 135.333C29.0404 134.667 29.0404 134.333 29.3736 133.667C29.3736 133 29.3736 132.667 29.7068 132V131.667C30.04 134.333 30.3732 134 31.0396 133.667C31.3728 133.667 31.706 133.333 31.706 133.333C32.0392 133.333 32.0392 133 32.3724 133C32.7056 132.667 33.0389 132.333 33.3721 132.333C34.7049 131.667 35.7045 130.667 36.7041 130C37.3705 129.667 37.3705 129.333 38.0369 128.667C38.3701 128.333 38.7033 128 39.0365 127.667C39.3698 127.333 39.0365 127 38.7033 127C38.3701 126.667 38.0369 127 37.3705 127C37.3705 127.333 36.7041 127.333 36.3709 127.667C36.0377 127.667 35.3713 127.667 35.0381 127.333C34.3717 127.333 34.3717 127.333 33.7053 127H32.0392H31.0396C30.7064 126.667 30.04 126.667 29.3736 126.667C29.0404 126.667 28.0408 126.333 27.7076 126C27.3744 126 27.3744 125.667 27.0412 126C26.3748 126 25.7083 126 25.0419 125.333V126C24.7087 126.667 24.7087 127.333 24.7087 128C24.7087 128.667 24.3755 128.667 24.3755 129.333V130.667V131C23.7091 131.667 23.3759 132.333 23.3759 132.333V133V133.333C23.3759 133.667 23.3759 134 23.3759 134.333V135C23.0427 135.667 23.0427 136 23.0427 136.667C23.3759 137.333 23.0427 137.333 22.7095 138L22.3763 138.333C22.3763 138.667 22.3763 139 22.0431 139C21.7099 139 21.7099 139.667 21.7099 139.667C22.0431 140 22.0431 140.333 21.7099 140.333C21.7099 141 22.0431 141 21.7099 141.333C21.3767 141.667 21.3767 142 21.7099 142V142.333V142.667C22.0431 143 22.0431 143.333 22.0431 143.333V143.667C22.3763 144 22.3763 144.333 22.3763 144.333C22.0431 144.667 22.0431 145 21.3767 145C21.0435 144.667 20.7103 144.667 20.0439 145C19.7106 145.333 19.3774 145.667 19.0442 145.667C18.711 145.667 18.711 145.667 18.3778 145.333C18.0446 145.333 18.0446 145 18.0446 145.333C18.0446 145.667 17.3782 145.667 17.3782 146C17.045 145.333 16.7118 145.333 16.7118 145.667V146L16.3786 146.333C16.0454 145.667 15.7122 145.667 15.7122 145V144.667C15.379 144.333 15.379 144 15.0458 144C14.7126 143.333 14.3794 143.333 14.3794 143.667C13.713 143.667 12.7133 143.667 12.0469 143.333C11.7137 143 11.7137 143 11.3805 143.333C11.0473 143.667 10.7141 143.667 10.3809 143.333H10.0477C9.38129 143.667 9.38129 143.333 9.38129 143C9.38129 142.667 9.7145 142.667 9.7145 142.333C9.7145 142 9.38129 142 9.38129 141.667C9.04808 141.667 8.71488 141.333 8.38167 141.333C8.04847 141.333 8.04847 138 8.04847 138C8.04847 135.667 8.04847 135.333 8.38167 135.333L8.71488 135C9.38129 135 9.38129 134.667 9.38129 134.333V133.667C9.71449 133 10.0477 132.667 9.7145 132C9.7145 131.667 10.0477 131.667 10.0477 131.667C10.0477 131 10.3809 131 10.3809 130.333C10.3809 129.667 10.3809 129.667 10.7141 129.667V130.667C11.0473 130.333 10.7141 130 11.3805 129.667C11.3805 129.333 11.7137 129 11.7137 129C11.7137 129 11.3805 128.667 11.3805 128.333C11.7137 128.333 11.7137 128 11.7137 127.667C11.7137 127.333 11.7137 127 11.3805 127V126.667C11.3805 126.333 11.7137 126 11.7137 126C11.3805 125.333 11.3805 125 12.0469 124.333C12.3801 123.667 12.0469 123.333 12.3801 123V122.667C12.0469 122.667 12.0469 122.333 12.0469 122.333V120.667C12.0469 120.667 12.3801 120.333 12.0469 120.333V119.333V119C12.7133 118.667 12.7133 118.333 12.7133 118V117.667C13.0465 117 13.0465 117 13.3798 116.333L20.0439 106C20.3771 105.333 21.0435 104.333 21.7099 104C21.7099 104 21.7099 103.667 22.0431 103.667C22.0431 104.333 22.3763 104 22.3763 104C22.7095 104 23.0427 103.667 23.0427 103.333C23.7091 102.667 24.0423 102.333 24.7087 102.333C24.7087 102 25.0419 102 25.0419 102L25.3751 101.667C25.7083 101.667 26.0415 101.333 26.0415 101C26.3748 100.667 26.708 100.333 27.0412 100.333C27.7076 100.333 27.7076 100 28.0408 99.6667C28.0408 99 28.7072 99 28.7072 98.6667C29.0404 98.3333 30.04 98 30.3732 97.6667C30.7064 97.3333 31.3728 97 31.706 97C32.3724 96.6667 32.7057 96.3333 33.3721 96C33.7053 95.6667 34.0385 95.3333 34.3717 95.3333C35.0381 95 35.7045 94.6667 36.0377 94.6667C36.7041 94 37.3705 93.6667 38.3701 93.3333C38.3701 93 38.7033 93 39.0365 92.6667V92V91.6667C39.0365 91.3333 39.3698 91 39.3698 91H39.703C40.0362 91.3333 40.0362 91.3333 40.3694 91C40.3694 91.3333 40.7026 91.3333 40.7026 91.6667L41.0358 91.3333C41.369 91 42.0354 90.6667 42.3686 90.6667C43.035 90 43.7014 90 44.0346 89.6667C44.3678 89.3333 44.701 89 45.3674 89C46.0339 88.6667 46.7003 88.3333 47.0335 88C47.3667 87.6667 47.6999 87.3333 47.6999 87.3333V87C48.0331 86.3333 48.0331 86.3333 48.6995 86.3333C49.0327 86.6667 49.0327 86.6667 49.0327 86.3333C49.6991 86 50.0323 85.6667 50.3655 85.6667C50.6987 85 51.3651 85 52.0315 84.6667C52.698 84 53.3644 84 54.0308 83.3333C54.364 83 55.0304 82.6667 55.3636 82.6667C56.03 82 56.6964 82 57.0296 81.3333H57.3628C57.696 81.3333 58.0292 81 58.0292 80.6667C58.3624 80.6667 58.3624 80.6667 58.6956 80.3333H59.0289C59.6953 80 60.0285 80 60.3617 79.6667C60.6949 79.3333 60.6949 79.3333 60.6949 79.3333C61.3613 79.3333 61.3613 79 61.6945 78.6667H63.3605H66.0262H66.3594C66.6926 79 66.6926 79.3333 66.6926 79.3333L66.3594 80C66.3594 80.6667 66.3594 81.3333 67.0258 81.6667C67.0258 82 67.359 82 67.359 82.3333C67.6922 82.6667 68.0254 83 68.0254 83C68.3586 83.6667 68.3586 83.6667 68.6918 83.6667C69.025 83.6667 69.025 83.6667 69.025 84.3333V85C69.6914 85.3333 69.6914 85.6667 70.0246 86C70.691 86.6667 70.691 86.6667 70.691 87.3333L71.0242 87.6667V87.3333C71.6906 86.3333 72.0238 85.3333 72.6903 84.3333C73.0235 83.6667 73.6899 83 74.0231 82.3333C75.0227 80.6667 76.0223 79.6667 77.0219 78.6667C77.3551 78.3333 77.6883 78 77.6883 78C78.0215 77.6667 78.3548 77.6667 78.688 77.3333C79.0212 77 79.3544 76.6667 79.3544 76.6667C79.6876 76 80.354 75.3333 80.6872 75C81.3536 74.6667 81.3536 74.3333 81.6868 74.3333C81.6868 74 82.02 73.6667 82.3532 73.6667C82.6864 73 83.3528 72.6667 83.686 72.3333C84.3524 71.6667 84.6856 71.6667 85.3521 71C86.0185 70.3333 86.6849 69.6667 87.3513 69.3333C87.6845 69 88.0177 68.6667 88.3509 68.3333C88.6841 68 88.6841 67.6667 89.0173 67.6667C89.3505 67.3333 89.3505 67.3333 89.6837 67C90.3501 66.6667 90.3501 66.3333 90.0169 66.3333C89.3505 65.6667 89.0173 65.3333 88.3509 65C88.0177 64.3333 87.6845 64.3333 87.0181 64C86.0185 63.3333 85.3521 62.3333 84.3524 61.6667C83.686 61 83.0196 60.6667 82.6864 60C82.02 59.6667 81.6868 59.3333 81.0204 59H80.0208C80.0208 60.6667 79.6876 60.6667 79.6876 61C79.3544 61 79.3544 61.3333 79.3544 61.6667V62C78.688 62 78.0215 62.6667 78.0215 63.3333C78.0215 63.6667 78.0215 64 77.6883 64C77.3551 64.3333 77.3551 64.6667 77.3551 65C77.3551 65.3333 77.0219 65.6667 77.0219 65.6667C77.0219 66 77.0219 66.3333 76.6887 66.3333C76.6887 67 76.3555 68 76.3555 68.3333C76.0223 69 75.6891 69.6667 75.6891 70C75.6891 70.6667 75.3559 71.6667 75.3559 72.6667C75.0227 73.3333 75.0227 73.6667 74.6895 74.3333C74.6895 75 74.3563 75.6667 74.0231 76C73.6899 76.3333 73.6899 76.6667 73.6899 77V77.6667C73.6899 78 73.3567 78 73.3567 78.3333C73.3567 78.6667 73.3567 79 73.0235 79H71.6906C71.3574 79.3333 71.3574 79.3333 71.0242 79.3333C71.0242 79 71.3574 79 71.3574 79C71.3574 78.6667 71.0242 78.6667 71.0242 78.3333C71.0242 78.6667 70.691 78.6667 70.691 78.6667C70.691 79 70.3578 79.3333 70.3578 79.3333C69.6914 79.6667 69.6914 79.6667 69.025 79.3333C68.6918 79 68.3586 78.6667 68.0254 78.6667C67.6922 78.6667 67.0258 78.3333 66.6926 78.3333C66.3594 78.3333 66.0262 78.3333 66.0262 77.6667C65.693 77.3333 65.693 77.3333 65.3597 77.6667C63.6937 78 62.3609 77 62.0277 75.6667C62.0277 75.3333 62.0277 75.3333 61.6945 75.3333H60.6949C60.6949 75.6667 60.3617 75.6667 60.3617 76C60.0285 76.3333 59.6953 76 59.6953 75.6667C59.6953 75.3333 59.6953 75 59.3621 75C59.3621 74.6667 59.3621 74.3333 60.0285 74.3333V74C60.3617 73.3333 60.3617 73 60.6949 72.6667V72.3333V70.6667C61.0281 69.6667 61.0281 69 61.3613 68C61.6945 67.3333 61.6945 67 61.6945 66.3333C62.0277 65.6667 62.0277 64.6667 62.3609 64C62.6941 63.3333 62.6941 62.6667 62.6941 62.3333C63.0273 61.6667 63.0273 61 63.3605 60.6667C63.3605 60.3333 63.6937 60 63.6937 60C64.0269 59.3333 64.0269 58.3333 64.0269 58C64.3601 57.3333 64.6933 56.6667 64.6933 56.3333C65.0265 55.6667 65.0265 55 65.0265 54.3333C65.3597 54.3333 65.3597 54 65.3597 53.6667C65.693 53.3333 65.693 53 66.3594 52.6667C66.6926 52.6667 66.6926 52.3333 66.6926 52V51.6667C67.359 51 67.359 50.6667 68.0254 50C68.0254 49.6667 68.0254 49.6667 68.3586 49.6667C68.6918 49 69.3582 48.6667 69.6914 48C69.6914 47.6667 70.0246 47.6667 70.0246 47.6667C70.691 47 70.691 47 71.3574 46.3333C71.6906 45.6667 71.6906 45.6667 72.0238 45.3333C72.0238 45.3333 72.0239 45 72.3571 44.6667C72.3571 44.3333 72.6903 44 73.0235 44C73.3567 44 73.3567 43.6667 73.3567 43.6667C74.0231 43 74.6895 42.6667 75.0227 42C75.6891 41.3333 76.3555 40.3333 77.0219 39.6667C77.3551 39.3333 77.3551 39 78.0215 39H78.3548C78.688 38.6667 79.3544 38.3333 79.6876 38.3333C80.354 38.3333 80.6872 38.3333 81.3536 38C81.6868 38 81.6868 38.3333 82.02 38.3333C82.3532 38.3333 82.3532 38.3333 83.0196 38.6667C83.3528 38.3333 83.686 38.3333 84.0192 38C84.3524 37.6667 84.3524 37.6667 84.6856 38C85.0189 38.3333 85.0189 38.3333 85.0189 38.3333C85.3521 38 85.6853 38 85.6853 38.3333H86.3517C86.6849 38 87.0181 38 87.3513 38C88.0177 38 88.6841 38.3333 89.3505 38.3333C89.6837 38.3333 90.3501 38.3333 90.6833 38.6667H91.0165H91.683C92.0162 39 92.3494 39 92.6826 38.6667H93.349C93.349 39 93.6822 38.6667 93.6822 38.6667C94.0154 38.6667 94.3486 38.6667 94.6818 38.3333V38.6667C95.3482 38.6667 95.6814 39 96.3478 39C97.0142 38.6667 97.6806 38.6667 98.3471 38.6667C99.0135 39 99.0135 38.6667 99.6799 38.6667H100.013C100.679 38.6667 101.346 39 102.346 38.6667C103.012 39 103.678 39 104.678 39H108.01H111.342C111.675 39 111.675 39 111.675 38.6667C112.008 38 112.342 38 112.342 38.6667L112.675 39H113.341H116.673C117.007 39 117.007 38.6667 117.007 38.6667C117.34 38 117.673 38 118.006 38.6667C118.339 38.6667 118.339 39 118.673 39H120.005C120.005 38.6667 120.005 38.3333 120.339 38.3333C120.339 37.6667 120.672 37.6667 120.672 38H121.338C121.338 38.3333 121.671 38.3333 121.671 38.3333C122.005 39 123.004 39.3333 123.671 39.6667H124.004C124.67 40.3333 125.003 40 125.67 40H126.003C126.003 40.6667 126.336 40.6667 126.669 40.6667C127.003 41 127.003 40.6667 127.336 40.6667C127.669 40.3333 128.002 40.3333 128.336 40.3333C128.669 40.6667 129.002 41 129.335 41.3333C129.335 41.3333 129.668 41.6667 129.668 42C130.335 42 130.335 42.3333 130.335 42.6667C130.668 42.3333 131.001 42 131.334 42C131.668 42 131.668 41.6667 131.668 41.6667V41V38.3333V35V32V29.6667V27V24.3333V21.6667V19.3333V16.3333V13C131.668 12 131.334 11 131.334 10V7.33333C131.334 7 131.334 6.66667 131.001 6.66667C130.335 6 129.668 5 129.335 4C129.002 3.66667 129.002 3.33333 129.002 3.33333C128.336 3 127.669 2.66667 127.336 1.66667C126.669 1.33333 126.336 1 126.003 1.33333C125.67 1.33333 125.003 1.33333 124.67 1C124.337 1 124.004 0.666667 123.337 1C123.337 0.666667 123.004 0.666667 123.004 0.666667C122.338 0.666667 122.338 0.333333 122.005 0.333333H121.338H118.006H115.34C114.341 0.333333 112.675 0 111.342 0C111.009 0 111.009 0.333333 110.676 0.333333C110.342 0.666667 110.342 0.666667 110.009 0.333333C109.676 0 110.342 1 110.009 1C110.009 1 109.676 1 109.676 0.666667H109.01C108.343 1 107.677 1 107.01 1H105.344H102.679H100.346H97.6806H95.3482C94.6818 1 94.0154 1.33333 93.6822 1.66667H93.0158H91.0165H88.6841H86.6849H85.3521H82.6864H80.0208H78.688H76.0223H73.3567H71.0242H67.359H63.3605H62.0277H59.3621H56.6964H54.364H53.3644C53.0312 1 52.698 1.33333 52.3647 1.33333C52.0315 1.66667 52.0315 1.66667 51.6983 1.66667H49.3659H48.6995C48.3663 2 48.0331 2.33333 47.3667 2.33333C46.7003 2 46.3671 2 45.7006 2H44.701H43.3682C43.035 2 42.7018 2 42.3686 2.33333C41.7022 2.33333 41.7022 2.33333 41.0358 2.66667H40.3694H38.7033C38.0369 2.66667 37.7037 2.66667 37.0373 2C36.7041 1.66667 36.7041 1.66667 36.3709 1.66667H34.0385C33.0389 1.66667 32.0392 1.66667 31.3728 1.66667H28.374C28.0408 1.66667 27.3744 2 26.708 2C26.3748 2.33333 26.3748 2.33333 26.0415 2.33333C25.7083 2 25.3751 2 25.0419 2H15.379C14.0462 2.33333 12.7133 2.33333 11.7137 2H11.0473C10.7141 2 10.7141 2 10.3809 2.33333C10.3809 2.66667 10.0477 2.66667 9.7145 2.66667H9.38129H8.38167V3.33333C8.04847 3.33333 8.04847 3 7.71526 3V2.33333C7.71526 2 7.38206 2 7.38206 2C7.38206 2.33333 7.04885 2.66667 7.38206 3C7.38206 3.33333 7.38206 3.66667 7.71526 3.66667C7.71526 3.66667 8.04847 3.66667 8.04847 4C8.04847 4 8.04847 4.33333 8.38167 4.33333C8.71488 4.66667 8.71488 5 8.38167 5C8.38167 5.33333 8.38167 5.33333 8.04847 5.33333C7.71526 5 7.71526 5 7.71526 4.66667C7.38206 4.33333 7.38206 4.33333 7.38206 4.33333C7.38206 4.66667 7.04885 5 7.04885 5C6.71565 4.66667 6.71565 4.33333 6.71565 4.33333C6.38244 4.33333 6.38244 4.33333 6.04924 4C5.71603 4.33333 5.71603 4 5.71603 4C5.38283 4.33333 4.71642 4.33333 4.38321 4.66667C3.7168 4.66667 3.7168 5 3.7168 5.33333C3.3836 6.33333 2.71719 7.33333 2.05078 8C1.71757 8.33333 1.71757 8.33333 1.71757 8.66667C1.38437 9.33333 1.05116 10 0.717957 10.3333C0.717957 10.6667 0.717957 11.3333 0.717957 11.3333C0.717957 12.6667 0.717957 13.6667 0.051547 14.6667V15V16.3333V19V22C0.051547 22.3333 0.051547 22.6667 0.384752 22.6667C0.717957 22.6667 0.717957 22.3333 0.717957 22C0.717957 21.6667 1.05116 21.6667 1.38437 21.6667V22.3333C1.38437 23 1.05116 23 0.717957 23C0.717957 22.6667 0.384752 22.6667 0.384752 22.6667C0.051547 22.6667 0.051547 22.6667 0.051547 23V25.3333V28V29.3333C0.384752 29.3333 0.717957 29 0.717957 29.3333C0.717957 29.3333 0.717957 29.3333 0.384752 29.3333C0.051547 29.6667 0.051547 30 0.051547 30V31.3333V33V34.6667V36.3333V37.3333V40V42.6667V44V45.6667V47.3333V48.6667V50.6667V53.3333V57V60.6667V64.6667C0.384752 65.6667 0.384752 67 0.384752 68V70.6667V74V77.6667V81.3333V82.3333H0.717957C0.384752 82.6667 0.384752 83 0.384752 83C0.051547 83.3333 0.051547 83.6667 0.051547 83.6667V86V89.6667V93.6667C0.051547 94 0.051547 94 0.384752 94.3333C0.051547 95 -0.281658 95.3333 0.384752 96C0.051547 96.3333 0.051547 96.6667 0.717957 97H0.384752C0.384752 110.667 0.051547 124.333 0.051547 138C0.384752 137.667 0.051547 140.667 0.051547 142.667V143.333V144V144.667C0.384752 145.333 0.384752 146 0.384752 146.333V152C0.384752 152.667 0.051547 152.667 0.051547 153.333V155C0.051547 155.333 0.384752 155.667 0.384752 155.667C0.717957 156 0.717957 156.333 0.717957 156.333V158C0.384752 158.667 0.717957 159 0.384752 159.667C0.384752 160 0.384752 160.333 0.051547 160.667C0.051547 160.333 0.051547 160.667 0.051547 160.667V166.333V170V172.667V175.333V176.667V178V190.667V193.333C0.051547 194.333 0.717957 195.333 1.38437 196.333C1.71757 196.667 1.71757 197.333 2.05078 198C2.38398 198.333 2.38398 198.667 2.71719 199C3.05039 199.333 3.05039 199.667 3.3836 200C3.7168 200.667 3.7168 200.667 4.38321 200.667C5.71603 201 6.71565 201.333 7.71526 202.333C7.71526 202.667 8.04847 203 8.38167 203H9.7145C10.3809 203 10.3809 203 10.7141 202.667H11.3805C11.7137 203 11.7137 203 12.0469 203H13.0465C14.0462 203 15.0458 203 16.0454 202.667H16.3786C16.7118 202.333 16.7118 202.333 16.7118 202.667C17.3782 202.667 17.7114 203 18.3778 202.667C18.711 202.667 18.711 202.667 18.711 202.333H19.0442C19.3774 202.667 20.0439 203 20.3771 203H22.0431C22.3763 203 22.7095 203 22.7095 202.333C22.7095 202.333 23.0427 202 23.0427 201.667C23.3759 201.667 23.3759 202 23.3759 202C23.7091 202.333 24.0423 202.667 24.0423 202.667C24.3755 202.333 24.7087 202.667 24.7087 202.333H25.0419H25.3751C25.7083 202 26.3748 201.667 26.708 201.333C26.708 201 27.0412 201 27.0412 201C27.3744 200.667 27.7076 200.333 27.7076 200.333C28.0408 199.667 28.0408 199.667 28.374 200C28.7072 200.333 28.7072 200.667 29.0404 200.667C29.0404 201.333 29.3736 201.333 29.3736 201.667C29.7068 202 30.04 202.333 30.04 202.333H31.706C32.0392 202.667 32.0392 202.333 32.7057 202.333H33.0389C33.7053 202.333 34.3717 202.667 35.0381 202.333H35.3713H38.0369H47.6999H49.3659H50.6987H56.03H57.3628H60.0285H60.3617H60.6949C61.6945 202.667 62.6941 202.333 63.6937 202.333H67.0258H70.0246H72.3571H74.6895H76.3555C76.6887 202.333 76.6887 202.333 77.0219 202H78.0215C79.3544 202.333 80.6872 202.333 82.02 202H85.6853H86.6849C87.0181 202.333 87.3513 202 88.0177 202H88.3509C89.0173 202.333 89.6837 202 90.6833 202H92.0162C92.6826 202 93.0158 201.667 93.6822 201.333C94.0154 201.333 94.0154 201.333 94.6818 201.667C94.6818 202 95.015 202 95.015 202H97.3474C97.3474 201.333 97.3474 201 97.0142 200.333C97.3474 200.333 97.6806 200.333 98.0138 201C98.0138 201.333 98.0138 201.333 98.3471 201.667H98.6803C99.0135 201.333 99.0135 201 99.3467 201.333V201.667C99.3467 202.333 99.3467 202.333 99.6799 202.333H102.346H103.345H105.678H106.011C106.011 201.667 106.011 201.667 105.678 201.333C105.344 201 105.344 200.667 105.678 200.667C105.678 200.333 106.011 200.333 106.011 200.667C106.344 201 106.344 201.333 106.677 201.333C107.01 201.333 107.01 201.667 107.01 201.667V202C107.677 202.333 108.01 202 108.343 201.333L108.676 201C109.01 201.333 109.01 201.667 109.676 201.667C109.676 202 110.009 202 110.009 202C111.009 202 111.675 201.667 112.675 201.667C113.341 201.667 114.008 202 115.007 202C115.674 201.667 116.007 201.667 116.673 201.667H117.007C117.673 201 117.673 201.333 118.339 201.667H119.006C120.339 202 121.338 202 122.671 201.667C123.337 201.667 124.004 201.333 124.67 201C125.003 200.667 125.337 200.333 126.003 200.333C126.336 200 126.336 200 126.336 199.667C126.336 199.333 126.669 199.333 127.003 199.333C127.336 199.333 127.336 199 127.669 198.667C128.002 198 128.002 198 128.336 198.333H129.002C129.335 198.333 129.335 198.333 129.668 198C130.002 197.333 130.335 197.333 130.668 196.667C131.001 196.333 131.001 196 131.001 196C131.334 196 131.668 195.667 131.668 195.333C132.001 194.667 132.001 194.667 132.001 194.667C132.334 194 132.667 194 132.667 193.333V192.333C132.667 192 132.667 191.667 133 191.667C133.334 191.333 133.334 191.333 133.334 191V188.333V187.333C133.667 186.667 133.667 186.333 133.667 185.667C133.667 185.333 133.667 185 134 184.667V184H133.334C132.667 185.333 132.667 161.667 133.334 161C133.334 161.333 133.334 161 133.334 161ZM55.6968 39.6667C56.03 39.3333 55.6968 39 55.6968 38.6667C56.03 38.6667 56.03 38.3333 55.6968 38.3333C55.3636 37.6667 55.6968 37.3333 55.6968 36.6667C56.03 36.6667 56.3632 36.3333 56.3632 36.3333C56.6964 36.3333 57.0296 36 57.0296 35.6667C57.3628 35 58.0292 34.6667 58.3624 34.3333C58.6956 34.3333 59.0289 34 59.0289 34C59.3621 33.3333 60.0285 33 60.3617 32.3333C60.6949 32 61.0281 31.6667 61.0281 31.6667C61.0281 31.3333 61.3613 31.3333 61.3613 31.3333C62.0277 31.3333 62.0277 30.6667 62.6941 30.6667C63.0273 30.6667 63.3605 30.3333 64.0269 30.3333V30.6667C64.0269 30.3333 64.3601 30 64.3601 30H65.0265C65.3597 30 65.693 30.3333 66.0262 30.3333C66.6926 30.6667 67.0258 31 67.6922 31C68.0254 30.6667 68.6918 31 69.025 31.3333C69.3582 31.3333 69.6914 31.6667 69.6914 31.6667C70.0246 31.6667 70.0246 31.3333 70.3578 31.3333C70.691 31 70.691 31.3333 71.0242 31.3333C71.3574 31.6667 71.3574 32 71.6906 32C72.3571 32 72.6903 32.3333 73.0235 32.6667C73.3567 32.6667 73.3567 33 73.3567 33.3333C73.6899 34 73.6899 34 73.0235 34.6667C72.3571 35.3333 72.0238 35.6667 72.0238 36.3333V37C71.6906 37.6667 71.6906 38 71.3574 38.6667V39.6667C71.0242 40.3333 71.0242 41.3333 70.691 42.3333C70.3578 43.6667 70.0246 44.6667 69.3582 46C69.3582 46 69.025 46.3333 69.025 46.6667C69.025 47.3333 68.3586 48 68.3586 48.3333C68.0254 49 67.6922 49 67.6922 49.6667C68.0254 50 67.6922 50.3333 67.359 50.3333H66.6926C66.3594 50.3333 66.0262 50 65.3597 50C65.0265 50 65.0265 49.6667 65.0265 49.3333C64.3601 49 64.3601 48.6667 63.6937 48.6667C63.3605 48.6667 63.0273 48.6667 62.6941 48.3333C62.3609 48.3333 62.3609 48 62.0277 48C61.3613 48.3333 61.3613 48.3333 61.0281 48H60.3617C60.3617 47.3333 60.0285 47.6667 59.3621 47.3333C59.0289 46.6667 58.3624 46.3333 58.0292 46C57.3628 45.6667 57.3628 45.6667 57.0296 45.3333C56.3632 45 56.3632 44.6667 56.3632 44.3333C56.3632 44 56.03 43.6667 55.6968 43.3333C55.3636 42.6667 55.3636 42 55.0304 41.6667C55.3636 41 55.0304 40.3333 55.6968 39.6667ZM7.38206 99.6667C6.71565 99 7.04885 98.3333 6.71565 97.6667C6.38244 97.6667 6.38244 97.6667 6.71565 97.3333C7.04885 97 7.04885 96.6667 7.38206 96C7.38206 95.6667 7.38206 95.3333 7.71526 95.3333C8.04847 95 8.04847 94.6667 8.38167 94.6667C8.04847 94.3333 8.04847 94 8.04847 94C8.38167 93.6667 8.38167 93.6667 8.38167 93.6667C8.38167 93.3333 8.71488 93.3333 9.04809 93.3333C9.38129 93 10.0477 92.6667 10.3809 92.3333C10.7141 91.6667 11.0473 91.6667 11.3805 91C11.3805 90.6667 11.7137 90.6667 11.7137 90.6667C12.0469 90.3333 12.3801 90 12.3801 90L12.7133 89.6667C13.3798 89 14.3794 88.3333 15.379 88H15.7122C15.7122 87.6667 16.0454 87.6667 16.0454 87.6667C16.3786 87.3333 16.7118 87.3333 17.3782 87.3333C17.7114 87.3333 17.7114 87.6667 18.0446 87.6667L18.3778 88H20.0439C20.3771 88.3333 21.0435 88.3333 21.3767 88.6667H22.0431C22.3763 88.6667 22.7095 88.6667 22.7095 89C23.0427 89 23.3759 89 23.3759 89C23.7091 89.3333 24.0423 89.3333 24.0423 89.6667C24.3755 90 24.3755 90 24.7087 90C25.0419 90 25.0419 90.3333 25.3751 90.6667C26.0415 91 26.3748 91.3333 27.0412 91.6667H27.3744C28.0408 92 28.374 92.3333 29.0404 92.6667H29.7068C29.7068 93.3333 29.3736 93.6667 29.3736 94.3333C28.7072 94.3333 28.374 95 27.7076 95C27.3744 95.3333 27.3744 95.6667 26.708 95.6667C26.3748 96.3333 26.0415 96.3333 25.7083 96.3333C25.3751 97 25.3751 97 25.0419 97.3333C24.7087 97.6667 24.3755 98 24.0423 98.3333C23.7091 98.6667 23.3759 99 23.3759 99.3333C23.0427 99.6667 22.7095 100 22.3763 100C21.7099 100.333 21.7099 100.667 21.0435 101C20.7103 101 20.7103 101 20.7103 101.333C20.3771 102 20.0439 102 19.7106 102.333C19.3774 102.333 19.0442 102.667 18.711 103V104C18.3778 104 17.7114 104.667 17.3782 104.667C16.7118 104 16.3786 104 16.3786 104C16.0454 103.667 16.0454 103.333 15.7122 103.333C15.379 103 14.3794 103.333 13.713 103C13.3798 103 13.3798 103.333 13.0465 103H12.3801C12.3801 103 12.0469 102.667 12.0469 102.333C11.7137 102.667 11.7137 102.667 11.3805 102.667H11.0473C10.7141 102.333 10.3809 102.333 10.3809 102.333C10.0477 102.333 10.0477 102.333 9.7145 102.333C9.38129 102.333 9.04809 102 8.38167 101.667C8.38167 101.333 8.04847 101 8.04847 100.667C7.71526 100.667 7.71526 100.333 7.71526 100V99.6667H7.38206Z"
     fill="#D50032"
     id="path2" />
</svg>
