<?xml version="1.0" encoding="UTF-8" standalone="no"?>
<svg
   xmlns:dc="http://purl.org/dc/elements/1.1/"
   xmlns:cc="http://creativecommons.org/ns#"
   xmlns:rdf="http://www.w3.org/1999/02/22-rdf-syntax-ns#"
   xmlns:svg="http://www.w3.org/2000/svg"
   xmlns="http://www.w3.org/2000/svg"
   xmlns:sodipodi="http://sodipodi.sourceforge.net/DTD/sodipodi-0.dtd"
   xmlns:inkscape="http://www.inkscape.org/namespaces/inkscape"
   width="134"
   height="203"
   viewBox="0 0 134 203"
   fill="none"
   version="1.1"
   id="svg4"
   sodipodi:docname="speed-skating.svg"
   inkscape:version="0.92.1 r15371">
  <metadata
     id="metadata10">
    <rdf:RDF>
      <cc:Work
         rdf:about="">
        <dc:format>image/svg+xml</dc:format>
        <dc:type
           rdf:resource="http://purl.org/dc/dcmitype/StillImage" />
        <dc:title></dc:title>
      </cc:Work>
    </rdf:RDF>
  </metadata>
  <defs
     id="defs8" />
  <sodipodi:namedview
     pagecolor="#ffffff"
     bordercolor="#666666"
     borderopacity="1"
     objecttolerance="10"
     gridtolerance="10"
     guidetolerance="10"
     inkscape:pageopacity="0"
     inkscape:pageshadow="2"
     inkscape:window-width="2880"
     inkscape:window-height="1526"
     id="namedview6"
     showgrid="false"
     inkscape:zoom="1.1625616"
     inkscape:cx="67"
     inkscape:cy="101.5"
     inkscape:window-x="-11"
     inkscape:window-y="-11"
     inkscape:window-maximized="1"
     inkscape:current-layer="svg4" />
  <path
     d="M133.851 183.951C134.186 183.283 133.851 182.949 133.851 182.28C133.517 181.612 133.517 181.278 133.517 180.609C133.851 180.275 133.851 179.941 133.517 179.941C133.517 178.939 133.182 177.936 133.517 176.933C133.517 176.599 133.517 176.265 133.182 176.265C132.847 175.597 132.847 175.597 132.513 174.928C132.178 174.594 132.178 174.26 132.178 174.26C131.844 173.592 131.509 173.592 131.174 172.923H130.84C130.84 172.255 130.505 172.255 130.505 171.586C130.505 170.918 130.505 170.584 130.17 169.915V169.247C130.505 168.913 130.505 168.579 130.17 168.579V168.245C130.17 167.91 130.17 167.576 129.836 167.576C130.17 167.242 130.17 166.908 130.17 166.908L129.836 166.574C129.836 166.239 129.501 165.905 129.501 165.571V164.903C129.836 164.234 129.836 163.566 130.505 163.232C130.84 162.563 130.84 162.229 131.174 161.895C131.509 161.227 131.843 160.558 132.513 160.224V159.89C132.847 159.556 132.847 159.222 132.847 158.887C132.847 158.219 133.182 158.219 133.182 157.885C133.182 157.216 133.182 156.882 132.847 156.214V155.545C132.847 155.211 133.182 154.877 133.182 154.209C133.182 153.54 133.182 152.538 132.847 151.535V148.862V147.191C132.847 146.857 132.513 146.522 132.513 146.188C132.178 145.52 132.178 144.517 132.178 143.849C132.178 143.181 132.178 142.846 131.844 142.178V141.51C131.844 140.841 132.178 140.507 132.178 139.839C132.178 139.504 132.178 139.17 132.513 139.17L132.847 138.836C132.513 138.168 132.847 138.168 132.847 137.834C133.182 137.834 133.182 137.499 133.182 137.165V134.492V131.818C132.847 131.15 132.847 130.147 132.847 129.145V126.471V123.129V124.132V121.458V118.785C132.847 117.782 132.513 116.78 132.513 115.777V113.104V110.096V107.423V106.086V103.412C132.513 102.41 132.178 101.741 132.178 100.739V99.0679V96.3944V93.7209V90.7132V88.0397C132.178 87.0371 132.178 86.0346 131.844 85.032V81.356V78.3483V75.6748V72.6671V69.9936C131.509 68.991 131.509 68.3227 131.509 67.3201V63.9782V62.6415V59.968V57.2945C131.509 56.2919 131.509 55.2894 131.174 54.2868V51.6133V49.9424V47.2689V44.5954V41.9219C131.174 40.9193 130.84 40.251 130.84 39.2484V36.5749V33.233V31.8963V29.8912V27.5519V25.5467V22.8732C130.505 22.2049 130.505 21.2023 130.505 20.1997V17.5262V13.8502V10.5083V9.50576C130.17 8.83739 130.17 7.83483 130.17 7.50064C130.17 7.16645 130.17 6.83227 129.836 6.83227C129.166 6.16389 128.497 5.16133 128.163 4.15877C128.163 3.82458 127.828 3.4904 127.828 3.4904C127.493 2.82202 126.489 2.48784 126.155 1.81946C125.82 1.48528 125.151 1.15109 124.816 1.48528C124.482 1.81946 124.147 1.48528 123.478 1.15109C123.143 1.15109 122.809 0.482715 122.139 1.15109C121.805 0.816902 121.805 0.816901 121.805 0.816901C121.135 0.482715 120.466 0.482715 119.797 0.482715H116.451H110.427C110.093 0.482715 110.093 0.482715 109.758 0.816901C109.423 1.15109 109.423 1.15109 109.089 0.482715C109.089 0.482715 108.754 0.482715 108.754 0.148528C108.42 0.148528 107.75 -0.185659 107.416 0.148528H107.081C106.077 0.148528 105.408 0.482715 104.739 0.482715H100.723H97.0422H92.692C92.3574 0.482715 92.0227 0.482715 91.3535 0.816901H90.6842H88.3418H85.6648H82.9878H80.3108H77.6337H74.9567H72.2797H69.9373H67.2603H63.5794H61.237H58.2253H55.8829H53.2059H49.525C49.1903 0.482715 49.1903 0.482715 48.8557 0.816901H48.1865H45.8441C45.5094 0.816901 45.5094 1.15109 45.1748 1.15109C44.1709 1.48528 43.5017 1.48528 43.5017 1.48528H40.1554H38.8169H37.4784C36.8091 1.81946 36.1398 2.15365 35.136 2.15365C34.8013 1.81946 34.4667 1.81946 33.7974 2.15365C33.1282 2.15365 32.4589 1.81946 31.7897 1.48528L31.455 1.15109C31.1204 1.15109 30.4512 1.15109 30.1165 1.48528H27.4395C26.4356 1.48528 25.4317 1.48528 24.4279 1.81946H22.0855H21.0816V2.15365C20.7469 2.48784 20.7469 2.48784 20.4123 2.15365C20.0777 1.81946 19.4084 1.48528 19.4084 1.48528C18.4046 1.81946 18.0699 1.81946 17.4007 1.81946C16.0622 1.81946 15.0583 1.81946 13.7198 2.15365C13.3851 2.15365 13.0505 1.81946 12.7159 1.81946H11.3774C11.0427 2.48784 10.7081 2.48784 10.3735 2.48784C10.0388 2.15365 10.0388 2.48784 9.70422 2.48784H8.70033C8.70033 2.48784 9.03496 2.82202 9.03496 3.15621C8.70033 3.15621 8.3657 2.82202 8.03108 2.82202V2.48784V2.15365C7.36182 2.48784 7.36182 2.48784 7.36182 2.82202C7.36182 3.15621 7.69645 3.4904 7.69645 3.4904C8.3657 3.4904 8.3657 3.4904 8.3657 3.82458C8.70033 4.15877 8.70033 4.49296 8.70033 4.49296V4.82715C8.70033 5.16133 8.3657 5.16133 8.3657 5.16133C8.03108 5.16133 8.03108 4.82715 8.03108 4.82715V4.49296H7.69645H7.36182C7.36182 4.82715 7.36182 4.82715 7.02719 5.16133C7.02719 4.82715 6.69256 4.82715 6.69256 4.82715C6.69256 4.49296 6.35794 4.49296 6.35794 4.15877H6.02331L4.35017 4.82715C4.01554 4.82715 4.01554 5.16133 4.01554 5.16133C3.68091 6.49808 3.01165 7.50064 2.3424 8.5032C2.00777 8.5032 2.00777 8.83739 2.00777 9.17158C1.33851 9.50576 1.33851 10.1741 0.669256 10.8425C0.334628 11.1767 0.334628 11.5109 0.334628 11.5109V12.1793C0.334628 13.1818 0.334628 14.1844 0 15.1869V15.5211V17.1921V19.8656V22.8732C0 23.2074 0 23.2074 0.334628 23.5416C0.669256 23.2074 0.669256 23.2074 0.669256 22.8732C0.669256 22.5391 1.00388 22.2049 1.00388 22.2049C1.00388 22.5391 1.00388 22.8732 1.33851 22.8732V23.2074C1.33851 23.5416 1.00388 23.8758 0.334628 23.5416C0.334628 23.2074 0 23.2074 0 23.2074C0 23.5416 0 23.8758 0 23.8758V26.5493V27.886V30.5595H0.669256C0.334628 30.8937 0.334628 30.8937 0 30.8937C0.334628 49.6082 0.334628 67.6543 0.334628 86.3688H0.669256C0.669256 87.0371 0.334628 87.0371 0.334628 87.0371C0 87.3713 0 87.7055 0 87.7055V89.3764V92.0499V94.7234V98.3995C0.334628 98.7337 0.334628 99.0679 0 99.0679C0 99.7362 0 99.7362 0.334628 100.405V100.739C0 101.407 0 101.407 0.334628 101.741C0.334628 102.076 0 101.741 0 102.076V105.752V109.762V113.438V117.448V118.785V120.456V123.129V126.471V127.474V130.147V132.821V135.494V138.168V140.841V144.851V147.525V150.867C0 151.201 0.334628 151.535 0.334628 151.869V153.54V155.211V156.882C0.334628 157.551 0.669256 157.551 0.669256 157.885V167.576C0.669256 168.245 1.00388 168.579 0.334628 169.247V169.915V170.918V172.589V175.597V178.27V180.944V183.951V186.625V189.298V192.306C0.334628 192.974 0 193.309 0.334628 193.643C0.669256 194.311 0.669256 195.314 1.00388 195.648C1.33851 196.316 2.00777 196.985 2.3424 197.653C2.3424 197.987 2.67703 198.321 2.67703 198.321C3.34628 198.656 3.34628 199.324 4.01554 199.658C4.35017 199.992 4.35017 200.327 4.68479 200.327C6.02331 200.327 7.02719 200.995 7.69645 201.663L8.3657 202.332C8.70033 202.332 8.70033 202.666 8.70033 202.666H10.3735H11.0427C11.3774 202.332 11.3774 202.332 11.712 202.666L12.0466 203H12.3812C12.7159 202.666 13.0505 202.666 13.3851 203C13.7198 203 13.7198 203 14.0544 202.666C14.389 202.666 14.389 203 14.389 202.666H15.7275C16.0622 202.666 16.7314 202.666 17.066 201.997C17.4007 202.666 18.0699 202.332 18.4046 202.666C18.7392 202.666 18.7392 202.332 19.0738 202.332C19.0738 201.997 19.4084 201.997 19.4084 201.997C19.7431 202.332 20.0777 202.332 20.4123 202.666H20.7469H23.424C23.7586 202.666 24.0932 202.666 24.0932 202.332C24.0932 201.997 24.4279 201.663 24.4279 201.663C24.7625 201.997 24.7625 202.332 25.4317 202.332C25.4317 202.666 25.7664 202.666 25.7664 202.666C26.7703 202.666 34.1321 202.332 34.4667 202.332C35.136 202.332 35.8052 201.997 36.4745 202.332C36.4745 202.666 36.8091 202.666 36.8091 202.666C37.1437 202.332 37.4784 202.332 38.1476 202.332C39.4861 202.332 40.49 202.666 41.4939 202.666H43.8363H46.8479C47.5172 202.666 48.5211 202.332 49.1903 202.332H50.1942H51.1981H52.202C52.5366 202.332 52.8713 202.666 53.2059 202.332C53.5405 201.997 53.5405 202.666 53.8751 202.332H54.2098H54.5444C54.879 202.666 55.5483 202.332 55.8829 202.332C56.2175 202.332 56.8868 201.997 57.2214 202.332H57.556H60.2331H62.5755H65.5871H68.2641H70.9412H73.6182C73.9528 201.997 74.2875 201.997 74.6221 202.332H74.9567H76.9645C78.303 202.332 79.3069 201.997 80.98 202.332C81.6493 202.332 82.6532 201.997 83.657 202.332C83.9917 202.332 83.9917 201.997 84.3263 201.663C84.6609 202.332 84.9956 202.332 85.6648 201.997L85.9994 201.329C85.9994 201.997 86.3341 201.997 86.6687 201.997H88.0072C89.3457 201.997 90.3496 202.332 91.3535 201.663C91.6881 201.663 91.6881 201.329 91.6881 201.329C92.0228 201.663 92.3574 201.329 92.692 201.663C92.692 201.997 93.0266 201.997 93.0266 201.997H95.369L95.7037 201.663C95.369 201.329 95.369 200.995 95.369 200.327C96.0383 200.327 96.0383 200.327 96.3729 200.995L96.7075 201.329C97.0422 201.663 97.0422 201.663 97.3768 201.329C97.7114 200.995 97.7114 200.995 98.0461 201.329V201.997C98.0461 202.332 98.0461 202.332 98.3807 202.332H101.058H102.396H104.069H104.739C105.073 201.663 104.404 201.329 104.404 200.995C104.739 200.327 104.739 200.327 105.408 200.661C105.408 200.995 105.743 201.329 105.743 201.329C105.743 201.329 106.077 201.329 106.077 201.663C105.743 201.663 105.743 201.997 105.743 202.332C106.412 202.332 107.081 201.997 107.081 201.663C107.081 201.663 107.081 201.329 107.416 201.329C107.416 201.329 107.416 201.663 107.75 201.663C108.085 201.997 108.42 202.332 109.089 202.332H112.435C113.439 202.332 114.777 202.332 115.781 201.997H116.116C116.451 201.329 116.785 201.663 117.454 201.663C117.789 201.997 118.124 201.997 118.793 201.997H122.139C122.474 201.997 123.143 201.663 123.812 201.663L124.147 201.329C124.482 200.995 125.151 200.661 125.486 200.661C125.82 200.661 125.82 200.661 125.82 200.327C125.82 199.992 125.82 199.658 126.155 199.992C126.489 199.992 126.824 199.658 127.159 199.324C127.493 198.656 127.493 198.656 127.828 198.656C128.163 198.656 128.163 198.656 128.163 198.99C128.497 198.99 128.497 198.99 128.832 198.656C129.166 197.987 129.501 197.653 129.836 196.985C130.17 196.65 130.17 196.316 130.505 196.316H130.84C131.174 195.648 131.509 195.648 131.174 194.645C131.509 194.311 131.844 193.977 131.844 193.643C131.509 192.974 131.844 192.64 131.844 191.972V191.303C132.178 191.303 132.178 190.969 132.178 190.635V187.962C132.178 187.293 132.178 186.959 132.513 186.291C132.513 185.288 132.513 184.62 132.847 183.617V183.283C132.513 183.283 132.513 183.283 132.513 183.617C133.517 184.62 132.847 184.286 133.851 183.951ZM56.8868 125.134C56.2175 125.803 56.2175 125.469 55.8829 125.803L55.5483 126.137C55.2136 126.805 54.2098 126.805 53.8751 127.474C53.5405 128.142 53.5405 128.476 53.2059 128.811C52.8713 129.479 52.202 129.813 51.8674 130.481L51.5327 130.816C51.1981 131.15 48.1865 132.487 48.1865 133.489C48.1865 134.157 47.8518 134.492 47.8518 135.16C47.5172 135.16 47.5172 135.494 47.5172 135.828C47.1826 136.497 47.1826 136.163 46.8479 136.497C46.5133 136.831 45.5094 138.168 44.5055 138.168C43.5017 137.499 43.5017 137.499 43.5017 137.834C43.5017 138.168 43.5017 138.168 43.167 138.502C43.167 139.17 42.8324 139.504 42.1632 140.173C41.8285 140.507 41.4939 140.841 41.1593 140.841C40.8246 141.51 41.1593 140.841 40.8246 141.175C40.49 141.844 40.49 141.844 39.8208 142.512C39.1515 143.515 39.1515 143.181 38.4822 144.183C38.1476 144.851 36.8091 145.52 36.1398 145.854C35.8052 146.522 35.8052 146.522 35.136 146.857C34.8013 147.191 34.4667 147.525 34.1321 147.859C33.7974 148.528 33.7974 148.528 33.4628 149.196C32.7936 149.864 32.1243 150.533 31.7897 151.201C31.7897 151.201 27.1049 155.88 26.7703 156.548C26.7703 156.882 26.4356 157.216 26.4356 157.216C26.101 157.885 23.0893 161.227 23.0893 161.895C22.7547 162.229 22.7547 162.563 22.4201 162.898C22.0855 162.898 22.0855 163.232 22.0855 163.232C22.0855 163.9 20.7469 165.905 20.7469 165.905C20.4123 166.239 20.4123 166.574 20.0777 167.242C16.3968 168.245 9.70422 171.921 6.02331 173.592C5.68868 169.915 11.3774 161.895 11.3774 160.892C11.3774 160.224 12.0466 159.89 11.712 159.89C10.7081 159.222 12.0466 159.556 12.3812 159.222L12.7159 158.219C13.0505 157.551 12.7159 156.548 13.3851 155.88C13.7198 155.88 13.7198 155.88 13.7198 155.545C14.0544 154.877 14.0544 154.209 14.389 153.54C14.7236 153.206 14.7236 152.872 15.0583 152.872C15.3929 152.872 15.3929 152.538 15.3929 152.538C15.7275 151.869 15.3929 151.201 15.7275 150.867C16.0622 150.867 16.0622 150.533 16.0622 150.533C16.3968 150.198 16.3968 149.864 16.3968 149.864V149.53V148.862C16.7314 148.193 16.7314 148.193 17.066 147.859C17.066 147.859 17.4007 147.191 17.7353 146.857H18.0699L18.4046 146.522C18.4046 146.522 18.0699 146.522 18.0699 146.188C18.0699 146.188 18.0699 145.854 18.4046 145.854C18.4046 145.52 18.7392 145.186 18.7392 145.186C18.4045 145.186 18.7392 144.851 18.7392 144.517L19.4084 144.183V143.849V144.183C19.7431 143.849 19.7431 143.515 20.4123 142.846C20.7469 142.178 20.7469 142.178 21.0816 141.51C21.4162 140.841 21.4162 140.507 21.7508 139.839C22.0855 139.17 22.4201 138.836 22.7547 138.168C23.0893 137.499 23.0893 137.499 23.7586 136.831C24.0932 136.163 24.0932 135.828 24.7625 135.16C25.0971 134.826 25.0971 134.492 25.0971 134.158C25.0971 133.823 25.0971 133.823 25.4317 133.489C25.7664 133.489 25.7664 133.155 26.101 132.821C26.101 132.821 26.4356 132.487 26.101 132.152C25.7664 132.821 25.7664 132.821 25.0971 132.487C24.7625 132.152 24.7625 131.818 25.0971 131.818C25.4317 131.484 25.4317 131.484 25.7664 131.484C26.101 131.818 26.101 131.818 26.4356 131.484V131.15C26.7703 131.15 26.7703 130.816 27.1049 130.816C27.1049 130.481 27.1049 130.147 27.4395 130.147C27.7741 130.147 27.7741 130.147 27.7741 129.813C28.1088 129.813 28.1088 129.479 28.1088 129.145V128.811C28.4434 128.476 28.4434 128.142 28.4434 128.142C28.778 127.474 28.778 127.474 28.778 126.805C29.4473 128.142 29.7819 127.808 30.1165 127.474C30.1165 127.474 30.4512 127.474 30.4512 127.14C30.7858 126.805 30.7858 126.805 30.4512 126.471C30.1165 126.137 30.1165 126.137 30.4512 125.803C30.4512 125.469 30.7858 125.134 30.7858 125.134C31.1204 125.134 31.455 125.134 32.1243 125.469C31.7897 124.8 32.4589 124.8 32.4589 123.798H31.7897C31.455 123.798 31.455 123.464 31.455 123.129C31.455 122.795 31.7897 122.461 31.7897 122.461C32.4589 122.461 32.1243 121.793 32.4589 121.793C32.7936 121.793 32.4589 121.458 32.4589 121.458C32.7936 121.124 32.7936 121.124 32.7936 121.124C32.7936 120.79 33.1282 120.79 33.1282 120.79C33.4628 120.79 33.4628 120.456 33.4628 120.122V119.453H34.4667C34.4667 119.119 34.1321 118.785 34.4667 118.785C34.4667 118.451 34.8013 118.451 34.8013 118.117C34.8013 118.451 35.136 118.451 35.136 118.451C35.4706 118.117 35.4706 118.117 34.8013 117.782C34.8013 117.114 35.136 117.114 35.4706 117.114C35.4706 116.78 35.4706 116.446 35.8052 116.446C35.8052 116.446 36.1398 116.446 36.1398 116.111C36.1398 115.443 36.4745 115.443 36.8091 115.109C37.1437 114.775 37.1437 114.44 37.1437 114.44C37.4784 114.106 37.4784 114.106 37.813 113.772V113.438C37.813 113.104 37.813 112.77 38.1476 112.77C38.4822 112.77 38.4822 112.435 38.4822 112.101C38.4822 111.767 38.8169 111.433 38.8169 111.433C38.8169 111.433 39.1515 110.764 39.4861 110.764C39.8208 110.764 39.8208 110.764 39.8208 111.099C40.1554 110.096 41.1593 109.428 41.4939 108.425C41.8285 108.425 41.8285 108.091 41.8285 108.091C42.1632 107.757 42.1632 107.757 42.1632 107.423C42.1632 107.088 42.4978 107.088 42.4978 107.088V106.754H42.8324C43.167 106.42 43.167 106.086 43.5017 105.752V107.423C43.5017 106.754 43.8363 106.754 43.8363 106.42C44.1709 106.086 44.1709 105.752 44.1709 105.752C44.1709 105.417 44.5055 105.417 44.5055 105.417C44.5055 105.417 44.8402 105.417 44.8402 105.083C45.1748 104.749 45.1748 104.415 45.1748 104.415C45.5094 104.415 45.5094 103.746 45.5094 103.746C45.8441 103.412 46.8479 103.412 46.8479 103.412C46.8479 103.078 47.8518 102.744 47.8518 102.744C47.5172 102.076 48.8557 101.741 48.8557 101.407L49.525 100.739H50.1942C50.5289 100.739 50.5289 100.405 50.5289 100.405C50.8635 100.07 50.8635 100.405 51.1981 100.405C51.5327 100.07 51.5327 99.7362 51.8674 99.7362C52.202 99.7362 52.202 99.0679 52.8713 99.0679C53.2059 99.4021 53.2059 99.7362 53.2059 99.7362C54.5444 99.0679 54.5444 99.0679 56.2175 99.7362V99.4021V99.7362V100.07H56.5522C56.8868 100.07 57.556 100.405 57.8907 100.739C58.2253 101.407 58.2253 102.41 58.2253 103.078H58.5599C58.8946 103.412 58.8946 103.746 58.8946 103.746C58.8946 104.415 59.2292 104.749 59.2292 105.417V106.086L59.5638 106.42V106.754C59.5638 107.423 59.5638 107.423 59.8984 108.091V108.425C60.2331 108.759 60.2331 109.093 60.2331 109.093L60.5677 109.762C60.9023 110.096 60.9023 110.43 60.9023 110.764C60.9023 111.099 61.237 111.433 61.237 111.767C61.237 112.435 61.5716 112.435 61.5716 113.104V114.106V114.44C61.237 114.775 61.237 115.109 61.237 115.443C60.9023 115.777 60.9023 115.777 60.9023 116.111C61.237 116.446 60.9023 116.78 60.9023 116.78C60.5677 117.448 60.2331 117.782 59.5638 118.451V118.785C59.2292 119.453 58.8946 119.453 58.2253 119.787C57.8907 119.787 57.8907 120.122 57.556 120.456C57.556 120.79 57.556 120.79 57.2214 121.124C57.2214 121.458 57.2214 121.458 56.8868 121.793C56.5522 121.793 56.5522 122.127 56.2175 122.461C55.8829 122.795 55.5483 123.129 55.2136 123.464C54.879 123.798 54.879 124.132 54.879 124.132C57.556 124.132 57.556 124.8 56.8868 125.134ZM94.6998 110.43C94.3651 111.099 94.3652 113.104 94.3652 115.443V115.109C94.6998 119.119 93.6959 123.129 92.3574 126.805V127.474V129.145C92.0228 129.479 92.0228 129.813 92.0228 130.481L91.6881 130.816C91.3535 131.484 91.3535 131.818 90.6842 132.152V132.821C90.6842 133.489 90.3496 133.489 90.3496 133.823C90.015 134.492 89.3457 135.494 89.0111 135.828C88.6765 136.497 88.3418 136.831 88.0072 136.831C87.6726 137.165 87.6726 137.499 87.6726 137.499C87.6726 137.499 87.338 138.168 87.0033 138.168C87.0033 138.168 86.6687 138.168 86.6687 138.502C86.3341 139.17 85.6648 139.504 85.3302 140.173C84.9956 140.173 84.9956 140.507 84.9956 140.841C84.6609 140.841 84.6609 140.841 84.6609 141.175C84.6609 141.175 84.9956 141.51 84.9956 141.844C82.9878 143.849 81.3147 146.188 79.3069 147.525C78.9723 147.525 78.9723 147.859 78.9723 147.859C78.6376 147.859 78.6376 148.193 78.6376 148.193C78.303 148.193 78.303 148.528 78.303 148.528L77.9684 149.196V149.53C77.6337 149.864 77.6337 149.864 77.6337 150.198C77.6337 150.533 77.2991 150.867 77.2991 150.867C76.9645 150.867 76.9645 151.201 76.9645 151.201C76.6299 151.535 76.6299 151.535 76.6299 151.869H76.2952C76.2952 152.204 75.9606 152.538 75.9606 152.538C75.9606 152.538 75.626 153.206 75.2913 153.54C75.2913 153.54 75.2913 153.875 74.9567 153.875C74.9567 154.209 74.6221 154.209 74.6221 154.543C74.2875 154.877 74.2875 155.211 73.9528 155.211V155.545C73.6182 155.88 73.6182 156.214 73.6182 156.214L73.2836 156.548C73.2836 156.882 72.9489 156.882 72.9489 157.216L72.6143 157.551H72.2797C72.2797 157.885 71.9451 158.219 71.9451 158.219L71.6104 158.887C71.6104 159.222 71.2758 159.222 71.2758 159.556C71.2758 159.89 71.2758 159.89 70.9412 160.224V157.551C70.6065 157.551 70.9412 158.219 70.6065 158.219C70.6065 158.219 70.2719 158.553 70.2719 158.887C69.9373 158.887 69.9373 159.222 69.9373 159.556L69.6027 159.89C69.6027 159.89 69.6027 160.224 69.268 160.558C69.268 160.558 69.268 160.892 68.9334 160.892C68.9334 161.227 68.5988 161.227 68.5988 161.561C68.2641 161.895 68.2641 162.229 68.2641 162.563L67.9295 162.898V163.566H67.5949H67.2603H66.9256C66.591 163.566 66.591 163.566 66.591 163.9V164.234C66.591 164.569 66.591 164.903 66.2564 164.903C66.2564 165.237 65.9218 165.237 65.9218 165.571V164.234H65.5871C65.2525 164.569 65.2525 164.569 65.2525 164.903V165.905V166.574C65.2525 166.574 65.5871 166.574 65.2525 166.908C65.2525 167.242 65.2525 167.576 65.5871 167.576C65.9218 168.245 65.5871 168.245 65.2525 169.247V169.915C64.9179 170.25 64.5832 170.584 64.2486 171.252C63.914 171.921 63.914 171.921 63.914 172.589C63.914 172.923 63.914 173.257 63.5794 173.257C63.5794 173.257 63.2447 173.257 63.2447 172.923L62.9101 172.589C62.5755 172.923 62.9101 172.923 62.9101 173.257C62.2408 173.926 62.5755 173.926 62.5755 174.594C62.2408 175.262 61.5716 175.597 61.237 176.265C60.2331 176.599 59.8984 175.931 59.8984 175.262C59.8984 174.928 60.2331 174.594 59.8984 174.26L60.2331 173.926C60.2331 173.257 60.2331 173.257 59.8984 173.257C60.2331 172.589 60.2331 172.589 60.2331 171.921C60.2331 171.252 60.2331 171.252 59.8984 170.918C60.2331 170.584 60.2331 170.25 60.2331 169.915V169.581V168.913C60.2331 168.579 60.5677 168.245 60.2331 168.245C60.2331 168.245 60.2331 167.91 59.8984 167.576V167.242C60.2331 166.574 59.8984 166.239 60.2331 165.571C60.2331 165.237 59.8984 165.237 59.8984 164.903C59.8984 164.903 59.5638 164.568 59.8984 164.568C59.8984 163.9 59.5638 163.566 59.8984 163.232C59.8984 162.563 59.5638 162.229 59.8984 161.561C59.8984 161.227 59.8984 160.892 59.5638 160.892C59.5638 160.558 59.5638 160.224 59.8984 159.556V159.222C59.5638 158.553 59.8984 158.219 59.8984 157.551C59.5638 156.882 59.5638 156.548 59.5638 155.88V154.209C59.2292 153.54 59.2292 152.538 59.2292 151.535V150.867C58.8946 150.198 58.8946 149.864 58.8946 149.53C59.2292 149.196 59.2292 148.862 59.2292 148.862C59.2292 145.186 59.5638 143.181 59.5638 144.183C59.5638 146.188 60.9023 141.844 62.2408 139.504L62.9101 144.183C65.2525 140.841 68.2641 137.499 71.2758 134.158C71.9451 133.155 72.6143 132.152 72.9489 131.15C73.6182 130.481 74.2875 130.147 74.9567 129.479H73.6182C74.2875 128.142 78.6376 124.466 81.6493 117.448C81.6493 116.78 83.9917 111.767 83.9917 111.767C84.3263 110.43 84.3263 109.428 84.6609 108.425C84.6609 108.425 85.3302 107.757 84.9956 107.757V107.088C85.6648 105.417 85.9994 105.083 86.3341 103.746C87.0033 102.076 86.6687 101.407 86.6687 101.407C87.0033 100.739 89.0111 99.0679 89.3457 98.3995C89.6804 97.7311 89.6804 97.7311 90.3496 97.3969C90.3496 97.0627 90.6842 96.7286 91.0189 96.7286C91.0189 97.0627 91.3535 97.7311 91.3535 98.0653C92.0227 99.7362 92.692 100.739 93.3613 102.076V103.078C93.6959 103.746 93.6959 104.749 93.6959 105.417V107.088C93.3613 107.757 93.6959 107.757 93.6959 108.425V110.43H94.6998ZM95.7037 83.6953C95.7037 83.6953 95.369 84.0294 95.369 84.3636L95.0344 84.0294C95.369 84.3636 95.369 84.3636 95.0344 84.6978V85.032C94.6998 85.3662 94.6998 85.7004 94.3652 85.7004C94.0305 85.7004 94.0305 85.7004 94.0305 86.0346C94.0305 86.0346 94.0305 86.3688 93.6959 86.7029C93.6959 87.0371 93.6959 87.3713 94.0305 87.3713V87.7055H93.6959C93.3613 87.7055 93.3613 88.0397 93.3613 88.0397C93.0266 88.3739 93.0266 88.3739 93.0266 88.7081C93.0266 89.0423 92.692 89.3764 92.692 89.3764C92.692 89.3764 92.692 89.7106 92.3574 89.7106C92.0228 90.0448 92.0228 90.379 92.0228 90.379C92.0228 90.379 92.0228 91.0474 91.6881 91.0474C91.6881 91.7158 91.3535 91.7158 91.3535 92.3841C91.3535 92.3841 91.3535 92.7183 91.0189 92.7183C90.6842 93.0525 90.6842 93.3867 90.6842 93.3867C90.3496 94.0551 90.015 94.7234 89.6804 95.0576C89.3457 95.3918 89.3457 95.726 89.0111 95.726V96.0602C88.6765 96.0602 88.6765 96.3944 88.6765 96.3944C88.3418 96.7286 88.3418 97.0627 88.3418 97.0627V97.3969C88.0072 97.3969 88.0072 97.3969 88.0072 97.7311C88.0072 98.0653 87.6726 98.0653 87.6726 98.3995C87.338 98.0653 87.338 98.0653 87.338 98.0653V98.3995C87.0033 98.7337 87.0033 99.0679 87.0033 99.0679H86.6687C86.3341 99.7362 85.9994 101.073 85.3302 101.073V101.407L84.9956 102.076C83.657 104.081 81.6493 106.42 80.3108 107.757H79.9761V108.091C79.9761 108.425 79.9761 108.425 79.6415 108.425C79.6415 108.759 79.6415 108.759 79.3069 108.759C79.3069 109.093 79.3069 109.093 78.9723 109.093C78.9723 109.428 78.6376 109.762 78.6376 109.762C78.303 109.762 78.303 110.096 78.303 110.43C78.303 110.43 78.6376 110.764 78.303 110.764C77.9684 110.764 77.9684 111.099 77.9684 111.433C77.6337 111.433 77.6337 111.767 77.6337 111.767C77.2991 112.435 77.2991 112.435 76.9645 112.77C76.9645 113.104 76.6299 113.104 76.2952 113.438C76.2952 113.104 76.2952 113.104 75.9606 112.77C75.9606 112.77 75.626 112.77 75.626 113.104C74.9567 113.438 74.2875 113.438 73.6182 113.438H72.2797C71.9451 113.104 71.9451 113.104 71.6104 112.77C71.2758 112.77 70.6065 112.77 70.2719 112.435C69.9373 112.101 69.9373 111.767 69.6027 111.767H69.268C68.9334 111.767 68.2641 111.767 67.9295 111.099C67.9295 111.099 65.5871 107.757 65.5871 107.423C65.9218 106.754 65.5871 107.423 65.2525 106.754V106.086C64.9179 105.752 63.914 106.086 64.2486 105.417C63.914 105.083 63.914 104.749 63.914 104.749C63.5794 104.081 63.2447 103.746 63.2447 103.078H62.9101C62.9101 102.744 62.5755 102.41 62.9101 102.41C62.9101 102.076 62.5755 101.741 62.5755 101.741C62.2408 101.407 62.2408 101.073 62.2408 100.739V100.405C61.9062 99.7362 61.5716 99.7362 61.9062 99.0679C61.9062 99.0679 61.9062 98.7337 61.5716 98.7337C61.5716 98.0653 61.237 97.7311 60.9023 97.0627L60.5677 96.7286C60.5677 96.3944 60.2331 96.0602 60.2331 96.0602L59.2292 95.3918C59.2292 95.3918 59.2292 95.0576 58.8946 95.0576C58.5599 94.7234 58.5599 94.3892 58.5599 94.0551C58.5599 94.0551 58.5599 93.7209 58.2253 93.7209V93.0525C57.8907 92.7183 57.8907 92.7183 57.556 92.3841C57.2214 92.0499 57.2214 91.7158 57.2214 91.0474C57.2214 91.0474 57.2214 90.379 56.8868 90.379C56.5522 89.7106 56.2175 89.7106 56.5522 89.0423V88.7081C54.5444 87.3713 54.5444 87.3713 54.5444 87.3713L54.2098 86.7029L53.5405 86.3688C53.5405 86.0346 53.5405 85.7004 53.2059 85.7004C53.2059 85.3662 52.8713 85.3662 52.8713 85.032C52.5366 85.032 52.202 84.0294 51.8674 84.0294C51.5327 83.3611 51.5327 82.3585 51.5327 81.356L53.8751 77.3457C54.2098 76.6773 54.2098 76.3431 55.2136 75.3406C56.5522 74.6722 57.2214 75.0064 58.8946 75.3406C59.2292 76.009 59.5638 76.3431 60.2331 77.0115C60.2331 77.3457 60.5677 77.3457 60.5677 77.6799C60.5677 78.0141 60.9023 78.0141 60.9023 78.3483C61.237 78.6825 61.237 79.0166 61.237 79.0166C61.237 79.0166 61.5716 79.0166 61.5716 79.3508C61.5716 80.0192 61.9062 80.3534 61.9062 80.6876C61.9062 81.0218 63.5794 80.3534 63.5794 80.6876C63.5794 80.6876 63.5794 81.0218 63.914 81.0218C64.2486 81.0218 64.2486 81.3559 64.2486 81.6901C64.5832 82.0243 64.5832 82.3585 64.5832 82.3585C64.5832 82.3585 64.9179 83.0269 64.9179 83.3611C64.9179 83.6953 65.2525 83.6953 65.2525 84.0294C65.5871 84.0294 65.5871 84.0294 65.5871 84.3636C65.2525 83.6953 65.2525 83.3611 65.2525 83.3611C62.9101 78.6825 64.9179 74.6722 63.914 72.6671V71.9987C65.2525 69.3252 68.2642 67.3201 72.2797 66.3175H72.6143H74.9567C75.626 66.3175 76.2952 66.3175 76.9645 66.9859C77.6337 67.3201 78.303 67.6543 78.6376 67.6543C79.3069 67.3201 80.3108 66.9859 80.98 68.3227C81.3147 68.991 81.9839 69.6594 82.3185 69.9936C83.657 70.9962 83.3224 72.6671 83.657 74.0038C83.657 75.6748 83.3224 79.685 83.3224 81.356C82.9878 82.3585 82.6532 83.3611 81.9839 84.6978H81.6493C80.6454 84.3636 80.6454 87.3713 79.3069 87.3713C77.2991 88.0397 73.9528 89.3764 71.9451 90.0448H71.6104C70.9412 89.3764 69.6027 89.0423 68.5988 88.3739C68.5988 88.7081 68.9334 88.7081 68.9334 89.0423C69.268 89.3764 69.6027 89.7106 69.6027 90.379V91.0474C69.9373 91.3816 69.9373 91.7158 69.9373 91.7158C69.9373 92.0499 70.2719 92.0499 70.2719 92.3841C70.6065 93.0525 70.6065 93.7209 70.9412 94.0551C71.2758 94.3892 71.2758 94.7234 71.2758 95.0576C71.2758 95.3918 71.6104 95.726 71.6104 95.726C71.9451 95.726 71.9451 96.0602 71.9451 96.0602H72.2797C72.6143 96.0602 72.9489 96.0602 73.2836 95.726C73.6182 95.3918 73.6182 95.0576 74.2875 95.0576C74.2875 95.0576 74.2875 94.7234 74.6221 94.7234C74.6221 94.7234 74.9567 94.7234 74.9567 94.3893C75.2913 94.3893 75.2913 94.0551 75.2913 93.7209C75.2913 93.3867 76.6299 92.3841 76.6299 92.3841C76.6299 92.3841 76.9645 92.3841 76.9645 92.7183V92.3841C77.2991 92.0499 77.2991 92.0499 77.2991 92.0499C77.2991 91.7158 77.6337 91.7158 77.6337 91.7158C77.9684 91.7158 77.9684 91.3816 77.9684 91.3816C77.9684 91.3816 78.303 91.3816 78.303 91.0474C78.303 90.7132 78.6376 90.7132 78.6376 90.379C78.6376 90.0448 78.9723 90.0448 78.9723 89.7106H79.3069C79.6415 89.7106 79.6415 89.7106 79.6415 89.3764C79.9761 89.3764 79.9761 89.0423 79.9761 89.0423C79.9761 88.7081 80.3108 88.7081 80.3108 88.3739C80.6454 88.3739 80.6454 88.3739 80.6454 88.0397C80.98 87.7055 80.98 87.7055 80.98 87.7055L81.3146 87.3713C81.6493 87.0371 81.6493 87.0371 81.6493 86.7029C83.657 87.3713 83.657 87.3713 83.657 87.3713C83.9917 87.7055 83.9917 87.7055 83.9917 87.3713C83.657 87.0371 83.657 87.0371 83.657 86.7029L83.9917 87.0371L84.3263 86.7029V86.3688H84.6609C84.6609 86.0346 84.9956 86.0346 84.9956 85.7004C84.6609 85.7004 84.9956 85.3662 85.3302 85.3662H85.6648C85.3302 85.3662 85.3302 85.032 85.3302 85.032C85.6648 85.032 85.6648 84.6978 85.6648 84.6978L85.9994 84.3636C85.9994 84.0294 85.9994 84.0294 85.6648 84.0294C85.3302 83.3611 85.9994 83.3611 85.6648 83.3611C85.9994 83.3611 85.9994 83.3611 86.3341 83.6953C86.3341 83.3611 86.6687 83.3611 86.6687 83.0269V82.6927C86.3341 82.6927 86.3341 82.6927 86.6687 82.3585H87.0033C87.0033 82.0243 87.338 81.6901 87.338 81.6901C87.338 81.3559 87.338 81.0218 87.6726 81.0218C87.6726 80.6876 88.0072 80.6876 88.0072 80.3534C88.3418 80.0192 88.6765 80.0192 89.0111 79.685C89.0111 80.0192 89.0111 80.0192 89.0111 79.685C89.3457 79.3508 89.3457 79.3508 89.3457 79.3508C89.3457 79.0166 90.6842 78.0141 90.6842 78.0141C91.0189 78.0141 91.0189 77.6799 91.0189 77.6799C91.0189 77.3457 91.3535 77.3457 91.3535 77.0115C91.6881 76.6773 96.0383 71.9987 96.3729 71.9987H96.7075C97.0422 71.6645 97.0422 71.6645 97.7114 71.9987C97.7114 72.3329 97.7114 72.3329 98.0461 71.9987H98.3807C98.3807 71.9987 98.7153 71.6645 98.7153 71.9987C99.0499 71.9987 99.0499 71.9987 99.3846 72.3329H99.7192C100.054 71.9987 100.054 71.9987 100.723 72.3329C101.727 74.0038 95.7037 83.3611 95.7037 83.6953ZM123.812 29.8912C123.478 31.2279 123.478 30.5595 122.809 31.5621H122.474C122.139 31.8963 122.139 32.2305 122.139 32.2305H121.805C121.805 32.2305 121.47 32.2305 121.47 32.5647C121.135 32.5647 121.47 32.8988 121.805 32.8988C121.47 33.233 121.47 33.5672 121.47 33.5672C121.135 33.5672 121.135 33.9014 121.135 33.9014L120.466 35.2382C120.132 35.5723 120.132 36.5749 119.797 36.5749C119.797 36.9091 120.132 36.9091 120.132 37.2433H119.797C119.462 37.9117 119.462 37.9117 119.462 38.58C119.462 38.58 119.128 38.58 119.128 38.9142C118.793 39.2484 118.793 39.5826 118.124 39.9168V40.251C117.789 40.9193 117.12 41.9219 116.785 41.9219L116.451 43.5928C116.116 43.927 116.116 44.2612 115.781 44.5954C115.447 44.9296 115.112 45.598 114.777 46.2663C113.774 45.9321 113.774 45.9321 113.774 46.6005L113.439 47.2689C113.104 47.6031 113.104 47.9373 113.104 47.9373V48.2715C112.77 48.6056 112.77 48.9398 112.435 48.9398C112.435 49.6082 112.1 49.274 112.1 49.274C111.766 50.2766 111.766 50.2766 111.097 50.2766V50.9449V51.2791C110.762 51.9475 110.427 52.2817 109.758 52.9501C109.423 53.6184 109.089 54.2868 108.754 54.621C108.42 55.2894 108.42 56.9603 108.085 56.6261C107.75 56.6261 107.75 56.9603 107.416 56.9603C107.416 57.2945 107.081 57.2945 107.081 57.2945C106.746 57.2945 106.412 57.9629 106.412 58.2971C106.412 58.6312 106.077 58.9654 106.077 59.2996C105.743 59.6338 105.743 59.968 105.743 60.3022C105.408 60.9706 105.408 61.3047 105.073 61.3047C104.739 61.3047 104.739 61.6389 104.739 61.9731C104.404 62.6415 104.404 62.9757 104.069 63.644C103.735 64.6466 103.065 65.315 102.396 66.3175C102.062 66.6517 102.062 66.9859 101.727 67.3201C101.727 67.9885 101.392 68.3227 101.392 68.991C100.388 68.3227 100.388 68.3227 100.388 68.3227C99.3846 69.9936 98.3807 71.6645 97.0422 73.0013H96.7075C96.3729 73.6697 96.3729 73.6697 96.0383 74.338C95.0344 75.3406 94.0305 76.6773 92.692 77.6799C92.3574 78.0141 91.3535 78.3483 91.3535 78.0141C91.0189 77.3457 90.6842 77.0115 90.015 77.0115C90.015 76.3431 90.015 76.3432 89.6804 76.3432C89.3457 76.3432 89.0111 76.3431 88.3418 76.6773C88.0072 76.6773 88.0072 75.0064 88.3418 74.6722C88.0072 74.6722 87.6726 75.0064 87.338 75.0064C87.0033 75.3406 86.6687 75.0064 86.6687 74.6722C86.3341 74.0038 86.3341 73.3355 85.6648 73.0013L85.3302 72.6671C85.3302 72.6671 85.3302 72.3329 84.9956 72.3329C84.6609 69.9936 83.9917 69.6594 83.657 69.6594C83.3224 69.9936 83.657 69.6594 83.657 69.6594C83.9917 69.3252 84.3263 68.6568 84.9956 66.6517C85.3302 66.9859 85.6648 67.3201 85.9994 67.3201C86.3341 66.9859 90.3496 61.6389 90.6842 61.6389C91.0189 61.3047 100.054 47.9373 100.388 47.6031C100.388 47.2689 100.723 47.2689 100.723 46.9347C100.723 46.6005 101.058 46.2663 101.058 46.2663C101.392 46.2663 101.392 46.2663 101.392 45.9321C101.727 45.2638 102.062 45.2638 102.396 44.9296C102.731 44.2612 103.065 44.2612 103.4 43.927C103.735 43.5928 104.739 40.5851 105.073 40.5851C105.743 40.251 106.412 38.2458 106.746 37.9117C107.081 37.5775 107.081 37.5775 107.081 37.2433C107.416 36.9091 107.416 36.5749 107.75 36.9091C107.416 36.5749 107.416 36.2407 107.416 36.2407C107.75 36.2407 108.42 35.5723 108.42 35.2382V34.904C108.754 34.5698 108.754 34.5698 109.089 34.2356C109.423 34.2356 109.423 34.2356 109.423 33.9014C109.423 33.233 109.758 33.233 109.758 32.8988C110.093 32.8988 110.093 32.5647 110.093 32.5647C110.427 31.8963 110.427 31.2279 111.097 30.8937V31.8963C111.431 31.8963 111.431 31.5621 111.431 31.5621C111.766 31.5621 112.1 31.2279 112.1 30.8937C113.439 30.5595 113.774 30.5595 113.774 30.5595C114.108 30.2254 114.108 30.2254 114.108 29.8912C114.108 29.557 115.112 27.2177 115.447 27.2177C116.116 27.2177 116.785 25.5467 116.785 24.8784C118.458 22.5391 117.789 22.2049 117.789 22.2049H118.124C118.124 21.8707 118.458 20.5339 118.793 20.5339C118.793 20.1997 119.128 20.1997 119.128 19.8656C119.462 19.8656 119.462 19.5314 119.462 19.1972C119.462 19.1972 120.132 17.1921 120.466 17.1921C120.801 17.5262 120.801 17.5262 121.135 17.8604C121.47 18.1946 121.47 18.5288 121.805 18.5288C121.805 18.863 122.139 18.863 122.139 18.863C122.474 19.1972 122.474 20.1997 122.474 20.1997L122.809 20.5339C123.812 20.5339 123.812 20.5339 123.812 20.8681C123.478 23.5416 124.816 25.5467 124.482 28.5544C124.482 28.8886 124.816 28.8886 123.812 29.8912Z"
     fill="#D50032"
     id="path2" />
</svg>
